<svg width="32" height="32" viewBox="0 0 32 32" fill="none" xmlns="http://www.w3.org/2000/svg">
<path d="M10.6147 8.99583C7.88271 9.75808 6.0835 11.0568 6.0835 12.5306C6.0835 14.8795 10.6529 16.7835 16.2912 16.7835C21.9295 16.7835 26.499 14.8795 26.499 12.5306C26.499 10.8802 24.8477 9.55168 21.5497 8.84668" stroke="#333333" stroke-width="1.5" stroke-miterlimit="10" stroke-linecap="round" stroke-linejoin="round"/>
<path d="M10.3332 9.3335C9.33317 9.66683 8.8418 10.1265 8.8418 10.8114C8.8418 12.1665 12.1832 13.2752 16.3056 13.2752C20.4279 13.2752 23.7693 12.1665 23.7693 10.8114C23.7693 10.0317 22.9038 9.29509 21.1984 8.84668" stroke="#333333" stroke-width="1.5" stroke-miterlimit="10" stroke-linecap="round" stroke-linejoin="round"/>
<path d="M13.6739 7.28012C13.4966 7.07748 13.2766 6.91541 13.0292 6.80522C12.7818 6.69504 12.513 6.6394 12.2415 6.64219C11.2456 6.64219 10.4307 7.37499 10.4307 8.27791C10.4307 9.18083 11.2406 9.91363 12.2415 9.91363C12.4536 9.91361 12.6643 9.87992 12.8656 9.81385" stroke="#333333" stroke-width="1.5" stroke-miterlimit="10" stroke-linecap="round" stroke-linejoin="round"/>
<path d="M16.56 8.36122C17.1459 8.07169 17.5359 7.55644 17.5359 6.96922C17.5359 6.0663 16.6147 5.3335 15.4778 5.3335C14.3408 5.3335 13.418 6.0663 13.418 6.96922" stroke="#333333" stroke-width="1.5" stroke-miterlimit="10" stroke-linecap="round" stroke-linejoin="round"/>
<path d="M20.6785 8.14408C20.7885 7.97536 20.8464 7.78741 20.8472 7.59642C20.8472 6.73514 19.6544 6.03614 18.1816 6.03614C17.8962 6.03573 17.6118 6.06244 17.334 6.11571" stroke="#333333" stroke-width="1.5" stroke-miterlimit="10" stroke-linecap="round" stroke-linejoin="round"/>
<path d="M20.3364 10.9546C21.0531 10.7187 21.5498 10.2085 21.5498 9.61864C21.5498 8.80466 20.6058 8.14404 19.4419 8.14404" stroke="#333333" stroke-width="1.5" stroke-miterlimit="10" stroke-linecap="round" stroke-linejoin="round"/>
<path d="M6.08353 12.5308L2.81207 20.6668C2.70624 20.9199 2.6571 21.1926 2.66799 21.4661C2.67887 21.7397 2.74953 22.0077 2.87515 22.2519C4.14821 24.6384 9.6803 26.4344 16.2913 26.4344C22.9022 26.4344 28.4343 24.6351 29.7074 22.2519C29.833 22.0077 29.9036 21.7397 29.9145 21.4661C29.9254 21.1926 29.8763 20.9199 29.7704 20.6668L26.499 12.5308" stroke="#333333" stroke-width="1.5" stroke-miterlimit="10" stroke-linecap="round" stroke-linejoin="round"/>
</svg>
