<svg width="50" height="50" viewBox="0 0 50 50" fill="none" xmlns="http://www.w3.org/2000/svg">
<path d="M47.6564 15.6249H46.0939C45.3719 15.6191 44.6588 15.7828 44.0117 16.1031C43.3647 16.4233 42.802 16.8911 42.3688 17.4687C42.3688 17.4687 38.1946 22.464 38.072 22.6562H35.1563C34.5347 22.6562 33.9386 22.9031 33.4991 23.3426C33.0595 23.7822 32.8126 24.3783 32.8126 24.9999C32.8149 25.4037 32.9226 25.7998 33.1251 26.1491C32.6582 26.4406 32.3098 26.8881 32.1417 27.4122C31.9737 27.9363 31.9968 28.503 32.2071 29.0116C31.6592 29.1564 31.1828 29.496 30.8672 29.9668C30.5516 30.4376 30.4185 31.0073 30.4927 31.5692C30.567 32.1311 30.8435 32.6466 31.2706 33.0193C31.6976 33.3919 32.2458 33.5961 32.8126 33.5937H37.5001C37.6094 33.5937 37.7174 33.5708 37.8173 33.5265L44.8485 30.4015C45.0144 30.3279 45.1495 30.1989 45.2306 30.0366L48.3556 23.7866C48.4096 23.6782 48.4377 23.5586 48.4376 23.4374V16.4062C48.4376 16.199 48.3553 16.0002 48.2088 15.8537C48.0623 15.7072 47.8636 15.6249 47.6564 15.6249ZM35.1563 24.2187H37.5907C37.5959 24.775 37.7625 25.3178 38.0704 25.7812H35.1563C34.9491 25.7812 34.7504 25.6988 34.6039 25.5523C34.4574 25.4058 34.3751 25.2071 34.3751 24.9999C34.3751 24.7927 34.4574 24.594 34.6039 24.4475C34.7504 24.301 34.9491 24.2187 35.1563 24.2187ZM34.3751 27.3437H37.9579L36.3954 28.9062H34.3751C34.1679 28.9062 33.9692 28.8238 33.8227 28.6773C33.6762 28.5308 33.5938 28.3321 33.5938 28.1249C33.5938 27.9177 33.6762 27.719 33.8227 27.5725C33.9692 27.426 34.1679 27.3437 34.3751 27.3437ZM46.8751 23.253L43.9579 29.0874L37.3345 32.0312H32.8126C32.6983 32.0313 32.5854 32.0064 32.4818 31.9582C32.3782 31.91 32.2865 31.8396 32.213 31.7521C32.1396 31.6646 32.0862 31.562 32.0567 31.4516C32.0272 31.3412 32.0223 31.2257 32.0423 31.1132C32.0888 30.924 32.1992 30.7566 32.3547 30.6392C32.5102 30.5218 32.7015 30.4616 32.8962 30.4687H36.7188C36.926 30.4686 37.1247 30.3863 37.2712 30.2397L44.3024 23.2085L43.1978 22.1038L39.8438 25.4577L39.6149 25.2288C39.4682 25.0973 39.3517 24.9357 39.2734 24.7549C39.1951 24.5741 39.1569 24.3785 39.1615 24.1815C39.166 23.9845 39.2131 23.7909 39.2996 23.6139C39.3862 23.4369 39.51 23.2807 39.6626 23.1562L43.5563 18.4827C43.8433 18.0779 44.224 17.7487 44.6659 17.5231C45.1078 17.2975 45.5977 17.1823 46.0939 17.1874H46.8751V23.253Z" fill="#61BC47"/>
<path d="M2.95534 44.6875L1.64441 47.307C1.58487 47.4261 1.55679 47.5585 1.56281 47.6915C1.56884 47.8246 1.60878 47.9539 1.67884 48.0672C1.74889 48.1804 1.84675 48.2739 1.9631 48.3387C2.07945 48.4035 2.21044 48.4375 2.34363 48.4375H14.8436C15.2154 48.4371 15.5818 48.3486 15.9126 48.179C16.2435 48.0095 16.5293 47.7638 16.7467 47.4622C16.9641 47.1606 17.1068 46.8117 17.163 46.4443C17.2192 46.0768 17.1874 45.7012 17.0702 45.3484C16.9044 44.875 16.5937 44.4658 16.1823 44.1789C15.7708 43.892 15.2795 43.7419 14.778 43.75H13.7624L14.7655 41.7554C14.7866 41.7122 14.8038 41.6673 14.8171 41.621C14.988 41.039 15.0231 40.4255 14.9196 39.8278C14.8161 39.2301 14.5768 38.6641 14.2202 38.1734L14.9124 36.782L16.4827 39.4L19.5819 47.9234C19.6365 48.0735 19.7358 48.2032 19.8664 48.2951C19.997 48.387 20.1527 48.4367 20.3124 48.4375H25.7811C26.1529 48.4371 26.5193 48.3486 26.8501 48.179C27.181 48.0095 27.4668 47.7638 27.6842 47.4622C27.9016 47.1606 28.0443 46.8117 28.1005 46.4443C28.1567 46.0768 28.1249 45.7012 28.0077 45.3484C27.8419 44.875 27.5312 44.4658 27.1198 44.1789C26.7083 43.892 26.217 43.7419 25.7155 43.75H24.8436L23.5155 37.7484L25.6038 35.6562C26.8108 34.2048 27.4314 32.3544 27.3436 30.4687V28.4484L35.4796 20.3125H36.7186C37.5474 20.3125 38.3423 19.9832 38.9283 19.3972C39.5144 18.8111 39.8436 18.0163 39.8436 17.1875C39.8436 16.3587 39.5144 15.5638 38.9283 14.9777C38.3423 14.3917 37.5474 14.0625 36.7186 14.0625C36.6546 14.0625 36.5909 14.0703 36.5288 14.0859L33.4038 14.8671C33.2666 14.9016 33.1413 14.9726 33.0413 15.0726L29.1741 18.9398L27.5046 20.1898L28.8952 11.8453C28.9226 11.6824 28.8977 11.515 28.8241 11.3671L27.3702 8.46011C27.5944 6.82808 27.9796 2.60074 26.1155 1.72105C25.9006 1.61996 25.667 1.56508 25.4296 1.55996C25.1922 1.55485 24.9564 1.59961 24.7374 1.69136C23.2194 2.28824 21.8913 5.01167 21.3553 6.24761H19.2694C18.7335 5.01167 17.4053 2.28824 15.8874 1.69136C15.6684 1.59961 15.4326 1.55485 15.1952 1.55996C14.9578 1.56508 14.7241 1.61996 14.5092 1.72105C12.6452 2.60464 13.0303 6.82808 13.2546 8.46011L11.8007 11.3671C11.727 11.515 11.7021 11.6824 11.7296 11.8453L13.2811 21.1585V23.6882C7.08503 26.2789 1.56238 33.4632 1.56238 39.0625V42.9687C1.56242 43.1759 1.64476 43.3746 1.79128 43.521L2.95534 44.6875ZM27.3436 22.2656L30.1561 20.1562C30.1858 20.1341 30.2137 20.1098 30.2397 20.0835L33.9897 16.3335L36.8022 15.6304C37.2011 15.6622 37.5726 15.8458 37.8401 16.1434C38.1076 16.441 38.2507 16.8298 38.24 17.2298C38.2293 17.6298 38.0655 18.0105 37.7824 18.2933C37.4994 18.5761 37.1186 18.7396 36.7186 18.75H35.1561C34.9489 18.75 34.7503 18.8323 34.6038 18.9789L27.3436 26.239V22.2656ZM25.7811 23.4375H14.8436V21.875H25.7811V23.4375ZM21.0936 25.7812C21.0936 25.9357 21.0478 26.0868 20.962 26.2152C20.8761 26.3437 20.7541 26.4439 20.6113 26.503C20.4686 26.5621 20.3115 26.5776 20.16 26.5474C20.0084 26.5173 19.8692 26.4429 19.7599 26.3336C19.6507 26.2244 19.5763 26.0852 19.5461 25.9336C19.516 25.7821 19.5315 25.625 19.5906 25.4822C19.6497 25.3395 19.7499 25.2175 19.8783 25.1316C20.0068 25.0458 20.1579 25 20.3124 25C20.5196 25 20.7183 25.0823 20.8648 25.2288C21.0113 25.3753 21.0936 25.574 21.0936 25.7812ZM25.3124 3.14839C25.4046 3.11246 25.4319 3.12652 25.4507 3.13511C25.9311 3.36324 26.1186 5.38277 25.9077 7.55074L22.9296 6.56246C23.5858 5.13824 24.5975 3.42808 25.3124 3.14839ZM15.178 3.13511C15.191 3.12824 15.2055 3.12475 15.2202 3.12496C15.2534 3.12674 15.286 3.13469 15.3163 3.14839C16.0358 3.43121 17.035 5.11871 17.696 6.55855L14.7202 7.55074C14.5085 5.38277 14.6967 3.36324 15.178 3.13511ZM14.6163 9.23277L18.8772 7.81246H21.7475L26.0085 9.23277L27.3124 11.8406L25.9007 20.3125H14.7241L13.3124 11.8406L14.6163 9.23277ZM3.12488 39.0625C3.12488 34.0046 8.50066 27.2093 14.2186 25H18.1108C18.0188 25.2502 17.9707 25.5145 17.9686 25.7812C17.9686 26.4028 18.2156 26.9989 18.6551 27.4385C19.0946 27.878 19.6908 28.125 20.3124 28.125C20.934 28.125 21.5301 27.878 21.9697 27.4385C22.4092 26.9989 22.6561 26.4028 22.6561 25.7812C22.6535 25.5145 22.6049 25.2502 22.5124 25H25.7811V30.4687C25.875 31.9661 25.3985 33.4435 24.4475 34.6039L22.1038 36.9476C22.0109 37.0405 21.9429 37.1554 21.9062 37.2816C21.8694 37.4078 21.8651 37.5412 21.8936 37.6695L23.4561 44.7007C23.4947 44.8742 23.5913 45.0294 23.7299 45.1406C23.8685 45.2518 24.0409 45.3124 24.2186 45.3125H25.7155C25.8853 45.3045 26.0534 45.349 26.197 45.4399C26.3407 45.5307 26.453 45.6635 26.5186 45.8203C26.5616 45.942 26.5744 46.0724 26.5559 46.2002C26.5374 46.3279 26.4881 46.4493 26.4124 46.5539C26.3404 46.6538 26.2455 46.7351 26.1357 46.791C26.0259 46.8468 25.9043 46.8756 25.7811 46.875H20.8592L17.9217 38.7953C17.9046 38.7482 17.8829 38.7029 17.8569 38.6601L15.6249 34.9398V30.4687H14.0624V34.9726L12.9061 37.2984C11.7936 37.0164 9.66003 37.064 7.203 40.1367L8.42331 41.1132C10.7288 38.232 12.3897 38.721 12.7827 38.896C13.052 39.1931 13.2431 39.5526 13.3386 39.942C13.434 40.3315 13.4309 40.7386 13.3296 41.1265L11.8014 44.182C11.7419 44.3011 11.7138 44.4334 11.7198 44.5664C11.7258 44.6993 11.7657 44.8286 11.8357 44.9418C11.9056 45.0551 12.0034 45.1486 12.1196 45.2134C12.2359 45.2783 12.3668 45.3124 12.4999 45.3125H14.778C14.9478 45.3045 15.1159 45.349 15.2595 45.4399C15.4032 45.5307 15.5155 45.6635 15.5811 45.8203C15.6241 45.942 15.6369 46.0724 15.6184 46.2002C15.5999 46.3279 15.5506 46.4493 15.4749 46.5539C15.4029 46.6538 15.308 46.7351 15.1982 46.791C15.0884 46.8468 14.9668 46.8756 14.8436 46.875H3.60769L4.60925 44.8804C4.68246 44.7337 4.70766 44.5677 4.6813 44.4059C4.65494 44.2441 4.57835 44.0947 4.46238 43.9789L3.12488 42.6453V39.0625Z" fill="#095052"/>
<path d="M18.75 18.7499C19.3285 18.7482 19.8856 18.5309 20.3125 18.1405C20.6474 18.446 21.064 18.6473 21.5115 18.7199C21.9589 18.7925 22.4178 18.7332 22.8322 18.5493C23.2465 18.3653 23.5982 18.0647 23.8445 17.6841C24.0907 17.3035 24.2208 16.8594 24.2188 16.4061H22.6563C22.6563 16.6133 22.5739 16.812 22.4274 16.9585C22.2809 17.1051 22.0822 17.1874 21.875 17.1874C21.7566 17.1857 21.6401 17.1567 21.5348 17.1024C21.4294 17.0482 21.3381 16.9703 21.268 16.8749C21.6904 16.5356 22.0336 16.1081 22.2734 15.6223C22.5132 15.1364 22.6439 14.604 22.6563 14.0624C22.6662 13.8584 22.6346 13.6545 22.5633 13.4631C22.492 13.2717 22.3825 13.0968 22.2414 12.9491C21.9986 12.7612 21.7201 12.6246 21.423 12.5474C21.1258 12.4701 20.8161 12.454 20.5125 12.4999H20.1125C19.8089 12.4534 19.4989 12.4694 19.2017 12.5467C18.9044 12.6241 18.6261 12.7613 18.3836 12.9499C18.2426 13.0975 18.1332 13.2722 18.0619 13.4635C17.9905 13.6547 17.9589 13.8585 17.9688 14.0624C17.9811 14.604 18.1118 15.1364 18.3516 15.6223C18.5914 16.1081 18.9346 16.5356 19.357 16.8749C19.2869 16.9703 19.1956 17.0482 19.0902 17.1024C18.9849 17.1567 18.8685 17.1857 18.75 17.1874C18.5428 17.1874 18.3441 17.1051 18.1976 16.9585C18.0511 16.812 17.9688 16.6133 17.9688 16.4061H16.4062C16.4063 17.0277 16.6532 17.6239 17.0927 18.0634C17.5323 18.5029 18.1284 18.7499 18.75 18.7499ZM21.0938 14.078C21.0867 14.7171 20.5609 15.5921 20.3125 15.6256C20.0617 15.5921 19.5359 14.7171 19.5313 14.078C19.6781 14.0624 20.9469 14.0624 21.0938 14.078Z" fill="black"/>
<path d="M17.9688 10.9375H16.4062V12.5H17.9688V10.9375Z" fill="black"/>
<path d="M24.2188 10.9375H22.6562V12.5H24.2188V10.9375Z" fill="black"/>
<path d="M34.7046 11.5469C34.8433 11.6582 35.0158 11.7189 35.1936 11.7189C35.3715 11.7189 35.544 11.6582 35.6827 11.5469L39.621 8.38051C39.9648 8.05582 40.2373 7.66321 40.4213 7.22759C40.6053 6.79198 40.6967 6.32287 40.6897 5.85004C40.6967 5.37734 40.6052 4.90835 40.4213 4.47286C40.2373 4.03738 39.9647 3.6449 39.621 3.32036C39.0518 2.73978 38.296 2.37885 37.4867 2.30123C36.6774 2.22362 35.8666 2.43431 35.1975 2.89614C34.529 2.42366 33.7132 2.20655 32.8983 2.28425C32.0834 2.36194 31.3233 2.72928 30.7561 3.31958C30.4124 3.6443 30.1399 4.03692 29.9559 4.47253C29.7719 4.90813 29.6805 5.37723 29.6874 5.85004C29.6818 6.33098 29.7774 6.80771 29.9679 7.24931C30.1585 7.69091 30.4398 8.08749 30.7936 8.41333L34.7046 11.5469ZM31.8085 4.47426C32.203 4.09082 32.7231 3.86325 33.2725 3.83364C33.5315 3.84177 33.7864 3.90119 34.0223 4.00847C34.2581 4.11576 34.4704 4.26876 34.6468 4.45864C34.7904 4.59726 34.9817 4.67564 35.1813 4.67767C35.3809 4.67971 35.5737 4.60525 35.7202 4.46958C35.9032 4.27523 36.124 4.12046 36.3692 4.01481C36.6143 3.90916 36.8785 3.85488 37.1454 3.85532C37.4124 3.85576 37.6764 3.91091 37.9211 4.01736C38.1659 4.12382 38.3863 4.27932 38.5686 4.47426C38.7517 4.65239 38.8959 4.86655 38.9921 5.10321C39.0882 5.33988 39.1342 5.59391 39.1272 5.84926C39.1351 6.09684 39.093 6.34346 39.0033 6.57435C38.9136 6.80525 38.7783 7.01567 38.6054 7.19301L35.1921 9.9352L31.8085 7.22661C31.6254 7.0481 31.4813 6.83365 31.3852 6.59675C31.2891 6.35985 31.243 6.10562 31.2499 5.85004C31.243 5.59458 31.289 5.34046 31.3852 5.10368C31.4813 4.8669 31.6254 4.65259 31.8085 4.47426Z" fill="#61BC47"/>
<path d="M10.5906 31.1178L9.72266 29.8186C9.51719 29.9553 4.6875 33.2334 4.6875 38.2811H6.25C6.25 34.078 10.5469 31.1475 10.5906 31.1178Z" fill="#61BC47"/>
</svg>
