<svg width="30" height="30" viewBox="0 0 30 30" fill="none" xmlns="http://www.w3.org/2000/svg">
<g clip-path="url(#clip0_1_2327)">
<path d="M28.6899 2.04973C27.3362 1.32757 25.8262 2.72031 24.9411 3.54564C22.9105 5.50579 21.1923 7.77544 19.2657 9.83876C17.131 12.1084 15.1524 14.3781 12.9656 16.5962C11.716 17.8342 10.3622 19.1754 9.52913 20.7229C7.65471 18.9174 6.04062 16.9572 3.95792 15.3582C2.44797 14.2234 -0.0512666 13.3981 0.000800752 16.132C0.104936 19.6913 3.28105 23.5084 5.62408 25.9327C6.61336 26.9644 7.91504 28.0476 9.425 28.0992C11.2474 28.2024 13.1218 26.0359 14.2152 24.8495C16.1418 22.7862 17.7038 20.4649 19.474 18.35C21.765 15.5646 24.108 12.8306 26.3469 9.99351C27.7527 8.23969 32.1785 3.90663 28.6899 2.04973ZM2.29168 15.9256C2.23961 15.9256 2.18755 15.9256 2.08341 15.9771C1.87514 15.9256 1.71894 15.874 1.51067 15.7708C1.66687 15.6676 1.92721 15.7192 2.29168 15.9256Z" fill="#61BC47"/>
</g>
<defs>
<clipPath id="clip0_1_2327">
<rect width="30" height="29.7209" fill="white" transform="translate(0 0.115234)"/>
</clipPath>
</defs>
</svg>
