<svg width="60" height="60" viewBox="0 0 60 60" fill="none" xmlns="http://www.w3.org/2000/svg">
<g clip-path="url(#clip0_1_2297)">
<path d="M44.9694 32.9521C45.4263 33.115 45.9293 32.8766 46.0926 32.4195C46.7494 30.5779 47.0826 28.6438 47.0826 26.6712C47.0826 17.244 39.4174 9.57446 29.9956 9.57446C20.5739 9.57446 12.9087 17.2439 12.9087 26.6712C12.9087 36.0985 20.5738 43.768 29.9956 43.768C35.753 43.768 41.0869 40.8945 44.2636 36.0811C44.5309 35.676 44.4192 35.131 44.0141 34.8634C43.6095 34.5961 43.064 34.7076 42.7964 35.1129C39.9461 39.4317 35.1606 42.0101 29.9956 42.0101C21.5432 42.0101 14.6665 35.1291 14.6665 26.6711C14.6665 18.2132 21.5431 11.3322 29.9956 11.3322C38.4481 11.3322 45.3247 18.2132 45.3247 26.6711C45.3247 28.4419 45.026 30.1772 44.4368 31.8288C44.2738 32.2861 44.5123 32.7888 44.9694 32.9521Z" fill="#095052"/>
<path d="M59.7425 46.7878L50.8735 37.9255C51.2317 36.9213 51.1869 35.8149 51.1435 34.7384C51.1084 33.8695 51.0752 33.049 51.2564 32.3706C51.4269 31.7334 51.8542 31.0624 52.3064 30.3518C52.9886 29.2799 53.7622 28.0647 53.7622 26.6702C53.7622 25.2759 52.9891 24.0612 52.3071 22.9896C51.8552 22.2793 51.4283 21.6087 51.2584 20.9716C51.0759 20.2909 51.1092 19.4692 51.1442 18.5991C51.1968 17.2913 51.2515 15.9389 50.5813 14.7791C49.8996 13.6015 48.691 12.9709 47.5223 12.3609C46.7605 11.9634 46.041 11.588 45.5576 11.1042C45.0749 10.6205 44.6999 9.90106 44.3028 9.13935C43.6927 7.96876 43.0616 6.75798 41.8841 6.07677C40.7242 5.40435 39.3703 5.45919 38.0606 5.51216C37.1927 5.5472 36.3728 5.58036 35.6948 5.39931C35.0583 5.22868 34.3877 4.8013 33.6776 4.34884C32.606 3.66587 31.3916 2.89185 29.9975 2.89185C28.6046 2.89185 27.3909 3.6647 26.3201 4.34649C25.609 4.79919 24.9372 5.22692 24.2982 5.39731C23.6182 5.57966 22.7969 5.54626 21.9276 5.51145C20.6205 5.45884 19.2687 5.40411 18.1092 6.07489C16.9323 6.75704 16.3021 7.9663 15.6926 9.1356C15.2952 9.8979 14.9199 10.6178 14.4365 11.1015C13.9531 11.5846 13.2341 11.9597 12.473 12.357C11.3027 12.9676 10.0926 13.5991 9.4119 14.7771C9.08987 15.3335 8.90401 15.9992 8.84354 16.8121C8.80756 17.2962 9.17084 17.7178 9.65494 17.7537C10.1389 17.7883 10.5606 17.4263 10.5965 16.9423C10.6374 16.3921 10.7444 15.9839 10.9335 15.6571C11.3589 14.9209 12.2951 14.4324 13.2861 13.9152C14.1312 13.4742 15.0049 13.0183 15.6793 12.3445C16.354 11.6694 16.8101 10.7943 17.2512 9.94794C17.7675 8.95747 18.2551 8.02185 18.9899 7.59599C19.7072 7.18103 20.7512 7.22298 21.8566 7.26774C22.8192 7.30677 23.8147 7.34673 24.7521 7.09548C25.6522 6.85548 26.4716 6.33376 27.264 5.82915C28.2167 5.22259 29.1166 4.64966 29.9974 4.64966C30.879 4.64966 31.7795 5.22353 32.7328 5.83114C33.5238 6.33528 34.3417 6.85653 35.2401 7.09724C36.1766 7.34767 37.1704 7.30747 38.1316 7.26845C39.2385 7.2238 40.2845 7.18126 41.0031 7.59798C41.7388 8.0236 42.2271 8.96028 42.7439 9.95204C43.1846 10.7977 43.6403 11.6719 44.3137 12.3467C44.9884 13.0218 45.8631 13.4781 46.7088 13.9195C47.6987 14.4361 48.6337 14.9241 49.0595 15.6594C49.4743 16.3774 49.4322 17.4223 49.3876 18.5284C49.3488 19.4917 49.3086 20.4875 49.56 21.4259C49.7996 22.3239 50.3203 23.1422 50.824 23.9334C51.431 24.8872 52.0042 25.7879 52.0042 26.6704C52.0042 27.5528 51.4305 28.4541 50.8233 29.408C50.3195 30.1993 49.7986 31.0177 49.558 31.9165C49.3078 32.8533 49.348 33.8476 49.3869 34.8095C49.4318 35.9174 49.474 36.964 49.0575 37.6833C48.6321 38.4195 47.696 38.908 46.7049 39.4252C45.8599 39.8661 44.986 40.3221 44.3117 40.9959C43.6371 41.6711 43.181 42.5462 42.7398 43.3925C42.2236 44.383 41.736 45.3186 41.0012 45.7445C40.2839 46.1593 39.2399 46.1173 38.1345 46.0726C37.1715 46.0338 36.1762 45.9935 35.2377 46.2454C34.3397 46.486 33.5217 47.0072 32.7307 47.5113C31.7774 48.119 30.877 48.6928 29.9953 48.6928C29.1138 48.6928 28.2132 48.119 27.26 47.5115C26.469 47.0072 25.6512 46.4859 24.7527 46.2452C23.8162 45.9947 22.8222 46.0348 21.8611 46.0739C20.754 46.1189 19.7085 46.1611 18.9899 45.7445C18.254 45.3189 17.7658 44.3821 17.2489 43.3903C16.8083 42.5448 16.3526 41.6706 15.6793 40.9958C15.0046 40.3207 14.1299 39.8643 13.284 39.4228C12.2941 38.9063 11.3592 38.4184 10.9336 37.6831C10.5187 36.965 10.5609 35.9201 10.6055 34.814C10.6442 33.8507 10.6844 32.8547 10.433 31.9159C10.1925 31.0175 9.67159 30.1993 9.1678 29.408C8.56053 28.4538 7.9869 27.5528 7.9869 26.6702C7.9869 25.7877 8.56053 24.8864 9.16791 23.9324C9.67159 23.141 10.1926 22.3227 10.4331 21.4239C10.4658 21.3015 10.4948 21.1724 10.5193 21.0406C10.608 20.5634 10.2931 20.1045 9.81596 20.0158C9.33854 19.9266 8.87998 20.2419 8.79115 20.719C8.77487 20.8069 8.75588 20.8915 8.73491 20.97C8.5644 21.6072 8.13725 22.2782 7.68502 22.9887C7.00252 24.0607 6.22909 25.2759 6.22909 26.6705C6.22909 28.065 7.00252 29.2801 7.68491 30.3522C8.13713 31.0627 8.56428 31.7337 8.73491 32.3709C8.91725 33.0517 8.88409 33.8734 8.84905 34.7435C8.80569 35.8202 8.76104 36.9271 9.12057 37.9318L0.25768 46.7881C0.0218986 47.0237 -0.060367 47.3725 0.0454533 47.6888C0.151156 48.0048 0.426664 48.2339 0.756899 48.2803L7.83116 49.2724L8.8228 56.3514C8.86909 56.6815 9.09807 56.9571 9.41424 57.0629C9.50565 57.0935 9.59975 57.1084 9.69303 57.1084C9.92248 57.1084 10.1472 57.0184 10.3148 56.8508L14.2056 52.9576C14.5487 52.6143 14.5485 52.0577 14.2052 51.7147C13.8619 51.3715 13.3053 51.3715 12.9622 51.7151L10.3188 54.3601L9.5408 48.8058L15.1445 43.1988C15.3302 43.5122 15.508 43.8533 15.6905 44.2034C16.2239 45.2269 16.7733 46.2809 17.6897 46.9849L15.725 48.9508C15.3819 49.2941 15.3821 49.8506 15.7254 50.1936C15.8969 50.3652 16.1218 50.4509 16.3467 50.4509C16.5717 50.4509 16.7967 50.365 16.9684 50.1933L19.4182 47.742C20.2326 47.8995 21.0917 47.8647 21.9324 47.8306C22.8005 47.7954 23.6204 47.7622 24.2983 47.9435C24.9349 48.1142 25.6056 48.5415 26.3155 48.9941C27.3871 49.677 28.6015 50.451 29.9955 50.451C31.3896 50.451 32.6041 49.6771 33.6756 48.994C34.3857 48.5415 35.0563 48.1142 35.6929 47.9435C36.3731 47.7609 37.1942 47.7943 38.0638 47.8293C38.9051 47.8635 39.7647 47.8981 40.5798 47.7396L49.6851 56.8507C49.8527 57.0184 50.0774 57.1083 50.3069 57.1083C50.4002 57.1083 50.4944 57.0934 50.5857 57.0628C50.9019 56.957 51.131 56.6814 51.1773 56.3513L52.1688 49.2723L59.2432 48.2802C59.5732 48.2338 59.8488 48.0047 59.9545 47.6886C60.0604 47.3724 59.9783 47.0235 59.7425 46.7878ZM2.74827 46.7843L10.0994 39.4386C10.7702 40.0938 11.6308 40.543 12.4708 40.9814C13.0253 41.2708 13.5573 41.5485 13.9923 41.8647L8.2978 47.5625L2.74827 46.7843ZM49.6813 54.3599L42.3065 46.9805C43.2193 46.2761 43.7669 45.2255 44.2988 44.2051C44.4829 43.852 44.6622 43.5081 44.8497 43.1924L50.4594 48.8056L49.6813 54.3599ZM51.7024 47.5625L46.0046 41.8613C46.4381 41.5473 46.9672 41.2712 47.5186 40.9835C48.3616 40.5436 49.2253 40.0928 49.8969 39.4347L57.252 46.7843L51.7024 47.5625Z" fill="#095052"/>
<path d="M24.2917 36.3649C25.3998 37.2101 26.8686 37.4932 28.221 37.1225C28.7533 36.9765 29.3731 36.8994 30.013 36.8994C30.6636 36.8994 31.2922 36.9791 31.8309 37.1299C32.2289 37.2412 32.6359 37.2962 33.041 37.2962C33.9135 37.2962 34.777 37.0416 35.5214 36.5498C36.5412 35.876 37.2145 34.8132 37.3688 33.6336C37.3688 33.6334 37.369 33.6332 37.369 33.6328C37.5596 32.1653 36.9948 30.7532 35.8565 29.8434C35.4636 29.4476 34.5512 28.4166 33.8233 26.7492C33.1804 25.2104 31.6881 24.2166 30.0194 24.2166C28.351 24.2166 26.8589 25.2105 26.2158 26.7498C25.2963 28.8567 24.0478 29.9744 24.0377 29.9835C24.0347 29.986 24.0315 29.9889 24.0285 29.9916C23.1555 30.7731 22.6548 31.8928 22.6548 33.0636C22.6548 34.3682 23.2515 35.5714 24.2917 36.3649ZM25.1987 31.3032C25.3258 31.1909 26.7685 29.8819 27.83 27.4455C27.832 27.441 27.834 27.4363 27.8359 27.4317C28.2038 26.5464 29.061 25.9742 30.0193 25.9742C30.9783 25.9742 31.8354 26.5461 32.2032 27.4312C32.2052 27.4359 32.2071 27.4405 32.2091 27.4451C33.0807 29.4452 34.2087 30.6855 34.653 31.1259C34.6781 31.1508 34.7046 31.1741 34.7325 31.1957C35.4038 31.7174 35.7377 32.5438 35.6257 33.4064C35.536 34.0896 35.1548 34.6849 34.5524 35.0831C33.8881 35.5221 33.0689 35.651 32.3046 35.4371C31.6138 35.2439 30.8213 35.1417 30.0129 35.1417C29.2182 35.1417 28.4379 35.2405 27.7561 35.4274C26.9291 35.6545 26.0325 35.4821 25.3576 34.9675C24.7482 34.5026 24.4126 33.8265 24.4126 33.0637C24.4126 32.393 24.6991 31.7516 25.1987 31.3032Z" fill="#61BC47"/>
<path d="M23.456 24.3993C23.0382 23.5907 22.4009 22.9457 21.6616 22.583C20.846 22.1829 19.9658 22.1665 19.2471 22.5383C17.81 23.2808 17.407 25.2616 18.3296 27.0477C19.0221 28.3876 20.2354 29.1823 21.4053 29.1823C21.7947 29.1823 22.1796 29.0941 22.5385 28.9087C23.9756 28.1662 24.3786 26.1855 23.456 24.3993C23.456 24.3994 23.456 24.3994 23.456 24.3993ZM21.7317 27.347C21.2582 27.5916 20.3858 27.1976 19.8913 26.2409C19.3971 25.2842 19.5804 24.3447 20.0541 24.0999C20.1564 24.047 20.2645 24.0269 20.37 24.0269C20.5738 24.0269 20.7672 24.1022 20.8875 24.1612C21.2848 24.3562 21.6519 24.737 21.8943 25.2064C22.3884 26.1628 22.2052 27.1023 21.7317 27.347Z" fill="#61BC47"/>
<path d="M38.5951 29.1824C39.7649 29.1824 40.9785 28.3876 41.6709 27.0477C42.5936 25.2616 42.1905 23.2809 40.7537 22.5384C40.0348 22.1666 39.1547 22.1828 38.3389 22.583C37.5997 22.9457 36.9625 23.5907 36.5446 24.3993V24.3994C35.6218 26.1853 36.0247 28.1661 37.462 28.9086C37.821 29.0943 38.2057 29.1824 38.5951 29.1824ZM38.1062 25.2062C38.3487 24.737 38.7157 24.356 39.1131 24.1611C39.2954 24.0717 39.6466 23.9446 39.9465 24.1001C40.4202 24.3448 40.6034 25.2841 40.1094 26.2407C39.6148 27.1975 38.7429 27.5917 38.2689 27.3471C37.7953 27.1024 37.6119 26.1629 38.1062 25.2062Z" fill="#61BC47"/>
<path d="M26.5153 23.2906C27.3234 23.2906 28.0564 22.82 28.5262 21.9992C28.9351 21.2847 29.1066 20.3449 28.9969 19.4205C28.7822 17.6048 27.5362 16.1824 26.16 16.1824C25.3519 16.1824 24.6191 16.6528 24.1494 17.4731C23.7409 18.1871 23.5693 19.1268 23.6788 20.0511C23.8932 21.8676 25.1392 23.2906 26.5153 23.2906ZM25.675 18.3462C25.7295 18.251 25.9256 17.9402 26.1599 17.9402C26.5151 17.9402 27.1315 18.613 27.2512 19.6272V19.6279C27.3165 20.1776 27.2229 20.7379 27.0007 21.126C26.9461 21.2214 26.7497 21.5328 26.5153 21.5328C26.1604 21.5328 25.5442 20.8597 25.4243 19.8448C25.3593 19.2945 25.4529 18.7342 25.675 18.3462Z" fill="#61BC47"/>
<path d="M33.5447 23.2906C34.921 23.2906 36.1669 21.8676 36.3813 20.0514C36.4908 19.1267 36.3193 18.187 35.9105 17.473C35.4411 16.6528 34.7083 16.1824 33.9002 16.1824C32.5239 16.1824 31.2779 17.6048 31.0633 19.4205C30.9534 20.3448 31.1249 21.2846 31.5339 21.9993C32.0036 22.8199 32.7365 23.2906 33.5447 23.2906ZM32.8088 19.6279C32.8089 19.6277 32.8089 19.6275 32.8089 19.6272C32.9286 18.6131 33.545 17.9402 33.9003 17.9402C34.1346 17.9402 34.3306 18.2509 34.3851 18.3461C34.6073 18.7342 34.7009 19.2944 34.6358 19.8451C34.5161 20.8596 33.8999 21.5327 33.5449 21.5327C33.3105 21.5327 33.1142 21.2216 33.0596 21.1262C32.8373 20.7377 32.7435 20.1775 32.8088 19.6279Z" fill="#61BC47"/>
</g>
<defs>
<clipPath id="clip0_1_2297">
<rect width="60" height="60" fill="white"/>
</clipPath>
</defs>
</svg>
