<svg width="60" height="60" viewBox="0 0 60 60" fill="none" xmlns="http://www.w3.org/2000/svg">
<g clip-path="url(#clip0_1_2031)">
<path d="M17.772 26.0313L17.7698 26.0695C17.622 28.6587 19.0724 31.0844 21.4658 32.2473L21.4903 32.2593C22.3342 32.6629 23.0258 33.3283 23.4622 34.1558L23.472 34.1738C24.678 36.4701 27.1723 37.8621 29.8314 37.7225L29.8717 37.7203C30.8361 37.6663 31.7934 37.915 32.6094 38.4321C34.861 39.8405 37.7192 39.8405 39.9708 38.4321C40.7868 37.915 41.744 37.6663 42.7084 37.7203L42.7488 37.7225C45.4035 37.8632 47.9011 36.4701 49.1098 34.17L49.1158 34.1574C49.5538 33.3278 50.2471 32.6613 51.0936 32.2571L51.1133 32.2473C53.5067 31.0838 54.9576 28.6587 54.8092 26.0689L54.8071 26.0329C54.758 25.1209 55.0111 24.2182 55.5281 23.4649C57.0167 21.2941 57.0167 18.4315 55.5287 16.2601C55.0121 15.5074 54.758 14.6052 54.8071 13.6932L54.8092 13.655C54.9576 11.0652 53.5067 8.64013 51.1111 7.47613L51.0893 7.46522C50.2471 7.06268 49.5571 6.4005 49.1202 5.57523L49.1076 5.55069C47.9011 3.25434 45.4035 1.86289 42.7488 2.00198L42.7079 2.00416C41.744 2.05816 40.7868 1.80944 39.9713 1.29235H39.9702C37.7186 -0.116005 34.8604 -0.116005 32.6088 1.29235C31.7928 1.80889 30.8356 2.05762 29.8712 2.00362L29.8308 2.00144C27.1756 1.86071 24.6785 3.25379 23.4725 5.5496L23.4632 5.56651C23.0263 6.39559 22.3342 7.06159 21.4893 7.46577L21.4663 7.47668C19.0729 8.63958 17.622 11.0652 17.7704 13.655L17.7725 13.691C17.8216 14.603 17.5685 15.5057 17.0515 16.2584C15.5629 18.4299 15.5629 21.293 17.0515 23.4639C17.568 24.2166 17.8216 25.1193 17.772 26.0313ZM18.8902 17.5272C19.6882 16.3654 20.0793 14.9723 20.0029 13.565L20.0007 13.5268C19.9222 11.8108 20.8854 10.217 22.4405 9.48776L22.4596 9.47848C23.7354 8.86758 24.78 7.86177 25.4389 6.6105L25.4498 6.58977C26.251 5.0636 27.9294 4.13852 29.7119 4.23342L29.7512 4.23506C31.1776 4.31524 32.593 3.94761 33.7995 3.18288C35.323 2.22998 37.2561 2.22998 38.7795 3.18288C39.9861 3.94652 41.4015 4.3147 42.8273 4.23561L42.8666 4.23342C44.6578 4.13961 46.328 5.0636 47.1271 6.58541L47.1418 6.61323C47.8007 7.86286 48.8442 8.86703 50.1184 9.47739L50.1369 9.48667C51.7165 10.2547 52.6754 11.8403 52.5789 13.5274L52.5767 13.5672C52.5003 14.9745 52.892 16.367 53.69 17.5288C54.6543 18.9355 54.6538 20.7901 53.6889 22.1962C52.8914 23.3586 52.5003 24.7517 52.5767 26.1589L52.5789 26.1966C52.6754 27.8836 51.7165 29.4698 50.1364 30.2384L50.12 30.246C48.8431 30.858 47.7975 31.8649 47.138 33.1183L47.1298 33.1347C46.328 34.6609 44.6524 35.5865 42.8671 35.4911L42.8284 35.4889C41.402 35.4092 39.9861 35.7774 38.779 36.5416C37.2561 37.494 35.323 37.494 33.8001 36.5416C32.7026 35.8461 31.4296 35.4774 30.1303 35.4785C30.0043 35.4785 29.8777 35.4818 29.7512 35.4889L29.7119 35.4905C27.9529 35.6023 26.2887 34.6816 25.4481 33.132L25.4367 33.1107C24.7789 31.8616 23.736 30.858 22.4623 30.2476L22.4416 30.2373C20.8614 29.4693 19.9025 27.8831 19.9996 26.1966L20.0018 26.1567C20.0776 24.7495 19.686 23.3564 18.8885 22.1951C17.9247 20.7884 17.9253 18.9339 18.8902 17.5283V17.5272Z" fill="#095052"/>
<path d="M29.082 31.4106C29.6051 31.7373 30.294 31.5775 30.6207 31.0544L43.8539 9.85489C44.0699 9.51617 44.0879 9.08744 43.9003 8.73235C43.7127 8.37672 43.3483 8.14981 42.9468 8.13727C42.5454 8.12472 42.1679 8.32872 41.9585 8.67181L28.7258 29.8713C28.3991 30.395 28.5584 31.0839 29.082 31.4106Z" fill="#61BC47"/>
<path d="M30.2675 19.9173C32.9877 19.9173 35.2011 17.3935 35.2011 14.2915C35.2011 11.1895 32.9877 8.66626 30.2675 8.66626C27.5474 8.66626 25.3345 11.1895 25.3345 14.2915C25.3345 17.3935 27.5474 19.9173 30.2675 19.9173ZM30.2675 10.9004C31.7561 10.9004 32.967 12.4217 32.967 14.2915C32.967 16.1613 31.7561 17.6831 30.2675 17.6831C28.7795 17.6831 27.5686 16.1608 27.5686 14.2915C27.5686 12.4222 28.7795 10.9004 30.2675 10.9004Z" fill="#61BC47"/>
<path d="M37.3779 25.4341C37.3779 28.5361 39.5908 31.0593 42.311 31.0593C45.0311 31.0593 47.2446 28.5355 47.2446 25.4341C47.2446 22.3332 45.0317 19.8088 42.3115 19.8088C39.5908 19.8088 37.3779 22.3316 37.3779 25.4341ZM45.0104 25.4341C45.0104 27.3039 43.7995 28.8252 42.311 28.8252C40.823 28.8252 39.6121 27.3039 39.6121 25.4341C39.6121 23.5643 40.823 22.043 42.311 22.043C43.7995 22.043 45.0104 23.5632 45.0104 25.4341Z" fill="#61BC47"/>
<path d="M59.8549 43.9837C58.3757 41.3585 55.0953 40.3587 52.4035 41.7125L43.6529 45.847C42.4447 43.6003 40.1271 42.1701 37.5765 42.0981L29.4984 41.8756C28.2193 41.839 26.9642 41.5145 25.827 40.9276L25.005 40.5016C20.7963 38.3078 15.7798 38.3132 11.5754 40.5158L11.6267 38.6536C11.6436 38.0367 11.1576 37.5229 10.5407 37.506L1.6826 37.2621C1.06569 37.2452 0.552424 37.7312 0.535515 38.3481L0.00042818 57.7875C-0.0164809 58.4044 0.469516 58.9182 1.08642 58.9351L9.94454 59.1789H9.97563C10.5805 59.1784 11.0753 58.6967 11.0922 58.0924L11.1173 57.1624L13.4185 55.9302C14.3218 55.4442 15.3783 55.3286 16.365 55.6078L30.1066 59.4647C30.1306 59.4718 30.1546 59.4773 30.1791 59.4827C31.1724 59.6905 32.1847 59.7947 33.1998 59.7942C35.3489 59.7953 37.4729 59.3322 39.4262 58.4355C39.4742 58.4136 39.5205 58.3885 39.5647 58.3602L59.4889 45.4717C59.9858 45.151 60.1462 44.4981 59.8549 43.9837ZM2.26459 56.732L2.73805 39.5269L9.36309 39.709L8.88909 56.9147L2.26459 56.732ZM38.4193 56.4391C35.9925 57.5344 33.2822 57.8365 30.6739 57.3031L16.9689 53.4571C15.4269 53.0208 13.7752 53.2019 12.3642 53.9606L11.1882 54.59L11.5034 43.1503C15.2294 40.6718 20.0087 40.417 23.9774 42.4848L24.7993 42.9108C26.2361 43.6526 27.8211 44.0623 29.4373 44.1086L37.5154 44.3312C39.7845 44.3961 41.7116 46.0117 42.172 48.235L30.1393 47.9039C29.5224 47.887 29.0091 48.373 28.9922 48.9899C28.9753 49.6068 29.4613 50.1206 30.0782 50.1375L43.3572 50.503H43.3889C43.9932 50.5024 44.4879 50.0208 44.5048 49.4164C44.5185 48.931 44.4819 48.445 44.3968 47.9672L53.3706 43.7263L53.3968 43.7137C54.6699 43.069 56.2097 43.2845 57.2564 44.2537L38.4193 56.4391Z" fill="#095052"/>
</g>
<defs>
<clipPath id="clip0_1_2031">
<rect width="60" height="60" fill="white"/>
</clipPath>
</defs>
</svg>
