<svg width="60" height="60" viewBox="0 0 60 60" fill="none" xmlns="http://www.w3.org/2000/svg">
<path d="M0.138629 41.0999C0.342535 41.4809 0.739683 41.7188 1.17187 41.7188H7.03125V58.8281C7.03125 59.4752 7.55589 60 8.20312 60H51.7969C52.4441 60 52.9688 59.4752 52.9688 58.8281V41.7188H58.8281C59.2603 41.7188 59.6575 41.4809 59.8614 41.0999C60.0653 40.7188 60.0429 40.2565 59.8031 39.8968L52.7719 29.35C52.5546 29.0239 52.1886 28.8281 51.7969 28.8281H47.3438C46.6965 28.8281 46.1719 29.3528 46.1719 30C46.1719 30.6472 46.6965 31.1719 47.3438 31.1719H51.1697L56.6385 39.375H37.6584L32.1896 31.1719H36.7969C37.4441 31.1719 37.9688 30.6472 37.9688 30C37.9688 29.3528 37.4441 28.8281 36.7969 28.8281C35.4586 28.8281 9.49828 28.8281 8.20312 28.8281C7.81125 28.8281 7.44539 29.0239 7.22812 29.35L0.196871 39.8968C-0.0428949 40.2565 -0.0652777 40.7188 0.138629 41.0999ZM9.375 41.7188H22.9687C23.3606 41.7188 23.7265 41.5229 23.9437 41.1969L28.8281 33.8704V57.6562H9.375V41.7188ZM36.0562 41.1969C36.2735 41.5229 36.6395 41.7188 37.0312 41.7188H50.625V57.6562H31.1719V33.8704L36.0562 41.1969ZM8.83031 31.1719H27.8104L22.3416 39.375H3.36152L8.83031 31.1719Z" fill="#095052"/>
<path d="M22.9688 2.9332C22.0116 1.52648 20.3591 0 17.6953 0C13.94 0 11.25 3.02637 11.25 6.67617C11.25 10.7284 14.5295 13.3898 19.4938 17.4183C20.3637 18.1241 21.2631 18.8541 22.2186 19.6502C22.4359 19.8313 22.7023 19.9218 22.9688 19.9218C23.2352 19.9218 23.5016 19.8313 23.7189 19.6502C24.6744 18.8541 25.5738 18.1241 26.4437 17.4183C31.408 13.3898 34.6875 10.7284 34.6875 6.67617C34.6875 3.02344 31.9946 0 28.2422 0C25.5784 0 23.9261 1.52648 22.9688 2.9332ZM32.3438 6.67617C32.3438 9.61195 29.4091 11.9936 24.9669 15.5984C24.3213 16.1222 23.6596 16.6593 22.9688 17.2283C22.2779 16.6594 21.6162 16.1223 20.9706 15.5984C16.5285 11.9936 13.5938 9.61207 13.5938 6.67617C13.5938 4.20633 15.3571 2.34375 17.6953 2.34375C20.7547 2.34375 21.8009 5.75016 21.8427 5.89078C21.9872 6.39269 22.4464 6.73828 22.9688 6.73828C23.4911 6.73828 23.9503 6.39258 24.0948 5.89078C24.1051 5.85527 25.1521 2.34375 28.2422 2.34375C30.5804 2.34375 32.3438 4.20633 32.3438 6.67617Z" fill="#61BC47"/>
<path d="M44.0625 23.4375C44.338 23.4375 44.6134 23.3408 44.8343 23.1475C45.4709 22.5904 46.0709 22.0791 46.6509 21.5846C49.9105 18.8067 52.2656 16.7998 52.2656 13.8141C52.2656 10.9963 50.2066 8.78906 47.5781 8.78906C45.9054 8.78906 44.7839 9.63973 44.0625 10.5509C43.3411 9.63973 42.2197 8.78906 40.5469 8.78906C37.9184 8.78906 35.8594 10.9963 35.8594 13.8141C35.8594 16.7998 38.2145 18.8067 41.4741 21.5846C42.0543 22.0791 42.6541 22.5904 43.2907 23.1475C43.5116 23.3408 43.7871 23.4375 44.0625 23.4375ZM38.2031 13.8141C38.2031 12.5142 39.0245 11.1328 40.5469 11.1328C42.2742 11.1328 42.9048 13.2513 42.9339 13.3523C43.0752 13.8586 43.5357 14.2119 44.0617 14.2119C44.5895 14.2119 45.0513 13.8621 45.191 13.353C45.2169 13.2625 45.8462 11.1328 47.5781 11.1328C49.1005 11.1328 49.9219 12.5142 49.9219 13.8141C49.9219 15.7177 48.1185 17.2546 45.1308 19.8007C44.7833 20.0968 44.4287 20.3989 44.0625 20.7142C43.6963 20.3989 43.3418 20.0968 42.9942 19.8007C40.0065 17.2546 38.2031 15.7177 38.2031 13.8141Z" fill="#095052"/>
<path d="M42.0703 31.1719C42.7175 31.1719 43.2422 30.6472 43.2422 30C43.2422 29.3528 42.7175 28.8281 42.0703 28.8281C41.4231 28.8281 40.8984 29.3528 40.8984 30C40.8984 30.6472 41.4231 31.1719 42.0703 31.1719Z" fill="#61BC47"/>
</svg>
