<svg width="60" height="60" viewBox="0 0 60 60" fill="none" xmlns="http://www.w3.org/2000/svg">
<g clip-path="url(#clip0_1_2069)">
<path d="M56.2628 22.5969C56.972 22.173 57.0968 21.7345 57.0968 21.2903V17.4194C57.0968 16.1544 55.6017 15.8198 51.2757 15.034L51.2563 15.0298C51.089 13.2668 49.9762 11.7386 48.354 11.0478C48.0951 8.8297 46.3306 7.06622 44.1135 6.80727C43.3121 4.92755 41.4031 3.69471 39.2795 3.8894C38.5268 2.15332 36.786 0.967742 34.8387 0.967742C34.291 0.967742 33.7509 1.06461 33.2283 1.25599C32.3438 0.450794 31.2021 0 30 0C28.7979 0 27.6562 0.450794 26.7717 1.25599C26.2491 1.06461 25.709 0.967742 25.1613 0.967742C23.214 0.967742 21.4732 2.15332 20.7205 3.89034C18.5922 3.69377 16.6879 4.92755 15.8865 6.80822C13.6694 7.06763 11.9049 8.83064 11.646 11.0487C10.0238 11.7395 8.91097 13.2677 8.7437 15.0321L8.72527 15.0359C4.39926 15.8189 2.90323 16.1544 2.90323 17.4194V21.2903C2.90323 21.7345 3.02797 22.173 3.73535 22.5959L0.0378024 35.5414L0 35.8064C0 36.4789 0 37.1749 5.62358 38.5906C8.7437 39.3764 12.5098 40.0828 16.3443 40.6102C15.7976 42.1365 15.4839 43.7719 15.4839 45.4839C15.4839 53.4881 21.9958 60 30 60C38.0042 60 44.5161 53.4881 44.5161 45.4839C44.5161 43.7719 44.2024 42.1355 43.6557 40.6092C47.4912 40.0828 51.2563 39.3755 54.3774 38.5897C60 37.1749 60 36.4789 60 35.8064L56.2628 22.5969ZM56.9564 32.0612C56.2316 32.3206 55.2156 32.6159 53.971 32.9254L51.5034 23.8751C52.7311 23.6846 53.7002 23.489 54.4501 23.2887L56.9564 32.0612ZM40.2591 35.2238C37.6304 32.5956 34.0014 30.9677 30 30.9677C25.9986 30.9677 22.3696 32.5956 19.7409 35.2238C17.2171 34.9578 14.8393 34.6289 12.6889 34.2717L14.3111 24.5418C18.9404 24.9378 24.5021 25.1613 30 25.1613C35.4979 25.1613 41.0596 24.9378 45.6899 24.5409L47.3121 34.2707C45.1607 34.6289 42.7829 34.9578 40.2591 35.2238ZM4.83871 21.0011V19.2079C6.1325 19.6393 8.27306 20.0509 11.8208 20.4341C16.8552 20.9789 23.4805 21.2903 30 21.2903C36.5195 21.2903 43.1448 20.9789 48.1792 20.4341C51.7269 20.0509 53.8675 19.6384 55.1613 19.2079V21.0011C53.5509 21.9608 43.6221 23.2258 30 23.2258C16.3779 23.2258 6.44909 21.9608 4.83871 21.0011ZM11.8208 24.3051C11.9999 24.324 12.1955 24.3405 12.3784 24.3599L10.7817 33.9376C9.75397 33.7481 8.79851 33.5544 7.91535 33.363L10.4292 24.1444C10.8687 24.1983 11.3294 24.2517 11.8208 24.3051ZM49.2183 33.9376L47.6216 24.3599C47.8045 24.3414 48.0001 24.324 48.1792 24.3051C48.6706 24.2517 49.1313 24.1983 49.5698 24.1444L52.0837 33.363C51.2015 33.5553 50.246 33.7481 49.2183 33.9376ZM50.6255 18.1801C50.8159 17.787 50.969 17.3797 51.0796 16.9653C51.9514 17.124 53.1029 17.3352 54.0135 17.546C53.2093 17.7591 52.0615 17.975 50.6255 18.1801ZM12.8334 12.6822L13.5862 12.4909L13.5621 11.7136C13.5593 11.6573 13.5531 11.6063 13.5484 11.6129C13.5484 10.0124 14.8512 8.70968 16.3888 8.70684L17.3282 8.75504L17.5228 7.99474C17.8508 6.70662 19.0028 5.80645 20.3226 5.80645C20.556 5.80645 20.8065 5.84709 21.1122 5.93309L22.1083 6.21566L22.3228 5.20256C22.7013 3.41309 24.7875 2.31776 26.5364 3.26991L27.2456 3.65597L27.7531 3.02797C28.3131 2.33335 29.1329 1.93548 30 1.93548C30.8671 1.93548 31.6869 2.33335 32.2469 3.02797L32.7544 3.65597L33.4636 3.26991C35.2101 2.31682 37.2978 3.41309 37.6772 5.20256L37.8917 6.21566L38.8878 5.93309C39.1935 5.84709 39.444 5.80645 39.6774 5.80645C40.9972 5.80645 42.1492 6.70662 42.4781 7.99474L42.6728 8.75504L43.4572 8.72244C43.5087 8.72055 43.5602 8.7144 43.5484 8.70968C45.1488 8.70968 46.4516 10.0124 46.4544 11.5463L46.4138 12.4918L47.1665 12.6832C48.4547 13.0111 49.3548 14.1641 49.3548 15.4839C49.3548 16.5008 48.8313 17.7038 48.0795 18.4996C43.6075 18.9882 37.3403 19.3548 30 19.3548C22.6432 19.3548 16.3666 18.9863 11.8926 18.4953C11.156 17.7038 10.6452 16.505 10.6452 15.4839C10.6452 14.1641 11.5453 13.0111 12.8334 12.6822ZM8.91665 16.9667C9.02533 17.3797 9.17512 17.787 9.36177 18.1792C7.93142 17.9741 6.7879 17.7582 5.98554 17.546C6.89611 17.3362 8.04483 17.125 8.91665 16.9667ZM8.49657 23.8751L6.02901 32.9254C4.78437 32.6169 3.76937 32.3215 3.04357 32.0621L5.54987 23.2896C6.29977 23.489 7.26893 23.6856 8.49657 23.8751ZM2.07205 35.4639L2.51244 33.9211C5.41472 34.9318 11.4192 36.2119 18.2411 37.0067C17.8366 37.5657 17.4676 38.1502 17.1443 38.765C9.35988 37.7334 3.63565 36.1953 2.07205 35.4639ZM30 58.0645C23.0633 58.0645 17.4194 52.4206 17.4194 45.4839C17.4194 38.5471 23.0633 32.9032 30 32.9032C36.9367 32.9032 42.5806 38.5471 42.5806 45.4839C42.5806 52.4206 36.9367 58.0645 30 58.0645ZM42.8557 38.764C42.5334 38.1493 42.1634 37.5647 41.7589 37.0067C48.5808 36.2119 54.5853 34.9327 57.4876 33.9211L57.928 35.4639C56.3643 36.1963 50.6392 37.7334 42.8557 38.764Z" fill="#095052"/>
<path d="M21.2905 10.6451H23.226V12.5806H21.2905V10.6451Z" fill="#61BC47"/>
<path d="M33.8711 4.83875H35.8066V6.77423H33.8711V4.83875Z" fill="#61BC47"/>
<path d="M29.0322 14.5161H30.9677V16.4516H29.0322V14.5161Z" fill="#61BC47"/>
<path d="M36.7744 11.6129H38.7099V13.5484H36.7744V11.6129Z" fill="#61BC47"/>
<path d="M27.0966 7.74197V5.80649C26.5636 5.80649 26.1288 5.3727 26.1288 4.83875H24.1934C24.1934 6.43921 25.4961 7.74197 27.0966 7.74197Z" fill="#61BC47"/>
<path d="M45.4838 14.5161H43.5483C43.5483 15.0501 43.1136 15.4839 42.5806 15.4839V17.4193C44.181 17.4193 45.4838 16.1166 45.4838 14.5161Z" fill="#61BC47"/>
<path d="M17.4193 17.4193V15.4839C16.8863 15.4839 16.4516 15.0501 16.4516 14.5161H14.5161C14.5161 16.1166 15.8189 17.4193 17.4193 17.4193Z" fill="#61BC47"/>
<path d="M29.9999 42.5806C31.6004 42.5806 32.9031 41.2779 32.9031 39.6774C32.9031 38.0769 31.6004 36.7742 29.9999 36.7742C28.3994 36.7742 27.0967 38.0769 27.0967 39.6774C27.0967 41.2779 28.3994 42.5806 29.9999 42.5806ZM29.9999 38.7097C30.5329 38.7097 30.9676 39.1434 30.9676 39.6774C30.9676 40.2114 30.5329 40.6451 29.9999 40.6451C29.4669 40.6451 29.0322 40.2114 29.0322 39.6774C29.0322 39.1434 29.4669 38.7097 29.9999 38.7097Z" fill="#61BC47"/>
<path d="M25.8939 44.2817C26.443 43.7341 26.7449 43.0045 26.7449 42.2286C26.7449 41.4532 26.443 40.7236 25.8939 40.1759C24.7608 39.0428 22.9193 39.0437 21.7881 40.1759C21.2404 40.7236 20.9385 41.4532 20.9385 42.2286C20.9385 43.0045 21.2404 43.7331 21.7881 44.2808C22.3542 44.8469 23.0975 45.1304 23.8417 45.1304C24.5845 45.1304 25.3278 44.8469 25.8939 44.2817ZM23.1575 42.9123C22.9746 42.7304 22.8749 42.4875 22.8749 42.2286C22.8749 41.9701 22.9756 41.7263 23.1575 41.5444C23.346 41.3553 23.5936 41.2618 23.8426 41.2618C24.0903 41.2618 24.3379 41.3553 24.5269 41.5444C24.7097 41.7272 24.8104 41.9701 24.8104 42.2286C24.8104 42.4875 24.7097 42.7295 24.5269 42.9123C24.1484 43.2899 23.5327 43.287 23.1575 42.9123Z" fill="#61BC47"/>
<path d="M34.1064 40.1759C33.5573 40.7236 33.2554 41.4532 33.2554 42.2286C33.2554 43.0045 33.5573 43.7341 34.1064 44.2808C34.6725 44.8469 35.4158 45.1294 36.16 45.1294C36.9028 45.1294 37.6461 44.8469 38.2122 44.2808C38.7599 43.7331 39.0618 43.0045 39.0618 42.2286C39.0618 41.4532 38.7599 40.7236 38.2122 40.1759C37.0781 39.0428 35.2376 39.0437 34.1064 40.1759ZM36.8428 42.9123C36.4648 43.2908 35.851 43.2889 35.4734 42.9114C35.2915 42.7295 35.1909 42.4875 35.1909 42.2286C35.1909 41.9701 35.2915 41.7272 35.4748 41.5444C35.6634 41.3553 35.911 41.2618 36.16 41.2618C36.4076 41.2618 36.6552 41.3553 36.8438 41.5444C37.0271 41.7263 37.1278 41.9701 37.1278 42.2286C37.1263 42.4866 37.0257 42.7295 36.8428 42.9123Z" fill="#61BC47"/>
<path d="M29.9998 44.5161C26.2016 44.5161 23.2256 46.6411 23.2256 49.3548C23.2256 52.0686 26.2016 54.1935 29.9998 54.1935C33.798 54.1935 36.774 52.0686 36.774 49.3548C36.774 46.6411 33.798 44.5161 29.9998 44.5161ZM29.9998 52.258C27.3772 52.258 25.1611 50.9283 25.1611 49.3548C25.1611 47.7813 27.3772 46.4516 29.9998 46.4516C32.6223 46.4516 34.8385 47.7813 34.8385 49.3548C34.8385 50.9283 32.6223 52.258 29.9998 52.258Z" fill="#61BC47"/>
</g>
<defs>
<clipPath id="clip0_1_2069">
<rect width="60" height="60" fill="white"/>
</clipPath>
</defs>
</svg>
