<svg width="24" height="24" viewBox="0 0 24 24" fill="none" xmlns="http://www.w3.org/2000/svg">
<path d="M19 10.0253V5.00002C19 3.897 18.103 3 17 3H1.99997C0.896953 3 0 3.89695 0 5.00002V15C0 16.103 0.896953 17 2.00002 17H13.2132C13.8683 19.305 15.9878 21 18.5 21C19.4668 21 20.4175 20.7456 21.2505 20.2637C21.4893 20.1255 21.5713 19.8198 21.4326 19.5806C21.2944 19.3413 20.9883 19.2588 20.7495 19.3985C20.0688 19.792 19.291 20 18.5 20C16.0185 20 14 17.9814 14 15.5C14 13.0186 16.0185 11 18.5 11C20.9814 11 23 13.0186 23 15.5V16C23 16.5513 22.5512 17 22 17C21.4487 17 21 16.5513 21 16V14C21 13.7236 20.7764 13.5 20.5 13.5C20.3655 13.5 20.2447 13.5544 20.1549 13.6406C19.713 13.2468 19.137 13 18.5 13C17.1216 13 16 14.1216 16 15.5C16 16.8784 17.1216 18 18.5 18C19.2451 18 19.9077 17.6657 20.3661 17.1468C20.7283 17.6613 21.3242 18 22 18C23.103 18 24 17.103 24 16V15.5C24 12.636 21.7989 10.2791 19 10.0253ZM2.00002 3.99998H17C17.0208 3.99998 17.0383 4.01062 17.0588 4.01189L9.91116 9.87891C9.65677 10.0391 9.28809 10.0058 9.12258 9.90431L1.94184 4.0118C1.96214 4.01058 1.97939 3.99998 2.00002 3.99998ZM18 10.0253C15.201 10.2791 13 12.636 13 15.5C13 15.6688 13.0103 15.8351 13.0253 16H2.00002C1.44877 16 1.00003 15.5513 1.00003 15V5.00002C1.00003 4.85841 1.0313 4.72467 1.08464 4.60252L8.53228 10.71C8.82328 10.8999 9.15778 11.0001 9.50006 11.0001C9.82917 11.0001 10.1509 10.9073 10.4341 10.7315C10.4625 10.7164 10.4893 10.6983 10.5147 10.6773L17.9153 4.60242C17.9687 4.72467 18 4.85841 18 5.00006V10.0253H18ZM18.5 17C17.6729 17 17 16.3272 17 15.5C17 14.6729 17.6729 14 18.5 14C19.3272 14 20 14.6729 20 15.5C20 16.3272 19.3272 17 18.5 17Z" fill="#61BC47"/>
</svg>
