<svg width="50" height="50" viewBox="0 0 50 50" fill="none" xmlns="http://www.w3.org/2000/svg">
<path d="M35.6854 17.0374H35.7135C35.8032 17.0338 35.8913 17.0125 35.9728 16.9748C36.0543 16.9371 36.1275 16.8837 36.1884 16.8177C36.2492 16.7517 36.2964 16.6743 36.3274 16.59C36.3583 16.5057 36.3723 16.4162 36.3686 16.3265L36.2061 12.3714C36.2033 12.2815 36.1827 12.193 36.1453 12.1111C36.1079 12.0293 36.0546 11.9557 35.9884 11.8947C35.9222 11.8337 35.8445 11.7866 35.7599 11.756C35.6753 11.7255 35.5854 11.7121 35.4955 11.7167C35.4058 11.7203 35.3177 11.7416 35.2362 11.7793C35.1547 11.817 35.0815 11.8704 35.0206 11.9364C34.9598 12.0024 34.9125 12.0798 34.8816 12.1641C34.8507 12.2484 34.8367 12.3379 34.8404 12.4276L35.0025 16.3827C35.01 16.5588 35.0852 16.7253 35.2124 16.8472C35.3396 16.9692 35.5091 17.0374 35.6854 17.0374Z" fill="black"/>
<path d="M13.7698 29.9897C11.8272 29.9897 10.0093 33.3101 10.0093 34.8163C10.0093 35.394 10.0796 36.2136 10.689 36.6522C11.3358 37.121 12.1276 36.8597 12.8269 36.6296C13.1295 36.5111 13.4466 36.434 13.7698 36.4003C14.093 36.434 14.4102 36.5111 14.7128 36.6296C15.1253 36.79 15.5601 36.8855 16.0019 36.9128C16.3052 36.92 16.6026 36.8285 16.8495 36.6522C17.4589 36.2116 17.5292 35.3921 17.5292 34.8163C17.5304 33.3089 15.7124 29.9897 13.7698 29.9897ZM16.0589 35.5409C15.743 35.5251 15.4321 35.4548 15.1401 35.3331C14.7019 35.1624 14.2394 35.0618 13.7698 35.0351C13.3002 35.0618 12.8378 35.1624 12.3995 35.3331C12.1109 35.4501 11.8066 35.5237 11.4964 35.5515C11.4964 35.5515 11.3765 35.4163 11.3765 34.8163C11.3765 33.8132 12.8183 31.3569 13.7698 31.3569C14.7214 31.3569 16.1632 33.8132 16.1632 34.8163C16.1863 35.0627 16.1505 35.311 16.0589 35.5409Z" fill="#61BC47"/>
<path d="M15.1931 29.9547C15.3692 30.0266 15.5576 30.0633 15.7478 30.0629C16.0547 30.0598 16.355 29.9733 16.6165 29.8125C17.0328 29.5533 17.3547 29.1671 17.5349 28.711C17.9677 27.6535 17.6177 26.543 16.7372 26.1824C16.5054 26.093 16.2558 26.0593 16.0086 26.084C15.7613 26.1087 15.5234 26.1911 15.3138 26.3246C14.9016 26.5883 14.5808 26.9729 14.3954 27.4257C14.21 27.8786 14.1689 28.3776 14.2779 28.8547C14.3336 29.0969 14.4455 29.3226 14.6045 29.5137C14.7635 29.7047 14.9651 29.8558 15.1931 29.9547ZM15.6618 27.9442C15.7304 27.7621 15.8541 27.606 16.0157 27.4977C16.0646 27.4653 16.121 27.446 16.1794 27.4414C16.1928 27.4411 16.2061 27.4435 16.2185 27.4485C16.3232 27.491 16.4239 27.8145 16.2685 28.1934C16.1996 28.3758 16.0751 28.532 15.9126 28.6399C15.8885 28.6685 15.8559 28.6888 15.8195 28.6978C15.7831 28.7068 15.7448 28.704 15.7101 28.6899C15.6753 28.6757 15.646 28.6509 15.6262 28.6191C15.6065 28.5872 15.5973 28.5499 15.6001 28.5125C15.5604 28.3214 15.5815 28.1226 15.6607 27.9442H15.6618Z" fill="#61BC47"/>
<path d="M19.8441 29.6321C19.2972 28.9196 18.2034 28.8731 17.3519 29.5259C16.5003 30.1786 16.2636 31.2501 16.8105 31.9602C16.9547 32.1412 17.1388 32.2862 17.3486 32.3839C17.5583 32.4817 17.7878 32.5295 18.0191 32.5235H18.0421C18.5002 32.5102 18.9419 32.3501 19.3023 32.0669C20.1523 31.4142 20.3909 30.345 19.8441 29.6321ZM18.4702 30.9821C18.3438 31.0854 18.1882 31.1463 18.0253 31.1563C17.9421 31.1563 17.903 31.1372 17.896 31.1278C17.8612 31.0829 17.9108 30.8204 18.1847 30.6102C18.3143 30.5044 18.4746 30.4432 18.6417 30.4356C18.683 30.4306 18.7247 30.4409 18.7589 30.4645C18.7929 30.5079 18.7437 30.772 18.4694 30.9821H18.4702Z" fill="#61BC47"/>
<path d="M10.9227 29.8126C11.1842 29.9733 11.4845 30.0599 11.7914 30.0629C11.9816 30.0634 12.1701 30.0266 12.3461 29.9547C12.5741 29.8559 12.7757 29.7049 12.9346 29.5139C13.0936 29.3229 13.2055 29.0973 13.2614 28.8551C13.3704 28.3782 13.3295 27.8792 13.1443 27.4264C12.9591 26.9735 12.6386 26.5889 12.2266 26.3251C12.017 26.1918 11.779 26.1095 11.5318 26.0848C11.2846 26.0601 11.035 26.0937 10.8032 26.1829C9.9227 26.5434 9.5727 27.654 10.0055 28.7114C10.1854 29.1672 10.5069 29.5532 10.9227 29.8126ZM11.32 27.4485C11.3324 27.4435 11.3457 27.4411 11.359 27.4415C11.4175 27.446 11.4738 27.4654 11.5227 27.4977C11.682 27.6094 11.8058 27.7645 11.8795 27.9446C11.9532 28.1246 11.9736 28.322 11.9383 28.5133C11.9411 28.5507 11.9319 28.588 11.9122 28.6199C11.8924 28.6517 11.8631 28.6765 11.8284 28.6907C11.7937 28.7048 11.7554 28.7076 11.719 28.6986C11.6826 28.6896 11.65 28.6694 11.6258 28.6407C11.4633 28.5328 11.3389 28.3766 11.27 28.1942C11.1145 27.8145 11.2153 27.4911 11.32 27.4485Z" fill="#61BC47"/>
<path d="M10.7292 31.9602C11.2761 31.2481 11.0382 30.1786 10.1882 29.5255C9.33821 28.8723 8.24329 28.92 7.69641 29.6321C7.14954 30.3442 7.38743 31.4141 8.23743 32.0669C8.59775 32.3501 9.03948 32.5101 9.49759 32.5235H9.52063C9.7519 32.5293 9.98138 32.4815 10.1911 32.3838C10.4008 32.2861 10.585 32.1411 10.7292 31.9602ZM9.64446 31.1278C9.60519 31.15 9.56015 31.16 9.51516 31.1563C9.35227 31.1463 9.19663 31.0854 9.07024 30.9821C8.7968 30.7719 8.7468 30.5094 8.78118 30.4645C8.81555 30.4196 9.08196 30.4001 9.35579 30.6098C9.62962 30.8196 9.67923 31.0829 9.64446 31.1278Z" fill="#61BC47"/>
<path d="M48.1373 47.3617L46.7048 37.5961C46.6814 37.4335 46.6001 37.2847 46.4759 37.1771C46.3518 37.0695 46.193 37.0103 46.0287 37.0102H45.7263C45.5794 36.3704 45.2768 35.7769 44.8453 35.2821C44.4139 34.7874 43.8671 34.4069 43.2533 34.1742C42.8905 33.7161 42.4305 33.3442 41.9065 33.0855C41.3825 32.8269 40.8075 32.6879 40.2232 32.6785C39.964 32.4364 39.6742 32.2294 39.3611 32.0629L38.3345 7.03125L39.0994 2.65625C39.1165 2.55804 39.1119 2.45728 39.0859 2.36103C39.0599 2.26478 39.0132 2.17538 38.9491 2.09908C38.8849 2.02279 38.8048 1.96145 38.7145 1.91937C38.6241 1.87728 38.5256 1.85547 38.4259 1.85547H11.5744C11.4747 1.85547 11.3762 1.87728 11.2858 1.91937C11.1955 1.96145 11.1154 2.02279 11.0512 2.09908C10.9871 2.17538 10.9404 2.26478 10.9144 2.36103C10.8884 2.45728 10.8838 2.55804 10.9009 2.65625L11.6689 7.04688L11.3443 14.909H3.7111C3.27542 14.9079 2.85333 15.0606 2.51912 15.3401C2.1849 15.6196 1.95997 16.008 1.8839 16.437C1.80784 16.8659 1.88552 17.308 2.10327 17.6854C2.32103 18.0627 2.6649 18.3512 3.07438 18.5V44.5547C2.66616 44.7044 2.32367 44.9931 2.10693 45.37C1.89019 45.747 1.81303 46.1882 1.88897 46.6163C1.96491 47.0445 2.1891 47.4322 2.52225 47.7116C2.85541 47.991 3.27628 48.1443 3.7111 48.1445H47.4611C47.5591 48.1445 47.6559 48.1233 47.745 48.0826C47.8341 48.0418 47.9134 47.9824 47.9776 47.9083C48.0417 47.8342 48.0891 47.7472 48.1167 47.6532C48.1442 47.5591 48.1513 47.4603 48.1373 47.3633V47.3617ZM40.0244 34.0543C40.0721 34.0492 40.1201 34.0468 40.1681 34.0469C40.5815 34.048 40.9885 34.1486 41.3549 34.34C41.7212 34.5315 42.0362 34.8082 42.2732 35.1469C42.3602 35.2709 42.4859 35.3624 42.6306 35.407C43.0146 35.5273 43.3655 35.7347 43.656 36.0131C43.9466 36.2914 44.1687 36.6332 44.3052 37.0117H30.6334C30.7696 36.6331 30.9917 36.2912 31.2822 36.0129C31.5728 35.7345 31.9239 35.5273 32.308 35.4074C32.4538 35.3625 32.5804 35.2701 32.6677 35.1449C32.9039 34.8063 33.2183 34.5297 33.5843 34.3385C33.9502 34.1474 34.3568 34.0473 34.7697 34.0469C34.8161 34.0468 34.8626 34.0492 34.9087 34.0543C35.0159 34.0662 35.1243 34.0526 35.2252 34.0147C35.326 33.9767 35.4165 33.9155 35.4892 33.8359C35.8522 33.4359 36.3281 33.1555 36.854 33.0318C37.3799 32.9081 37.9309 32.947 38.4341 33.1434L38.4404 33.1457C38.8237 33.2954 39.1673 33.5317 39.4443 33.8359C39.5168 33.9157 39.6071 33.9771 39.708 34.0151C39.8089 34.0531 39.9173 34.0665 40.0244 34.0543ZM37.6123 3.22266L37.0744 6.30078H12.9263L12.3877 3.22266H37.6123ZM13.0115 7.66797H36.9923L37.9752 31.6285C37.3871 31.5504 36.7891 31.6042 36.2245 31.7861C35.6599 31.968 35.1429 32.2734 34.7111 32.6801C34.1271 32.6891 33.5525 32.828 33.0288 33.0867C32.5052 33.3454 32.0457 33.7174 31.6838 34.1758C31.0699 34.4082 30.523 34.7887 30.0916 35.2835C29.6602 35.7782 29.3578 36.3719 29.2111 37.0117H28.9064C28.7421 37.0118 28.5833 37.0711 28.4591 37.1787C28.335 37.2863 28.2537 37.435 28.2302 37.5977L26.8834 46.7773H25.6103C25.7417 46.3305 25.696 45.8501 25.4828 45.436C25.2696 45.0219 24.9051 44.7057 24.465 44.5531V35.6984C24.6423 35.709 24.8205 35.7188 25.0002 35.7188C27.2535 35.7188 29.4145 34.8236 31.0078 33.2303C32.6011 31.637 33.4963 29.476 33.4963 27.2227C33.4963 24.9694 32.6011 22.8083 31.0078 21.215C29.4145 19.6217 27.2535 18.7266 25.0002 18.7266C24.8201 18.7266 24.6423 18.7359 24.465 18.7469V18.5C24.8745 18.3512 25.2184 18.0627 25.4361 17.6854C25.6539 17.308 25.7315 16.8659 25.6555 16.437C25.5794 16.008 25.3545 15.6196 25.0203 15.3401C24.686 15.0606 24.264 14.9079 23.8283 14.909H12.7127L13.0115 7.66797ZM4.44156 44.4336V18.6199H23.0978V44.4336H4.44156ZM24.465 20.1141C24.6416 20.1012 24.8201 20.0938 25.0002 20.0938C26.8909 20.0938 28.7041 20.8448 30.0411 22.1818C31.378 23.5187 32.1291 25.332 32.1291 27.2227C32.1291 29.1134 31.378 30.9266 30.0411 32.2636C28.7041 33.6005 26.8909 34.3516 25.0002 34.3516C24.8201 34.3516 24.6416 34.3441 24.465 34.3312V20.1141ZM3.7111 16.2762H23.8283C23.9578 16.2762 24.082 16.3276 24.1735 16.4192C24.2651 16.5108 24.3166 16.635 24.3166 16.7645C24.3166 16.894 24.2651 17.0182 24.1735 17.1097C24.082 17.2013 23.9578 17.2527 23.8283 17.2527H3.7111C3.5816 17.2527 3.4574 17.2013 3.36583 17.1097C3.27426 17.0182 3.22281 16.894 3.22281 16.7645C3.22281 16.635 3.27426 16.5108 3.36583 16.4192C3.4574 16.3276 3.5816 16.2762 3.7111 16.2762ZM3.22281 46.2891C3.22302 46.1596 3.27453 46.0355 3.36606 45.944C3.45758 45.8525 3.58166 45.801 3.7111 45.8008H23.8283C23.9578 45.8008 24.082 45.8522 24.1735 45.9438C24.2651 46.0354 24.3166 46.1596 24.3166 46.2891C24.3166 46.4186 24.2651 46.5428 24.1735 46.6343C24.082 46.7259 23.9578 46.7773 23.8283 46.7773H3.7111C3.58166 46.7771 3.45758 46.7256 3.36606 46.6341C3.27453 46.5426 3.22302 46.4185 3.22281 46.2891ZM28.297 46.7773H28.265L29.497 38.3789H45.438L46.6701 46.7773H28.297Z" fill="#095052"/>
<path d="M42.1553 39.616C41.7951 39.6166 41.4412 39.7111 41.1286 39.8901C40.8161 40.0692 40.5556 40.3266 40.3729 40.6371H34.5623C34.2927 40.1765 33.8553 39.8381 33.3418 39.6927C32.8283 39.5473 32.2785 39.6062 31.8074 39.857C31.3363 40.1078 30.9805 40.5311 30.8145 41.0383C30.6484 41.5455 30.685 42.0973 30.9166 42.5781C30.685 43.0589 30.6484 43.6107 30.8145 44.1179C30.9805 44.6251 31.3363 45.0484 31.8074 45.2992C32.2785 45.55 32.8283 45.6089 33.3418 45.4635C33.8553 45.3181 34.2927 44.9797 34.5623 44.5191H40.3729C40.6432 44.9783 41.0805 45.3153 41.5934 45.4599C42.1063 45.6045 42.6552 45.5454 43.1256 45.295C43.596 45.0446 43.9515 44.6222 44.1179 44.116C44.2844 43.6097 44.2489 43.0588 44.019 42.5781C44.1705 42.263 44.2396 41.9145 44.2199 41.5654C44.2001 41.2163 44.092 40.8779 43.9058 40.5819C43.7196 40.286 43.4613 40.0421 43.1551 39.8732C42.849 39.7042 42.505 39.6157 42.1553 39.616ZM42.6897 43.0207C42.7976 43.1464 42.8567 43.3069 42.8561 43.4726C42.856 43.6423 42.7943 43.8061 42.6825 43.9337C42.5707 44.0613 42.4164 44.144 42.2483 44.1664C42.0801 44.1889 41.9096 44.1495 41.7682 44.0557C41.6269 43.9618 41.5245 43.8199 41.4799 43.6562C41.4406 43.5114 41.3547 43.3836 41.2356 43.2924C41.1164 43.2013 40.9705 43.1519 40.8205 43.1519H34.1147C33.9646 43.1519 33.8188 43.2013 33.6996 43.2924C33.5804 43.3836 33.4946 43.5114 33.4553 43.6562C33.411 43.8201 33.3087 43.9624 33.1673 44.0564C33.0259 44.1505 32.8552 44.19 32.6869 44.1675C32.5186 44.1451 32.3642 44.0622 32.2525 43.9344C32.1407 43.8065 32.0792 43.6424 32.0795 43.4726C32.0789 43.3066 32.1379 43.146 32.2459 43.0199C32.3507 42.8965 32.4082 42.7399 32.4082 42.5781C32.4082 42.4162 32.3507 42.2596 32.2459 42.1363C32.1379 42.0102 32.0789 41.8495 32.0795 41.6836C32.0792 41.5138 32.1407 41.3497 32.2525 41.2218C32.3642 41.094 32.5186 41.0111 32.6869 40.9886C32.8552 40.9662 33.0259 41.0057 33.1673 41.0997C33.3087 41.1938 33.411 41.336 33.4553 41.5C33.4946 41.6448 33.5804 41.7726 33.6996 41.8637C33.8188 41.9549 33.9646 42.0043 34.1147 42.0043H40.8205C40.9705 42.0043 41.1164 41.9549 41.2356 41.8637C41.3547 41.7726 41.4406 41.6448 41.4799 41.5C41.5245 41.3363 41.6269 41.1943 41.7682 41.1005C41.9096 41.0067 42.0801 40.9673 42.2483 40.9897C42.4164 41.0122 42.5707 41.0949 42.6825 41.2225C42.7943 41.3501 42.856 41.5139 42.8561 41.6836C42.8567 41.8493 42.7976 42.0097 42.6897 42.1355C42.5847 42.2591 42.527 42.4159 42.527 42.5781C42.527 42.7402 42.5847 42.8971 42.6897 43.0207Z" fill="#61BC47"/>
</svg>
