<svg width="64" height="64" viewBox="0 0 64 64" fill="none" xmlns="http://www.w3.org/2000/svg">
<path d="M45.677 22.0539H45.713C45.8278 22.0492 45.9406 22.0216 46.0449 21.9728C46.1492 21.9239 46.243 21.8547 46.3208 21.7691C46.3987 21.6835 46.4592 21.5832 46.4987 21.474C46.5383 21.3647 46.5562 21.2486 46.5515 21.1323L46.3435 16.0058C46.34 15.8892 46.3135 15.7745 46.2657 15.6684C46.2178 15.5623 46.1496 15.4669 46.0649 15.3879C45.9801 15.3089 45.8807 15.2477 45.7724 15.2081C45.6641 15.1685 45.549 15.1512 45.434 15.1572C45.3191 15.1619 45.2064 15.1894 45.1021 15.2383C44.9978 15.2871 44.904 15.3563 44.8261 15.4419C44.7482 15.5275 44.6878 15.6278 44.6482 15.7371C44.6086 15.8463 44.5907 15.9624 44.5955 16.0787L44.803 21.2053C44.8125 21.4335 44.9088 21.6493 45.0716 21.8074C45.2345 21.9655 45.4514 22.0538 45.677 22.0539Z" fill="black"/>
<path d="M17.625 38.8428C15.1385 38.8428 12.8115 43.1466 12.8115 45.099C12.8115 45.8478 12.9015 46.9101 13.6815 47.4787C14.5095 48.0863 15.523 47.7476 16.418 47.4494C16.8053 47.2958 17.2113 47.1959 17.625 47.1521C18.0387 47.1959 18.4447 47.2958 18.832 47.4494C19.36 47.6572 19.9166 47.7811 20.482 47.8164C20.8703 47.8258 21.251 47.7072 21.567 47.4787C22.347 46.9076 22.437 45.8453 22.437 45.099C22.4385 43.145 20.1115 38.8428 17.625 38.8428ZM20.555 46.0382C20.1506 46.0177 19.7528 45.9266 19.379 45.7688C18.818 45.5475 18.2261 45.4172 17.625 45.3825C17.0239 45.4172 16.432 45.5475 15.871 45.7688C15.5016 45.9205 15.112 46.0159 14.715 46.0519C14.715 46.0519 14.5615 45.8767 14.5615 45.099C14.5615 43.7987 16.407 40.6149 17.625 40.6149C18.843 40.6149 20.6885 43.7987 20.6885 45.099C20.7181 45.4183 20.6723 45.7403 20.555 46.0382Z" fill="#61BC47"/>
<path d="M19.447 38.7972C19.6724 38.8903 19.9136 38.9379 20.157 38.9374C20.5499 38.9334 20.9343 38.8212 21.269 38.6128C21.8018 38.2768 22.2139 37.7762 22.4445 37.185C22.9985 35.8144 22.5505 34.3749 21.4235 33.9075C21.1268 33.7916 20.8073 33.7479 20.4908 33.78C20.1744 33.812 19.8697 33.9188 19.6015 34.0918C19.0739 34.4336 18.6633 34.9321 18.426 35.5191C18.1886 36.1061 18.1361 36.753 18.2755 37.3713C18.3469 37.6853 18.4901 37.9778 18.6936 38.2255C18.8971 38.4731 19.1551 38.6689 19.447 38.7972ZM20.047 36.1911C20.1347 35.9551 20.2931 35.7527 20.5 35.6123C20.5626 35.5704 20.6347 35.5453 20.7095 35.5394C20.7266 35.539 20.7436 35.5421 20.7595 35.5485C20.8935 35.6037 21.0225 36.023 20.8235 36.5141C20.7353 36.7506 20.576 36.953 20.368 37.0928C20.3371 37.13 20.2953 37.1563 20.2488 37.1679C20.2022 37.1796 20.1531 37.176 20.1087 37.1576C20.0643 37.1393 20.0267 37.1072 20.0014 37.0659C19.9762 37.0246 19.9644 36.9762 19.968 36.9278C19.9171 36.6801 19.9442 36.4224 20.0455 36.1911H20.047Z" fill="#61BC47"/>
<path d="M25.4003 38.3791C24.7003 37.4555 23.3003 37.3953 22.2103 38.2414C21.1203 39.0874 20.8173 40.4763 21.5173 41.3968C21.7018 41.6313 21.9376 41.8193 22.206 41.946C22.4744 42.0727 22.7682 42.1346 23.0643 42.1269H23.0938C23.6801 42.1096 24.2455 41.9021 24.7068 41.535C25.7948 40.6889 26.1003 39.3031 25.4003 38.3791ZM23.6418 40.1289C23.48 40.2628 23.2808 40.3418 23.0723 40.3548C22.9658 40.3548 22.9158 40.33 22.9068 40.3178C22.8623 40.2596 22.9258 39.9193 23.2763 39.6469C23.4421 39.5097 23.6473 39.4304 23.8613 39.4206C23.9141 39.4141 23.9675 39.4274 24.0113 39.4581C24.0548 39.5143 23.9918 39.8565 23.6408 40.1289H23.6418Z" fill="#61BC47"/>
<path d="M13.9814 38.6129C14.3161 38.8213 14.7005 38.9335 15.0934 38.9375C15.3368 38.938 15.578 38.8904 15.8034 38.7972C16.0952 38.6691 16.3532 38.4733 16.5567 38.2258C16.7601 37.9782 16.9034 37.6858 16.9749 37.3719C17.1144 36.7537 17.0621 36.1069 16.825 35.5199C16.588 34.933 16.1777 34.4344 15.6504 34.0924C15.382 33.9196 15.0774 33.813 14.761 33.781C14.4446 33.7489 14.1252 33.7925 13.8284 33.9081C12.7014 34.3754 12.2534 35.8149 12.8074 37.1856C13.0377 37.7764 13.4492 38.2767 13.9814 38.6129ZM14.4899 35.5486C14.5058 35.5422 14.5228 35.5391 14.5399 35.5395C14.6147 35.5454 14.6868 35.5705 14.7494 35.6124C14.9532 35.7572 15.1117 35.9582 15.2061 36.1916C15.3004 36.425 15.3265 36.6809 15.2814 36.9289C15.2849 36.9773 15.2732 37.0257 15.2479 37.067C15.2226 37.1083 15.1851 37.1404 15.1406 37.1587C15.0962 37.1771 15.0472 37.1807 15.0006 37.169C14.954 37.1574 14.9123 37.1311 14.8814 37.0939C14.6734 36.9541 14.5141 36.7517 14.4259 36.5152C14.2269 36.023 14.3559 35.6038 14.4899 35.5486Z" fill="#61BC47"/>
<path d="M13.7334 41.3968C14.4334 40.4738 14.1289 39.0875 13.0409 38.2409C11.9529 37.3943 10.5514 37.4561 9.85137 38.3791C9.15137 39.3022 9.45587 40.689 10.5439 41.5351C11.0051 41.9022 11.5705 42.1097 12.1569 42.127H12.1864C12.4824 42.1345 12.7761 42.0726 13.0445 41.9459C13.3129 41.8192 13.5487 41.6313 13.7334 41.3968ZM12.3449 40.3179C12.2946 40.3467 12.2369 40.3596 12.1794 40.3548C11.9709 40.3418 11.7717 40.2628 11.6099 40.129C11.2599 39.8566 11.1959 39.5163 11.2399 39.4581C11.2839 39.3999 11.6249 39.3746 11.9754 39.6465C12.3259 39.9184 12.3894 40.2596 12.3449 40.3179Z" fill="#61BC47"/>
<path d="M61.6157 61.3603L59.7822 48.7021C59.7522 48.4913 59.6481 48.2985 59.4892 48.159C59.3302 48.0196 59.127 47.9427 58.9167 47.9426H58.5297C58.3416 47.1134 57.9543 46.344 57.402 45.7027C56.8498 45.0615 56.1498 44.5682 55.3642 44.2666C54.8999 43.6728 54.311 43.1908 53.6403 42.8555C52.9695 42.5202 52.2336 42.34 51.4857 42.3279C51.154 42.0141 50.783 41.7458 50.3822 41.5299L49.0682 9.08386L50.0472 3.41297C50.0691 3.28567 50.0632 3.15506 50.03 3.03031C49.9967 2.90555 49.9369 2.78966 49.8548 2.69077C49.7727 2.59188 49.6702 2.51237 49.5545 2.45782C49.4389 2.40327 49.3128 2.37501 49.1852 2.375H14.8152C14.6876 2.37501 14.5615 2.40327 14.4459 2.45782C14.3302 2.51237 14.2277 2.59188 14.1456 2.69077C14.0635 2.78966 14.0037 2.90555 13.9704 3.03031C13.9372 3.15506 13.9313 3.28567 13.9532 3.41297L14.9362 9.10411L14.5207 19.295H4.7502C4.19254 19.2936 3.65227 19.4915 3.22447 19.8538C2.79667 20.2161 2.50876 20.7195 2.4114 21.2756C2.31403 21.8316 2.41347 22.4046 2.69219 22.8938C2.97091 23.3829 3.41107 23.7568 3.9352 23.9497V57.7218C3.41269 57.916 2.9743 58.2901 2.69688 58.7787C2.41945 59.2673 2.32068 59.8392 2.41788 60.3941C2.51508 60.9491 2.80205 61.4517 3.22849 61.8139C3.65493 62.1761 4.19364 62.3747 4.7502 62.375H60.7502C60.8756 62.3749 60.9996 62.3475 61.1136 62.2947C61.2277 62.2419 61.3292 62.1648 61.4113 62.0688C61.4934 61.9728 61.5541 61.86 61.5894 61.7381C61.6246 61.6162 61.6336 61.4881 61.6157 61.3623V61.3603ZM51.2312 44.1112C51.2923 44.1046 51.3537 44.1014 51.4152 44.1016C51.9443 44.1031 52.4653 44.2334 52.9342 44.4816C53.4032 44.7297 53.8063 45.0884 54.1097 45.5274C54.221 45.6881 54.382 45.8068 54.5672 45.8646C55.0587 46.0205 55.5079 46.2893 55.8797 46.6502C56.2516 47.011 56.536 47.454 56.7107 47.9446H39.2107C39.385 47.4539 39.6693 47.0107 40.0412 46.6499C40.4131 46.2891 40.8625 46.0205 41.3542 45.8651C41.5409 45.8069 41.703 45.6871 41.8147 45.5249C42.117 45.086 42.5195 44.7274 42.9878 44.4796C43.4562 44.2318 43.9767 44.1021 44.5052 44.1016C44.5647 44.1014 44.6241 44.1046 44.6832 44.1112C44.8203 44.1266 44.9591 44.109 45.0882 44.0599C45.2173 44.0107 45.3331 43.9313 45.4262 43.8282C45.8909 43.3096 46.5 42.9462 47.1731 42.7859C47.8462 42.6256 48.5515 42.676 49.1957 42.9304L49.2037 42.9335C49.6943 43.1276 50.1341 43.4338 50.4887 43.8282C50.5814 43.9316 50.6971 44.0112 50.8262 44.0604C50.9553 44.1096 51.0941 44.127 51.2312 44.1112ZM48.1437 4.14715L47.4552 8.13702H16.5457L15.8562 4.14715H48.1437ZM16.6547 9.90918H47.3502L48.6082 40.9669C47.8555 40.8656 47.0901 40.9354 46.3674 41.1711C45.6447 41.4069 44.9829 41.8028 44.4302 42.3299C43.6827 42.3416 42.9471 42.5216 42.2769 42.857C41.6066 43.1923 41.0185 43.6745 40.5552 44.2687C39.7695 44.57 39.0694 45.0632 38.5172 45.7045C37.9651 46.3458 37.5779 47.1153 37.3902 47.9446H37.0002C36.7899 47.9447 36.5866 48.0216 36.4277 48.1611C36.2688 48.3005 36.1647 48.4933 36.1347 48.7041L34.4107 60.6028H32.7812C32.9494 60.0236 32.8909 59.401 32.618 58.8642C32.345 58.3274 31.8785 57.9176 31.3152 57.7198V46.2423C31.5422 46.256 31.7702 46.2687 32.0002 46.2687C34.8844 46.2687 37.6505 45.1084 39.69 43.0431C41.7294 40.9779 42.8752 38.1768 42.8752 35.256C42.8752 32.3353 41.7294 29.5342 39.69 27.4689C37.6505 25.4036 34.8844 24.2434 32.0002 24.2434C31.7697 24.2434 31.5422 24.2555 31.3152 24.2697V23.9497C31.8393 23.7568 32.2795 23.3829 32.5582 22.8938C32.8369 22.4046 32.9364 21.8316 32.839 21.2756C32.7416 20.7195 32.4537 20.2161 32.0259 19.8538C31.5981 19.4915 31.0579 19.2936 30.5002 19.295H16.2722L16.6547 9.90918ZM5.6852 57.5649V24.1051H29.5652V57.5649H5.6852ZM31.3152 26.0418C31.5412 26.0251 31.7697 26.0155 32.0002 26.0155C34.4203 26.0155 36.7413 26.9891 38.4525 28.722C40.1638 30.4549 41.1252 32.8053 41.1252 35.256C41.1252 37.7067 40.1638 40.0571 38.4525 41.79C36.7413 43.523 34.4203 44.4965 32.0002 44.4965C31.7697 44.4965 31.5412 44.4869 31.3152 44.4702V26.0418ZM4.7502 21.0672H30.5002C30.666 21.0672 30.8249 21.1338 30.9421 21.2525C31.0594 21.3712 31.1252 21.5322 31.1252 21.7001C31.1252 21.8679 31.0594 22.0289 30.9421 22.1476C30.8249 22.2663 30.666 22.333 30.5002 22.333H4.7502C4.58444 22.333 4.42547 22.2663 4.30826 22.1476C4.19105 22.0289 4.1252 21.8679 4.1252 21.7001C4.1252 21.5322 4.19105 21.3712 4.30826 21.2525C4.42547 21.1338 4.58444 21.0672 4.7502 21.0672ZM4.1252 59.9699C4.12547 59.8022 4.1914 59.6413 4.30855 59.5227C4.42571 59.4041 4.58452 59.3373 4.7502 59.337H30.5002C30.666 59.337 30.8249 59.4037 30.9421 59.5224C31.0594 59.6411 31.1252 59.8021 31.1252 59.9699C31.1252 60.1378 31.0594 60.2988 30.9421 60.4175C30.8249 60.5362 30.666 60.6028 30.5002 60.6028H4.7502C4.58452 60.6026 4.42571 60.5358 4.30855 60.4172C4.1914 60.2985 4.12547 60.1377 4.1252 59.9699ZM36.2202 60.6028H36.1792L37.7562 49.7168H58.1607L59.7377 60.6028H36.2202Z" fill="#095052"/>
<path d="M53.9585 51.3203C53.4975 51.321 53.0445 51.4435 52.6444 51.6756C52.2444 51.9077 51.9109 52.2414 51.677 52.6438H44.2395C43.8944 52.0468 43.3346 51.6082 42.6773 51.4197C42.02 51.2312 41.3163 51.3075 40.7133 51.6326C40.1103 51.9577 39.6549 52.5064 39.4423 53.1639C39.2298 53.8213 39.2766 54.5365 39.573 55.1598C39.2766 55.783 39.2298 56.4982 39.4423 57.1557C39.6549 57.8131 40.1103 58.3618 40.7133 58.6869C41.3163 59.012 42.02 59.0883 42.6773 58.8998C43.3346 58.7113 43.8944 58.2727 44.2395 57.6757H51.677C52.0231 58.2709 52.5828 58.7078 53.2393 58.8952C53.8958 59.0826 54.5985 59.006 55.2006 58.6814C55.8026 58.3568 56.2577 57.8093 56.4708 57.1532C56.6838 56.497 56.6384 55.7828 56.344 55.1598C56.5381 54.7513 56.6265 54.2997 56.6012 53.8471C56.5759 53.3946 56.4375 52.956 56.1992 52.5724C55.9608 52.1887 55.6302 51.8726 55.2384 51.6536C54.8465 51.4346 54.4061 51.3199 53.9585 51.3203ZM54.6425 55.7334C54.7807 55.8965 54.8563 56.1044 54.8555 56.3193C54.8554 56.5391 54.7765 56.7515 54.6334 56.9169C54.4903 57.0823 54.2928 57.1895 54.0776 57.2186C53.8624 57.2476 53.644 57.1966 53.4631 57.075C53.2822 56.9534 53.1511 56.7694 53.094 56.5572C53.0438 56.3695 52.9339 56.2038 52.7813 56.0857C52.6288 55.9676 52.4421 55.9036 52.25 55.9036H43.6665C43.4745 55.9036 43.2878 55.9676 43.1353 56.0857C42.9827 56.2038 42.8728 56.3695 42.8225 56.5572C42.7659 56.7697 42.6349 56.9541 42.4539 57.076C42.273 57.1979 42.0545 57.2491 41.839 57.22C41.6236 57.1909 41.426 57.0835 41.2829 56.9178C41.1399 56.7521 41.0612 56.5393 41.0615 56.3193C41.0608 56.1041 41.1364 55.8958 41.2745 55.7324C41.4087 55.5725 41.4823 55.3696 41.4823 55.1598C41.4823 54.95 41.4087 54.747 41.2745 54.5871C41.1364 54.4237 41.0608 54.2154 41.0615 54.0003C41.0612 53.7802 41.1399 53.5675 41.2829 53.4018C41.426 53.2361 41.6236 53.1286 41.839 53.0995C42.0545 53.0704 42.273 53.1216 42.4539 53.2435C42.6349 53.3654 42.7659 53.5498 42.8225 53.7623C42.8728 53.95 42.9827 54.1157 43.1353 54.2338C43.2878 54.352 43.4745 54.416 43.6665 54.416H52.25C52.4421 54.416 52.6288 54.352 52.7813 54.2338C52.9339 54.1157 53.0438 53.95 53.094 53.7623C53.1511 53.5501 53.2822 53.3662 53.4631 53.2445C53.644 53.1229 53.8624 53.0719 54.0776 53.101C54.2928 53.13 54.4903 53.2372 54.6334 53.4026C54.7765 53.568 54.8554 53.7804 54.8555 54.0003C54.8563 54.2151 54.7807 54.423 54.6425 54.5861C54.5082 54.7463 54.4344 54.9496 54.4344 55.1598C54.4344 55.3699 54.5082 55.5733 54.6425 55.7334Z" fill="#61BC47"/>
</svg>
