<svg width="62" height="45" viewBox="0 0 62 45" fill="none" xmlns="http://www.w3.org/2000/svg">
<line x1="55.0073" y1="23.9075" x2="0.999821" y2="23.9075" stroke="#61BC47" stroke-width="2"/>
<path d="M44.2667 39.3147H18.4399" stroke="#095052" stroke-width="2" stroke-linecap="round" stroke-linejoin="round"/>
<path d="M9.35771 39.3144H5.95198C4.82291 39.3144 3.74013 38.8659 2.94176 38.0676C2.14339 37.2692 1.69482 36.1864 1.69482 35.0573V5.25716C1.69482 4.12809 2.14339 3.04524 2.94176 2.24687C3.74013 1.4485 4.82291 1 5.95198 1H43.415C44.2136 0.999973 44.9961 1.22456 45.6731 1.64814C46.3501 2.07171 46.8943 2.67717 47.2436 3.39535L55.0058 19.3597C55.216 19.7929 55.4981 20.1874 55.8402 20.5262L59.7341 24.3747C60.135 24.7706 60.4533 25.242 60.6705 25.7619C60.8878 26.2817 60.9998 26.8395 60.9999 27.4029V35.0658C60.9999 36.1949 60.5514 37.2777 59.753 38.0761C58.9546 38.8745 57.8718 39.323 56.7427 39.323H53.337" stroke="#095052" stroke-width="2" stroke-linecap="round" stroke-linejoin="round"/>
<path d="M13.8984 43.8554C16.4063 43.8554 18.4394 41.8223 18.4394 39.3144C18.4394 36.8065 16.4063 34.7734 13.8984 34.7734C11.3905 34.7734 9.35742 36.8065 9.35742 39.3144C9.35742 41.8223 11.3905 43.8554 13.8984 43.8554Z" stroke="#095052" stroke-width="2" stroke-linecap="round" stroke-linejoin="round"/>
<path d="M13.8987 41.0168C14.8391 41.0168 15.6015 40.2544 15.6015 39.3139C15.6015 38.3735 14.8391 37.6111 13.8987 37.6111C12.9582 37.6111 12.1958 38.3735 12.1958 39.3139C12.1958 40.2544 12.9582 41.0168 13.8987 41.0168Z" stroke="#095052" stroke-width="2" stroke-linecap="round" stroke-linejoin="round"/>
<path d="M48.8071 43.8554C51.315 43.8554 53.3481 41.8223 53.3481 39.3144C53.3481 36.8065 51.315 34.7734 48.8071 34.7734C46.2992 34.7734 44.2661 36.8065 44.2661 39.3144C44.2661 41.8223 46.2992 43.8554 48.8071 43.8554Z" stroke="#095052" stroke-width="2" stroke-linecap="round" stroke-linejoin="round"/>
<path d="M48.8074 41.0168C49.7478 41.0168 50.5102 40.2544 50.5102 39.3139C50.5102 38.3735 49.7478 37.6111 48.8074 37.6111C47.8669 37.6111 47.1045 38.3735 47.1045 39.3139C47.1045 40.2544 47.8669 41.0168 48.8074 41.0168Z" stroke="#095052" stroke-width="2" stroke-linecap="round" stroke-linejoin="round"/>
<path d="M40.0091 19.7315H55.2242C55.148 19.6117 55.0788 19.4875 55.017 19.3596L49.5395 8.09521H40.0091C38.88 8.09521 37.7972 8.54371 36.9988 9.34208C36.2004 10.1405 35.752 11.2233 35.752 12.3524V15.4743C35.752 16.6034 36.2004 17.6862 36.9988 18.4846C37.7972 19.283 38.88 19.7315 40.0091 19.7315Z" stroke="#095052" stroke-width="2" stroke-linecap="round" stroke-linejoin="round"/>
</svg>
