<svg width="59" height="55" viewBox="0 0 59 55" fill="none" xmlns="http://www.w3.org/2000/svg">
<path d="M46.1565 10.3125C46.1565 6.32546 43.5474 0 36.5464 0C33.6699 0 31.2502 1.35609 29.3334 4.03666C27.4165 1.35609 24.9967 0 22.1204 0C15.1192 0 12.5103 6.32546 12.5103 10.3125C12.5103 17.1867 17.8753 21.4867 25.2046 27.754C26.2816 28.6748 27.3952 29.6271 28.5825 30.6572C28.7979 30.8441 29.0656 30.9375 29.3334 30.9375C29.6012 30.9375 29.8688 30.8441 30.0842 30.6572C31.2716 29.6271 32.3852 28.6748 33.4622 27.754C41.1353 21.1926 46.1565 17.0414 46.1565 10.3125ZM29.3334 28.2764C28.4177 27.4862 27.5445 26.7395 26.694 26.0121C19.0258 19.4553 14.8019 15.8434 14.8019 10.3125C14.8019 6.5607 17.2564 2.29167 22.1204 2.29167C24.6587 2.29167 26.6893 3.74917 28.328 6.74735C28.5289 7.11494 28.9145 7.34365 29.3334 7.34365C29.7523 7.34365 30.1379 7.11494 30.3387 6.74735C31.9775 3.74917 34.008 2.29167 36.5464 2.29167C41.3424 2.29167 43.8648 6.49733 43.8648 10.3125C43.8648 15.8434 39.641 19.4553 31.9728 26.0123C31.1223 26.7395 30.249 27.4862 29.3334 28.2764Z" fill="#61BC47"/>
<path d="M8.23373 44.9296L13.75 47.6873V53.8541C13.75 54.4868 14.2631 54.9999 14.8958 54.9999H27.0417C27.6744 54.9999 28.1875 54.4868 28.1875 53.8541V38.8952C28.1875 35.3846 25.554 32.4734 22.0705 32.1242L21.9767 32.1141C19.9604 31.912 16.3902 30.5328 14.9805 29.1232L12.4072 26.5509C11.5413 25.6851 10.3905 25.2083 9.16667 25.2083V16.0416C9.16667 13.5143 7.11058 11.4583 4.58333 11.4583C2.05608 11.4583 0 13.5143 0 16.0416V31.6066C0 37.2457 3.18519 42.4048 8.23373 44.9296ZM2.29167 16.0416C2.29167 14.778 3.31971 13.7499 4.58333 13.7499C5.84696 13.7499 6.875 14.778 6.875 16.0416V25.8225C5.47754 26.6306 4.58333 28.1371 4.58333 29.7916C4.58333 31.0154 5.06023 32.1662 5.92614 33.032L11.7939 38.901C12.2413 39.3485 12.9668 39.3485 13.4144 38.9011C13.8618 38.4537 13.8619 37.7282 13.4145 37.2806L7.54669 31.4116C7.11345 30.9786 6.875 30.4032 6.875 29.7916C6.875 28.8218 7.48882 27.9532 8.40263 27.6304C8.40274 27.6304 8.40297 27.6303 8.40308 27.6302C8.40331 27.6301 8.40366 27.6301 8.40389 27.63C9.19428 27.3495 10.1318 27.5165 10.7869 28.1717L13.3602 30.744C16.0169 33.4007 21.8214 34.4004 21.8329 34.4036C24.1491 34.6357 25.8957 36.5668 25.8957 38.8952V52.7083H16.0416V46.9791C16.0416 46.545 15.7962 46.1482 15.4081 45.9543L9.25856 42.88C4.96134 40.7307 2.29167 36.4111 2.29167 31.6066V16.0416Z" fill="#095052"/>
<path d="M52.5936 43.3124C53.2264 43.3124 53.7394 42.7994 53.7394 42.1666C53.7394 41.5338 53.2264 41.0208 52.5936 41.0208C51.9608 41.0208 51.4478 41.5338 51.4478 42.1666C51.4478 42.7994 51.9608 43.3124 52.5936 43.3124Z" fill="#095052"/>
<path d="M54.0832 11.4583C51.5559 11.4583 49.4998 13.5143 49.4998 16.0416V25.2083C48.276 25.2083 47.1252 25.6851 46.2595 26.5509L43.6858 29.1235C42.2763 30.5329 38.7061 31.9121 36.6808 32.115L36.605 32.1232C33.1125 32.4734 30.479 35.3847 30.479 38.8952V53.8541C30.479 54.4868 30.9921 54.9999 31.6248 54.9999H43.7707C44.4034 54.9999 44.9165 54.4868 44.9165 53.8541V47.6873L48.6668 45.8125C49.2327 45.5295 49.4623 44.8413 49.1793 44.2753C48.8963 43.7093 48.208 43.4796 47.6421 43.7627L43.2583 45.9543C42.8702 46.1482 42.6248 46.545 42.6248 46.9791V52.7083H32.7707V38.8952C32.7707 36.5668 34.5173 34.6357 36.8424 34.4026L36.9182 34.3944C39.4037 34.1452 43.5189 32.5312 45.306 30.7441L47.8797 28.1716C48.5366 27.5145 49.476 27.351 50.2625 27.63C50.2627 27.6301 50.2631 27.6301 50.2633 27.6302C50.2634 27.6302 50.2636 27.6303 50.2638 27.6304C51.1777 27.9532 51.7915 28.8218 51.7915 29.7916C51.7915 30.4032 51.5531 30.9786 51.1199 31.4118L45.2521 37.2808C44.8047 37.7282 44.8048 38.4537 45.2522 38.9012C45.6995 39.3486 46.4252 39.3486 46.8727 38.9011L52.7405 33.0322C53.6063 32.1662 54.0832 31.0154 54.0832 29.7916C54.0832 28.1371 53.189 26.6306 51.7915 25.8225V16.0416C51.7915 14.778 52.8195 13.7499 54.0832 13.7499C55.3468 13.7499 56.3748 14.778 56.3748 16.0416V31.6066C56.3748 33.703 55.8458 35.7843 54.8448 37.6254C54.5424 38.1815 54.7481 38.8771 55.3042 39.1794C55.86 39.4817 56.556 39.2762 56.8581 38.72C58.0412 36.544 58.6665 34.0842 58.6665 31.6066V16.0416C58.6665 13.5143 56.6104 11.4583 54.0832 11.4583Z" fill="#095052"/>
</svg>
