<svg width="50" height="48" viewBox="0 0 50 48" fill="none" xmlns="http://www.w3.org/2000/svg">
<path d="M49.5 22.5C49.5 35.7548 39.2548 47.5 26 47.5C12.7452 47.5 0.5 37.2548 0.5 24C0.5 10.7452 12.7452 0 26 0C39.2548 0 49.5 9.24517 49.5 22.5Z" fill="white"/>
<path d="M33.4795 20.6763C33.4139 20.5405 33.3857 20.3893 33.3982 20.239L33.8347 14.9626C33.8838 14.3687 33.6639 13.7931 33.2314 13.3833C32.799 12.9734 32.2119 12.7848 31.622 12.8656C31.168 12.9279 30.7286 13.0761 30.3303 13.2994C30.2989 13.2563 30.2665 13.2137 30.2319 13.1724C29.4102 12.1921 27.9443 12.0629 26.964 12.8842L23.4132 15.856V15.1912C23.4132 15.1416 23.4279 15.0938 23.4559 15.0529L24.1924 13.9752C24.3337 13.7684 24.2806 13.4863 24.0738 13.345C23.8669 13.2036 23.5848 13.2568 23.4436 13.4635L22.7071 14.5412C22.5757 14.7335 22.5063 14.9582 22.5063 15.1912V16.615L19.6804 18.9801V14.7091C19.6804 14.2203 19.8261 13.7486 20.102 13.345L22.6956 9.54938C22.9085 9.23777 23.23 9.02773 23.601 8.95796C23.9719 8.88819 24.3477 8.96697 24.6594 9.17997C24.971 9.39285 25.181 9.71443 25.2508 10.0854C25.3205 10.4562 25.2418 10.8322 25.0288 11.1437L24.553 11.8402C24.4117 12.047 24.4648 12.3291 24.6715 12.4704C24.8782 12.6117 25.1605 12.5586 25.3017 12.3519L25.7776 11.6554C26.1271 11.1438 26.2566 10.5266 26.142 9.9177C26.0274 9.30875 25.6826 8.78075 25.171 8.43117C24.6594 8.0816 24.0423 7.95215 23.4332 8.06672C22.8243 8.18129 22.2964 8.52616 21.9468 9.03777L19.3532 12.8334C18.974 13.3885 18.7735 14.0371 18.7735 14.7092V19.7391L17.4135 20.8773C16.436 21.6954 15.9122 22.9424 16.0121 24.2131L16.3008 27.8834C16.3195 28.121 16.518 28.3013 16.7524 28.3013C16.7643 28.3013 16.7763 28.3008 16.7884 28.2999C17.038 28.2803 17.2246 28.0619 17.2049 27.8123L16.9162 24.1421C16.8392 23.1634 17.2428 22.2029 17.9956 21.5728L27.5463 13.5796C28.1434 13.0791 29.0364 13.1579 29.5368 13.755C30.0372 14.3521 29.9585 15.2451 29.3614 15.7455L24.3898 19.9118C24.081 19.9865 23.7854 20.135 23.5291 20.358L21.0991 22.4731C20.9102 22.6375 20.8904 22.9239 21.0548 23.1128C21.2193 23.3017 21.5056 23.3215 21.6946 23.1571L24.1246 21.042C24.5472 20.674 25.1638 20.6705 25.5907 21.0336L29.266 24.1597C29.5535 24.4042 29.7285 24.7461 29.7588 25.1222C29.7893 25.4985 29.6713 25.864 29.4267 26.1514C29.248 26.3615 29.0117 26.5127 28.7497 26.59L26.1784 24.4028C25.4071 23.7468 24.293 23.7532 23.5292 24.4179L21.0992 26.5331C20.9103 26.6975 20.8905 26.9839 21.0549 27.1728C21.2193 27.3617 21.5057 27.3815 21.6947 27.2171L24.1247 25.102C24.5473 24.734 25.1639 24.7304 25.5908 25.0936L29.266 28.2197C29.5535 28.4642 29.7286 28.8061 29.7589 29.1822C29.7893 29.5585 29.6714 29.924 29.4268 30.2114C29.1823 30.4989 28.8405 30.6739 28.4643 30.7043C28.0876 30.7345 27.7225 30.6166 27.4351 30.3722L25.1601 28.4371C24.9801 28.2839 24.7128 28.2948 24.5457 28.4618L23.8705 29.137C23.6935 29.3141 23.6935 29.6012 23.8705 29.7783C24.0476 29.9553 24.3348 29.9553 24.5118 29.7783L24.8912 29.3989L26.8475 31.0629C27.2707 31.423 27.797 31.6159 28.3467 31.6159C28.4099 31.6159 28.4735 31.6133 28.5372 31.6081C29.1548 31.5583 29.716 31.2709 30.1176 30.7989C30.5191 30.3269 30.7127 29.7268 30.6628 29.1091C30.613 28.4915 30.3256 27.9302 29.8536 27.5287L29.5156 27.2412C29.7415 27.11 29.9457 26.9408 30.1176 26.7388C30.9463 25.7645 30.828 24.2975 29.8536 23.4687L28.2241 22.0827L29.209 17.0562L29.944 16.4403C30.4189 16.0423 30.7104 15.4832 30.7648 14.8659C30.787 14.6146 30.768 14.3662 30.7118 14.1276C31.0275 13.9393 31.3797 13.814 31.7453 13.7639C32.0615 13.7204 32.376 13.8216 32.6078 14.0413C32.8395 14.2609 32.9573 14.5694 32.931 14.8876L32.4945 20.164C32.4687 20.4756 32.5271 20.7893 32.6632 21.0709L33.4707 22.7409C34.488 24.845 34.5224 27.2747 33.565 29.4068L33.0459 30.5631C32.9433 30.7916 33.0453 31.0599 33.2738 31.1625C33.3341 31.1896 33.3972 31.2024 33.4593 31.2024C33.6323 31.2024 33.7977 31.1027 33.8732 30.9345L34.3924 29.7783C35.4598 27.4011 35.4214 24.6921 34.2872 22.3461L33.4795 20.6763ZM27.4319 21.4092L26.1782 20.3428C26.0205 20.2087 25.8483 20.1027 25.6678 20.0239L28.1031 17.9832L27.4319 21.4092Z" fill="#095052"/>
<path d="M32.8493 32.1074C32.6208 32.0049 32.3525 32.1067 32.2499 32.3353L31.0886 34.9215C31.0624 34.9799 31.0488 35.0432 31.0488 35.1072V38.5466C31.0488 38.797 31.2518 39 31.5023 39C31.7528 39 31.9557 38.797 31.9557 38.5466V35.2044L33.0773 32.7068C33.1799 32.4784 33.0777 32.21 32.8493 32.1074Z" fill="#095052"/>
<path d="M30.2166 10.8219C30.4671 10.8219 30.6701 10.6189 30.6701 10.3685V8.45345C30.6701 8.20296 30.4671 8 30.2166 8C29.9661 8 29.7632 8.20296 29.7632 8.45345V10.3685C29.7632 10.6189 29.9662 10.8219 30.2166 10.8219Z" fill="#095052"/>
<path d="M32.1528 11.2729C32.2227 11.3118 32.2983 11.3302 32.373 11.3302C32.5322 11.3302 32.6867 11.2462 32.7697 11.0973L33.7014 9.42429C33.8232 9.20549 33.7446 8.92931 33.5259 8.80748C33.3071 8.68565 33.0309 8.76425 32.9091 8.983L31.9773 10.656C31.8554 10.8749 31.934 11.151 32.1528 11.2729Z" fill="#095052"/>
<path d="M36.0237 11.123C35.8918 10.9101 35.6125 10.8444 35.3995 10.9762L33.7714 11.9845C33.5585 12.1164 33.4928 12.3959 33.6246 12.6088C33.7104 12.7473 33.8588 12.8235 34.0106 12.8235C34.0921 12.8235 34.1745 12.8016 34.2489 12.7555L35.877 11.7472C36.0899 11.6154 36.1556 11.3359 36.0237 11.123Z" fill="#095052"/>
<path d="M18.6784 32.8243C17.9672 31.9306 17.5131 30.8582 17.3651 29.7232C17.3326 29.4749 17.1054 29.3003 16.8568 29.3321C16.6085 29.3645 16.4334 29.5921 16.4658 29.8404C16.6351 31.139 17.1548 32.3661 17.9687 33.3889L19.8396 35.7402V38.517C19.8396 38.7675 20.0426 38.9705 20.293 38.9705C20.5434 38.9705 20.7464 38.7675 20.7464 38.517V35.5817C20.7464 35.4792 20.7117 35.3796 20.6478 35.2994L18.6784 32.8243Z" fill="#095052"/>
</svg>
