<svg width="225" height="69" viewBox="0 0 225 69" fill="none" xmlns="http://www.w3.org/2000/svg">
<path d="M60.9683 64.9758H54.6605C54.737 64.9121 54.8086 64.8428 54.8749 64.7686C57.2641 62.2745 58.847 59.1207 59.418 55.7168C59.9891 52.3129 59.5219 48.8162 58.0772 45.6808C56.9768 43.2101 54.9908 41.2395 52.5095 40.1561C48.6087 38.478 48.7816 37.3938 48.9338 36.4615V36.3579C49.0096 35.8719 49.1737 35.4038 49.4179 34.9767C50.5522 32.974 50.0335 29.8042 49.7845 28.6509C50.0171 27.4531 49.9221 26.2149 49.5095 25.0665C49.0969 23.918 48.3819 22.9019 47.4398 22.1249C47.1217 21.902 46.7336 21.8015 46.3471 21.8417C44.9638 22.0213 44.2721 23.43 43.6427 24.5626V24.6179C43.5245 24.8737 43.3519 25.1007 43.1369 25.2832C42.9219 25.4656 42.6697 25.5992 42.3978 25.6745H42.2733C42.0312 25.6745 41.5816 25.3292 41.222 24.7767C40.4496 23.6249 39.3233 22.7548 38.0128 22.2975C37.7097 22.1976 37.383 22.1944 37.0781 22.2885C36.7732 22.3825 36.5052 22.5692 36.3114 22.8224C34.7759 24.7767 34.8451 27.7877 34.9281 28.8719C34.5941 29.9999 34.5227 31.1892 34.7193 32.3489C34.9159 33.5087 35.3753 34.6082 36.0624 35.5637C36.0624 35.6259 36.1454 35.6949 36.1869 35.757C36.1923 35.7844 36.1923 35.8126 36.1869 35.8399C35.7071 36.9534 35.4759 38.1577 35.5094 39.3694C35.5428 40.581 35.8401 41.7709 36.3805 42.8563C36.5645 43.2221 36.8862 43.5002 37.2751 43.6296C37.664 43.759 38.0884 43.7293 38.4554 43.5469C38.6381 43.4573 38.8012 43.3324 38.9351 43.1794C39.069 43.0264 39.1711 42.8483 39.2354 42.6555C39.2998 42.4627 39.3251 42.2591 39.3099 42.0565C39.2948 41.8538 39.2394 41.6562 39.1471 41.4751C38.7952 40.7574 38.6077 39.9704 38.5981 39.1713C38.5885 38.3722 38.7571 37.5811 39.0917 36.8551C39.1982 36.5775 39.2883 36.2938 39.3615 36.0056C39.4473 35.6372 39.4364 35.2529 39.3298 34.8899C39.2231 34.527 39.0244 34.1976 38.7528 33.9339C38.6923 33.8313 38.6229 33.7343 38.5453 33.6438C38.1452 33.0532 37.8855 32.3791 37.786 31.673C37.6865 30.9668 37.7499 30.2473 37.9713 29.5694C38.0541 29.3348 38.0824 29.0845 38.0543 28.8373C37.9626 27.8553 38.0256 26.8649 38.241 25.9023C38.39 26.0389 38.5202 26.1945 38.6283 26.3651C38.9902 27.0359 39.5173 27.6035 40.1599 28.0143C40.8025 28.4252 41.5394 28.6656 42.3009 28.713H42.4254C44.2444 28.713 45.69 27.3319 46.3885 26.0474L46.4438 25.9507C46.4438 25.8954 46.4992 25.8471 46.5268 25.778C46.8526 26.6037 46.9272 27.5069 46.7412 28.3747C46.6999 28.5844 46.6999 28.8002 46.7412 29.01C47.0387 30.2669 47.2531 32.532 46.7412 33.4022C46.3181 34.1414 46.0322 34.9508 45.8975 35.7916V35.8952C45.5378 38.1672 45.939 40.5912 51.3061 42.9253C53.1011 43.7043 54.5291 45.1401 55.2969 46.9377C56.4811 49.5049 56.8637 52.3687 56.3949 55.1561C55.9261 57.9435 54.6277 60.5254 52.6686 62.5657C51.3079 63.991 49.4388 64.8223 47.4675 64.8791H47.2116H46.4093C43.91 64.8001 41.4482 64.2495 39.154 63.2562C38.8082 63.1112 38.4623 62.9524 38.158 62.8005L38.0335 62.7452L37.7915 62.614C37.0986 62.2388 36.4267 61.8261 35.7788 61.3779C37.6946 58.9746 38.7736 55.2454 39.0502 52.9941C39.0784 52.8552 39.0969 52.7144 39.1056 52.5729C39.1145 52.4395 39.1145 52.3057 39.1056 52.1723V51.9375C39.1056 51.6889 39.1056 50.9776 39.1056 50.9638C39.1099 50.8879 39.1099 50.8118 39.1056 50.7359C39.0335 49.4695 38.7531 48.2236 38.2756 47.0482C37.8949 46.0808 37.2272 45.2528 36.3618 44.6751C35.4965 44.0974 34.4749 43.7977 33.4341 43.8162C32.3731 43.817 31.3373 44.1388 30.4632 44.7392C29.589 45.3396 28.9176 46.1903 28.5373 47.1793C27.9696 48.4869 27.6799 49.8978 27.6866 51.3229C27.682 52.0189 27.7516 52.7133 27.8941 53.3946C28.2261 55.3283 29.2774 59.0022 31.1656 61.3986C30.439 61.9169 29.6737 62.3786 28.8762 62.7797C25.7463 64.2953 22.3049 65.0591 18.8267 65.0103H9.83539V64.817C9.62789 58.2771 8.98466 38.3813 17.8238 32.2351C26.8151 25.9714 28.3644 17.7327 29.4019 11.5589C29.8999 14.0381 30.9235 15.7714 32.4244 16.5794C32.9467 16.8707 33.5344 17.0252 34.1327 17.0283C35.074 17.0081 35.9759 16.6473 36.671 16.0132C38.8151 14.1486 40.0393 9.70118 38.407 3.58258C40.0583 4.15407 41.4882 5.22904 42.4946 6.6557C42.9502 7.31118 43.6244 7.78359 44.3966 7.98853L49.6738 9.43877C49.7602 9.46343 49.8357 9.51631 49.8884 9.58893C49.941 9.66155 49.9678 9.7497 49.9643 9.8393C49.8951 11.697 49.3972 13.679 48.4081 13.9276C47.4655 14.123 46.5114 14.259 45.5517 14.335C42.4116 14.6665 38.5038 15.0809 37.6462 18.6236C37.5879 18.8257 37.5715 19.0375 37.5979 19.2462C37.6244 19.4548 37.6932 19.6559 37.8001 19.8371C37.907 20.0183 38.0498 20.1758 38.2198 20.3001C38.3897 20.4243 38.5833 20.5126 38.7886 20.5596C38.9939 20.6066 39.2066 20.6113 39.4138 20.5735C39.621 20.5356 39.8183 20.456 39.9936 20.3394C40.1689 20.2229 40.3186 20.0718 40.4335 19.8955C40.5484 19.7193 40.626 19.5214 40.6618 19.3142C40.973 17.9951 43.0202 17.6844 45.8767 17.3736C46.9821 17.2922 48.0801 17.1306 49.162 16.8902C51.5412 16.2963 52.9176 13.8171 53.049 9.91527C53.0838 9.12994 52.8491 8.35626 52.3838 7.72214C51.9185 7.08802 51.2504 6.63141 50.49 6.42779L45.2197 4.97756C45.1408 4.95567 45.0707 4.90983 45.0191 4.84636C43.9292 3.27775 42.4582 2.01126 40.744 1.16571C39.0297 0.32016 37.1285 -0.076731 35.2186 0.0122506C33.2943 0.100243 31.4503 0.807649 29.9621 2.02875C29.9224 2.04927 29.8871 2.07743 29.8584 2.11162C29.1469 2.71764 28.5516 3.44771 28.1016 4.26625C27.2163 5.90294 26.8428 8.09903 26.4071 10.6473C25.3973 16.5933 24.1316 23.9894 16.0325 29.6177C5.83081 36.7239 6.48094 57.1514 6.72993 64.8377V64.9344H1.4458C1.05369 64.9606 0.686238 65.1346 0.417795 65.4212C0.149352 65.7077 0 66.0854 0 66.4778C0 66.8702 0.149352 67.248 0.417795 67.5345C0.686238 67.8211 1.05369 67.9951 1.4458 68.0213H18.7852C22.7444 68.0723 26.6604 67.1948 30.218 65.4592C31.3437 64.9052 32.4117 64.2413 33.4065 63.4772C33.5305 63.5827 33.6598 63.6818 33.7938 63.7742C34.0426 63.9625 34.3012 64.1377 34.5684 64.299L34.9419 64.5338C35.1286 64.6512 35.3085 64.7686 35.4952 64.8653C35.682 64.962 35.8341 65.0656 36.007 65.1554C36.1799 65.2451 36.3874 65.3625 36.5949 65.4592C39.6168 66.9496 42.9119 67.8074 46.2779 67.9799H46.3194C46.8658 67.9799 47.426 68.0213 47.9932 68.0213H60.913C61.1247 68.0355 61.337 68.006 61.5369 67.9349C61.7367 67.8637 61.9198 67.7523 62.0747 67.6076C62.2297 67.4629 62.3532 67.2879 62.4377 67.0936C62.5221 66.8993 62.5657 66.6897 62.5657 66.4778C62.5657 66.266 62.5221 66.0564 62.4377 65.8621C62.3532 65.6677 62.2297 65.4928 62.0747 65.3481C61.9198 65.2034 61.7367 65.092 61.5369 65.0208C61.337 64.9497 61.1247 64.9202 60.913 64.9344L60.9683 64.9758ZM32.3759 4.0936C33.1883 3.57374 34.1129 3.2542 35.0733 3.16133C36.9131 8.8932 35.8272 12.6085 34.6376 13.6444C34.2157 14.0035 33.9944 13.8792 33.8906 13.824C32.867 13.2784 31.6497 10.2329 32.3759 4.0936ZM33.4272 59.3061C32.139 57.3329 31.279 55.1122 30.9027 52.787C30.7979 52.2966 30.7446 51.7967 30.7437 51.2953C30.746 50.3007 30.9483 49.3168 31.3385 48.4017L31.4007 48.2912C31.5538 47.8799 31.831 47.5262 32.1939 47.2788C32.5569 47.0314 32.9878 46.9026 33.4272 46.91C33.8459 46.903 34.2569 47.0225 34.6062 47.253C34.9556 47.4835 35.2269 47.8141 35.3845 48.2014C35.7452 49.0955 35.9555 50.0428 36.007 51.0052C36.007 51.0052 36.007 51.5853 36.007 51.8754V52.0549C36.007 52.1171 36.007 52.1931 36.007 52.269C36.0123 52.3587 36.0123 52.4486 36.007 52.5383C35.6892 54.9591 34.8235 57.2759 33.4756 59.313" fill="#095052"/>
<path d="M79.3865 25.7573C83.9928 25.7573 86.4758 29.673 86.4758 33.9546C86.4758 40.1699 80.7905 44.0372 75.2989 41.261V50.0108H70.7203V31.5375C70.7203 30.0321 70.9139 29.0583 69.2471 29.155V26.1164C71.3704 25.6606 74.4413 25.6261 74.4413 28.6302C74.9024 27.7278 75.6139 26.9771 76.4908 26.4676C77.3677 25.9582 78.373 25.7116 79.3865 25.7573ZM75.1675 37.4973C78.4044 39.4241 81.8695 37.9531 81.8695 33.9753C81.8695 31.9035 80.7559 29.7972 78.4113 29.7972C76.3364 29.7972 75.1744 31.5237 75.1398 33.3883L75.1675 37.4973Z" fill="#095052"/>
<path d="M104.169 35.032H93.4412C93.6072 37.4766 95.4331 38.4228 97.591 38.5885C98.2813 38.6491 98.9756 38.6491 99.6659 38.5885C100.956 38.4498 102.22 38.1313 103.422 37.6424L103.947 40.971C102.034 41.8703 99.9475 42.3416 97.8331 42.3522C92.5352 42.4489 88.8418 39.2238 88.8418 33.8994C88.9455 28.4161 92.9294 25.8402 97.1415 25.8402C102.889 25.8264 105.344 29.673 104.169 35.032ZM93.5104 32.0901H100.427C100.524 30.0183 98.8567 29.3277 97.1553 29.3277C96.3117 29.269 95.4752 29.516 94.7993 30.0234C94.1234 30.5308 93.6535 31.2646 93.4757 32.0901H93.5104Z" fill="#095052"/>
<path d="M113.809 26.2476H118.941V29.7006H113.809V35.8054C113.809 39.0718 116.521 39.2583 119.135 38.2915L119.564 41.7444C114.134 43.2499 109.328 42.366 109.328 35.909V29.6937L106.354 29.4036V26.2684H109.66L110.144 21.3721H113.809V26.2476Z" fill="#095052"/>
<path d="M130.45 18.1195H134.994V26.8071C136.153 26.3194 137.396 26.0636 138.653 26.0543C143.031 26.0543 146.206 29.3485 146.206 34.3414C146.206 40.4738 141.924 42.5318 137.118 42.4972C134.843 42.4465 132.591 42.0291 130.45 41.2611V18.1195ZM134.891 38.3951C135.788 38.6638 136.72 38.7965 137.657 38.7888C139.981 38.7888 141.648 37.5181 141.648 34.3207C141.648 31.4754 140.016 29.8457 137.892 29.749C136.842 29.7416 135.811 30.0236 134.911 30.5639L134.891 38.3951Z" fill="#095052"/>
<path d="M164.541 26.213V37.2141C164.541 38.685 164.61 39.2099 166.014 39.1063L166.049 41.9515C163.822 42.4695 160.295 42.6974 160.295 39.6657C159.409 41.4888 157.224 42.1794 155.259 42.1794C150.715 42.1794 149.408 39.1408 149.408 35.2252V26.2475H154.021V35.2252C153.918 37.442 155.128 38.5884 156.733 38.5884C158.566 38.5884 159.97 37.2486 159.97 35.1354V26.213H164.541Z" fill="#095052"/>
<path d="M180.463 39.3065C180.059 40.221 179.394 40.9962 178.551 41.5354C177.709 42.0747 176.726 42.3539 175.725 42.3382C170.953 42.4349 168.435 38.4917 168.435 34.0512C168.435 27.8359 174.093 24.0584 179.584 26.7724V18.0917H184.156V36.7375C184.156 38.2775 183.962 39.1201 185.629 39.0234V41.9929C183.34 42.5178 180.532 42.4832 180.428 39.7416L180.463 39.3065ZM179.716 30.6535C176.444 28.7613 172.979 30.1355 172.979 34.1064C172.979 36.3577 173.989 38.3121 176.437 38.3121C178.429 38.3121 179.709 36.6478 179.709 34.721L179.716 30.6535Z" fill="#095052"/>
<path d="M200.077 39.3065C199.674 40.221 199.009 40.9962 198.166 41.5354C197.324 42.0747 196.34 42.3539 195.34 42.3382C190.567 42.4349 188.05 38.4917 188.05 34.0512C188.05 27.8359 193.707 24.0584 199.199 26.7724V18.0917H203.764V36.7375C203.764 38.2775 203.57 39.1201 205.237 39.0234V41.9929C202.948 42.5178 200.133 42.4832 200.036 39.7416L200.077 39.3065ZM199.33 30.6535C196.059 28.7613 192.594 30.1355 192.594 34.1064C192.594 36.3577 193.604 38.3121 196.052 38.3121C198.044 38.3121 199.323 36.6478 199.323 34.721L199.33 30.6535Z" fill="#095052"/>
<path d="M217.341 43.4846C215.349 48.6088 213.288 51.3159 207.568 49.2303L208.059 46.0605C210.639 47.2069 211.981 46.2262 212.901 43.6158L213.489 41.9791L206.572 26.7379V26.213H211.414L213.537 31.5375L215.612 37.3453H215.709L217.507 31.572L219.402 26.213H224.043V26.7379L217.341 43.4846Z" fill="#095052"/>
</svg>
