<svg width="49" height="48" viewBox="0 0 49 48" fill="none" xmlns="http://www.w3.org/2000/svg">
<path d="M49 22.5C49 35.7548 38.7548 47.5 25.5 47.5C12.2452 47.5 0 37.2548 0 24C0 10.7452 12.2452 0 25.5 0C38.7548 0 49 9.24517 49 22.5Z" fill="white"/>
<path d="M38.0957 8.99429H36.1064C35.8551 8.99429 35.6515 9.19793 35.6515 9.44925C35.6515 9.70057 35.8551 9.9042 36.1064 9.9042H38.0957C38.2116 9.9042 38.3059 9.99847 38.3059 10.1143V22.329C38.3059 22.4449 38.2116 22.5391 38.0957 22.5391H19.4802V21.6293H31.767C32.0183 21.6293 32.222 21.4256 32.222 21.1743C32.222 20.923 32.0183 20.7194 31.767 20.7194H19.4802V18.7894C19.4802 17.5697 18.4878 16.5773 17.268 16.5773C16.0483 16.5773 15.0559 17.5697 15.0559 18.7894V20.7194H14.0034C13.8399 20.0989 13.3502 19.6092 12.7297 19.4457V16.2132C12.7297 15.9619 12.5261 15.7582 12.2748 15.7582C12.0235 15.7582 11.8198 15.9619 11.8198 16.2132V19.842C11.8198 20.0933 12.0235 20.297 12.2748 20.297C12.7586 20.297 13.1521 20.6906 13.1521 21.1743C13.1521 21.4256 13.3558 21.6293 13.6071 21.6293H15.056V22.5391H11.12C11.0042 22.5391 10.9099 22.4449 10.9099 22.329V10.1143C10.9099 9.99841 11.0042 9.90414 11.12 9.90414H17.4055V10.8141H13.6071C13.3558 10.8141 13.1521 11.0177 13.1521 11.269C13.1521 11.7528 12.7586 12.1464 12.2748 12.1464C12.0235 12.1464 11.8198 12.35 11.8198 12.6013V14.2742C11.8198 14.5255 12.0235 14.7292 12.2748 14.7292C12.5261 14.7292 12.7297 14.5255 12.7297 14.2742V12.9977C13.3502 12.8342 13.8399 12.3445 14.0034 11.724H17.4055V11.8994C17.4055 12.9909 18.2936 13.8789 19.3851 13.8789C19.8914 13.8789 20.3537 13.6876 20.7042 13.3738C21.0426 13.981 21.6911 14.3928 22.4343 14.3928C23.1774 14.3928 23.8259 13.981 24.1643 13.3738C24.5147 13.6876 24.977 13.8789 25.4834 13.8789C26.2587 13.8789 26.9311 13.4305 27.2557 12.7797C27.6007 13.0717 28.0462 13.2483 28.5325 13.2483C29.4673 13.2483 30.2523 12.5968 30.4585 11.7241H35.2125C35.376 12.3446 35.8657 12.8342 36.4862 12.9977V19.4458C35.8657 19.6093 35.376 20.0989 35.2125 20.7194H33.7059C33.4546 20.7194 33.2509 20.9231 33.2509 21.1744C33.2509 21.4257 33.4546 21.6293 33.7059 21.6293H35.6088C35.8601 21.6293 36.0638 21.4257 36.0638 21.1744C36.0638 20.6906 36.4574 20.297 36.9411 20.297C37.1924 20.297 37.3961 20.0934 37.3961 19.8421V12.6014C37.3961 12.35 37.1924 12.1464 36.9411 12.1464C36.4574 12.1464 36.0638 11.7528 36.0638 11.2691C36.0638 11.0178 35.8601 10.8141 35.6088 10.8141H30.512V9.9042H34.1677C34.419 9.9042 34.6226 9.70057 34.6226 9.44925C34.6226 9.19793 34.419 8.99429 34.1677 8.99429H30.4274C30.2231 8.41577 29.6712 8 29.0237 8H28.0411C27.6401 8 27.2758 8.15978 27.0079 8.41868C26.74 8.15978 26.3757 8 25.9746 8H24.9921C24.591 8 24.2267 8.15978 23.9588 8.41868C23.6909 8.15978 23.3266 8 22.9254 8H21.943C21.5419 8 21.1776 8.15978 20.9097 8.41868C20.6417 8.15978 20.2775 8 19.8764 8H18.8939C18.2464 8 17.6944 8.41577 17.4902 8.99429H11.12C10.5025 8.99429 10 9.49675 10 10.1143V22.329C10 22.9466 10.5025 23.449 11.12 23.449H15.056V26.8235C15.056 27.7941 15.4339 28.7066 16.1201 29.3928L18.0683 31.3409V38.545C18.0683 38.7964 18.2719 39 18.5232 39C18.7745 39 18.9782 38.7964 18.9782 38.545V31.1525C18.9782 31.0318 18.9302 30.9162 18.845 30.8307L16.7636 28.7493C16.2492 28.235 15.9659 27.551 15.9659 26.8235V18.7894C15.9659 18.0713 16.55 17.4872 17.2681 17.4872C17.9861 17.4872 18.5703 18.0713 18.5703 18.7894V22.9941C18.5703 23.2454 18.774 23.449 19.0253 23.449C21.0706 23.449 22.7345 25.113 22.7345 27.1583V27.4497C22.7345 27.7011 22.9382 27.9047 23.1895 27.9047C23.4408 27.9047 23.6444 27.7011 23.6444 27.4497V27.1583C23.6444 25.6401 22.9077 24.2914 21.7736 23.449H31.312V23.684C31.312 24.4918 31.0633 25.2659 30.5927 25.9224L29.2832 27.7495C29.2278 27.8268 29.198 27.9195 29.198 28.0146V38.545C29.198 38.7963 29.4016 38.9999 29.653 38.9999C29.9043 38.9999 30.1079 38.7963 30.1079 38.545V28.1609L31.3323 26.4526C31.9144 25.6405 32.222 24.6833 32.222 23.6841V23.449H38.0958C38.7135 23.449 39.2159 22.9466 39.2159 22.329V10.1143C39.2158 9.49675 38.7134 8.99429 38.0957 8.99429ZM28.0411 8.90991H29.0237C29.3426 8.90991 29.602 9.16936 29.602 9.48825V11.2686C29.602 11.8585 29.1222 12.3383 28.5324 12.3383C27.9426 12.3383 27.4628 11.8585 27.4628 11.2686V9.48825C27.4629 9.16936 27.7223 8.90991 28.0411 8.90991ZM24.9921 8.90991H25.9746C26.2935 8.90991 26.553 9.16936 26.553 9.48825V11.8993C26.553 12.4891 26.0731 12.9689 25.4833 12.9689C24.8935 12.9689 24.4137 12.4891 24.4137 11.8993V9.48825C24.4137 9.16936 24.6732 8.90991 24.9921 8.90991ZM21.943 8.90991H22.9254C23.2443 8.90991 23.5038 9.16936 23.5038 9.48825V12.4133C23.5038 13.0031 23.024 13.4829 22.4342 13.4829H22.4341C21.8443 13.4829 21.3646 13.0031 21.3646 12.4133V9.48825C21.3646 9.16936 21.6241 8.90991 21.943 8.90991ZM18.3155 9.48825C18.3155 9.16936 18.5749 8.90991 18.8938 8.90991H19.8763C20.1952 8.90991 20.4547 9.16936 20.4547 9.48825V11.8993C20.4547 12.4891 19.9748 12.9689 19.385 12.9689C18.7952 12.9689 18.3154 12.4891 18.3154 11.8993V9.48825H18.3155Z" fill="#095052"/>
<path d="M21.176 14.9415C20.9282 14.9033 20.6953 15.0737 20.6571 15.3221C20.6261 15.5238 20.6104 15.73 20.6104 15.9348C20.6104 18.1412 22.4054 19.9363 24.6118 19.9363C26.8183 19.9363 28.6133 18.1412 28.6133 15.9348C28.6133 15.5606 28.5606 15.1879 28.4566 14.8267C28.3871 14.5851 28.1345 14.4455 27.8937 14.5153C27.6522 14.5848 27.5128 14.8368 27.5823 15.0783C27.6627 15.3576 27.7034 15.6458 27.7034 15.9347C27.7034 17.6395 26.3166 19.0263 24.6118 19.0263C22.9071 19.0263 21.5203 17.6395 21.5203 15.9347C21.5203 15.7761 21.5324 15.6165 21.5565 15.4603C21.5948 15.212 21.4244 14.9798 21.176 14.9415Z" fill="#095052"/>
</svg>
