<svg width="27" height="27" viewBox="0 0 27 27" fill="none" xmlns="http://www.w3.org/2000/svg">
<path d="M13.5 0C6.05611 0 0 6.05611 0 13.5C0 20.9439 6.05611 27 13.5 27C20.9439 27 27 20.9439 27 13.5C27 6.05611 20.944 0 13.5 0ZM13.5 25.5405C10.1928 25.5405 7.19295 24.2 5.01477 22.0341C4.14492 21.1692 3.40652 20.1724 2.83157 19.0769C1.95588 17.4086 1.45948 15.5113 1.45948 13.5C1.45948 6.86083 6.86083 1.45948 13.5 1.45948C16.6491 1.45948 19.5192 2.67523 21.667 4.66139C22.7806 5.69106 23.7001 6.9276 24.3632 8.30973C25.1175 9.88223 25.5405 11.6426 25.5405 13.5C25.5405 20.1392 20.1392 25.5405 13.5 25.5405Z" fill="#61BC47"/>
<path d="M9.09132 11.9493C9.89736 11.9493 10.5508 11.2959 10.5508 10.4898C10.5508 9.68377 9.89736 9.03033 9.09132 9.03033C8.28527 9.03033 7.63184 9.68377 7.63184 10.4898C7.63184 11.2959 8.28527 11.9493 9.09132 11.9493Z" fill="#61BC47"/>
<path d="M18.1218 11.9493C18.9279 11.9493 19.5813 11.2959 19.5813 10.4898C19.5813 9.68377 18.9279 9.03033 18.1218 9.03033C17.3158 9.03033 16.6624 9.68377 16.6624 10.4898C16.6624 11.2959 17.3158 11.9493 18.1218 11.9493Z" fill="#61BC47"/>
<path d="M13.474 20.9796C16.2975 20.9796 19.0035 19.5356 20.5528 17.1381L19.327 16.346C17.9042 18.5475 15.3019 19.7761 12.6961 19.4755C10.6654 19.2413 8.78751 18.0714 7.67256 16.346L6.44678 17.1381C7.79588 19.226 10.0696 20.6417 12.5288 20.9254C12.8445 20.9618 13.1597 20.9796 13.474 20.9796Z" fill="#61BC47"/>
</svg>
