<svg width="60" height="60" viewBox="0 0 60 60" fill="none" xmlns="http://www.w3.org/2000/svg">
<path d="M8.22498 25.2805C8.22498 25.7657 8.6182 26.1594 9.10388 26.1594C9.58911 26.1594 9.98279 25.7657 9.98279 25.2805V3.47445C9.98279 2.9851 9.86972 2.52231 9.6683 2.1094H44.5563C45.0447 2.1094 45.4421 2.50674 45.4421 2.99517V36.4284C45.4421 36.9141 45.8358 37.3073 46.321 37.3073C46.8062 37.3073 47.1999 36.9141 47.1999 36.4284V2.99517C47.1999 1.53766 46.0138 0.35159 44.5563 0.35159H6.87366C6.21585 0.348843 5.57452 0.55209 5.03482 0.939816C4.4997 1.3248 4.10648 1.85946 3.89728 2.48614L0.074952 13.9586C-0.0738212 14.4045 0.0017098 14.8989 0.276368 15.2802C0.551484 15.6615 0.99643 15.8895 1.46655 15.8895H8.22498V25.2805ZM1.86984 14.1316L5.56491 3.04187C5.65601 2.76858 5.82767 2.53512 6.06113 2.36712C6.29779 2.19684 6.57977 2.10803 6.86908 2.1094C6.87457 2.1094 6.88052 2.10986 6.88648 2.10986C6.89151 2.10986 6.897 2.10986 6.90204 2.11032C6.90891 2.11032 6.91531 2.11078 6.92218 2.11078C6.9263 2.11123 6.93042 2.11123 6.93454 2.11123C6.94278 2.11215 6.95102 2.11261 6.9588 2.11306C6.96155 2.11306 6.9643 2.11352 6.96704 2.11352C7.06958 2.12176 7.16892 2.14099 7.26413 2.17028C7.26688 2.1712 7.26962 2.17212 7.27237 2.17303C7.27741 2.17486 7.28244 2.17624 7.28793 2.17807C7.83634 2.36255 8.22498 2.90042 8.22498 3.52206V14.1316H1.86984Z" fill="#095052"/>
<path d="M21.9678 20.0405C21.9678 20.5258 22.3615 20.9194 22.8467 20.9194H32.5783C33.0635 20.9194 33.4572 20.5258 33.4572 20.0405C33.4572 19.5548 33.0635 19.1616 32.5783 19.1616H22.8467C22.3615 19.1616 21.9678 19.5548 21.9678 20.0405Z" fill="#095052"/>
<path d="M39.5066 26.1594H15.9189C15.4333 26.1594 15.04 26.5526 15.04 27.0383C15.04 27.5236 15.4333 27.9172 15.9189 27.9172H39.5066C39.9918 27.9172 40.3855 27.5236 40.3855 27.0383C40.3855 26.5526 39.9918 26.1594 39.5066 26.1594Z" fill="#095052"/>
<path d="M40.3855 33.8174C40.3855 33.3317 39.9918 32.9385 39.5066 32.9385H15.9189C15.4333 32.9385 15.04 33.3317 15.04 33.8174C15.04 34.3031 15.4333 34.6963 15.9189 34.6963H39.5066C39.9918 34.6963 40.3855 34.3026 40.3855 33.8174Z" fill="#095052"/>
<path d="M32.8644 40.5962C32.8644 40.111 32.4708 39.7173 31.9855 39.7173H15.9189C15.4333 39.7173 15.04 40.111 15.04 40.5962C15.04 41.0819 15.4333 41.4751 15.9189 41.4751H31.9855C32.4708 41.4751 32.8644 41.0819 32.8644 40.5962Z" fill="#095052"/>
<path d="M15.9189 48.6831C15.4333 48.6831 15.04 49.0768 15.04 49.562C15.04 50.0477 15.4333 50.4409 15.9189 50.4409H19.5669C20.0521 50.4409 20.4458 50.0477 20.4458 49.562C20.4458 49.0768 20.0521 48.6831 19.5669 48.6831H15.9189Z" fill="#095052"/>
<path d="M59.9922 46.3862L59.8365 44.1422C59.6401 41.2954 57.2511 39.0652 54.3974 39.0652H53.2493C52.732 39.0652 52.223 39.2016 51.7771 39.4598L50.9252 39.9514C50.0624 39.3828 49.0374 39.0652 47.9626 39.0652H45.2439C44.1696 39.0652 43.1446 39.3828 42.2817 39.9514L41.4317 39.4602C40.9854 39.202 40.4754 39.0652 39.9577 39.0652H38.8105C35.9559 39.0652 33.5664 41.2954 33.3705 44.1422L33.2157 46.3862C33.0601 48.6356 35.2857 50.1925 37.3173 49.4138V50.1572C37.3173 52.1215 38.3033 53.97 39.9137 55.0672C40.0808 55.6129 40.3633 56.1086 40.7331 56.5256C40.5482 56.6648 40.3843 56.7252 40.117 56.7252C39.7068 56.7252 39.5402 56.5833 39.169 56.2327C38.7345 55.8225 38.1394 55.2608 37.0152 55.2608C35.8895 55.2608 35.2944 55.8225 34.86 56.2331C34.4892 56.5833 34.3226 56.7252 33.9129 56.7252C33.5037 56.7252 33.337 56.5833 32.9663 56.2331C32.5318 55.8225 31.9367 55.2608 30.8125 55.2608C29.6873 55.2608 29.0917 55.8225 28.6573 56.2327C28.2861 56.5833 28.119 56.7252 27.7093 56.7252C27.2996 56.7252 27.133 56.5833 26.7622 56.2331C26.3282 55.8225 25.7336 55.2608 24.6093 55.2608C23.4841 55.2608 22.889 55.8225 22.4546 56.2331C22.0838 56.5833 21.9168 56.7252 21.5075 56.7252C21.0974 56.7252 20.9303 56.5833 20.5595 56.2327C20.1251 55.8225 19.5309 55.2608 18.4066 55.2608C17.2824 55.2608 16.6873 55.8225 16.2528 56.2327C15.8816 56.5833 15.715 56.7252 15.3048 56.7252C14.8951 56.7252 14.7285 56.5833 14.3582 56.2331C13.9237 55.8225 13.3291 55.2608 12.2053 55.2608C11.0797 55.2608 10.4846 55.8225 10.0501 56.2331C10.0268 56.2551 10.0039 56.2766 9.98193 56.2972V28.7961C9.98193 28.3105 9.58871 27.9172 9.10303 27.9172C8.6178 27.9172 8.22412 28.3105 8.22412 28.7961V57.6041C8.22412 58.0898 8.6178 58.483 9.10303 58.483C10.2278 58.483 10.8224 57.9214 11.2568 57.5112C11.6281 57.1606 11.7951 57.0182 12.2053 57.0182C12.6136 57.0182 12.7802 57.1606 13.1506 57.5103C13.585 57.9209 14.1796 58.483 15.3048 58.483C16.43 58.483 17.0251 57.9209 17.4595 57.5108C17.8303 57.1606 17.9974 57.0182 18.4066 57.0182C18.8149 57.0182 18.9816 57.1606 19.3519 57.5103C19.7868 57.9209 20.3819 58.483 21.5075 58.483C22.6318 58.483 23.2269 57.9214 23.6613 57.5112C24.0325 57.1606 24.1992 57.0182 24.6093 57.0182C25.0181 57.0182 25.1847 57.1606 25.5546 57.5103C25.989 57.9209 26.5841 58.483 27.7088 58.483C28.834 58.483 29.4291 57.9214 29.8635 57.5108C30.2348 57.1606 30.4019 57.0182 30.812 57.0182C31.2213 57.0182 31.3883 57.1606 31.7587 57.5108C32.1931 57.9209 32.7882 58.483 33.9129 58.483C35.0372 58.483 35.6323 57.9214 36.0667 57.5112C36.4379 57.1606 36.6046 57.0182 37.0147 57.0182C37.424 57.0182 37.591 57.1606 37.9618 57.5108C38.3962 57.9209 38.9913 58.483 40.117 58.483C41.1886 58.483 41.7796 57.9731 42.2085 57.5703C42.5633 57.7135 42.9432 57.8069 43.3401 57.8413C44.0547 58.9257 45.2815 59.6009 46.603 59.6009C47.9241 59.6009 49.1514 58.9257 49.8669 57.8413C51.4878 57.7007 52.8309 56.5746 53.2928 55.0672C54.9032 53.9695 55.8892 52.1215 55.8892 50.1572V49.4138C57.9116 50.1907 60.1483 48.6448 59.9922 46.3862ZM36.1006 47.8519C35.419 47.7814 34.9223 47.1905 34.9694 46.5075L35.1242 44.2631C35.2569 42.3341 36.8765 40.8234 38.8105 40.8234H39.9577C40.1669 40.8234 40.372 40.8779 40.5514 40.9818L40.9437 41.2084C40.7785 41.4286 40.6288 41.6625 40.4965 41.9097L38.0323 46.5157C37.8968 46.7684 37.7801 47.0307 37.6821 47.2999L36.7817 47.7329C36.5666 47.8355 36.3262 47.8771 36.1006 47.8519ZM45.3941 57.4691C45.8518 57.2498 46.2625 56.9436 46.603 56.5673C46.9441 56.9436 47.3547 57.2498 47.8125 57.4691C47.4618 57.7076 47.042 57.8435 46.603 57.8435C46.1645 57.8431 45.7447 57.7076 45.3941 57.4691ZM49.5236 56.0986C49.4943 56.0986 49.465 56.0981 49.4357 56.0967C49.4114 56.0944 49.3872 56.0931 49.3629 56.0926C48.4735 56.0281 47.7131 55.4339 47.4417 54.5733C47.3263 54.2071 46.9871 53.9585 46.6035 53.9585C46.2199 53.9585 45.8807 54.2075 45.7653 54.5733C45.4934 55.4339 44.7331 56.0281 43.8436 56.0926C43.8203 56.0931 43.7965 56.0944 43.7727 56.0967C43.7429 56.0976 43.7132 56.0986 43.683 56.0986C42.4795 56.0986 41.4999 55.1189 41.4999 53.915C41.4999 52.712 42.479 51.7333 43.683 51.7333H43.8386C44.3536 52.8008 45.3996 53.5332 46.6035 53.5332C47.8074 53.5332 48.8534 52.8008 49.3679 51.7333H49.5236C50.7275 51.7333 51.7066 52.712 51.7066 53.915C51.7066 55.1189 50.7275 56.0986 49.5236 56.0986ZM45.2618 50.3619C45.4421 50.2557 45.9201 50.1101 46.6035 50.1101C47.2869 50.1101 47.7644 50.2557 47.9452 50.3619C47.9388 50.4475 47.9269 50.5308 47.9086 50.6118C47.9022 50.6342 47.8967 50.6576 47.8916 50.6809C47.7241 51.314 47.21 51.7754 46.6035 51.7754C45.996 51.7754 45.4811 51.3126 45.314 50.6782C45.3099 50.6567 45.3044 50.6347 45.2984 50.6136C45.2801 50.5321 45.2677 50.4479 45.2618 50.3619ZM57.1009 47.8529C57.0629 47.857 57.0227 47.8588 56.9769 47.8588C56.7887 47.8588 56.5988 47.8153 56.4289 47.7338L55.5249 47.2985C55.4273 47.0303 55.3106 46.7684 55.176 46.5157L54.401 45.0696C54.1722 44.6416 53.6393 44.481 53.2113 44.7098C52.7833 44.9392 52.6226 45.472 52.8515 45.8996L53.626 47.3452C54.3031 48.6127 54.093 49.6748 54.1314 50.1572C54.1314 51.0851 53.8192 51.9759 53.2713 52.6951C52.7723 51.1675 51.3624 50.0474 49.6865 49.9787C49.5172 48.9822 48.3448 48.3523 46.6035 48.3523C44.8617 48.3523 43.6894 48.9822 43.5205 49.9787C41.8441 50.0469 40.4342 51.1671 39.9352 52.6951C38.8233 51.2353 39.1245 49.7773 39.0751 49.3635C39.0751 48.6617 39.25 47.9636 39.5819 47.3452C42.0304 42.915 42.0135 42.4467 42.8732 41.7037C42.8974 41.6854 42.9212 41.6653 42.9441 41.6442C43.5813 41.1214 44.3893 40.823 45.2439 40.823H47.9626C48.8172 40.823 49.6247 41.1214 50.2619 41.6437C50.2848 41.6653 50.3086 41.6854 50.3338 41.7042C50.6648 41.9903 50.9463 42.3386 51.1601 42.7387C51.3894 43.1667 51.9218 43.3283 52.3498 43.099C52.7778 42.8701 52.9389 42.3377 52.7101 41.9097C52.5782 41.6621 52.4285 41.4281 52.2633 41.2084L52.657 40.9814C52.8359 40.8779 53.0406 40.823 53.2489 40.823H54.3974C56.331 40.823 57.9496 42.3341 58.0828 44.2635L58.2385 46.507C58.2861 47.1905 57.789 47.781 57.1009 47.8529Z" fill="#61BC47"/>
<path d="M43.0913 46.0459C42.6061 46.0459 42.2124 46.4396 42.2124 46.9248V47.2979C42.2124 47.7831 42.6061 48.1768 43.0913 48.1768C43.577 48.1768 43.9702 47.7831 43.9702 47.2979V46.9248C43.9702 46.4396 43.577 46.0459 43.0913 46.0459Z" fill="black"/>
<path d="M50.1152 46.0459C49.63 46.0459 49.2363 46.4396 49.2363 46.9248V47.2979C49.2363 47.7831 49.63 48.1768 50.1152 48.1768C50.6009 48.1768 50.9941 47.7831 50.9941 47.2979V46.9248C50.9941 46.4396 50.6009 46.0459 50.1152 46.0459Z" fill="black"/>
<path d="M27.814 4.44165H25.7389C24.931 4.44165 24.2741 5.09854 24.2741 5.90649V6.99506H23.1851C22.3776 6.99506 21.7202 7.65195 21.7202 8.4599V10.5349C21.7202 11.3429 22.3776 11.9998 23.1851 11.9998H24.2741V13.0884C24.2741 13.8963 24.931 14.5532 25.7389 14.5532H27.814C28.6219 14.5532 29.2788 13.8963 29.2788 13.0884V11.9998H30.3678C31.1753 11.9998 31.8327 11.3429 31.8327 10.5349V8.4599C31.8327 7.65195 31.1753 6.99506 30.3678 6.99506H29.2788V5.90649C29.2788 5.09854 28.6219 4.44165 27.814 4.44165ZM30.0749 8.75287V10.242H28.3999C27.9147 10.242 27.521 10.6357 27.521 11.1209V12.7954H26.0319V11.1209C26.0319 10.6357 25.6382 10.242 25.153 10.242H23.478V8.75287H25.153C25.6382 8.75287 26.0319 8.35919 26.0319 7.87396V6.19946H27.521V7.87396C27.521 8.35919 27.9147 8.75287 28.3999 8.75287H30.0749Z" fill="#095052"/>
</svg>
