<svg width="60" height="60" viewBox="0 0 60 60" fill="none" xmlns="http://www.w3.org/2000/svg">
<path d="M58.7569 33.1132L53.3201 22.4125C52.8306 21.4491 51.8949 20.8508 50.8781 20.8508C49.0448 20.8508 10.9524 20.8508 9.1224 20.8508C8.10544 20.8508 7.16982 21.4491 6.68033 22.4125L1.24353 33.1132C0.956071 33.679 0.983024 34.3657 1.31396 34.9049C1.62076 35.4049 2.14177 35.7033 2.70755 35.7033H7.13431V57.229C7.13431 58.7568 8.28521 59.9999 9.70001 59.9999C10.2804 59.9999 49.7205 59.9999 50.3009 59.9999C51.7156 59.9999 52.8666 58.7569 52.8666 57.229V47.9883C52.8666 47.5028 52.4732 47.1093 51.9876 47.1093C51.502 47.1093 51.1086 47.5027 51.1086 47.9883V57.2291C51.1086 57.7781 50.7387 58.2421 50.3008 58.2421H30.8793V25.4003L35.4637 34.423C35.8648 35.2129 36.6352 35.7035 37.4739 35.7035H51.1083V43.8866C51.1083 44.3721 51.5017 44.7656 51.9873 44.7656C52.473 44.7656 52.8664 44.3722 52.8664 43.8866V35.7035H57.2931C57.8589 35.7035 58.3798 35.405 58.6867 34.9051C59.0174 34.3656 59.0445 33.6791 58.7569 33.1132ZM2.80236 33.9456C2.80236 33.9345 2.80459 33.922 2.8108 33.9096L8.24759 23.2089C8.43556 22.8388 8.77083 22.6089 9.12251 22.6089H28.5678C27.8959 23.9313 23.8765 31.842 22.9697 33.6268V33.627C22.8698 33.8235 22.7001 33.9456 22.5268 33.9456C22.0308 33.9456 3.33767 33.9456 2.80236 33.9456ZM29.1213 58.242H9.6999C9.26208 58.2421 8.89224 57.7783 8.89224 57.2291V35.7034H22.5267C23.3684 35.7034 24.1372 35.2101 24.5369 34.423L29.1213 25.4002V58.242ZM37.4739 33.9455C37.3006 33.9455 37.1308 33.8234 37.0309 33.6267L31.4329 22.6088H50.8782C51.2297 22.6088 51.5649 22.8387 51.7531 23.2088L57.1899 33.9095C57.1962 33.9219 57.1983 33.9343 57.1983 33.9455C56.6621 33.9455 37.97 33.9455 37.4739 33.9455Z" fill="#095052"/>
<path d="M29.9999 2.73293C28.0407 -0.410392 23.6445 -0.941252 20.9972 1.70976C19.9036 2.80488 19.3022 4.25859 19.3037 5.80324C19.3082 10.2667 22.2967 14.5875 27.5028 17.6577C27.643 17.7404 27.7968 17.7797 27.9485 17.7797C28.2493 17.7797 28.5424 17.6251 28.7064 17.3471C28.9529 16.9291 28.8139 16.3901 28.3958 16.1435C26.1926 14.844 21.0672 11.2351 21.0614 5.80148C21.0591 3.38062 23.1916 1.4775 25.627 1.80539C27.8037 2.09871 28.5574 3.80894 28.7249 3.98355C29.5011 4.79344 30.5605 4.79625 31.2909 3.95929C31.4861 3.73371 32.4284 1.75992 34.9083 1.75734C37.1283 1.75734 38.9366 3.56332 38.9391 5.7832C38.9443 10.9566 34.3423 14.493 31.5987 16.1407C31.1825 16.3907 31.0478 16.9305 31.2977 17.3468C31.5478 17.763 32.0876 17.8975 32.5038 17.6477C37.7918 14.4721 40.7017 10.2578 40.6971 5.78133C40.6908 0.123045 33.2545 -2.28551 29.9999 2.73293Z" fill="#61BC47"/>
</svg>
