<svg width="24" height="24" viewBox="0 0 24 24" fill="none" xmlns="http://www.w3.org/2000/svg">
<path d="M17.625 1.43945C15.0682 1.43945 13.1711 2.99502 12 5.2017C10.829 2.99515 8.93184 1.43945 6.375 1.43945C2.6902 1.43945 0 4.50511 0 8.24344C0 13.1872 4.76119 16.2909 11.537 22.1646C11.8021 22.3944 12.1979 22.3943 12.463 22.1646C19.2326 16.2963 24 13.1878 24 8.24344C24 4.50451 21.3094 1.43945 17.625 1.43945ZM12 20.7163C5.75991 15.3463 1.40625 12.3632 1.40625 8.24344C1.40625 5.15879 3.54234 2.83262 6.375 2.83262C9.10556 2.83262 10.7977 5.33786 11.3223 7.19769C11.5115 7.87616 12.4862 7.87918 12.6777 7.19769C13.1954 5.36251 14.8679 2.83262 17.625 2.83262C20.4577 2.83262 22.5938 5.15879 22.5938 8.24344C22.5938 12.3656 18.233 15.3524 12 20.7163Z" fill="black"/>
</svg>
