<svg width="60" height="60" viewBox="0 0 60 60" fill="none" xmlns="http://www.w3.org/2000/svg">
<path d="M0 32C0.00606096 36.968 4.03195 40.9939 9 41H19V51C19.0061 55.968 23.032 59.9939 28 60H32C36.9681 59.9939 40.9939 55.968 41 51V45.111C41.3276 45.0337 41.6634 44.9965 42 45C42.8964 44.982 43.7712 45.2757 44.475 45.831C45.5184 46.6088 46.7897 47.0198 48.091 47C50.0448 47.0768 51.8337 45.91 52.551 44.091C53.5194 41.3661 52.8266 38.327 50.773 36.291C49.9469 35.4152 49.2316 34.4412 48.643 33.391C47.321 31.232 45.955 29 42 29C38.045 29 36.679 31.232 35.357 33.39C34.7684 34.4402 34.0531 35.4142 33.227 36.29C31.1734 38.326 30.4806 41.3651 31.449 44.09C32.166 45.9094 33.9549 47.0766 35.909 47C36.9986 47.0262 38.0725 46.7354 39 46.163V51C38.9956 54.8642 35.8642 57.9956 32 58H28C24.1358 57.9956 21.0044 54.8642 21 51V41C21 39.8954 20.1046 39 19 39H9C5.13584 38.9956 2.00441 35.8642 2 32V28C2.00441 24.1358 5.13584 21.0044 9 21H19C20.1046 21 21 20.1046 21 19V9C21.0044 5.13583 24.1358 2.00441 28 2H32C35.8642 2.00441 38.9956 5.13583 39 9V16.656C38.0226 15.5053 36.5407 14.9104 35.039 15.066C33.5892 15.3141 32.3521 16.255 31.726 17.586C31.0108 19.0153 30.7618 20.6328 31.014 22.211C31.2165 23.7966 31.9111 25.2788 33 26.449C33.85 27.3899 35.0484 27.9414 36.316 27.975C36.5074 27.9747 36.6985 27.961 36.888 27.934C38.3378 27.6859 39.5749 26.745 40.201 25.414C40.7402 24.3576 41.0144 23.1859 41 22V9C40.9939 4.03195 36.9681 0.00606096 32 0H28C23.032 0.00606096 19.0061 4.03195 19 9V19H9C4.03195 19.0061 0.00606096 23.0319 0 28L0 32ZM35.909 45C34.7671 45.076 33.7091 44.3988 33.3 43.33C32.6585 41.3541 33.1745 39.1854 34.637 37.71C35.5787 36.723 36.3943 35.6229 37.065 34.435C38.329 32.366 39.166 31 42 31C44.834 31 45.671 32.366 46.937 34.435C47.6077 35.6229 48.4233 36.723 49.365 37.71C50.8268 39.1858 51.342 41.3545 50.7 43.33C50.2909 44.3988 49.2329 45.076 48.091 45C47.1792 45.0207 46.2885 44.7234 45.572 44.159C43.4414 42.6137 40.5586 42.6137 38.428 44.159C37.7115 44.7234 36.8209 45.0207 35.909 45ZM38.432 24.48C38.1388 25.2701 37.4371 25.8366 36.6029 25.9565C35.7688 26.0764 34.9358 25.7305 34.432 25.055C33.6374 24.1881 33.1339 23.0944 32.992 21.927C32.7983 20.767 32.9732 19.5755 33.492 18.52C33.8268 17.7617 34.508 17.2124 35.32 17.046C36.934 16.817 38.583 18.659 38.93 21.073C38.9734 21.3744 38.9958 21.6785 38.997 21.983V22C39.0132 22.8603 38.8193 23.7116 38.432 24.48Z" fill="#095052"/>
<path d="M26.0342 25.6701C24.0492 26.6321 23.4132 29.4331 24.6152 31.9151C25.3704 33.6726 27.044 34.8611 28.9522 34.9951C29.4521 34.9974 29.946 34.8855 30.3962 34.6681C32.3812 33.7061 33.0172 30.9041 31.8142 28.4241C30.6112 25.9441 28.0192 24.7081 26.0342 25.6701ZM29.5242 32.8701C28.5462 33.3441 27.1242 32.5061 26.4152 31.0431C25.7062 29.5801 25.9312 27.9431 26.9062 27.4711C27.0933 27.3812 27.2986 27.3357 27.5062 27.3381C28.6348 27.4928 29.5937 28.241 30.0182 29.2981C30.7242 30.7601 30.5002 32.4001 29.5242 32.8691V32.8701Z" fill="#61BC47"/>
<path d="M47.1119 27.9339C47.3013 27.961 47.4925 27.9747 47.6839 27.9749C48.9513 27.9409 50.1496 27.3894 50.9999 26.4489C52.0888 25.2787 52.7833 23.7965 52.9859 22.2109C53.2381 20.6327 52.9891 19.0152 52.2739 17.5859C51.6478 16.2549 50.4107 15.314 48.9609 15.0659C46.2359 14.6739 43.5969 17.2409 43.0869 20.7889C42.8357 22.3671 43.0847 23.9843 43.7989 25.4139C44.425 26.7449 45.6621 27.6858 47.1119 27.9339ZM45.0669 21.0729C45.3949 18.7959 46.8829 17.0259 48.4019 17.0259C48.4939 17.0261 48.5858 17.0328 48.6769 17.0459C49.4889 17.2123 50.1701 17.7616 50.5049 18.5199C51.0237 19.5754 51.1985 20.7669 51.0049 21.9269C50.863 23.0943 50.3594 24.188 49.5649 25.0549C49.061 25.7304 48.2281 26.0763 47.394 25.9564C46.5598 25.8365 45.858 25.27 45.5649 24.4799C45.0472 23.4241 44.8731 22.2327 45.0669 21.0729Z" fill="#61BC47"/>
<path d="M53.5999 34.6681C54.0501 34.8855 54.5439 34.9974 55.0439 34.9951C56.9522 34.8607 58.6258 33.6718 59.3809 31.9141C60.5809 29.4331 59.9469 26.6321 57.9619 25.6701C55.9769 24.7081 53.3849 25.9441 52.1819 28.4241C50.9789 30.9041 51.6189 33.7061 53.5999 34.6681ZM56.4999 27.3371C56.7074 27.3347 56.9128 27.3802 57.0999 27.4701C58.0749 27.9421 58.2999 29.5791 57.5909 31.0421C56.8819 32.5051 55.4569 33.3421 54.4829 32.8691C53.5089 32.3961 53.2829 30.7601 53.9919 29.2971C54.4157 28.2411 55.3728 27.4931 56.4999 27.3371Z" fill="#61BC47"/>
<path d="M6 28C6 26.3431 7.34315 25 9 25C9.55228 25 10 24.5523 10 24C10 23.4477 9.55228 23 9 23C6.23995 23.0033 4.00331 25.2399 4 28C4 28.5523 4.44772 29 5 29C5.55228 29 6 28.5523 6 28Z" fill="#61BC47"/>
<path d="M14 25C14.5523 25 15 24.5523 15 24C15 23.4477 14.5523 23 14 23H13C12.4477 23 12 23.4477 12 24C12 24.5523 12.4477 25 13 25H14Z" fill="#61BC47"/>
</svg>
