<svg width="60" height="60" viewBox="0 0 60 60" fill="none" xmlns="http://www.w3.org/2000/svg">
<path d="M36.5953 30.4635C36.1742 29.0396 35.3039 27.79 34.1144 26.9013C32.9248 26.0126 31.4798 25.5325 29.9949 25.5325C28.51 25.5325 27.065 26.0126 25.8754 26.9013C24.6859 27.79 23.8156 29.0396 23.3945 30.4635C22.4018 30.7574 21.4883 31.2716 20.7218 31.9675C19.9554 32.6635 19.3558 33.5234 18.9677 34.4832C18.5796 35.443 18.4131 36.478 18.4804 37.5111C18.5477 38.5442 18.8472 39.5488 19.3566 40.4501C19.866 41.3514 20.5721 42.1262 21.4224 42.7168C22.2727 43.3073 23.2453 43.6985 24.2677 43.8612C25.2902 44.0238 26.3361 43.9537 27.3277 43.6561C28.3193 43.3585 29.231 42.8411 29.9949 42.1423C31.2612 43.3091 32.922 43.9536 34.6438 43.9466C36.2984 43.9465 37.8975 43.3503 39.1484 42.2674C40.3993 41.1844 41.2182 39.6871 41.4552 38.0496C41.6922 36.4122 41.3314 34.7441 40.4389 33.3509C39.5464 31.9577 38.1819 30.9327 36.5953 30.4635ZM34.6438 41.8037C33.9074 41.8065 33.1806 41.6363 32.5219 41.3069C31.8632 40.9775 31.2911 40.4981 30.8515 39.9073C30.7517 39.7744 30.6223 39.6666 30.4737 39.5924C30.325 39.5181 30.1611 39.4794 29.9949 39.4794C29.8287 39.4794 29.6648 39.5181 29.5161 39.5924C29.3675 39.6666 29.2381 39.7744 29.1383 39.9073C28.6759 40.5243 28.0699 41.0191 27.3729 41.3489C26.676 41.6787 25.9091 41.8334 25.1388 41.7998C24.3685 41.7661 23.6181 41.5451 22.9525 41.1558C22.287 40.7665 21.7265 40.2207 21.3196 39.5657C20.9127 38.9108 20.6718 38.1665 20.6176 37.3973C20.5635 36.6282 20.6978 35.8575 21.009 35.152C21.3201 34.4465 21.7986 33.8276 22.4031 33.3489C23.0075 32.8702 23.7196 32.5462 24.4776 32.405C24.6907 32.3656 24.8869 32.2624 25.0402 32.1091C25.1934 31.9558 25.2966 31.7597 25.3361 31.5465C25.5386 30.4589 26.1153 29.4763 26.9662 28.7692C27.8172 28.0622 28.8887 27.6751 29.995 27.6751C31.1014 27.6751 32.1729 28.0622 33.0238 28.7692C33.8747 29.4763 34.4515 30.4589 34.654 31.5465C34.6935 31.7597 34.7966 31.9558 34.9499 32.1091C35.1032 32.2624 35.2993 32.3656 35.5125 32.405C36.674 32.6215 37.7128 33.264 38.4252 34.2066C39.1376 35.1492 39.4722 36.3239 39.3635 37.5004C39.2548 38.6769 38.7105 39.7703 37.8375 40.5664C36.9644 41.3625 35.8255 41.8038 34.644 41.8037H34.6438Z" fill="#61BC47"/>
<path d="M21.9772 22.9489C22.4724 23.126 22.994 23.2176 23.5198 23.2198C24.2499 23.2219 24.9675 23.0305 25.5996 22.6652C26.6815 22.0407 27.4119 20.9769 27.6565 19.6699C27.8692 18.384 27.6292 17.0641 26.9775 15.9354C26.3259 14.8066 25.3028 13.9389 24.0829 13.4801C22.8288 13.0382 21.5421 13.1391 20.4605 13.7637C19.3789 14.3882 18.6482 15.4521 18.4036 16.7591C18.1909 18.045 18.4309 19.3649 19.0825 20.4936C19.7342 21.6224 20.7573 22.4901 21.9772 22.9489ZM20.5098 17.1532C20.5579 16.8385 20.6743 16.5381 20.8509 16.2731C21.0274 16.0081 21.2599 15.785 21.5319 15.6195C21.8404 15.4432 22.1901 15.3517 22.5454 15.3545C22.827 15.3565 23.1062 15.4063 23.3712 15.5018C24.1085 15.7906 24.7258 16.3215 25.1218 17.0073C25.5177 17.6931 25.6688 18.4932 25.5503 19.2762C25.5094 19.5932 25.3959 19.8965 25.2186 20.1625C25.0413 20.4286 24.8051 20.6501 24.5283 20.8099C24.2514 20.9698 23.9414 21.0636 23.6224 21.0841C23.3034 21.1046 22.984 21.0512 22.6889 20.9282C21.9516 20.6393 21.3343 20.1084 20.9384 19.4225C20.5424 18.7367 20.3913 17.9367 20.5098 17.1537V17.1532Z" fill="#61BC47"/>
<path d="M19.5081 30.6784C21.1475 28.7734 20.7338 25.7196 18.5859 23.8711C16.4379 22.0226 13.3566 22.069 11.7171 23.9738C10.9024 24.9207 10.5642 26.166 10.765 27.4805C10.9884 28.7657 11.6519 29.9333 12.6418 30.783C13.6316 31.6327 14.8862 32.1117 16.1904 32.1378C17.4607 32.1378 18.6716 31.6497 19.5081 30.6784ZM17.8838 29.2806C17.0153 30.2903 15.2896 30.2344 14.0371 29.1569C13.4266 28.6488 13.0175 27.9396 12.8833 27.1568C12.8176 26.8445 12.8246 26.5213 12.9037 26.2121C12.9828 25.9029 13.132 25.6161 13.3396 25.3737C13.5472 25.1314 13.8078 24.94 14.1012 24.8144C14.3946 24.6888 14.7129 24.6323 15.0315 24.6494C15.8278 24.6668 16.592 24.9666 17.1878 25.4953C18.4399 26.5731 18.7521 28.2712 17.8833 29.2806H17.8838Z" fill="#61BC47"/>
<path d="M34.3896 22.5649C35.0204 22.9278 35.736 23.1173 36.4637 23.114C38.1672 23.114 39.91 22.1199 40.9069 20.3932C42.3237 17.9391 41.7056 14.9201 39.5289 13.6635C38.4471 13.0387 37.1606 12.9379 35.9065 13.3798C34.6798 13.8271 33.6532 14.6978 33.0118 15.8351C31.595 18.2892 32.213 21.3077 34.3896 22.5649ZM34.8676 16.9064C35.2534 16.2124 35.8741 15.6787 36.6182 15.4015C36.8831 15.306 37.1624 15.2561 37.444 15.2541C37.7993 15.2514 38.149 15.3428 38.4574 15.5192C39.6108 16.1852 39.8771 17.8911 39.051 19.3218C38.2249 20.7526 36.6145 21.3749 35.4611 20.7093C34.3077 20.0437 34.0416 18.3373 34.8676 16.9064Z" fill="#61BC47"/>
<path d="M49.2247 27.1067C49.4256 25.7922 49.0873 24.547 48.2726 23.6001C47.4598 22.6556 46.2827 22.136 44.9571 22.136H44.947C43.6441 22.1663 42.3919 22.6476 41.4041 23.4979C40.4163 24.3482 39.7541 25.5147 39.5302 26.7987C39.3293 28.1132 39.6676 29.3585 40.4823 30.3053C41.2951 31.2498 42.4722 31.7696 43.7978 31.7695H43.8079C45.1108 31.7393 46.363 31.2581 47.3509 30.408C48.3388 29.5578 49.0013 28.3913 49.2254 27.1074L49.2247 27.1067ZM47.1064 26.783C46.9598 27.5614 46.5529 28.2668 45.9525 28.7835C45.3522 29.3001 44.594 29.5973 43.8025 29.6263H43.7969C43.4782 29.6443 43.1596 29.5885 42.8659 29.4635C42.5723 29.3384 42.3113 29.1473 42.1034 28.9051C41.8955 28.6629 41.7463 28.376 41.6671 28.0667C41.588 27.7575 41.5813 27.4342 41.6473 27.1219C41.794 26.3437 42.2008 25.6384 42.8011 25.1218C43.4013 24.6053 44.1593 24.3081 44.9507 24.279H44.9563C45.275 24.261 45.5935 24.3168 45.8872 24.4419C46.1809 24.5669 46.4418 24.758 46.6497 25.0002C46.8576 25.2424 47.0069 25.5293 47.086 25.8386C47.1651 26.1478 47.1719 26.4711 47.1058 26.7834L47.1064 26.783Z" fill="#61BC47"/>
<path d="M58.8303 45.694C58.2838 44.8743 57.5346 44.2099 56.6554 43.7654C59.9407 37.4038 60.8424 30.077 59.1977 23.1086C57.553 16.1402 53.4703 9.98987 47.6872 5.76861C41.9041 1.54736 34.802 -0.4664 27.6639 0.0911376C20.5258 0.648675 13.8225 3.74074 8.76495 8.80873C3.70741 13.8767 0.629182 20.5864 0.0863784 27.7256C-0.456425 34.8649 1.57199 41.9628 5.80517 47.7372C10.0384 53.5116 16.1971 57.5815 23.1689 59.2119C30.1406 60.8422 37.4656 59.9253 43.8204 56.6269L48.6098 59.8198C48.7858 59.9371 48.9926 59.9997 49.2041 59.9997C49.4156 59.9997 49.6224 59.9371 49.7984 59.8198L57.0284 54.9997C58.2595 54.1765 59.1828 52.9681 59.6534 51.5639C59.9775 50.602 60.076 49.5785 59.9413 48.5725C59.8066 47.5665 59.4423 46.6049 58.8766 45.7621L58.8303 45.694ZM29.9947 57.8567C14.6343 57.8567 2.13759 45.36 2.13759 29.9996C2.13759 14.6392 14.6343 2.14247 29.9947 2.14247C45.3551 2.14247 57.8518 14.6392 57.8518 29.9996C57.8524 34.5948 56.7167 39.1189 54.5459 43.169C54.3887 43.1556 54.2308 43.1471 54.0713 43.1471C53.2947 43.1461 52.5261 43.3036 51.8126 43.61C54.3599 39.5274 55.7099 34.8117 55.709 29.9996C55.709 15.8207 44.1736 4.28533 29.9947 4.28533C15.8158 4.28533 4.28044 15.8207 4.28044 29.9996C4.28044 44.1784 15.8158 55.7138 29.9947 55.7138C33.4145 55.7212 36.8009 55.0406 39.9523 53.7125C40.3633 54.2083 40.8441 54.6418 41.3797 54.9994L41.7627 55.2548C38.0761 56.968 34.06 57.856 29.9947 57.8567ZM39.5782 45.6936L39.5321 45.7623C38.9665 46.605 38.6023 47.5665 38.4676 48.5725C38.3329 49.5785 38.4314 50.6019 38.7554 51.5638C38.7871 51.6591 38.8215 51.7534 38.8577 51.847C36.0434 52.9921 33.033 53.5776 29.9947 53.571C16.9974 53.571 6.4233 42.9969 6.4233 29.9996C6.4233 17.0022 16.9974 6.42818 29.9947 6.42818C42.9921 6.42818 53.5661 17.0022 53.5661 29.9996C53.5676 35.3812 51.7259 40.6011 48.3477 44.7904C47.7475 44.1996 47.0241 43.7487 46.2294 43.4698C45.4346 43.191 44.5881 43.0912 43.7503 43.1775C42.9125 43.2638 42.1042 43.5341 41.3829 43.969C40.6617 44.4039 40.0455 44.9928 39.5782 45.6936ZM57.62 50.8861C57.3007 51.8384 56.6747 52.6579 55.8399 53.2165L49.2041 57.6404L42.5682 53.2166C42.094 52.8982 41.6844 52.4929 41.3609 52.0222C41.3088 51.8695 41.2225 51.7308 41.1086 51.6166C40.7122 50.8947 40.5218 50.0778 40.5582 49.255C40.5945 48.4323 40.8563 47.6354 41.3149 46.9513L41.3609 46.8826C41.6545 46.4424 42.042 46.0728 42.4956 45.8004C42.9493 45.5281 43.4577 45.3597 43.9842 45.3076C44.5107 45.2555 45.0423 45.3208 45.5405 45.4989C46.0387 45.677 46.4912 45.9634 46.8654 46.3375L48.4458 47.9179C48.5452 48.0173 48.6634 48.0963 48.7934 48.1501C48.9233 48.204 49.0627 48.2317 49.2034 48.2317C49.3441 48.2317 49.4834 48.204 49.6134 48.1501C49.7434 48.0963 49.8615 48.0173 49.961 47.9179L51.5414 46.3375C51.9722 45.9061 52.5063 45.5922 53.0929 45.4258C53.6794 45.2593 54.2988 45.2458 54.892 45.3866C55.7747 45.5933 56.5457 46.1283 57.0482 46.8829L57.0935 46.9509C57.4771 47.5226 57.7241 48.1748 57.8154 48.8571C57.9067 49.5395 57.8398 50.2337 57.62 50.8861Z" fill="#095052"/>
</svg>
