<svg width="50" height="50" viewBox="0 0 50 50" fill="none" xmlns="http://www.w3.org/2000/svg">
<g clip-path="url(#clip0_1_1649)">
<path d="M3.61892 36.9308C2.76568 36.5042 1.76245 36.5958 1.00003 37.1674C0.374269 37.6374 0.000976562 38.3848 0.000976562 39.1664V44.9991C0.000976562 45.2866 0.149294 45.5532 0.392601 45.7057L7.05855 49.8719C7.19103 49.9544 7.34351 49.9985 7.50016 49.9985H24.165H27.498H44.9961C45.1253 49.9985 45.2536 49.9686 45.3686 49.9111L48.7015 48.2446C48.8523 48.1696 48.9757 48.0504 49.0573 47.9038C49.144 47.7488 51.1371 44.0725 49.0523 40.4204C47.2934 37.3358 44.0695 36.7583 43.4404 36.6742C43.4038 36.6692 43.3671 36.6667 43.3296 36.6667H34.5089L34.1598 36.3175C34.6089 36.1609 35.0388 35.9559 35.4371 35.7076C35.8463 35.4526 36.1937 35.166 36.5012 34.8685L39.7675 35.8018L40.225 34.1994L37.6119 33.4528C37.9569 32.8637 38.1735 32.3096 38.2943 31.908C38.3177 31.8297 38.3302 31.7489 38.3302 31.6672V29.9549L40.3249 29.1L39.6692 27.5685L38.3302 28.1426V27.501C38.3302 27.3502 38.2893 27.2019 38.211 27.0719L35.7113 22.9057C35.5796 22.6857 35.353 22.539 35.0988 22.5074C34.848 22.4799 34.5906 22.5632 34.4081 22.7457L32.1525 25.0013H31.6642V14.5141L32.8424 13.3359H33.9115L36.2012 14.8624C36.5845 15.1182 37.1011 15.014 37.3569 14.6315L39.0234 12.1318C39.2101 11.8519 39.2101 11.4877 39.0234 11.2078L35.6904 6.2083C35.5355 5.97582 35.2755 5.83667 34.9972 5.83667H32.4975C32.1817 5.83667 31.8934 6.01498 31.7517 6.29745L30.316 9.16964H21.347L19.9105 6.29745C19.7697 6.01498 19.4814 5.83667 19.1656 5.83667H15.8326C15.5635 5.83667 15.311 5.96666 15.1552 6.1858L10.989 12.0185C10.7523 12.3493 10.7898 12.8034 11.0773 13.0917L12.7438 14.7582C13.0246 15.0398 13.4645 15.0815 13.7953 14.8624L16.0851 13.3359H17.9874L18.3323 13.6808V22.7382C16.1326 23.5373 10.1265 26.2786 7.55432 33.0379C6.03699 37.0258 6.37362 40.7487 6.93273 43.1876L5.00043 42.0277V39.1664C5.00043 38.2132 4.47049 37.3566 3.61892 36.9308ZM32.4975 26.6677C32.7191 26.6677 32.9307 26.5803 33.0866 26.4236L34.8322 24.6788L36.6637 27.7318V28.8567L33.8356 30.0682L34.4914 31.5997L36.6637 30.669V31.5397C36.5387 31.9238 36.3145 32.4471 35.9421 32.9754L34.3931 32.5329L33.9356 34.1353L34.5339 34.3061C33.8981 34.6969 33.1882 34.9327 32.4208 35.0043C32.0992 35.0343 31.8234 35.2476 31.7142 35.5509C31.6042 35.8551 31.68 36.1942 31.9084 36.4225L33.5748 38.089C33.7307 38.2457 33.9423 38.3331 34.1639 38.3331H43.2705C43.7471 38.4056 46.266 38.8964 47.6058 41.2462C48.9773 43.6501 48.0399 46.144 47.7058 46.8789L44.7995 48.3321H37.2636L36.6637 46.5306V44.4183L37.7302 42.8185C37.8627 42.6185 38.086 42.4994 38.3252 42.4994C38.6851 42.4994 38.8701 42.7368 38.9326 42.8385C38.9959 42.941 39.1251 43.2126 38.9643 43.5334L38.4176 44.6266C38.2577 44.9474 38.3202 45.3349 38.5743 45.5882L39.4075 46.4214C39.5634 46.5781 39.775 46.6656 39.9966 46.6656H44.1629V44.9991H40.3416L40.1775 44.8349L40.4558 44.2792C40.8274 43.5359 40.7874 42.6693 40.3508 41.9628C39.9142 41.2562 39.1559 40.8329 38.3252 40.8329C37.5277 40.8329 36.787 41.2295 36.3437 41.8928L35.1372 43.7034C35.0463 43.8409 34.9972 44.0017 34.9972 44.1658V46.6656C34.9972 46.7547 35.0122 46.8439 35.0405 46.9289L35.508 48.3321H32.4975V42.4994H30.831V48.3321H28.3312V42.4969V35.8334C28.3312 35.4035 28.0038 35.0435 27.5755 35.0035C26.9656 34.9468 26.3931 34.7835 25.864 34.5236L26.9581 34.1136L26.3723 32.5529L24.3225 33.322C23.7817 32.6838 23.4843 32.0088 23.3318 31.5397V31.2681V30.6681L25.5032 31.5989L26.159 30.0674L23.3318 28.8567V27.7318L25.1632 24.6788L26.9089 26.4236C27.0647 26.5803 27.2764 26.6677 27.498 26.6677H30.831H32.4975ZM7.90429 45.7132C8.20675 45.8948 8.59171 45.8665 8.86418 45.6407C9.13582 45.4149 9.23664 45.0433 9.11499 44.7116C8.49172 43.0151 7.24352 38.539 9.11166 33.6295C9.23414 33.307 9.37329 33.0037 9.51245 32.7013L9.51411 32.7021C12.3196 26.6053 18.2515 24.4913 19.413 24.1297C19.7622 24.0222 19.9988 23.6997 19.9988 23.3348V13.3359C19.9988 13.115 19.9113 12.9026 19.7547 12.7468L18.9214 11.9135C18.7656 11.7569 18.554 11.6694 18.3323 11.6694H15.8326C15.6684 11.6694 15.5068 11.7185 15.3701 11.8094L13.4387 13.0967L12.7546 12.4126L16.2617 7.50316H18.6506L20.0871 10.3753C20.2279 10.6578 20.5163 10.8361 20.8321 10.8361H30.831C31.1468 10.8361 31.4351 10.6578 31.5767 10.3753L33.0124 7.50316H34.5514L37.3286 11.6694L36.4329 13.0134L34.6264 11.8094C34.4897 11.7185 34.3281 11.6694 34.1639 11.6694H32.4975C32.2758 11.6694 32.0642 11.7569 31.9084 11.9135L30.2419 13.58C30.0852 13.7358 29.9977 13.9483 29.9977 14.1691V25.0013H27.843L25.5874 22.7457C25.4057 22.5632 25.1499 22.4774 24.8966 22.5074C24.6416 22.539 24.4158 22.6857 24.2842 22.9057L21.7844 27.0719C21.7061 27.2019 21.6653 27.3502 21.6653 27.501V28.1426L20.3271 27.5693L19.6713 29.1008L21.6653 29.9549V31.2689V31.6672C21.6653 31.7489 21.6778 31.8297 21.7011 31.908C21.8544 32.418 22.1569 33.1695 22.6944 33.9328L19.7063 35.0535L20.2921 36.6142L23.92 35.2535C24.1167 35.4118 24.3292 35.5643 24.5591 35.7076C25.1982 36.1059 25.9148 36.3909 26.6656 36.5492V41.6611L21.7311 41.6453L21.7261 43.3118L26.6648 43.3276V48.3321H24.9983C24.9983 46.4939 23.5034 44.9991 21.6653 44.9991H19.9988C19.9988 40.8645 16.635 37.4999 12.4996 37.4999H11.6664V39.1664H12.4996C15.7151 39.1664 18.3323 41.7828 18.3323 44.9991V45.8323C18.3323 46.2923 18.7048 46.6656 19.1656 46.6656H21.6653C22.5844 46.6656 23.3318 47.413 23.3318 48.3321H7.7393L1.66746 44.5375V39.1664C1.66746 38.9056 1.79162 38.6564 1.99993 38.4998C2.25823 38.3065 2.58403 38.2765 2.87317 38.4215C3.16147 38.5656 3.33395 38.8439 3.33395 39.1664V42.4994C3.33395 42.7918 3.4881 43.0635 3.73807 43.2135L7.90429 45.7132Z" fill="#095052"/>
<path d="M7.40784 29.4858C2.38171 23.1031 0.534412 16.5613 2.34088 11.5386C3.69074 7.78396 8.04777 2.06042 14.5154 1.68129C18.6899 1.44715 22.0221 4.89511 23.6227 6.55743C23.9285 6.87406 24.176 7.12987 24.3593 7.29235C24.4602 7.38234 24.5826 7.4465 24.7135 7.479L24.7993 7.49983C25.0651 7.56565 25.3484 7.49649 25.5534 7.31318C25.7309 7.1557 25.97 6.91072 26.2658 6.60659C27.8931 4.93511 31.2902 1.46465 35.4823 1.70129C41.9508 2.08125 46.307 7.80479 47.6568 11.5594C49.7108 17.2688 47.0394 24.8854 40.5117 31.9338L41.7341 33.0662C48.6934 25.552 51.4939 17.3013 49.2258 10.9953C47.7251 6.8249 42.854 0.464755 35.5798 0.0381348C30.6353 -0.259333 26.8716 3.59525 25.0709 5.44505C25.0359 5.48088 25.0009 5.51671 24.9676 5.55087C24.9209 5.50338 24.8734 5.45338 24.8226 5.40089C23.0495 3.55942 19.3315 -0.280164 14.4179 0.018137C7.1437 0.444757 2.27256 6.80407 0.771886 10.9753C-1.23206 16.5497 0.70856 23.6722 6.09714 30.5165L7.40784 29.4858Z" fill="#61BC47"/>
<path d="M23.332 14.1692H21.6655V15.8357H23.332V14.1692Z" fill="#2D2D2D"/>
<path d="M28.3315 14.1692H26.665V15.8357H28.3315V14.1692Z" fill="#2D2D2D"/>
<path d="M26.665 17.502H23.332V19.1684H26.665V17.502Z" fill="#2D2D2D"/>
<path d="M28.3315 28.3342H26.665V30.0007H28.3315V28.3342Z" fill="#2D2D2D"/>
<path d="M33.331 28.3342H31.6646V30.0007H33.331V28.3342Z" fill="#2D2D2D"/>
<path d="M30.831 30.834H29.1646V32.5005H30.831V30.834Z" fill="#2D2D2D"/>
</g>
<defs>
<clipPath id="clip0_1_1649">
<rect width="50" height="50" fill="white"/>
</clipPath>
</defs>
</svg>
