<svg width="24" height="24" viewBox="0 0 24 24" fill="none" xmlns="http://www.w3.org/2000/svg">
<g clip-path="url(#clip0_1_1546)">
<path d="M13.6611 0C13.4022 0 13.1924 0.209839 13.1924 0.46875C13.1924 0.727661 13.4022 0.9375 13.6611 0.9375C18.845 0.9375 23.0623 5.15497 23.0623 10.3387C23.0623 10.5976 23.2723 10.8074 23.5311 10.8074C23.79 10.8074 23.9998 10.5976 23.9998 10.3387C23.9998 4.63806 19.3619 0 13.6611 0Z" fill="#61BC47"/>
<path d="M20.7112 10.8076C20.9702 10.8076 21.18 10.5976 21.18 10.3389C21.18 6.19281 17.807 2.81982 13.6611 2.81982C13.4022 2.81982 13.1924 3.02985 13.1924 3.28857C13.1924 3.54749 13.4022 3.75732 13.6611 3.75732C17.2901 3.75732 20.2425 6.70972 20.2425 10.3389C20.2425 10.5976 20.4523 10.8076 20.7112 10.8076Z" fill="#61BC47"/>
<path d="M17.4221 10.3391C17.4221 10.5978 17.632 10.8079 17.8909 10.8079C18.1498 10.8079 18.3596 10.5978 18.3596 10.3391C18.3596 7.74835 16.2519 5.64062 13.6611 5.64062C13.4022 5.64062 13.1924 5.85046 13.1924 6.10919C13.1924 6.3681 13.4022 6.57794 13.6611 6.57794C15.735 6.57794 17.4221 8.26507 17.4221 10.3391Z" fill="#61BC47"/>
<path d="M13.1924 8.9292C13.1924 9.18793 13.4022 9.39777 13.6611 9.39777C14.1801 9.39777 14.6023 9.82001 14.6023 10.3391C14.6023 10.5978 14.8121 10.8079 15.071 10.8079C15.3298 10.8079 15.5398 10.5978 15.5398 10.3391C15.5398 9.3031 14.697 8.46045 13.6611 8.46045C13.4022 8.46045 13.1924 8.67029 13.1924 8.9292Z" fill="#61BC47"/>
<path d="M8.78613 15.2192C8.78613 15.4781 8.57629 15.688 8.31738 15.688C8.05847 15.688 7.84863 15.4781 7.84863 15.2192C7.84863 14.9605 8.05847 14.7505 8.31738 14.7505C8.57629 14.7505 8.78613 14.9605 8.78613 15.2192Z" fill="#61BC47"/>
<path d="M12.8453 23.4312C14.9797 24.4772 17.5476 24.042 19.2355 22.3541L20.2046 21.385C20.7309 20.8593 20.7311 20.0076 20.2048 19.4816L16.46 15.7371C15.9346 15.211 15.0828 15.2103 14.5569 15.7369L12.9658 17.3283C12.6541 17.6399 12.1731 17.7034 11.8223 17.4795C11.2502 17.1138 10.6938 16.7106 10.1685 16.2811C9.96795 16.1172 9.67279 16.1469 9.50891 16.3472C9.34503 16.5477 9.37469 16.843 9.57501 17.0067C10.1285 17.4594 10.7147 17.8842 11.3176 18.2694C12.0363 18.7285 13.0082 18.6115 13.6286 17.9911L15.2201 16.3995C15.3793 16.2402 15.6371 16.2399 15.7969 16.3997L19.542 20.1444C19.7015 20.3041 19.7018 20.5623 19.542 20.7217L18.5726 21.6913C17.1666 23.0974 15.0308 23.4583 13.2578 22.5894C6.76251 19.4043 3.22857 14.3539 1.40777 10.6779C0.536734 8.91987 0.898368 6.79218 2.30773 5.38319L3.25585 4.43525C3.41479 4.27595 3.67278 4.2754 3.83245 4.43543L7.57788 8.18067C7.73644 8.33906 7.73809 8.59724 7.57751 8.75745L5.98632 10.3488C5.36596 10.9692 5.24896 11.9411 5.708 12.66C5.97845 13.0831 6.26995 13.5006 6.57464 13.9007C6.73138 14.1067 7.02545 14.1464 7.23144 13.9897C7.43743 13.833 7.47735 13.5389 7.32043 13.3327C7.03149 12.9531 6.75463 12.5569 6.49792 12.1553C6.27398 11.8043 6.33752 11.3233 6.64916 11.0117L8.24017 9.42066C8.76623 8.89533 8.76678 8.04334 8.24053 7.51765L4.49548 3.77277C3.97033 3.24671 3.11834 3.24598 2.59264 3.77259L1.64489 4.72034C-0.0492034 6.41389 -0.482065 8.97535 0.567679 11.0941C2.45312 14.9003 6.1134 20.1301 12.8453 23.4312Z" fill="#61BC47"/>
</g>
<defs>
<clipPath id="clip0_1_1546">
<rect width="24" height="24" fill="white"/>
</clipPath>
</defs>
</svg>
