<svg width="60" height="60" viewBox="0 0 60 60" fill="none" xmlns="http://www.w3.org/2000/svg">
<g clip-path="url(#clip0_1_2165)">
<path d="M23.9793 54.0793H23.4766C22.9912 54.0793 22.5977 54.4729 22.5977 54.9583C22.5977 55.4436 22.9912 55.8372 23.4766 55.8372H23.9793C24.4647 55.8372 24.8582 55.4436 24.8582 54.9583C24.8582 54.4729 24.4647 54.0793 23.9793 54.0793Z" fill="black"/>
<path d="M41.567 25.4895C41.0815 25.4895 40.6881 25.883 40.6881 26.3684V28.984V49.9166H16.3958C15.9104 49.9166 15.5169 50.3101 15.5169 50.7955C15.5169 51.2809 15.9104 51.6744 16.3958 51.6744H40.6343C40.1978 55.3676 37.0499 58.2422 33.2414 58.2422H14.2142C10.4057 58.2422 7.25777 55.3676 6.82125 51.6744H12.8124C13.2978 51.6744 13.6913 51.2809 13.6913 50.7955C13.6913 50.3101 13.2978 49.9166 12.8124 49.9166H6.76757V16.4987H31.8869C32.3724 16.4987 32.7658 16.1051 32.7658 15.6198C32.7658 15.1344 32.3724 14.7409 31.8869 14.7409H6.82125C7.25777 11.0477 10.4058 8.17309 14.2142 8.17309H27.5578C28.0432 8.17309 28.4367 7.77958 28.4367 7.29419C28.4367 6.8088 28.0432 6.41528 27.5578 6.41528H14.2142C9.13898 6.41528 5.00977 10.5444 5.00977 15.6198V50.7955C5.00977 55.8709 9.13886 60 14.2142 60H33.2414C38.3167 60 42.4458 55.8709 42.4458 50.7955V28.984V26.3684C42.4459 25.883 42.0524 25.4895 41.567 25.4895Z" fill="#095052"/>
<path d="M27.3105 10.5781H20.1455C19.6601 10.5781 19.2666 10.9716 19.2666 11.457C19.2666 11.9424 19.6601 12.3359 20.1455 12.3359H27.3105C27.7958 12.3359 28.1894 11.9424 28.1894 11.457C28.1894 10.9716 27.7958 10.5781 27.3105 10.5781Z" fill="#095052"/>
<path d="M48.7953 2.15402C48.4163 1.85097 47.8633 1.91214 47.5599 2.29113C47.2565 2.67011 47.3181 3.22324 47.6969 3.52652C49.3837 4.87628 50.351 6.88569 50.351 9.03924V9.11389C50.351 9.59928 50.7444 9.99279 51.2299 9.99279C51.7154 9.99279 52.1088 9.59928 52.1088 9.11389V9.03924C52.1089 6.34886 50.9012 3.83929 48.7953 2.15402Z" fill="#095052"/>
<path d="M50.5723 0.177893C50.185 -0.114841 49.6341 -0.0383178 49.341 0.348752C49.0483 0.735938 49.1247 1.28707 49.5119 1.57992C51.8764 3.36796 53.2323 6.08683 53.2323 9.03901V9.82815C53.2323 10.3135 53.6257 10.7071 54.1112 10.7071C54.5967 10.7071 54.9901 10.3135 54.9901 9.82815V9.03901C54.9901 5.53101 53.3799 2.30121 50.5723 0.177893Z" fill="#095052"/>
<path d="M37.5557 2.29098C37.2523 1.912 36.6992 1.85059 36.3203 2.15387C34.2145 3.83914 33.0068 6.34871 33.0068 9.0391V9.11375C33.0068 9.59913 33.4002 9.99265 33.8857 9.99265C34.3711 9.99265 34.7646 9.59913 34.7646 9.11375V9.0391C34.7646 6.88555 35.732 4.87613 37.4187 3.52637C37.7976 3.22309 37.8591 2.66997 37.5557 2.29098Z" fill="#095052"/>
<path d="M35.7743 0.348852C35.4814 -0.0382174 34.9303 -0.114975 34.5431 0.177993C31.7353 2.30131 30.125 5.53099 30.125 9.03911V9.82825C30.125 10.3136 30.5184 10.7072 31.0039 10.7072C31.4894 10.7072 31.8828 10.3136 31.8828 9.82825V9.03911C31.8828 6.08681 33.2389 3.36807 35.6033 1.58002C35.9905 1.28729 36.067 0.736039 35.7743 0.348852Z" fill="#095052"/>
<path d="M50.2414 16.6574C49.6106 16.6574 49.0974 16.1443 49.0974 15.5134V9.11162C49.0974 5.78162 46.623 2.99913 43.4367 2.56143V1.65112C43.4367 1.16573 43.0433 0.772217 42.5578 0.772217C42.0723 0.772217 41.6789 1.16573 41.6789 1.65112V2.55921C40.2655 2.74753 38.9604 3.38807 37.9331 4.41545C36.6983 5.65037 36.0182 7.2924 36.0182 9.03931V15.5136C36.0182 16.1444 35.505 16.6575 34.8742 16.6575C33.9086 16.6575 33.123 17.443 33.123 18.4086V19.3743C33.123 20.3398 33.9086 21.1253 34.8742 21.1253H39.3281C39.7207 22.6689 41.122 23.8142 42.786 23.8142C44.4499 23.8142 45.8513 22.6689 46.2438 21.1253H50.2412C51.2067 21.1253 51.9922 20.3398 51.9922 19.3743V18.4086C51.9924 17.443 51.2069 16.6574 50.2414 16.6574ZM42.7862 22.0564C42.107 22.0564 41.514 21.6802 41.2044 21.1253H44.368C44.0584 21.6802 43.4654 22.0564 42.7862 22.0564ZM45.5162 19.3696C45.5025 19.3689 45.4889 19.3675 45.4751 19.3675H40.0974C40.0673 19.3675 40.0377 19.369 40.0083 19.372L34.881 19.3742L34.8743 18.4151C36.4743 18.4151 37.7761 17.1134 37.7761 15.5133V9.03931C37.7761 7.76197 38.2733 6.56127 39.1762 5.65834C40.0802 4.75436 41.2779 4.2583 42.5547 4.25748C42.5558 4.25748 42.5569 4.2576 42.5579 4.2576C42.5593 4.2576 42.5606 4.25737 42.562 4.25737C42.579 4.25737 42.5962 4.25737 42.6133 4.2576C45.2195 4.28702 47.3397 6.46447 47.3397 9.1115V15.5133C47.3397 17.1091 48.6342 18.4081 50.2216 18.408C50.2259 18.408 50.2305 18.408 50.2347 18.408L50.2415 19.3674L45.5162 19.3696Z" fill="#61BC47"/>
<path d="M31.8224 40.4236H30.8225C30.8429 40.4036 30.8641 40.3849 30.8844 40.3646C32.0561 39.193 32.7013 37.6351 32.7013 35.9778C32.7013 34.3206 32.0561 32.7626 30.8845 31.5912L25.3449 26.0515C24.1751 24.8817 22.6176 24.2365 20.9571 24.2344C19.2988 24.2365 17.7413 24.8818 16.5715 26.0515C14.1527 28.4703 14.1528 32.4061 16.5716 34.8249L19.3415 37.5948L22.1113 40.3646C22.1315 40.3849 22.1528 40.4036 22.1732 40.4236H15.6338C15.1484 40.4236 14.7549 40.8171 14.7549 41.3025C14.7549 41.7879 15.1484 42.1814 15.6338 42.1814H31.8224C32.3079 42.1814 32.7013 41.7879 32.7013 41.3025C32.7013 40.8171 32.3079 40.4236 31.8224 40.4236ZM17.8145 33.5819C16.081 31.8484 16.081 29.0278 17.8144 27.2944C18.6528 26.4561 19.7697 25.9936 20.9571 25.9921C22.1467 25.9936 23.2636 26.4561 24.102 27.2944L26.2504 29.4428L19.9629 35.7303L17.8145 33.5819ZM26.4976 40.4233C25.3101 40.4235 24.1936 39.961 23.3541 39.1215L21.2057 36.9731L27.4931 30.6857L29.6415 32.8339C29.694 32.8864 29.745 32.94 29.7945 32.9946C30.5371 33.8134 30.9434 34.8642 30.9434 35.9777C30.9434 37.1654 30.4811 38.282 29.6414 39.1215C28.8019 39.961 27.6854 40.4233 26.4976 40.4233Z" fill="#61BC47"/>
</g>
<defs>
<clipPath id="clip0_1_2165">
<rect width="60" height="60" fill="white"/>
</clipPath>
</defs>
</svg>
