<svg width="27" height="27" viewBox="0 0 27 27" fill="none" xmlns="http://www.w3.org/2000/svg">
<path d="M13.5 0C6.05611 0 0 6.05611 0 13.5C0 20.9439 6.05611 27 13.5 27C20.9439 27 27 20.9439 27 13.5C27 6.05611 20.9439 0 13.5 0ZM13.5 25.5405C10.1927 25.5405 7.19295 24.2 5.01468 22.0341C4.14483 21.1692 3.40642 20.1724 2.83148 19.0769C1.95588 17.4086 1.45948 15.5113 1.45948 13.5C1.45948 6.86083 6.86083 1.45948 13.5 1.45948C16.6491 1.45948 19.5192 2.67523 21.667 4.66139C22.7806 5.69106 23.7001 6.9276 24.3632 8.30973C25.1175 9.88223 25.5405 11.6426 25.5405 13.5C25.5405 20.1392 20.1392 25.5405 13.5 25.5405Z" fill="#FF4E2A"/>
<path d="M14.9262 17.1131C16.5274 17.448 17.9657 18.3482 18.9763 19.648L20.1284 18.7522C18.9059 17.1796 17.1644 16.0901 15.2249 15.6845C12.1058 15.0327 8.8264 16.2365 6.87061 18.7522L8.02296 19.648C9.63896 17.5692 12.3488 16.574 14.9262 17.1131Z" fill="#FF4E2A"/>
<path d="M9.00049 11.9492C9.80654 11.9492 10.46 11.2957 10.46 10.4897C10.46 9.68364 9.80654 9.03021 9.00049 9.03021C8.19445 9.03021 7.54102 9.68364 7.54102 10.4897C7.54102 11.2957 8.19445 11.9492 9.00049 11.9492Z" fill="#FF4E2A"/>
<path d="M18.0303 11.9492C18.8363 11.9492 19.4898 11.2957 19.4898 10.4897C19.4898 9.68364 18.8363 9.03021 18.0303 9.03021C17.2242 9.03021 16.5708 9.68364 16.5708 10.4897C16.5708 11.2957 17.2242 11.9492 18.0303 11.9492Z" fill="#FF4E2A"/>
</svg>
