<svg width="60" height="60" viewBox="0 0 60 60" fill="none" xmlns="http://www.w3.org/2000/svg">
<path d="M30 33.2918C39.1757 33.2918 46.6406 25.8268 46.6406 16.6511C46.6406 7.47546 39.1757 0.010498 30 0.010498C20.8243 0.010498 13.3594 7.47546 13.3594 16.6511C13.3594 25.8268 20.8243 33.2918 30 33.2918ZM30 2.35425C37.8833 2.35425 44.2969 8.7678 44.2969 16.6511C44.2969 24.5345 37.8833 30.948 30 30.948C22.1167 30.948 15.7031 24.5345 15.7031 16.6511C15.7031 8.7678 22.1167 2.35425 30 2.35425Z" fill="#095052"/>
<path d="M40.4912 17.8362H41.4865C42.1336 17.8362 42.6584 17.3115 42.6584 16.6643C42.6584 16.0171 42.1336 15.4924 41.4865 15.4924H40.4912C39.8441 15.4924 39.3193 16.0171 39.3193 16.6643C39.3193 17.3115 39.8441 17.8362 40.4912 17.8362Z" fill="#61BC47"/>
<path d="M20.6808 16.6379C20.6808 15.9907 20.1561 15.4661 19.5089 15.4661H18.5137C17.8666 15.4661 17.3418 15.9907 17.3418 16.6379C17.3418 17.2852 17.8666 17.8098 18.5137 17.8098H19.5089C20.1561 17.8098 20.6808 17.2852 20.6808 16.6379Z" fill="#61BC47"/>
<path d="M30.0132 7.33194C30.6603 7.33194 31.1851 6.8073 31.1851 6.16007V5.1648C31.1851 4.51757 30.6603 3.99292 30.0132 3.99292C29.3661 3.99292 28.8413 4.51757 28.8413 5.1648V6.16007C28.8413 6.8073 29.3661 7.33194 30.0132 7.33194Z" fill="#61BC47"/>
<path d="M29.9868 25.9702C29.3397 25.9702 28.8149 26.4949 28.8149 27.1421V28.1374C28.8149 28.7846 29.3397 29.3092 29.9868 29.3092C30.6339 29.3092 31.1587 28.7846 31.1587 28.1374V27.1421C31.1587 26.4949 30.6339 25.9702 29.9868 25.9702Z" fill="#61BC47"/>
<path d="M29.1599 17.4684L29.173 17.4815C29.4016 17.7092 29.7007 17.823 29.9999 17.823C30.2999 17.823 30.5997 17.7085 30.8285 17.4798L38.9295 9.37873C39.3872 8.92111 39.3872 8.17908 38.9295 7.72134C38.4718 7.26373 37.73 7.26384 37.2722 7.72134L29.9999 14.9939L25.775 10.769C25.3174 10.3114 24.5756 10.3114 24.1176 10.769C23.66 11.2267 23.66 11.9687 24.1176 12.4263L29.1599 17.4684Z" fill="#61BC47"/>
<path d="M55.4676 33.0587C53.772 31.6951 51.3331 31.8271 49.7945 33.3658L41.5393 41.621C41.333 39.9899 40.1495 38.6296 38.5204 38.2213L27.4381 35.4448C25.1321 34.8669 22.6985 35.1479 20.5851 36.2356L13.7908 39.7321L13.1503 38.6229C12.9021 38.1929 12.5014 37.8854 12.0218 37.7569C11.5429 37.6288 11.0419 37.6946 10.6119 37.9426L3.89206 41.8222C3.00483 42.3345 2.69968 43.4732 3.2119 44.3605L11.6984 59.0595C11.9466 59.4894 12.3473 59.7969 12.8267 59.9255C12.9867 59.9684 13.1493 59.9896 13.3108 59.9896C13.6327 59.9896 13.9505 59.9051 14.2368 59.7399L20.9564 55.8603C21.8438 55.348 22.1491 54.2093 21.6367 53.3219L14.9639 41.7642L21.6573 38.3195C23.2646 37.4924 25.1151 37.2789 26.8683 37.7182L37.9506 40.4947C38.7025 40.6831 39.2275 41.3561 39.2275 42.131C39.2275 43.0612 38.4708 43.8178 37.5406 43.8178H36.2741H28.8302C28.183 43.8178 27.6583 44.3426 27.6583 44.9897C27.6583 45.6368 28.183 46.1616 28.8302 46.1616H36.2741H37.5406H38.5493C39.6868 46.1616 40.7561 45.7187 41.5604 44.9144L51.4516 35.0231C52.1422 34.3323 53.2373 34.273 53.9985 34.8852C54.4268 35.2295 54.6791 35.7216 54.7088 36.2703C54.7386 36.819 54.5409 37.3353 54.1523 37.7237L43.7284 48.1476C42.3071 49.569 40.4172 50.3519 38.4071 50.3519H28.8449C28.1978 50.3519 27.673 50.8766 27.673 51.5237C27.673 52.1708 28.1978 52.6956 28.8449 52.6956H38.4071C41.0432 52.6956 43.5217 51.6689 45.3858 49.8049L55.8097 39.3811C56.6625 38.5281 57.1144 37.348 57.0491 36.1436C56.9842 34.939 56.4077 33.8146 55.4676 33.0587ZM17.4904 55.1549L14.5772 50.1092C14.2535 49.5489 13.5368 49.3566 12.9764 49.6803C12.4159 50.0039 12.2239 50.7205 12.5475 51.281L15.4607 56.3269L13.4856 57.4672L5.48452 43.6092L11.3632 40.2151L19.3641 54.073L17.4904 55.1549Z" fill="#095052"/>
<path d="M54.1406 3.97272C54.7877 3.97272 55.3125 3.44808 55.3125 2.80085V1.18237C55.3125 0.535146 54.7877 0.010498 54.1406 0.010498C53.4935 0.010498 52.9688 0.535146 52.9688 1.18237V2.80085C52.9688 3.44808 53.4935 3.97272 54.1406 3.97272Z" fill="#095052"/>
<path d="M54.1406 11.7293C54.7877 11.7293 55.3125 11.2047 55.3125 10.5574V8.93897C55.3125 8.29174 54.7877 7.76709 54.1406 7.76709C53.4935 7.76709 52.9688 8.29174 52.9688 8.93897V10.5574C52.9688 11.2047 53.4935 11.7293 54.1406 11.7293Z" fill="#095052"/>
<path d="M58.8281 4.698H57.2095C56.5624 4.698 56.0376 5.22265 56.0376 5.86987C56.0376 6.5171 56.5624 7.04175 57.2095 7.04175H58.8281C59.4752 7.04175 59.9999 6.5171 59.9999 5.86987C59.9999 5.22265 59.4752 4.698 58.8281 4.698Z" fill="#095052"/>
<path d="M49.4531 7.04175H51.0717C51.7188 7.04175 52.2436 6.5171 52.2436 5.86987C52.2436 5.22265 51.7188 4.698 51.0717 4.698H49.4531C48.806 4.698 48.2812 5.22265 48.2812 5.86987C48.2812 6.5171 48.806 7.04175 49.4531 7.04175Z" fill="#095052"/>
<path d="M5.85938 28.1133C6.50648 28.1133 7.03125 27.5887 7.03125 26.9415V25.323C7.03125 24.6758 6.50648 24.1511 5.85938 24.1511C5.21227 24.1511 4.6875 24.6758 4.6875 25.323V26.9415C4.6875 27.5887 5.21227 28.1133 5.85938 28.1133Z" fill="#61BC47"/>
<path d="M5.85938 35.8698C6.50648 35.8698 7.03125 35.3451 7.03125 34.6979V33.0793C7.03125 32.4322 6.50648 31.9075 5.85938 31.9075C5.21227 31.9075 4.6875 32.4322 4.6875 33.0793V34.6979C4.6875 35.3451 5.21227 35.8698 5.85938 35.8698Z" fill="#61BC47"/>
<path d="M8.92822 31.1824H10.5468C11.1939 31.1824 11.7187 30.6576 11.7187 30.0105C11.7187 29.3633 11.1939 28.8386 10.5468 28.8386H8.92822C8.28111 28.8386 7.75635 29.3633 7.75635 30.0105C7.75635 30.6576 8.28111 31.1824 8.92822 31.1824Z" fill="#61BC47"/>
<path d="M3.96234 30.0105C3.96234 29.3633 3.43758 28.8386 2.79047 28.8386H1.17188C0.524766 28.8386 0 29.3633 0 30.0105C0 30.6576 0.524766 31.1824 1.17188 31.1824H2.79047C3.43758 31.1824 3.96234 30.6576 3.96234 30.0105Z" fill="#61BC47"/>
<path d="M24.1582 50.3516C23.8488 50.3516 23.5477 50.477 23.3298 50.6949C23.1107 50.9129 22.9863 51.2152 22.9863 51.5234C22.9863 51.8316 23.1107 52.134 23.3298 52.352C23.5477 52.5698 23.85 52.6953 24.1582 52.6953C24.4665 52.6953 24.7687 52.5699 24.9867 52.352C25.2047 52.134 25.3301 51.8316 25.3301 51.5234C25.3301 51.2152 25.2048 50.9129 24.9867 50.6949C24.7687 50.477 24.4665 50.3516 24.1582 50.3516Z" fill="black"/>
<path d="M10.3899 45.807C10.1719 46.025 10.0464 46.3273 10.0464 46.6355C10.0464 46.9437 10.1718 47.246 10.3899 47.464C10.6077 47.6819 10.9101 47.8074 11.2183 47.8074C11.5278 47.8074 11.8288 47.682 12.0468 47.464C12.2659 47.246 12.3901 46.9437 12.3901 46.6355C12.3901 46.3273 12.2659 46.025 12.0468 45.807C11.8288 45.5891 11.5276 45.4636 11.2183 45.4636C10.9102 45.4636 10.6078 45.589 10.3899 45.807Z" fill="black"/>
</svg>
