<svg width="49" height="48" viewBox="0 0 49 48" fill="none" xmlns="http://www.w3.org/2000/svg">
<path d="M49 22.5C49 35.7548 38.7548 47.5 25.5 47.5C12.2452 47.5 0 37.2548 0 24C0 10.7452 12.2452 0 25.5 0C38.7548 0 49 9.24517 49 22.5Z" fill="white"/>
<path d="M14.6 38.9995C14.5576 38.9995 14.5132 38.9943 14.4698 38.9829C14.1929 38.9106 14.0275 38.6285 14.1009 38.3526L17.2009 26.4695C17.2649 26.2266 17.4943 26.0593 17.7433 26.0851C17.9934 26.1068 18.1928 26.3041 18.2145 26.5552L19.2479 38.4384C19.2727 38.7225 19.0619 38.9736 18.7777 38.9984C18.4904 39.0201 18.2424 38.8124 18.2187 38.5283L17.4447 29.6263L15.0991 38.613C15.0392 38.8455 14.8304 38.9995 14.6 38.9995Z" fill="#095052"/>
<path d="M20.7999 38.9995C20.5147 38.9995 20.2832 38.768 20.2832 38.4828V17.9808C20.2832 17.7917 20.3865 17.6181 20.5519 17.5282L24.1633 15.5463C24.898 15.1433 25.393 14.4055 25.4859 13.5727C25.581 12.7398 25.2628 11.909 24.6366 11.351L22.1773 9.16453C21.9644 8.9775 21.6379 8.993 21.4457 9.20793C21.2556 9.42079 20.928 9.43939 20.7172 9.25029C20.5033 9.06016 20.4847 8.73363 20.6748 8.52077C21.2411 7.88425 22.2238 7.82638 22.8624 8.39161L25.3227 10.5791C26.202 11.3603 26.6453 12.5228 26.5131 13.6884C26.3818 14.854 25.6895 15.8873 24.6593 16.4525L21.3165 18.2866V38.4828C21.3165 38.768 21.0851 38.9995 20.7999 38.9995Z" fill="#095052"/>
<path d="M12.5177 38.9995C12.4888 38.9995 12.4599 38.9975 12.4309 38.9923C12.1499 38.9448 11.9598 38.6782 12.0073 38.3971L13.8187 27.6124C13.7371 27.6258 13.6523 27.633 13.5666 27.633C12.712 27.633 12.0166 26.9376 12.0166 26.0831V19.3665C12.0166 17.3629 13.1036 15.2332 15.1165 15.2332H19.5102C20.1157 15.2332 20.7181 15.0793 21.2513 14.7869L23.1692 13.7339C23.32 13.6512 23.413 13.5107 23.4327 13.3392C23.4533 13.1666 23.3924 13.0096 23.2632 12.8949C23.0493 12.7058 23.0297 12.3782 23.2198 12.1653C23.4089 11.9504 23.7375 11.9318 23.9493 12.1219C24.3306 12.4609 24.5176 12.9465 24.4598 13.4549C24.4019 13.9633 24.1126 14.3942 23.6652 14.6391L21.7473 15.692C21.0622 16.0682 20.2883 16.2666 19.5102 16.2666H15.1165C13.7743 16.2666 13.0499 17.8641 13.0499 19.3665V26.0831C13.0499 26.3683 13.2824 26.5997 13.5666 26.5997C13.7794 26.5997 13.9634 26.4706 14.0419 26.2856L14.0904 25.9973C14.1359 25.7328 14.3632 25.5447 14.6433 25.5685C14.9109 25.5902 15.1165 25.8144 15.1165 26.0831C15.1165 26.2443 15.0928 26.3993 15.0463 26.546L13.0272 38.5686C12.9848 38.8218 12.7657 38.9995 12.5177 38.9995Z" fill="#095052"/>
<path d="M14.6002 26.5997C14.315 26.5997 14.0835 26.3682 14.0835 26.083V19.8831C14.0835 19.5979 14.315 19.3665 14.6002 19.3665C14.8853 19.3665 15.1168 19.5979 15.1168 19.8831V26.083C15.1168 26.3682 14.8853 26.5997 14.6002 26.5997Z" fill="#095052"/>
<path d="M14.6 38.9995C14.5576 38.9995 14.5132 38.9943 14.4698 38.9829C14.1929 38.9106 14.0275 38.6285 14.1009 38.3526L17.2009 26.4695C17.2649 26.2266 17.4943 26.0593 17.7433 26.0851C17.9934 26.1068 18.1928 26.3041 18.2145 26.5552L19.2479 38.4384C19.2727 38.7225 19.0619 38.9736 18.7777 38.9984C18.4904 39.0201 18.2424 38.8124 18.2187 38.5283L17.4447 29.6263L15.0991 38.613C15.0392 38.8455 14.8304 38.9995 14.6 38.9995Z" fill="#095052"/>
<path d="M18.7342 14.1999C17.0251 14.1999 15.6343 12.8091 15.6343 11.0999C15.6343 9.39084 17.0251 8 18.7342 8C20.4433 8 21.8342 9.39084 21.8342 11.0999C21.8342 12.8091 20.4433 14.1999 18.7342 14.1999ZM18.7342 9.03332C17.5934 9.03332 16.6676 9.95917 16.6676 11.0999C16.6676 12.2407 17.5934 13.1666 18.7342 13.1666C19.875 13.1666 20.8009 12.2407 20.8009 11.0999C20.8009 9.95917 19.875 9.03332 18.7342 9.03332Z" fill="#095052"/>
<path d="M32.6819 38.9995C31.257 38.9995 30.0986 37.8401 30.0986 36.4162C30.0986 36.0711 30.1658 35.7342 30.2991 35.417C30.4076 35.1535 30.7093 35.0275 30.9749 35.1401C31.2384 35.2507 31.3624 35.5534 31.2518 35.8159C31.1722 36.006 31.1319 36.2075 31.1319 36.4152C31.1319 37.2698 31.8274 37.9652 32.6819 37.9652C33.5365 37.9652 34.2319 37.2698 34.2319 36.4152C34.2319 35.5607 33.5365 34.8663 32.6819 34.8663C32.3967 34.8663 32.1653 34.6348 32.1653 34.3496C32.1653 34.0644 32.3967 33.8329 32.6819 33.8329C34.1069 33.8329 35.2652 34.9923 35.2652 36.4162C35.2652 37.8401 34.1069 38.9995 32.6819 38.9995Z" fill="#095052"/>
<path d="M32.6822 32.7996C31.5424 32.7996 30.6155 31.8727 30.6155 30.733V30.2163C30.6155 28.2293 31.1973 26.7868 32.4435 25.6739C32.8537 25.3071 33.297 24.9888 33.6886 24.7088C34.9937 23.7705 35.7821 23.2043 35.7821 21.4332C35.7821 19.2136 34.1226 18.6184 33.6132 18.4882C32.3432 18.1658 30.5556 18.6205 29.3301 20.871C29.0666 21.3557 28.6295 21.709 28.1005 21.8651C27.5714 22.019 27.0124 21.9622 26.5277 21.6987C26.0431 21.4352 25.6897 20.9981 25.5337 20.468C25.3777 19.9379 25.4366 19.38 25.7001 18.8953C25.7941 18.7228 25.8933 18.5543 25.9925 18.39C26.1423 18.1451 26.4606 18.0707 26.7034 18.2195C26.9462 18.3683 27.0227 18.6866 26.8739 18.9305C26.7819 19.0793 26.6931 19.2322 26.6073 19.3893C26.475 19.6321 26.4451 19.9111 26.5236 20.1756C26.6011 20.4401 26.7778 20.6592 27.0206 20.7904C27.2614 20.9217 27.5404 20.9527 27.807 20.8741C28.0715 20.7966 28.2906 20.6199 28.4218 20.3781C29.9325 17.6047 32.2275 17.0674 33.8684 17.489C35.2923 17.8506 36.8154 19.0772 36.8154 21.4332C36.8154 23.7343 35.6457 24.5755 34.2921 25.5478C33.9211 25.8144 33.5006 26.1141 33.1317 26.4447C32.1201 27.3479 31.6489 28.5455 31.6489 30.2163V30.733C31.6489 31.3024 32.1118 31.7663 32.6822 31.7663C33.2526 31.7663 33.7155 31.3024 33.7155 30.733V30.2163C33.7155 28.8141 34.1226 28.3316 34.5039 27.9895C34.7819 27.7415 35.128 27.4915 35.4969 27.228C37.0056 26.143 38.8821 24.7945 38.8821 21.4332C38.8821 18.5605 37.0717 16.1705 34.3789 15.4844C32.1573 14.9181 29.885 15.5897 28.1397 17.3247C27.9372 17.5262 27.6096 17.5241 27.4092 17.3226C27.2087 17.1201 27.2087 16.7936 27.4112 16.5921C29.421 14.5926 32.0529 13.8259 34.6341 14.4831C37.7919 15.287 39.9154 18.08 39.9154 21.4332C39.9154 25.3246 37.6194 26.9738 36.1004 28.065C35.7625 28.3068 35.4453 28.5331 35.1942 28.7573C35.0061 28.9268 34.7488 29.1572 34.7488 30.2163V30.733C34.7488 31.8727 33.8219 32.7996 32.6822 32.7996Z" fill="#095052"/>
<path d="M23.8995 38.9995C24.1848 38.9995 24.4161 38.7682 24.4161 38.4828C24.4161 38.1975 24.1848 37.9662 23.8995 37.9662C23.6141 37.9662 23.3828 38.1975 23.3828 38.4828C23.3828 38.7682 23.6141 38.9995 23.8995 38.9995Z" fill="#095052"/>
<path d="M25.9659 38.9995C26.2512 38.9995 26.4825 38.7682 26.4825 38.4828C26.4825 38.1975 26.2512 37.9662 25.9659 37.9662C25.6805 37.9662 25.4492 38.1975 25.4492 38.4828C25.4492 38.7682 25.6805 38.9995 25.9659 38.9995Z" fill="#095052"/>
<path d="M28.0328 38.9995C28.3181 38.9995 28.5494 38.7682 28.5494 38.4828C28.5494 38.1975 28.3181 37.9662 28.0328 37.9662C27.7474 37.9662 27.5161 38.1975 27.5161 38.4828C27.5161 38.7682 27.7474 38.9995 28.0328 38.9995Z" fill="#095052"/>
</svg>
