<svg width="90" height="90" viewBox="0 0 90 90" fill="none" xmlns="http://www.w3.org/2000/svg">
<g clip-path="url(#clip0_1_1755)">
<path d="M9.56802 45.2955C10.2176 44.8084 10.2176 43.9964 9.56802 43.5093C8.59371 42.6973 7.45701 43.0221 6.15767 43.0221C4.53382 43.0221 2.91023 42.8597 1.28638 42.535C-0.0127029 42.2102 -0.499858 44.1588 0.636838 44.646C1.93592 45.1334 3.39738 45.4582 4.85885 45.6205C6.4827 45.7829 8.26894 46.2701 9.56802 45.2955Z" fill="#095052"/>
<path d="M16.3882 45.4578C17.3625 45.133 18.1742 44.9706 19.1485 44.808C19.6357 44.808 20.1228 44.9704 20.6102 44.808C21.0974 44.6456 21.4222 44.6456 21.9093 44.3211C22.5589 43.9963 22.5589 42.8596 21.9093 42.5348C20.7726 42.0477 19.9607 42.0477 18.824 42.3725C17.6873 42.6972 16.713 42.8596 15.5763 43.5092C14.602 44.1587 15.2515 45.7828 16.3882 45.4578Z" fill="#095052"/>
<path d="M36.3617 44.3212C36.8488 43.9964 36.8488 43.1845 36.3617 42.6973C35.5498 42.0478 34.9002 42.2102 33.9259 42.2102C32.9516 42.2102 32.1397 42.3726 31.1653 42.3726C29.8663 42.535 29.8663 44.3212 31.1653 44.3212C31.9775 44.3212 32.7892 44.4836 33.6014 44.4836C34.5754 44.8083 35.3874 45.1334 36.3617 44.3212Z" fill="#095052"/>
<path d="M43.6693 44.4836C45.4556 43.834 47.2418 44.1588 49.0281 43.6717C50.0024 43.3469 50.0024 41.8854 49.0281 41.5606C47.0794 40.9111 44.806 41.5606 43.0195 42.6973C42.0455 43.1845 42.695 44.8084 43.6693 44.4836Z" fill="#095052"/>
<path d="M64.4547 43.3468C64.7794 43.022 64.7794 42.3725 64.4547 42.0477C63.4804 41.0734 62.1813 41.3982 60.8822 41.3982C59.7455 41.3982 58.4464 41.3982 57.3097 41.5605C56.3354 41.7229 56.3354 43.3468 57.3097 43.5092C58.4464 43.6715 59.4207 43.6715 60.5574 43.6715C61.8565 43.9963 63.318 44.3211 64.4547 43.3468Z" fill="#095052"/>
<path d="M78.4199 41.7229C78.4199 40.7486 77.4456 40.0991 76.6337 40.4238C75.3346 40.7486 73.7107 40.7486 72.4117 40.911C71.5997 41.0734 71.5997 42.5348 72.4117 42.6972C73.8731 42.8596 75.3346 42.6972 76.6337 43.1844C77.4456 43.3468 78.4199 42.6972 78.4199 41.7229Z" fill="#095052"/>
<path d="M79.0692 57.1499C83.1289 53.415 87.1885 49.3554 89.7867 44.3212C90.1114 43.6716 90.1114 42.8597 89.4619 42.3725C85.4023 38.9624 80.8555 36.3643 76.9582 32.7918C75.6591 31.4927 73.7105 33.6037 75.0096 34.7404C78.5821 37.9881 82.8041 40.4239 86.3766 43.6716C83.7784 47.8936 80.0435 50.8168 76.6335 54.5517C75.0096 56.3377 77.4454 58.6113 79.0692 57.1499Z" fill="#095052"/>
</g>
<defs>
<clipPath id="clip0_1_1755">
<rect width="90" height="90" fill="white" transform="translate(90) rotate(90)"/>
</clipPath>
</defs>
</svg>
