<svg width="95" height="79" viewBox="0 0 95 79" fill="none" xmlns="http://www.w3.org/2000/svg">
<path fill-rule="evenodd" clip-rule="evenodd" d="M92.3065 36.6212L92.6242 37.1986L92.9246 37.7839L93.2072 38.3765L93.4713 38.9761L93.7162 39.5821L93.9413 40.1941L94.1461 40.8115L94.33 41.4338L94.4925 42.0603L94.6332 42.6906L94.7517 43.3239L94.8476 43.9597L94.9206 44.5974L94.9705 45.2362L94.997 45.8756L95 46.5149L94.9795 47.1535L94.9353 47.7906L94.8676 48.4258L94.7763 49.0582L94.6618 49.6874L94.524 50.3127L94.3633 50.9336L94.1799 51.5494L93.9742 52.1596L93.7467 52.7637L93.4976 53.3612L93.2275 53.9516L92.937 54.5345L92.6264 55.1094L92.2965 55.676L91.9478 56.2339L91.5809 56.7827L91.1965 57.3223L90.7952 57.8523L90.3777 58.3724L89.9447 58.8826L89.4969 59.3825L89.0349 59.8721L88.5595 60.3512L88.0713 60.8198L87.571 61.2777L87.0593 61.7249L86.537 62.1616L86.0048 62.5877L85.4633 63.0033L84.9134 63.4086L84.3557 63.8037L83.791 64.1887L83.2198 64.5641L82.643 64.9299L82.0611 65.2865L81.4748 65.6341L80.8846 65.9732L80.2912 66.3041L79.6951 66.6271L79.0969 66.9427L78.4969 67.2512L77.8958 67.553L77.2938 67.8487L76.6914 68.1386L76.0888 68.4232L75.4865 68.7029L74.8846 68.9781L74.2834 69.2494L73.6831 69.517L73.0838 69.7815L72.4856 70.0432L71.8885 70.3026L71.2926 70.5599L70.6979 70.8155L70.1043 71.0698L69.5118 71.3231L68.9201 71.5755L68.3291 71.8273L67.7387 72.0787L67.1485 72.3296L66.5584 72.5802L65.968 72.8305L65.377 73.0805L64.7852 73.33L64.1922 73.579L63.5977 73.8272L63.0014 74.0746L62.4029 74.3207L61.802 74.5654L61.1984 74.8083L60.5917 75.049L59.9817 75.2872L59.3681 75.5224L58.7508 75.7543L58.1294 75.9822L57.5039 76.2058L56.874 76.4246L56.2397 76.6379L55.6008 76.8453L54.9573 77.0463L54.3092 77.2402L53.6565 77.4266L52.9991 77.6049L52.3372 77.7747L51.6709 77.9353L51.0003 78.0863L50.3256 78.2271L49.647 78.3575L48.9647 78.4768L48.2789 78.5846L47.5899 78.6807L46.8981 78.7647L46.2037 78.8363L45.5071 78.8952L44.8086 78.9411L44.1086 78.974L43.4074 78.9937L42.7055 79L42.0031 78.9928L41.3007 78.9721L40.5987 78.9377L39.8974 78.8897L39.1973 78.828L38.4987 78.7525L37.802 78.6634L37.1076 78.5607L36.4159 78.4444L35.7273 78.3146L35.0421 78.1715L34.3607 78.015L33.6834 77.8454L33.0106 77.6629L32.3427 77.4676L31.6798 77.2596L31.0224 77.0393L30.3708 76.8067L29.7252 76.5623L29.0859 76.3061L28.4531 76.0385L27.8271 75.7597L27.208 75.47L26.5962 75.1698L25.9918 74.8592L25.3949 74.5386L24.8057 74.2084L24.2243 73.8688L23.6509 73.5202L23.0855 73.1628L22.5283 72.7972L21.9791 72.4234L21.4382 72.0421L20.9054 71.6534L20.3807 71.2579L19.8641 70.8557L19.3555 70.4474L18.8548 70.0332L18.3619 69.6136L17.8766 69.1889L17.3988 68.7594L16.9283 68.3254L16.4648 67.8873L16.0083 67.4454L15.5584 66.9999L15.115 66.5512L14.6777 66.0995L14.2464 65.645L13.8208 65.188L13.4007 64.7286L12.9857 64.267L12.5757 63.8033L12.1704 63.3377L11.7696 62.8703L11.3731 62.4011L10.9807 61.9302L10.5922 61.4577L10.2075 60.9834L9.82637 60.5075L9.44877 60.0298L9.07459 59.5503L8.70381 59.069L8.33642 58.5856L7.97242 58.1002L7.6119 57.6125L7.25495 57.1225L6.90172 56.6299L6.5524 56.1346L6.20722 55.6365L5.86646 55.1353L5.53045 54.6309L5.19953 54.1231L4.87409 53.6117L4.55454 53.0966L4.24132 52.5778L3.9349 52.0549L3.63576 51.528L3.34442 50.9969L3.06141 50.4617L2.78727 49.9221L2.52257 49.3783L2.26786 48.8303L2.02373 48.2779L1.79075 47.7214L1.56951 47.1608L1.36058 46.5963L1.16453 46.0278L0.981927 45.4557L0.813307 44.8801L0.659203 44.3012L0.520122 43.7192L0.396551 43.1346L0.288945 42.5474L0.197732 41.9582L0.123304 41.3671L0.0660196 40.7746L0.0261967 40.1811L0.00411227 39.5869L0 38.9925L0.0140479 38.3983L0.046397 37.8047L0.0971353 37.2122L0.166281 36.6212L0.253774 36.0322L0.35948 35.4457L0.483192 34.862L0.624628 34.2816L0.783443 33.7049L0.959225 33.1323L1.1515 32.5641L1.35974 32.0008L1.58336 31.4427L1.82173 30.8899L2.07418 30.3429L2.33999 29.8018L2.61841 29.2667L2.90868 28.7379L3.20999 28.2155L3.52154 27.6995L3.84249 27.1899L4.17203 26.6868L4.50931 26.19L4.85352 25.6996L5.20385 25.2154L5.55949 24.7372L5.91968 24.2649L6.28368 23.7982L6.65077 23.3369L7.02027 22.8807L7.39156 22.4293L7.76404 21.9825L8.13719 21.5398L8.51051 21.101L8.88359 20.6657L9.25605 20.2336L9.6276 19.8043L9.99798 19.3774L10.367 18.9528L10.7346 18.53L11.1008 18.1088L11.4655 17.689L11.8288 17.2702L12.1909 16.8523L12.552 16.4352L12.9123 16.0186L13.2722 15.6026L13.6318 15.1869L13.9916 14.7716L14.3518 14.3566L14.7128 13.942L15.075 13.5277L15.4388 13.1139L15.8046 12.7006L16.1728 12.288L16.5439 11.8762L16.9182 11.4654L17.2961 11.0559L17.6781 10.6479L18.0646 10.2416L18.456 9.83749L18.8526 9.43576L19.2549 9.03681L19.6631 8.64102L20.0777 8.24878L20.4989 7.8605L20.9269 7.47662L21.3621 7.09758L21.8047 6.72384L22.2548 6.35586L22.7127 5.99411L23.1785 5.63907L23.6523 5.29122L24.1341 4.95102L24.624 4.61896L25.1219 4.2955L25.628 3.9811L26.142 3.6762L26.6639 3.38123L27.1935 3.09662L27.7307 2.82276L28.2754 2.56002L28.8272 2.30876L29.3859 2.06932L29.9512 1.842L30.5228 1.62708L31.1005 1.42482L31.6837 1.23545L32.2723 1.05917L32.8658 0.896147L33.4637 0.746534L34.0658 0.610444L34.6715 0.487966L35.2805 0.379163L35.8922 0.284068L36.5064 0.20269L37.1224 0.135015L37.74 0.081001L38.3586 0.0405865L38.9778 0.0136872L39.5972 0.000199172L40.2164 0L40.8349 0.0129504L41.4523 0.0388957L42.0682 0.0776679L42.6823 0.129087L43.2942 0.192963L43.9034 0.269097L44.5096 0.357284L45.1125 0.457313L45.7118 0.568971L46.3071 0.692042L46.8981 0.82631L47.4845 0.971559L48.066 1.12758L48.6423 1.29415L49.2132 1.47108L49.7784 1.65814L50.3376 1.85509L50.8906 2.06171L51.4372 2.27773L51.9771 2.50289L52.5102 2.73691L53.0362 2.97952L53.555 3.23041L54.0664 3.48928L54.5703 3.75582L55.0665 4.0297L55.555 4.31059L56.0356 4.59817L56.5083 4.89207L56.9729 5.19195L57.4296 5.49745L57.8782 5.80822L58.3187 6.12389L58.7513 6.44409L59.1758 6.76846L59.5924 7.09662L60.0011 7.42821L60.4022 7.76287L60.7956 8.10023L61.1815 8.43993L61.56 8.78162L61.9315 9.12495L62.296 9.46959L62.6537 9.8152L63.005 10.1615L63.35 10.5081L63.689 10.8547L64.0223 11.2011L64.3503 11.5469L64.6732 11.8918L64.9916 12.2354L65.3057 12.5774L65.6161 12.9176L65.9232 13.2557L66.2275 13.5913L66.5295 13.9242L66.8296 14.2543L67.1285 14.5812L67.4266 14.9047L67.7245 15.2249L68.0228 15.5414L68.322 15.8543L68.6225 16.1635L68.925 16.4689L69.2301 16.7706L69.538 17.0685L69.8495 17.3629L70.165 17.6539L70.4848 17.9414L70.8095 18.2259L71.1394 18.5074L71.4748 18.7863L71.8163 19.0628L72.1639 19.3371L72.5181 19.6098L72.879 19.8811L73.2468 20.1513L73.6217 20.421L74.0039 20.6905L74.3933 20.9602L74.7901 21.2306L75.1942 21.5021L75.6057 21.7752L76.0245 22.0504L76.4504 22.3281L76.8835 22.6088L77.3234 22.8929L77.7702 23.1809L78.2235 23.4733L78.683 23.7705L79.1484 24.073L79.6194 24.3813L80.0955 24.6958L80.5761 25.0169L81.0609 25.3452L81.5491 25.681L82.0402 26.0247L82.5335 26.3768L83.0283 26.7375L83.5239 27.1072L84.0195 27.4862L84.5144 27.8749L85.0076 28.2733L85.4984 28.6819L85.9858 29.1006L86.4691 29.5297L86.9474 29.9694L87.4197 30.4195L87.8851 30.8803L88.3428 31.3517L88.7919 31.8336L89.2315 32.326L89.6607 32.8288L90.0787 33.3417L90.4846 33.8647L90.8777 34.3975L91.2572 34.9399L91.6223 35.4915L91.9723 36.0521L92.3065 36.6212Z" fill="#F1E9DF" fill-opacity="0.5"/>
</svg>
