<svg width="79" height="89" viewBox="0 0 79 89" fill="none" xmlns="http://www.w3.org/2000/svg">
<path d="M76.349 22.441L74.7382 20.8195C74.2908 15.3551 69.083 11.821 59.9553 10.8559C58.792 10.6745 58.6665 9.3263 58.6665 8.72546V3.84407C58.7217 2.82843 58.3573 1.83637 57.6622 1.10622C56.9663 0.375997 56.0027 -0.0240862 55.0031 0.00112322C54.0044 0.0263306 53.0616 0.47519 52.4024 1.23957C45.7627 8.16124 44.4555 17.633 44.2591 22.7519C44.1665 24.7799 43.0215 26.6047 41.2526 27.5423C5.79717 46.8501 10.5405 71.2581 14.2284 80.7299C14.2284 80.9486 14.425 81.1486 14.5144 81.3495C11.9442 80.7331 9.61749 79.3402 7.83797 77.3545C6.05941 75.3687 4.91199 72.8822 4.54524 70.2205C3.81337 64.9284 4.26001 59.5372 5.85239 54.4451C7.4448 49.3531 10.1423 44.6905 13.7449 40.8035C14.8978 39.4707 15.5067 37.7403 15.4467 35.9661C15.3868 34.1917 14.6629 32.5077 13.4229 31.2587C12.0989 30.0089 10.3603 29.3152 8.55456 29.3152C6.74886 29.3152 5.01025 30.0089 3.68625 31.2587L1.8965 33.0802C1.19498 33.7942 1.19498 34.9521 1.8965 35.6669C2.59882 36.3809 3.73658 36.3809 4.43814 35.6669L6.22789 33.8454C6.85191 33.2307 7.68605 32.8875 8.55456 32.8875C9.42307 32.8875 10.2572 33.2307 10.8812 33.8454C11.4773 34.4285 11.8304 35.2229 11.8672 36.0637C11.9039 36.9045 11.6211 37.7274 11.0778 38.3625C7.11886 42.6535 4.15606 47.7945 2.40865 53.4062C0.662044 59.017 0.17464 64.9563 0.984055 70.785C1.55853 74.7957 3.51936 78.4661 6.51468 81.1367C9.50939 83.808 13.3421 85.3043 17.3243 85.357C17.8796 85.8823 18.4781 86.3572 19.1141 86.7776C21.2329 88.2209 23.7235 88.9942 26.2731 89H60.4562C62.3746 89 64.1468 87.9583 65.1063 86.2678C66.0651 84.5772 66.0651 82.4938 65.1063 80.8033C64.1467 79.1127 62.3746 78.0711 60.4562 78.0711H58.6665C58.104 78.0914 57.5759 77.7978 57.2882 77.3059C55.8804 74.5199 55.834 71.2242 57.1628 68.3993C57.4384 67.9228 57.7372 67.4609 58.0576 67.0145C60.8742 63.3869 62.9108 59.1983 64.0358 54.7195C64.9714 48.8183 65.152 42.818 64.5727 36.8689C64.4912 36.2021 64.7078 35.5337 65.1632 35.0474C65.5906 34.5717 66.1947 34.3009 66.8275 34.3009H71.5352C73.3545 34.3026 75.0996 33.5683 76.3868 32.2591C77.6732 30.9507 78.3962 29.1748 78.3962 27.3232C78.3954 25.4724 77.6723 23.6964 76.3852 22.3881L76.349 22.441ZM71.4991 30.711H66.7922C65.1534 30.7175 63.5906 31.4168 62.4783 32.6414C61.3829 33.8783 60.8332 35.5175 60.9571 37.1773C61.5076 42.8043 61.339 48.4794 60.4561 54.0626C59.4462 58.0301 57.6563 61.7478 55.1938 64.9915C54.7128 65.6193 54.2878 66.2902 53.9234 66.9952C52.1641 70.8421 52.2567 75.3024 54.1743 79.0715C54.6282 79.8953 55.2953 80.5775 56.1023 81.0427C56.9101 81.5086 57.8281 81.7404 58.7558 81.7127H60.5456C61.5339 81.7127 62.3353 82.5283 62.3353 83.5342C62.3353 84.5401 61.5339 85.3557 60.5456 85.3557H51.2029C51.7846 83.683 51.5313 81.8266 50.5238 80.3784C49.517 78.9293 47.8815 78.0689 46.1382 78.0697C45.5949 78.0673 45.0875 77.7949 44.7783 77.3411C44.4874 76.9069 44.4267 76.354 44.6169 75.8661C49.9861 61.4942 42.3622 53.444 42.0392 53.0964C41.3425 52.3816 40.2088 52.3776 39.5072 53.0866C38.8049 53.7965 38.8009 54.9504 39.4984 55.6644C39.7493 55.9376 45.8345 62.4772 41.2882 74.5534C40.6913 76.1765 40.911 77.9938 41.8778 79.4202C42.8446 80.8465 44.4354 81.7028 46.138 81.7117C47.1264 81.7117 47.9278 82.5273 47.9278 83.5332C47.9278 84.5391 47.1264 85.3547 46.138 85.3547H26.2543C24.3766 85.3669 22.5398 84.8066 20.9793 83.7446C19.4189 82.6826 18.2076 81.1685 17.5021 79.3982C14.227 70.7827 10.0027 48.689 42.9349 30.7093C45.8384 29.1846 47.7361 26.214 47.9286 22.8948C48.09 18.341 49.2533 9.83458 55.0876 3.84239V8.72378C54.9598 10.0883 55.3568 11.4504 56.1942 12.5229C57.0316 13.5963 58.2451 14.298 59.5796 14.4802C63.1591 14.8445 71.1954 16.3017 71.1954 21.6019C71.193 22.0857 71.3791 22.5517 71.7147 22.8948L73.8088 25.0261H73.808C74.432 25.6424 74.7812 26.4914 74.7748 27.3761C74.7748 28.26 74.4296 29.1081 73.8152 29.7326C73.2016 30.3579 72.3682 30.7092 71.4998 30.7092L71.4991 30.711Z" fill="#095052"/>
</svg>
