<svg width="120" height="80" viewBox="0 0 120 80" fill="none" xmlns="http://www.w3.org/2000/svg">
<path d="M19.3151 42.6007C25.2513 42.6007 29.1906 41.6615 31.5362 40.8179C31.1961 44.2493 31.2347 47.0353 31.2715 49.3651C31.3487 54.4563 31.3845 57.0114 27.6495 60.2298L27.2539 60.5647L27.1484 61.062C26.8969 62.2753 24.7907 73.0154 28.372 77.2969L28.8355 77.8054H41.1752L41.3523 76.5152C41.4078 76.0845 41.8505 72.318 40.0137 70.2323C39.1782 69.2827 38.0102 68.8173 36.6462 68.9055C36.5953 67.9306 37.023 66.2613 39.6199 64.2279C44.3485 60.5292 49.2241 56.7101 50.7653 50.4384C54.6264 51.7352 64.2627 54.6289 73.3016 54.6289C75.9494 54.6289 78.3533 54.3615 80.4831 53.8586L80.2617 66.3785C80.2438 67.2634 80.1798 75.0616 83.534 78.4743C84.5768 79.5374 85.8861 80 87.3245 80H97.9008L98.1428 78.8562C98.2276 78.4133 98.9256 74.5709 96.8411 72.0506C96.1176 71.1761 94.7518 70.1308 92.3696 70.1308C91.8308 70.1308 91.2552 70.1861 90.6448 70.2922C91.1497 65.5958 92.7784 54.427 97.0925 50.2198C97.4175 49.9242 104.728 43.0509 103.264 26.3292L103.261 25.7465C106.895 25.3205 115.075 23.8577 117.559 19.2347C119.277 16.0341 120.972 12.3935 119.337 9.67312C118.22 7.8143 115.867 6.91167 112.143 6.91167C111.677 6.91167 111.187 6.92668 110.671 6.95483C109.544 4.83236 106.14 0.73556 96.438 0.00844487L96.3193 0L96.1978 0.00844487C95.967 0.029088 90.987 0.523575 86.944 8.48136C86.5606 8.9768 86.1311 9.76029 85.9342 10.6902C85.8805 10.8206 85.8231 10.9454 85.7712 11.0777C82.3369 19.6717 77.6638 24.3286 62.8081 24.3286C62.2353 24.3286 61.6494 24.3221 61.0485 24.307C58.7322 24.2536 56.1116 24.1944 53.7954 24.1944C45.7888 24.1944 39.0462 24.7133 35.1371 29.6357C33.6177 30.8104 20.5716 40.2527 8.38964 28.6711C7.98271 28.2282 5.80773 26.0062 3.4226 26.1611C2.61063 26.2146 1.44731 26.5646 0.522391 27.9242C-0.00322545 28.6965 -0.396961 30.0467 0.699481 32.1072C2.97055 36.3897 11.3587 42.6032 19.3144 42.6006L19.3151 42.6007ZM95.5593 3.36248C97.6825 7.38695 99.8538 13.2279 98.5642 15.0023C98.0244 15.7464 96.5427 15.6235 95.3943 15.3927C90.2645 14.353 89.1972 12.8169 88.9788 12.2044C88.8987 11.982 88.8827 11.7605 88.9034 11.5494C91.3204 5.88382 94.1548 3.9828 95.5594 3.36258L95.5593 3.36248ZM87.3255 15.1637C88.7695 16.6125 91.2298 17.6821 94.7811 18.4018C95.5639 18.5594 96.2883 18.6382 96.9514 18.6382C98.7976 18.6382 100.175 18.0246 101.063 16.8038C103.389 13.6013 100.882 7.19255 99.0426 3.41957C106.954 4.77825 108.13 8.75295 108.173 8.91725L108.474 10.2168L109.81 10.1014C113.569 9.77207 116.057 10.2046 116.692 11.2593C117.567 12.7165 115.655 16.2737 114.839 17.7937C112.937 21.3339 104.499 22.6431 101.407 22.8504L99.7754 22.9583L99.9657 24.4465C91.7584 22.5351 87.7135 18.642 86.3308 17.0261C86.6784 16.4237 87.01 15.8045 87.3255 15.1636L87.3255 15.1637ZM84.5495 19.6528C86.6821 21.9263 91.4379 25.8175 100.193 27.6378L100.211 30.2801C97.1822 29.796 90.2144 27.9944 83.0113 21.3643C83.5567 20.8276 84.07 20.2552 84.5495 19.6528ZM34.9298 38.4773C36.3691 28.8266 41.6668 27.2691 53.7897 27.2691C55.9072 27.2691 58.103 27.3151 60.974 27.3808C70.3756 27.5947 76.4126 26.1619 80.6063 23.3253C88.9597 31.1706 97.0341 32.9796 100.273 33.3963C99.5417 43.5836 95.0589 47.9084 94.975 47.9862C88.5961 54.2091 87.4224 71.4799 87.3752 72.2138L87.2292 74.4779L89.4004 73.7329C91.8825 72.9053 93.6327 72.91 94.4605 73.9027C95.1171 74.6965 95.2602 76.0534 95.2367 76.9315H87.3234C86.7102 76.9315 86.2062 76.8067 85.7343 76.3291C83.6516 74.2142 83.3012 68.5401 83.3427 66.4889L83.6375 49.6565L81.5482 50.3846C79.28 51.1756 76.506 51.5753 73.3005 51.5753C62.4754 51.5753 50.2478 47.0152 50.1256 46.9691L48.3029 46.2813L48.0532 48.2058C47.2535 54.3556 42.621 57.9811 37.7172 61.8189C31.2731 66.8624 34.182 71.3363 34.3091 71.5229L34.9515 72.4697L36.048 72.1225C36.3974 72.0137 36.7083 71.948 36.9692 71.948C37.3856 71.948 37.5646 72.0634 37.6974 72.2154C38.1429 72.7202 38.3294 73.8603 38.3567 74.7376L30.3651 74.7385C28.8946 72.1075 29.344 65.969 30.0664 62.1585C34.4832 58.1389 34.4268 54.4437 34.3496 49.3241C34.3091 46.5017 34.2592 42.9886 34.9298 38.4782L34.9298 38.4773ZM3.06771 29.6515C3.34182 29.248 3.53586 29.2358 3.62159 29.2302C4.30923 29.1861 5.52152 30.0963 6.13091 30.769L6.21475 30.8582C16.1346 40.3287 26.7287 37.5408 32.6029 34.6996C32.3683 35.4963 32.1696 36.3633 32.0057 37.2848C30.7123 37.9463 26.8211 39.5302 19.3137 39.5302C13.2926 39.5311 6.60935 34.9914 4.10003 31.7178C3.14299 30.467 3.04221 29.7671 3.06669 29.6516L3.06771 29.6515Z" fill="#095052"/>
</svg>
