<svg width="86" height="79" viewBox="0 0 86 79" fill="none" xmlns="http://www.w3.org/2000/svg">
<path fill-rule="evenodd" clip-rule="evenodd" d="M83.5616 36.6212L83.8492 37.1986L84.1212 37.7839L84.3771 38.3765L84.6161 38.9761L84.8378 39.5821L85.0416 40.1941L85.227 40.8115L85.3934 41.4338L85.5406 42.0603L85.668 42.6906L85.7752 43.3239L85.862 43.9597L85.9281 44.5974L85.9733 45.2362L85.9973 45.8756L86 46.5149L85.9814 47.1535L85.9414 47.7906L85.8801 48.4258L85.7975 49.0582L85.6938 49.6874L85.5691 50.3127L85.4236 50.9336L85.2576 51.5494L85.0714 52.1596L84.8654 52.7637L84.6399 53.3612L84.3954 53.9516L84.1324 54.5345L83.8513 55.1094L83.5526 55.676L83.2369 56.2339L82.9048 56.7827L82.5568 57.3223L82.1935 57.8523L81.8156 58.3724L81.4236 58.8826L81.0182 59.3825L80.6 59.8721L80.1696 60.3512L79.7277 60.8198L79.2748 61.2777L78.8116 61.7249L78.3387 62.1616L77.8569 62.5877L77.3668 63.0033L76.869 63.4086L76.3641 63.8037L75.8529 64.1887L75.3359 64.5641L74.8137 64.9299L74.2869 65.2865L73.7561 65.6341L73.2219 65.9732L72.6847 66.3041L72.1451 66.6271L71.6035 66.9427L71.0604 67.2512L70.5162 67.553L69.9712 67.8487L69.4259 68.1386L68.8804 68.4232L68.3351 68.7029L67.7903 68.9781L67.2461 69.2494L66.7026 69.517L66.1601 69.7815L65.6185 70.0432L65.078 70.3026L64.5386 70.5599L64.0002 70.8155L63.4629 71.0698L62.9264 71.3231L62.3908 71.5755L61.8559 71.8273L61.3214 72.0787L60.7871 72.3296L60.2529 72.5802L59.7184 72.8305L59.1834 73.0805L58.6477 73.33L58.1108 73.579L57.5727 73.8272L57.0328 74.0746L56.4911 74.3207L55.9471 74.5654L55.4006 74.8083L54.8514 75.049L54.2992 75.2872L53.7438 75.5224L53.1849 75.7543L52.6224 75.9822L52.0561 76.2058L51.486 76.4246L50.9117 76.6379L50.3334 76.8453L49.7509 77.0463L49.1641 77.2402L48.5732 77.4266L47.9781 77.6049L47.379 77.7747L46.7758 77.9353L46.1687 78.0863L45.5579 78.2271L44.9436 78.3575L44.3259 78.4768L43.7051 78.5846L43.0814 78.6807L42.4551 78.7647L41.8265 78.8363L41.1959 78.8952L40.5636 78.9411L39.9299 78.974L39.2951 78.9937L38.6597 79L38.0238 78.9928L37.388 78.9721L36.7525 78.9377L36.1176 78.8897L35.4838 78.828L34.8514 78.7525L34.2207 78.6634L33.5922 78.5607L32.966 78.4444L32.3426 78.3146L31.7223 78.1715L31.1055 78.015L30.4923 77.8454L29.8833 77.6629L29.2786 77.4676L28.6786 77.2596L28.0835 77.0393L27.4936 76.8067L26.9091 76.5623L26.3304 76.3061L25.7575 76.0385L25.1908 75.7597L24.6304 75.47L24.0766 75.1698L23.5294 74.8592L22.989 74.5386L22.4557 74.2084L21.9294 73.8688L21.4103 73.5202L20.8985 73.1628L20.394 72.7972L19.8969 72.4234L19.4072 72.0421L18.9249 71.6534L18.4499 71.2579L17.9822 70.8557L17.5218 70.4474L17.0686 70.0332L16.6223 69.6136L16.183 69.1889L15.7505 68.7594L15.3245 68.3254L14.905 67.8873L14.4917 67.4454L14.0845 66.9999L13.683 66.5512L13.2872 66.0995L12.8968 65.645L12.5115 65.188L12.1311 64.7286L11.7555 64.267L11.3843 63.8033L11.0174 63.3377L10.6546 62.8703L10.2957 62.4011L9.94046 61.9302L9.58877 61.4577L9.24047 60.9834L8.89545 60.5075L8.55362 60.0298L8.2149 59.5503L7.87924 59.069L7.54665 58.5856L7.21714 58.1002L6.89077 57.6125L6.56764 57.1225L6.24787 56.6299L5.93165 56.1346L5.61917 55.6365L5.31069 55.1353L5.00651 54.6309L4.70694 54.1231L4.41233 53.6117L4.12305 53.0966L3.83951 52.5778L3.56212 52.0549L3.29132 51.528L3.02758 50.9969L2.77138 50.4617L2.52322 49.9221L2.28359 49.3783L2.05301 48.8303L1.83201 48.2779L1.6211 47.7214L1.42082 47.1608L1.23168 46.5963L1.05421 46.0278L0.888902 45.4557L0.736257 44.8801L0.596752 44.3012L0.470848 43.7192L0.358983 43.1346L0.261571 42.5474L0.178999 41.9582L0.111623 41.3671L0.0597651 40.7746L0.0237149 40.1811L0.00372269 39.5869L0 38.9925L0.0127171 38.3983L0.0420015 37.8047L0.087933 37.2122L0.150528 36.6212L0.229732 36.0322L0.325424 35.4457L0.437415 34.862L0.565453 34.2816L0.709222 33.7049L0.868351 33.1323L1.04241 32.5641L1.23092 32.0008L1.43336 31.4427L1.64915 30.8899L1.87768 30.3429L2.1183 29.8018L2.37035 29.2667L2.63312 28.7379L2.90589 28.2155L3.18792 27.6995L3.47847 27.1899L3.77678 26.6868L4.08211 26.19L4.39371 25.6996L4.71085 25.2154L5.0328 24.7372L5.35887 24.2649L5.68838 23.7982L6.02069 23.3369L6.35519 22.8807L6.6913 22.4293L7.0285 21.9825L7.3663 21.5398L7.70425 21.101L8.04199 20.6657L8.37916 20.2336L8.71551 19.8043L9.0508 19.3774L9.38489 18.9528L9.71768 18.53L10.0491 18.1088L10.3792 17.689L10.7081 17.2702L11.036 16.8523L11.3629 16.4352L11.6891 16.0186L12.0148 15.6026L12.3404 15.1869L12.666 14.7716L12.9921 14.3566L13.3189 13.942L13.6468 13.5277L13.9762 13.1139L14.3073 12.7006L14.6407 12.288L14.9766 11.8762L15.3154 11.4654L15.6575 11.0559L16.0033 10.6479L16.3532 10.2416L16.7075 9.83749L17.0666 9.43576L17.4308 9.03681L17.8003 8.64102L18.1756 8.24878L18.5569 7.8605L18.9444 7.47662L19.3383 7.09758L19.739 6.72384L20.1465 6.35586L20.561 5.99411L20.9827 5.63907L21.4115 5.29122L21.8477 4.95102L22.2912 4.61896L22.742 4.2955L23.2 3.9811L23.6654 3.6762L24.1378 3.38123L24.6173 3.09662L25.1036 2.82276L25.5967 2.56002L26.0962 2.30876L26.6019 2.06932L27.1137 1.842L27.6312 1.62708L28.1541 1.42482L28.6821 1.23545L29.2149 1.05917L29.7522 0.896147L30.2935 0.746534L30.8385 0.610444L31.3868 0.487966L31.9381 0.379163L32.4919 0.284068L33.0479 0.20269L33.6056 0.135015L34.1646 0.081001L34.7246 0.0405865L35.2852 0.0136872L35.8459 0.000199172L36.4064 0L36.9663 0.0129504L37.5252 0.0388957L38.0828 0.0776679L38.6387 0.129087L39.1926 0.192963L39.7441 0.269097L40.2929 0.357284L40.8387 0.457313L41.3812 0.568971L41.9201 0.692042L42.4551 0.82631L42.986 0.971559L43.5124 1.12758L44.0341 1.29415L44.5509 1.47108L45.0625 1.65814L45.5688 1.85509L46.0694 2.06171L46.5642 2.27773L47.053 2.50289L47.5355 2.73691L48.0117 2.97952L48.4814 3.23041L48.9443 3.48928L49.4005 3.75582L49.8497 4.0297L50.2919 4.31059L50.727 4.59817L51.1549 4.89207L51.5755 5.19195L51.9889 5.49745L52.395 5.80822L52.7938 6.12389L53.1853 6.44409L53.5697 6.76846L53.9468 7.09662L54.3168 7.42821L54.6799 7.76287L55.036 8.10023L55.3853 8.43993L55.728 8.78162L56.0643 9.12495L56.3942 9.46959L56.7181 9.8152L57.0361 10.1615L57.3484 10.5081L57.6553 10.8547L57.957 11.2011L58.2539 11.5469L58.5463 11.8918L58.8345 12.2354L59.1189 12.5774L59.3999 12.9176L59.6779 13.2557L59.9533 13.5913L60.2267 13.9242L60.4984 14.2543L60.769 14.5812L61.0388 14.9047L61.3085 15.2249L61.5785 15.5414L61.8493 15.8543L62.1214 16.1635L62.3953 16.4689L62.6714 16.7706L62.9502 17.0685L63.2322 17.3629L63.5177 17.6539L63.8073 17.9414L64.1012 18.2259L64.3998 18.5074L64.7035 18.7863L65.0126 19.0628L65.3273 19.3371L65.6479 19.6098L65.9747 19.8811L66.3076 20.1513L66.647 20.421L66.993 20.6905L67.3455 20.9602L67.7047 21.2306L68.0706 21.5021L68.4431 21.7752L68.8221 22.0504L69.2077 22.3281L69.5998 22.6088L69.9981 22.8929L70.4025 23.1809L70.8128 23.4733L71.2288 23.7705L71.6502 24.073L72.0765 24.3813L72.5075 24.6958L72.9426 25.0169L73.3814 25.3452L73.8234 25.681L74.2679 26.0247L74.7145 26.3768L75.1625 26.7375L75.6111 27.1072L76.0598 27.4862L76.5077 27.8749L76.9542 28.2733L77.3985 28.6819L77.8398 29.1006L78.2773 29.5297L78.7103 29.9694L79.1378 30.4195L79.5592 30.8803L79.9735 31.3517L80.38 31.8336L80.778 32.326L81.1665 32.8288L81.5449 33.3417L81.9124 33.8647L82.2682 34.3975L82.6118 34.9399L82.9423 35.4915L83.2591 36.0521L83.5616 36.6212Z" fill="#095052" fill-opacity="0.1"/>
</svg>
