<svg width="60" height="60" viewBox="0 0 60 60" fill="none" xmlns="http://www.w3.org/2000/svg">
<path d="M35.625 58.125C35.5019 58.1251 35.3799 58.1009 35.2662 58.0538C35.1524 58.0067 35.049 57.9376 34.9619 57.8506C34.8749 57.7635 34.8058 57.6601 34.7587 57.5463C34.7116 57.4326 34.6874 57.3106 34.6875 57.1875C34.6891 55.6962 35.2823 54.2664 36.3368 53.2118C37.3914 52.1573 38.8212 51.5641 40.3125 51.5625C40.5611 51.5625 40.7996 51.6613 40.9754 51.8371C41.1512 52.0129 41.25 52.2514 41.25 52.5C41.25 52.7486 41.1512 52.9871 40.9754 53.1629C40.7996 53.3387 40.5611 53.4375 40.3125 53.4375C39.3182 53.4385 38.365 53.8339 37.6619 54.5369C36.9589 55.24 36.5635 56.1932 36.5625 57.1875C36.5626 57.3106 36.5384 57.4326 36.4913 57.5463C36.4442 57.6601 36.3751 57.7635 36.2881 57.8506C36.201 57.9376 36.0976 58.0067 35.9838 58.0538C35.8701 58.1009 35.7481 58.1251 35.625 58.125Z" fill="#095052"/>
<path d="M43.125 53.4375H40.3125C40.0639 53.4375 39.8254 53.3387 39.6496 53.1629C39.4738 52.9871 39.375 52.7486 39.375 52.5C39.375 52.2514 39.4738 52.0129 39.6496 51.8371C39.8254 51.6613 40.0639 51.5625 40.3125 51.5625H43.125C43.3736 51.5625 43.6121 51.6613 43.7879 51.8371C43.9637 52.0129 44.0625 52.2514 44.0625 52.5C44.0625 52.7486 43.9637 52.9871 43.7879 53.1629C43.6121 53.3387 43.3736 53.4375 43.125 53.4375Z" fill="#095052"/>
<path d="M35.625 59.9973C35.5019 59.9973 35.3799 59.9731 35.2662 59.926C35.1524 59.8789 35.049 59.8099 34.9619 59.7228C34.8749 59.6358 34.8058 59.5324 34.7587 59.4186C34.7116 59.3048 34.6874 59.1829 34.6875 59.0598V57.1875C34.6875 56.9389 34.7863 56.7004 34.9621 56.5246C35.1379 56.3488 35.3764 56.25 35.625 56.25C35.8736 56.25 36.1121 56.3488 36.2879 56.5246C36.4637 56.7004 36.5625 56.9389 36.5625 57.1875V59.0598C36.5626 59.1829 36.5384 59.3048 36.4913 59.4186C36.4442 59.5324 36.3751 59.6358 36.2881 59.7228C36.201 59.8099 36.0976 59.8789 35.9838 59.926C35.8701 59.9731 35.7481 59.9973 35.625 59.9973Z" fill="black"/>
<path d="M58.125 58.125C58.0019 58.1251 57.8799 58.1009 57.7662 58.0538C57.6524 58.0067 57.549 57.9376 57.4619 57.8506C57.3749 57.7635 57.3058 57.6601 57.2587 57.5463C57.2116 57.4326 57.1874 57.3106 57.1875 57.1875C57.1865 56.1932 56.7911 55.24 56.0881 54.5369C55.385 53.8339 54.4318 53.4385 53.4375 53.4375C53.1889 53.4375 52.9504 53.3387 52.7746 53.1629C52.5988 52.9871 52.5 52.7486 52.5 52.5C52.5 52.2514 52.5988 52.0129 52.7746 51.8371C52.9504 51.6613 53.1889 51.5625 53.4375 51.5625C54.9288 51.5641 56.3586 52.1573 57.4132 53.2118C58.4677 54.2664 59.0609 55.6962 59.0625 57.1875C59.0626 57.3106 59.0384 57.4326 58.9913 57.5463C58.9442 57.6601 58.8751 57.7635 58.7881 57.8506C58.701 57.9376 58.5976 58.0067 58.4838 58.0538C58.3701 58.1009 58.2481 58.1251 58.125 58.125Z" fill="#095052"/>
<path d="M53.4375 53.4375H50.625C50.3764 53.4375 50.1379 53.3387 49.9621 53.1629C49.7863 52.9871 49.6875 52.7486 49.6875 52.5C49.6875 52.2514 49.7863 52.0129 49.9621 51.8371C50.1379 51.6613 50.3764 51.5625 50.625 51.5625H53.4375C53.6861 51.5625 53.9246 51.6613 54.1004 51.8371C54.2762 52.0129 54.375 52.2514 54.375 52.5C54.375 52.7486 54.2762 52.9871 54.1004 53.1629C53.9246 53.3387 53.6861 53.4375 53.4375 53.4375Z" fill="#095052"/>
<path d="M58.125 59.9973C58.0019 59.9973 57.8799 59.9731 57.7662 59.926C57.6524 59.8789 57.549 59.8099 57.4619 59.7228C57.3749 59.6358 57.3058 59.5324 57.2587 59.4186C57.2116 59.3048 57.1874 59.1829 57.1875 59.0598V57.1875C57.1875 56.9389 57.2863 56.7004 57.4621 56.5246C57.6379 56.3488 57.8764 56.25 58.125 56.25C58.3736 56.25 58.6121 56.3488 58.7879 56.5246C58.9637 56.7004 59.0625 56.9389 59.0625 57.1875V59.0598C59.0626 59.1829 59.0384 59.3048 58.9913 59.4186C58.9442 59.5324 58.8751 59.6358 58.7881 59.7228C58.701 59.8099 58.5976 59.8789 58.4838 59.926C58.3701 59.9731 58.2481 59.9973 58.125 59.9973Z" fill="black"/>
<path d="M43.125 53.4375C43.0019 53.4376 42.8799 53.4134 42.7662 53.3663C42.6524 53.3192 42.549 53.2501 42.4619 53.1631C42.3749 53.076 42.3058 52.9726 42.2587 52.8589C42.2116 52.7451 42.1874 52.6231 42.1875 52.5V48.8104C42.1875 48.5618 42.2863 48.3233 42.4621 48.1475C42.6379 47.9717 42.8764 47.8729 43.125 47.8729C43.3736 47.8729 43.6121 47.9717 43.7879 48.1475C43.9637 48.3233 44.0625 48.5618 44.0625 48.8104V52.5C44.0626 52.6231 44.0384 52.7451 43.9913 52.8589C43.9442 52.9726 43.8751 53.076 43.7881 53.1631C43.701 53.2501 43.5976 53.3192 43.4838 53.3663C43.3701 53.4134 43.2481 53.4376 43.125 53.4375Z" fill="#095052"/>
<path d="M50.625 53.4375C50.5019 53.4376 50.3799 53.4134 50.2662 53.3663C50.1524 53.3192 50.049 53.2501 49.9619 53.1631C49.8749 53.076 49.8058 52.9726 49.7587 52.8589C49.7116 52.7451 49.6874 52.6231 49.6875 52.5V48.8104C49.6875 48.5618 49.7863 48.3233 49.9621 48.1475C50.1379 47.9717 50.3764 47.8729 50.625 47.8729C50.8736 47.8729 51.1121 47.9717 51.2879 48.1475C51.4637 48.3233 51.5625 48.5618 51.5625 48.8104V52.5C51.5626 52.6231 51.5384 52.7451 51.4913 52.8589C51.4442 52.9726 51.3751 53.076 51.2881 53.1631C51.201 53.2501 51.0976 53.3192 50.9838 53.3663C50.8701 53.4134 50.7481 53.4376 50.625 53.4375Z" fill="#095052"/>
<path d="M44.9992 54.375C44.8539 54.3748 44.7107 54.341 44.5808 54.2761L42.7058 53.3386C42.484 53.227 42.3155 53.032 42.2372 52.7964C42.159 52.5608 42.1774 52.3037 42.2884 52.0817C42.3995 51.8596 42.5941 51.6906 42.8295 51.6118C43.065 51.533 43.3221 51.5508 43.5444 51.6613L45.4194 52.5988C45.6084 52.6933 45.76 52.8489 45.8495 53.0403C45.939 53.2317 45.9613 53.4477 45.9126 53.6533C45.864 53.859 45.7473 54.0421 45.5815 54.1731C45.4157 54.3041 45.2105 54.3752 44.9992 54.375Z" fill="#095052"/>
<path d="M45.0012 54.375C44.7899 54.3752 44.5847 54.3041 44.4188 54.1731C44.253 54.0421 44.1363 53.859 44.0877 53.6533C44.039 53.4477 44.0613 53.2317 44.1508 53.0403C44.2403 52.8489 44.3919 52.6933 44.5809 52.5988L46.4559 51.6613C46.6783 51.5508 46.9354 51.533 47.1708 51.6118C47.4063 51.6906 47.6009 51.8596 47.7119 52.0817C47.8229 52.3037 47.8413 52.5608 47.7631 52.7964C47.6849 53.032 47.5164 53.227 47.2946 53.3386L45.4196 54.2761C45.2896 54.341 45.1464 54.3748 45.0012 54.375Z" fill="#095052"/>
<path d="M48.7512 54.375C48.5399 54.3752 48.3347 54.3041 48.1688 54.1731C48.003 54.0421 47.8863 53.859 47.8377 53.6533C47.789 53.4477 47.8113 53.2317 47.9008 53.0403C47.9903 52.8489 48.1419 52.6933 48.3309 52.5988L50.2059 51.6613C50.4283 51.5508 50.6854 51.533 50.9208 51.6118C51.1563 51.6906 51.3509 51.8596 51.4619 52.0817C51.5729 52.3037 51.5913 52.5608 51.5131 52.7964C51.4349 53.032 51.2664 53.227 51.0446 53.3386L49.1696 54.2761C49.0396 54.341 48.8964 54.3748 48.7512 54.375Z" fill="#095052"/>
<path d="M48.7492 54.375C48.6039 54.3748 48.4607 54.341 48.3308 54.2761L46.4558 53.3386C46.234 53.227 46.0655 53.032 45.9872 52.7964C45.909 52.5608 45.9274 52.3037 46.0384 52.0817C46.1495 51.8596 46.3441 51.6906 46.5795 51.6118C46.815 51.533 47.0721 51.5508 47.2944 51.6613L49.1694 52.5988C49.3584 52.6933 49.51 52.8489 49.5995 53.0403C49.689 53.2317 49.7113 53.4477 49.6626 53.6533C49.614 53.859 49.4973 54.0421 49.3315 54.1731C49.1657 54.3041 48.9605 54.3752 48.7492 54.375Z" fill="#095052"/>
<path d="M1.875 58.124C1.75187 58.1241 1.62992 58.0999 1.51615 58.0528C1.40237 58.0057 1.299 57.9367 1.21193 57.8496C1.12486 57.7625 1.05581 57.6591 1.00872 57.5454C0.961629 57.4316 0.937429 57.3097 0.9375 57.1865C0.939131 55.6952 1.53229 54.2654 2.58682 53.2108C3.64136 52.1563 5.07116 51.5632 6.5625 51.5615C6.81114 51.5615 7.0496 51.6603 7.22541 51.8361C7.40123 52.0119 7.5 52.2504 7.5 52.499C7.5 52.7477 7.40123 52.9861 7.22541 53.1619C7.0496 53.3378 6.81114 53.4365 6.5625 53.4365C5.56824 53.4375 4.61499 53.8329 3.91195 54.536C3.2089 55.239 2.81349 56.1923 2.8125 57.1865C2.81257 57.3097 2.78837 57.4316 2.74128 57.5454C2.69419 57.6591 2.62514 57.7625 2.53807 57.8496C2.451 57.9367 2.34762 58.0057 2.23385 58.0528C2.12007 58.0999 1.99813 58.1241 1.875 58.124Z" fill="#095052"/>
<path d="M9.375 53.4365H6.5625C6.31386 53.4365 6.0754 53.3378 5.89959 53.1619C5.72377 52.9861 5.625 52.7477 5.625 52.499C5.625 52.2504 5.72377 52.0119 5.89959 51.8361C6.0754 51.6603 6.31386 51.5615 6.5625 51.5615H9.375C9.62364 51.5615 9.8621 51.6603 10.0379 51.8361C10.2137 52.0119 10.3125 52.2504 10.3125 52.499C10.3125 52.7477 10.2137 52.9861 10.0379 53.1619C9.8621 53.3378 9.62364 53.4365 9.375 53.4365Z" fill="#095052"/>
<path d="M1.875 59.9972C1.75187 59.9973 1.62993 59.9731 1.51615 59.926C1.40238 59.8789 1.299 59.8099 1.21193 59.7228C1.12486 59.6357 1.05581 59.5323 1.00872 59.4186C0.961631 59.3048 0.93743 59.1828 0.9375 59.0597V57.1865C0.9375 56.9379 1.03627 56.6994 1.21209 56.5236C1.3879 56.3478 1.62636 56.249 1.875 56.249C2.12364 56.249 2.3621 56.3478 2.53791 56.5236C2.71373 56.6994 2.8125 56.9379 2.8125 57.1865V59.0597C2.81258 59.1828 2.78838 59.3047 2.7413 59.4185C2.69421 59.5323 2.62516 59.6357 2.53809 59.7228C2.45102 59.8098 2.34764 59.8789 2.23386 59.926C2.12009 59.9731 1.99814 59.9973 1.875 59.9972Z" fill="black"/>
<path d="M24.375 58.124C24.2519 58.1241 24.1299 58.0999 24.0161 58.0528C23.9024 58.0057 23.799 57.9367 23.7119 57.8496C23.6249 57.7625 23.5558 57.6591 23.5087 57.5454C23.4616 57.4316 23.4374 57.3097 23.4375 57.1865C23.4365 56.1923 23.0411 55.239 22.3381 54.536C21.635 53.8329 20.6818 53.4375 19.6875 53.4365C19.4389 53.4365 19.2004 53.3378 19.0246 53.1619C18.8488 52.9861 18.75 52.7477 18.75 52.499C18.75 52.2504 18.8488 52.0119 19.0246 51.8361C19.2004 51.6603 19.4389 51.5615 19.6875 51.5615C21.1788 51.5632 22.6086 52.1563 23.6632 53.2108C24.7177 54.2654 25.3109 55.6952 25.3125 57.1865C25.3126 57.3097 25.2884 57.4316 25.2413 57.5454C25.1942 57.6591 25.1251 57.7625 25.0381 57.8496C24.951 57.9367 24.8476 58.0057 24.7339 58.0528C24.6201 58.0999 24.4981 58.1241 24.375 58.124Z" fill="#095052"/>
<path d="M19.6875 53.4365H16.875C16.6264 53.4365 16.3879 53.3378 16.2121 53.1619C16.0363 52.9861 15.9375 52.7477 15.9375 52.499C15.9375 52.2504 16.0363 52.0119 16.2121 51.8361C16.3879 51.6603 16.6264 51.5615 16.875 51.5615H19.6875C19.9361 51.5615 20.1746 51.6603 20.3504 51.8361C20.5262 52.0119 20.625 52.2504 20.625 52.499C20.625 52.7477 20.5262 52.9861 20.3504 53.1619C20.1746 53.3378 19.9361 53.4365 19.6875 53.4365Z" fill="#095052"/>
<path d="M24.375 59.9972C24.2519 59.9973 24.1299 59.9731 24.0162 59.926C23.9024 59.8789 23.799 59.8099 23.7119 59.7228C23.6249 59.6357 23.5558 59.5323 23.5087 59.4186C23.4616 59.3048 23.4374 59.1828 23.4375 59.0597V57.1865C23.4375 56.9379 23.5363 56.6994 23.7121 56.5236C23.8879 56.3478 24.1264 56.249 24.375 56.249C24.6236 56.249 24.8621 56.3478 25.0379 56.5236C25.2137 56.6994 25.3125 56.9379 25.3125 57.1865V59.0597C25.3126 59.1828 25.2884 59.3047 25.2413 59.4185C25.1942 59.5323 25.1252 59.6357 25.0381 59.7228C24.951 59.8098 24.8476 59.8789 24.7339 59.926C24.6201 59.9731 24.4981 59.9973 24.375 59.9972Z" fill="black"/>
<path d="M9.375 53.4366C9.25187 53.4367 9.12993 53.4125 9.01615 53.3654C8.90238 53.3183 8.799 53.2493 8.71193 53.1622C8.62486 53.0751 8.55581 52.9717 8.50872 52.858C8.46163 52.7442 8.43743 52.6223 8.4375 52.4991V48.8096C8.4375 48.5609 8.53627 48.3225 8.71209 48.1467C8.8879 47.9708 9.12636 47.8721 9.375 47.8721C9.62364 47.8721 9.8621 47.9708 10.0379 48.1467C10.2137 48.3225 10.3125 48.5609 10.3125 48.8096V52.4991C10.3126 52.6223 10.2884 52.7442 10.2413 52.858C10.1942 52.9717 10.1251 53.0751 10.0381 53.1622C9.951 53.2493 9.84763 53.3183 9.73385 53.3654C9.62008 53.4125 9.49813 53.4367 9.375 53.4366Z" fill="#095052"/>
<path d="M16.875 53.4366C16.7519 53.4367 16.6299 53.4125 16.5161 53.3654C16.4024 53.3183 16.299 53.2493 16.2119 53.1622C16.1249 53.0751 16.0558 52.9717 16.0087 52.858C15.9616 52.7442 15.9374 52.6223 15.9375 52.4991V48.8096C15.9375 48.5609 16.0363 48.3225 16.2121 48.1467C16.3879 47.9708 16.6264 47.8721 16.875 47.8721C17.1236 47.8721 17.3621 47.9708 17.5379 48.1467C17.7137 48.3225 17.8125 48.5609 17.8125 48.8096V52.4991C17.8126 52.6223 17.7884 52.7442 17.7413 52.858C17.6942 52.9717 17.6251 53.0751 17.5381 53.1622C17.451 53.2493 17.3476 53.3183 17.2339 53.3654C17.1201 53.4125 16.9981 53.4367 16.875 53.4366Z" fill="#095052"/>
<path d="M13.1232 50.6241C10.6381 50.6212 8.25573 49.6328 6.49854 47.8756C4.74136 46.1184 3.7529 43.736 3.75 41.251C3.75 41.0023 3.84877 40.7639 4.02459 40.5881C4.2004 40.4122 4.43886 40.3135 4.6875 40.3135C4.93614 40.3135 5.1746 40.4122 5.35041 40.5881C5.52623 40.7639 5.625 41.0023 5.625 41.251C5.625 43.2401 6.41518 45.1478 7.8217 46.5543C9.22822 47.9608 11.1359 48.751 13.125 48.751C15.1141 48.751 17.0218 47.9608 18.4283 46.5543C19.8348 45.1478 20.625 43.2401 20.625 41.251C20.625 41.0023 20.7238 40.7639 20.8996 40.5881C21.0754 40.4122 21.3139 40.3135 21.5625 40.3135C21.8111 40.3135 22.0496 40.4122 22.2254 40.5881C22.4012 40.7639 22.5 41.0023 22.5 41.251C22.4966 43.7365 21.5075 46.1191 19.7496 47.8763C17.9917 49.6335 15.6087 50.6217 13.1232 50.6241Z" fill="#095052"/>
<path d="M24.3752 37.0422C24.2521 37.0423 24.1301 37.0181 24.0164 36.971C23.9026 36.9239 23.7992 36.8549 23.7121 36.7678C23.6251 36.6807 23.556 36.5774 23.5089 36.4636C23.4618 36.3498 23.4376 36.2279 23.4377 36.1047C23.4351 33.7441 22.4963 31.4809 20.8271 29.8116C19.158 28.1423 16.8948 27.2032 14.5342 27.2004C13.3591 27.1725 12.1903 27.3806 11.097 27.8125C10.0037 28.2444 9.00825 28.8913 8.16947 29.7148C8.08338 29.8029 7.98076 29.8732 7.86748 29.9216C7.7542 29.9701 7.63248 29.9957 7.5093 29.997C7.38611 29.9984 7.26387 29.9754 7.14957 29.9294C7.03526 29.8835 6.93114 29.8154 6.84316 29.7292C6.75518 29.643 6.68507 29.5402 6.63683 29.4269C6.5886 29.3135 6.56318 29.1918 6.56205 29.0686C6.56092 28.9454 6.58409 28.8232 6.63023 28.7089C6.67637 28.5947 6.74458 28.4907 6.83096 28.4029C7.84346 27.4002 9.04705 26.6111 10.3703 26.0825C11.6936 25.5538 13.1095 25.2963 14.5342 25.3253C17.392 25.3287 20.1317 26.4654 22.1524 28.4863C24.1731 30.5071 25.3096 33.247 25.3127 36.1047C25.3128 36.2279 25.2886 36.3498 25.2415 36.4636C25.1944 36.5774 25.1254 36.6807 25.0383 36.7678C24.9512 36.8549 24.8478 36.9239 24.7341 36.971C24.6203 37.0181 24.4983 37.0423 24.3752 37.0422Z" fill="#095052"/>
<path d="M47.8134 26.2555C47.7126 26.2554 47.6125 26.2392 47.5168 26.2075L42.0355 24.3805L26.2509 24.3915H26.25C26.1269 24.3916 26.0049 24.3674 25.8912 24.3203C25.7774 24.2732 25.674 24.2042 25.5869 24.1171C25.4999 24.03 25.4308 23.9266 25.3837 23.8129C25.3366 23.6991 25.3124 23.5772 25.3125 23.454V0.938477C25.3125 0.815353 25.3367 0.69343 25.3838 0.579673C25.4309 0.465916 25.5 0.362554 25.587 0.275493C25.6741 0.188431 25.7774 0.119377 25.8912 0.0722743C26.005 0.0251719 26.1269 0.00094457 26.25 0.000976594H50.6259C50.7491 0.00094457 50.871 0.0251719 50.9847 0.0722743C51.0985 0.119377 51.2019 0.188431 51.2889 0.275493C51.376 0.362554 51.445 0.465916 51.4921 0.579673C51.5392 0.69343 51.5635 0.815353 51.5634 0.938477V23.443C51.5635 23.5662 51.5392 23.6881 51.4921 23.8018C51.445 23.9156 51.376 24.019 51.2889 24.106C51.2019 24.1931 51.0985 24.2621 50.9847 24.3092C50.871 24.3563 50.7491 24.3806 50.6259 24.3805H48.7519L48.7509 25.319C48.7506 25.5674 48.6516 25.8055 48.4759 25.9811C48.3001 26.1567 48.0619 26.2554 47.8134 26.2555ZM42.1875 22.5055C42.2883 22.5055 42.3885 22.5217 42.4841 22.5536L46.8768 24.018L46.8778 23.4421C46.8781 23.1937 46.9771 22.9555 47.1528 22.7799C47.3286 22.6043 47.5668 22.5057 47.8153 22.5055H49.6884V1.87598H27.1875V22.5161L42.1866 22.5055H42.1875Z" fill="#095052"/>
<path d="M14.998 22.5037C14.7494 22.5037 14.5109 22.4049 14.3351 22.2291C14.1593 22.0533 14.0605 21.8148 14.0605 21.5662V20.6287H12.1855C12.0624 20.6287 11.9405 20.6045 11.8267 20.5574C11.713 20.5103 11.6096 20.4412 11.5226 20.3542C11.4355 20.2671 11.3664 20.1637 11.3193 20.05C11.2722 19.9362 11.248 19.8143 11.248 19.6912V7.50732C11.248 7.3842 11.2722 7.26228 11.3193 7.14852C11.3664 7.03476 11.4355 6.9314 11.5226 6.84434C11.6096 6.75728 11.713 6.68822 11.8267 6.64112C11.9405 6.59402 12.0624 6.56979 12.1855 6.56982H26.2425C26.4912 6.56982 26.7296 6.6686 26.9055 6.84441C27.0813 7.02023 27.18 7.25868 27.18 7.50732C27.18 7.75596 27.0813 7.99442 26.9055 8.17024C26.7296 8.34605 26.4912 8.44482 26.2425 8.44482H13.123V18.7537H14.998C15.1212 18.7536 15.2431 18.7779 15.3568 18.825C15.4706 18.8721 15.574 18.9411 15.661 19.0282C15.7481 19.1152 15.8171 19.2186 15.8642 19.3324C15.9114 19.4461 15.9356 19.568 15.9355 19.6912V20.1814L19.3377 18.8205C19.4473 18.7707 19.5672 18.7478 19.6874 18.7537L26.2444 18.7647C26.493 18.7649 26.7314 18.8639 26.907 19.0399C27.0827 19.2159 27.1812 19.4545 27.1809 19.7031C27.1807 19.9517 27.0817 20.1901 26.9057 20.3657C26.7297 20.5414 26.4911 20.6399 26.2425 20.6397H26.2406L19.8649 20.6291L15.3459 22.4368C15.2353 22.4811 15.1172 22.5038 14.998 22.5037Z" fill="#61BC47"/>
<path d="M4.6875 42.1884C4.56437 42.1885 4.44243 42.1643 4.32865 42.1172C4.21488 42.0701 4.1115 42.0011 4.02443 41.914C3.93736 41.8269 3.86831 41.7236 3.82122 41.6098C3.77413 41.496 3.74993 41.3741 3.75 41.2509V31.8713C3.75 31.6227 3.84877 31.3842 4.02459 31.2084C4.2004 31.0326 4.43886 30.9338 4.6875 30.9338C4.93614 30.9338 5.1746 31.0326 5.35041 31.2084C5.52623 31.3842 5.625 31.6227 5.625 31.8713V41.2509C5.62507 41.3741 5.60087 41.496 5.55378 41.6098C5.50669 41.7236 5.43764 41.8269 5.35057 41.914C5.2635 42.0011 5.16012 42.0701 5.04635 42.1172C4.93257 42.1643 4.81063 42.1885 4.6875 42.1884Z" fill="#095052"/>
<path d="M4.6875 38.4357C4.43886 38.4357 4.2004 38.3369 4.02459 38.1611C3.84877 37.9853 3.75 37.7468 3.75 37.4982C3.75 37.2495 3.84877 37.0111 4.02459 36.8353C4.2004 36.6594 4.43886 36.5607 4.6875 36.5607C5.18458 36.56 5.66112 36.3623 6.01261 36.0108C6.3641 35.6593 6.56186 35.1828 6.5625 34.6857C6.5625 34.437 6.66127 34.1986 6.83709 34.0228C7.0129 33.8469 7.25136 33.7482 7.5 33.7482C7.74864 33.7482 7.9871 33.8469 8.16291 34.0228C8.33873 34.1986 8.4375 34.437 8.4375 34.6857C8.43651 35.6799 8.0411 36.6332 7.33805 37.3362C6.63501 38.0393 5.68176 38.4347 4.6875 38.4357Z" fill="#095052"/>
<path d="M10.3145 38.4339C9.32013 38.4324 8.36695 38.0366 7.6641 37.3332C6.96124 36.6298 6.56612 35.6764 6.56543 34.682C6.56543 34.4334 6.6642 34.1949 6.84002 34.0191C7.01583 33.8433 7.25429 33.7445 7.50293 33.7445C7.75157 33.7445 7.99003 33.8433 8.16584 34.0191C8.34166 34.1949 8.44043 34.4334 8.44043 34.682C8.44063 35.1792 8.63805 35.6561 8.98938 36.0079C9.34071 36.3598 9.81726 36.5579 10.3145 36.5589C10.5631 36.5589 10.8016 36.6577 10.9774 36.8335C11.1532 37.0093 11.252 37.2477 11.252 37.4964C11.252 37.745 11.1532 37.9835 10.9774 38.1593C10.8016 38.3351 10.5631 38.4339 10.3145 38.4339Z" fill="#095052"/>
<path d="M4.68945 32.8088C4.56632 32.8089 4.44438 32.7847 4.3306 32.7376C4.21683 32.6905 4.11345 32.6215 4.02638 32.5344C3.93931 32.4473 3.87026 32.344 3.82317 32.2302C3.77608 32.1164 3.75188 31.9945 3.75195 31.8713C3.75302 30.8771 4.14844 29.9239 4.85148 29.2209C5.55451 28.5178 6.50772 28.1224 7.50195 28.1213C7.75059 28.1213 7.98905 28.2201 8.16487 28.3959C8.34068 28.5717 8.43945 28.8102 8.43945 29.0588C8.43945 29.3075 8.34068 29.5459 8.16487 29.7218C7.98905 29.8976 7.75059 29.9963 7.50195 29.9963C7.00485 29.9969 6.52827 30.1946 6.17676 30.5461C5.82525 30.8977 5.62752 31.3742 5.62695 31.8713C5.62702 31.9945 5.60282 32.1164 5.55574 32.2302C5.50865 32.344 5.43959 32.4473 5.35253 32.5344C5.26546 32.6215 5.16208 32.6905 5.0483 32.7376C4.93453 32.7847 4.81259 32.8089 4.68945 32.8088Z" fill="black"/>
<path d="M7.5 35.6232C7.25136 35.6232 7.01292 35.5244 6.8371 35.3486C6.66129 35.1728 6.56251 34.9343 6.5625 34.6857L6.56437 29.0584C6.56456 28.8098 6.66341 28.5715 6.8392 28.3958C7.01498 28.2201 7.25333 28.1214 7.50187 28.1213C7.62502 28.1214 7.74696 28.1456 7.86072 28.1928C7.97449 28.2399 8.07785 28.309 8.16491 28.3961C8.25196 28.4832 8.32101 28.5866 8.3681 28.7004C8.4152 28.8142 8.43942 28.9362 8.43937 29.0593L8.4375 34.6857C8.43749 34.9343 8.33871 35.1728 8.1629 35.3486C7.98709 35.5244 7.74864 35.6232 7.5 35.6232Z" fill="#095052"/>
<path d="M24.377 45.0256C24.2539 45.0257 24.1319 45.0015 24.0182 44.9544C23.9044 44.9073 23.801 44.8383 23.7139 44.7512C23.6269 44.6641 23.5578 44.5608 23.5107 44.447C23.4636 44.3332 23.4394 44.2113 23.4395 44.0881C23.4382 42.5947 22.8445 41.1629 21.7888 40.1066C20.7331 39.0504 19.3015 38.456 17.8081 38.454C17.5595 38.454 17.321 38.3552 17.1452 38.1794C16.9694 38.0036 16.8706 37.7651 16.8706 37.5165C16.8706 37.2678 16.9694 37.0294 17.1452 36.8536C17.321 36.6778 17.5595 36.579 17.8081 36.579C19.7986 36.5815 21.7068 37.3736 23.1141 38.7813C24.5214 40.1891 25.3127 42.0976 25.3145 44.0881C25.3146 44.2113 25.2904 44.3332 25.2433 44.447C25.1962 44.5608 25.1272 44.6641 25.0401 44.7512C24.953 44.8383 24.8496 44.9073 24.7359 44.9544C24.6221 45.0015 24.5001 45.0257 24.377 45.0256Z" fill="#095052"/>
<path d="M17.8154 38.4375H10.3154C10.0668 38.4375 9.82833 38.3387 9.65252 38.1629C9.4767 37.9871 9.37793 37.7486 9.37793 37.5C9.37793 37.2514 9.4767 37.0129 9.65252 36.8371C9.82833 36.6613 10.0668 36.5625 10.3154 36.5625H17.8154C18.0641 36.5625 18.3025 36.6613 18.4783 36.8371C18.6542 37.0129 18.7529 37.2514 18.7529 37.5C18.7529 37.7486 18.6542 37.9871 18.4783 38.1629C18.3025 38.3387 18.0641 38.4375 17.8154 38.4375Z" fill="#095052"/>
<path d="M21.5625 42.1884C21.4394 42.1885 21.3174 42.1643 21.2037 42.1172C21.0899 42.0701 20.9865 42.0011 20.8994 41.914C20.8124 41.8269 20.7433 41.7236 20.6962 41.6098C20.6491 41.496 20.6249 41.3741 20.625 41.2509V38.6938C20.625 38.4452 20.7238 38.2067 20.8996 38.0309C21.0754 37.8551 21.3139 37.7563 21.5625 37.7563C21.8111 37.7563 22.0496 37.8551 22.2254 38.0309C22.4012 38.2067 22.5 38.4452 22.5 38.6938V41.2509C22.5001 41.3741 22.4759 41.496 22.4288 41.6098C22.3817 41.7236 22.3126 41.8269 22.2256 41.914C22.1385 42.0011 22.0351 42.0701 21.9213 42.1172C21.8076 42.1643 21.6856 42.1885 21.5625 42.1884Z" fill="#095052"/>
<path d="M24.377 45.0183C24.2538 45.0184 24.1319 44.9942 24.0181 44.9471C23.9043 44.9 23.8009 44.831 23.7139 44.7439C23.6268 44.6568 23.5578 44.5534 23.5107 44.4397C23.4636 44.3259 23.4394 44.2039 23.4395 44.0808V36.1047C23.4395 35.8561 23.5382 35.6176 23.714 35.4418C23.8899 35.266 24.1283 35.1672 24.377 35.1672C24.6256 35.1672 24.864 35.266 25.0399 35.4418C25.2157 35.6176 25.3145 35.8561 25.3145 36.1047V44.0808C25.3145 44.2039 25.2903 44.3259 25.2432 44.4397C25.1961 44.5534 25.1271 44.6568 25.04 44.7439C24.953 44.831 24.8496 44.9 24.7358 44.9471C24.622 44.9942 24.5001 45.0184 24.377 45.0183Z" fill="#095052"/>
<path d="M13.1242 58.124C12.9477 58.1238 12.7749 58.0737 12.6255 57.9796C12.4762 57.8854 12.3565 57.7511 12.2802 57.5919C12.2038 57.4327 12.174 57.2553 12.1941 57.0799C12.2141 56.9045 12.2833 56.7384 12.3937 56.6006L16.1382 51.9295C16.2151 51.8335 16.3102 51.7535 16.4181 51.6942C16.5259 51.6349 16.6444 51.5974 16.7667 51.5839C16.8891 51.5704 17.0129 51.5811 17.1311 51.6154C17.2493 51.6498 17.3595 51.707 17.4556 51.784C17.5517 51.8609 17.6316 51.956 17.6909 52.0639C17.7502 52.1717 17.7877 52.2902 17.8012 52.4126C17.8148 52.5349 17.804 52.6587 17.7697 52.7769C17.7354 52.8951 17.6781 53.0054 17.6012 53.1014L13.8567 57.7724C13.7689 57.8824 13.6575 57.9711 13.5307 58.032C13.4038 58.0928 13.2649 58.1243 13.1242 58.124Z" fill="#095052"/>
<path d="M13.1258 58.1241C12.985 58.1242 12.846 58.0926 12.7191 58.0318C12.5922 57.9709 12.4805 57.8823 12.3924 57.7725L8.64338 53.085C8.48855 52.8907 8.41713 52.6429 8.4448 52.396C8.47248 52.1491 8.59698 51.9232 8.79099 51.768C8.985 51.6128 9.23266 51.5409 9.47961 51.5681C9.72657 51.5953 9.95265 51.7194 10.1082 51.9131L13.8573 56.6006C13.9677 56.7385 14.0369 56.9047 14.057 57.0802C14.077 57.2556 14.0471 57.4332 13.9707 57.5924C13.8942 57.7516 13.7744 57.886 13.6249 57.98C13.4754 58.0741 13.3024 58.124 13.1258 58.1241Z" fill="#095052"/>
<path d="M38.4375 42.1508C38.3144 42.1509 38.1924 42.1267 38.0787 42.0796C37.9649 42.0325 37.8615 41.9635 37.7744 41.8764C37.6874 41.7893 37.6183 41.686 37.5712 41.5722C37.5241 41.4584 37.4999 41.3365 37.5 41.2133V37.499C37.5 37.2504 37.5988 37.0119 37.7746 36.8361C37.9504 36.6603 38.1889 36.5615 38.4375 36.5615C38.6861 36.5615 38.9246 36.6603 39.1004 36.8361C39.2762 37.0119 39.375 37.2504 39.375 37.499V41.2133C39.3751 41.3365 39.3509 41.4584 39.3038 41.5722C39.2567 41.686 39.1876 41.7893 39.1006 41.8764C39.0135 41.9635 38.9101 42.0325 38.7964 42.0796C38.6826 42.1267 38.5606 42.1509 38.4375 42.1508Z" fill="#095052"/>
<path d="M55.3125 42.1884C55.1894 42.1885 55.0674 42.1643 54.9537 42.1172C54.8399 42.0701 54.7365 42.001 54.6494 41.914C54.5624 41.8269 54.4933 41.7235 54.4462 41.6098C54.3991 41.496 54.3749 41.374 54.375 41.2509V37.499C54.375 37.2504 54.4738 37.0119 54.6496 36.8361C54.8254 36.6603 55.0639 36.5615 55.3125 36.5615C55.5611 36.5615 55.7996 36.6603 55.9754 36.8361C56.1512 37.0119 56.25 37.2504 56.25 37.499V41.2509C56.2501 41.374 56.2259 41.496 56.1788 41.6098C56.1317 41.7235 56.0626 41.8269 55.9756 41.914C55.8885 42.001 55.7851 42.0701 55.6713 42.1172C55.5576 42.1643 55.4356 42.1885 55.3125 42.1884Z" fill="#095052"/>
<path d="M46.8741 50.6259C44.3889 50.6232 42.0063 49.6348 40.2489 47.8776C38.4915 46.1204 37.5029 43.7379 37.5 41.2527C37.5 41.004 37.5988 40.7656 37.7746 40.5898C37.9504 40.414 38.1889 40.3152 38.4375 40.3152C38.6861 40.3152 38.9246 40.414 39.1004 40.5898C39.2762 40.7656 39.375 41.004 39.375 41.2527C39.375 43.2418 40.1652 45.1495 41.5717 46.556C42.9782 47.9625 44.8859 48.7527 46.875 48.7527C48.8641 48.7527 50.7718 47.9625 52.1783 46.556C53.5848 45.1495 54.375 43.2418 54.375 41.2527C54.375 41.004 54.4738 40.7656 54.6496 40.5898C54.8254 40.414 55.0639 40.3152 55.3125 40.3152C55.5611 40.3152 55.7996 40.414 55.9754 40.5898C56.1512 40.7656 56.25 41.004 56.25 41.2527C56.2468 43.7381 55.2579 46.1208 53.5002 47.878C51.7424 49.6352 49.3595 50.6234 46.8741 50.6259Z" fill="#095052"/>
<path d="M55.3262 38.4768H38.4448C38.3217 38.4769 38.1998 38.4527 38.086 38.4056C37.9722 38.3585 37.8688 38.2895 37.7818 38.2024C37.6947 38.1153 37.6256 38.012 37.5785 37.8982C37.5315 37.7844 37.5073 37.6625 37.5073 37.5393V30.0018C37.5081 29.2562 37.8047 28.5413 38.332 28.014C38.8593 27.4867 39.5742 27.1901 40.3198 27.1893H53.4512C54.1969 27.1901 54.9118 27.4867 55.4391 28.014C55.9663 28.5413 56.2629 29.2562 56.2637 30.0018V37.5393C56.2638 37.6625 56.2396 37.7844 56.1925 37.8982C56.1454 38.012 56.0764 38.1153 55.9893 38.2024C55.9022 38.2895 55.7989 38.3585 55.6851 38.4056C55.5713 38.4527 55.4494 38.4769 55.3262 38.4768ZM39.3823 36.6018H54.3887V30.0018C54.3885 29.7533 54.2896 29.515 54.1139 29.3392C53.9381 29.1634 53.6998 29.0646 53.4512 29.0643H40.3198C40.0713 29.0646 39.8329 29.1634 39.6572 29.3392C39.4814 29.515 39.3826 29.7533 39.3823 30.0018V36.6018Z" fill="#095052"/>
<path d="M46.8721 35.6387C46.7489 35.6387 46.627 35.6145 46.5132 35.5675C46.3994 35.5204 46.2961 35.4513 46.209 35.3642C46.1219 35.2772 46.0529 35.1738 46.0058 35.06C45.9587 34.9462 45.9345 34.8243 45.9346 34.7012V30.9402C45.9346 30.6915 46.0333 30.4531 46.2092 30.2773C46.385 30.1015 46.6234 30.0027 46.8721 30.0027C47.1207 30.0027 47.3592 30.1015 47.535 30.2773C47.7108 30.4531 47.8096 30.6915 47.8096 30.9402V34.7012C47.8096 34.8243 47.7854 34.9462 47.7383 35.06C47.6913 35.1738 47.6222 35.2772 47.5351 35.3642C47.4481 35.4513 47.3447 35.5204 47.2309 35.5675C47.1171 35.6145 46.9952 35.6387 46.8721 35.6387Z" fill="#095052"/>
<path d="M48.748 33.7701H44.9961C44.7475 33.7701 44.509 33.6714 44.3332 33.4956C44.1574 33.3197 44.0586 33.0813 44.0586 32.8326C44.0586 32.584 44.1574 32.3455 44.3332 32.1697C44.509 31.9939 44.7475 31.8951 44.9961 31.8951H48.748C48.9966 31.8951 49.2351 31.9939 49.4109 32.1697C49.5867 32.3455 49.6855 32.584 49.6855 32.8326C49.6855 33.0813 49.5867 33.3197 49.4109 33.4956C49.2351 33.6714 48.9966 33.7701 48.748 33.7701Z" fill="black"/>
<path d="M44.9991 59.999C44.7955 59.9987 44.5975 59.9322 44.435 59.8095C44.2724 59.6868 44.1543 59.5146 44.0982 59.3188L42.2232 52.7572C42.1558 52.5183 42.1859 52.2624 42.3068 52.0457C42.4278 51.8289 42.6298 51.6689 42.8685 51.6008C43.1072 51.5327 43.3632 51.562 43.5803 51.6824C43.7975 51.8027 43.958 52.0042 44.0268 52.2427L45.9018 58.8043C45.9698 59.0435 45.9401 59.2998 45.8193 59.5171C45.6984 59.7344 45.4963 59.8949 45.2573 59.9633C45.1732 59.9869 45.0864 59.9989 44.9991 59.999Z" fill="#095052"/>
<path d="M48.751 59.999C48.6637 59.9989 48.5769 59.9868 48.4928 59.9633C48.2538 59.8949 48.0516 59.7344 47.9308 59.5171C47.81 59.2998 47.7803 59.0434 47.8483 58.8043L49.7233 52.2427C49.7568 52.124 49.8134 52.013 49.8898 51.9162C49.9663 51.8193 50.0611 51.7385 50.1689 51.6784C50.2766 51.6183 50.3952 51.58 50.5177 51.5658C50.6403 51.5516 50.7644 51.5617 50.8831 51.5955C51.0017 51.6294 51.1125 51.6863 51.2091 51.7631C51.3057 51.8398 51.3862 51.9349 51.446 52.0428C51.5058 52.1507 51.5438 52.2693 51.5576 52.3919C51.5715 52.5145 51.561 52.6387 51.5269 52.7572L49.6519 59.3188C49.5958 59.5145 49.4776 59.6868 49.3151 59.8095C49.1526 59.9322 48.9546 59.9987 48.751 59.999Z" fill="#095052"/>
<path d="M41.5256 20.3769C41.4874 20.3769 41.4492 20.3746 41.4112 20.3701C41.2796 20.3539 41.153 20.31 41.0397 20.2413C40.9264 20.1726 40.829 20.0805 40.7538 19.9713C40.4961 19.5949 40.1504 19.2869 39.7468 19.0741C39.3432 18.8613 38.8938 18.75 38.4376 18.75C37.9813 18.75 37.5319 18.8613 37.1283 19.0741C36.7247 19.2869 36.379 19.5949 36.1213 19.9713C36.0461 20.0806 35.9486 20.1726 35.8352 20.2413C35.7218 20.3101 35.5951 20.354 35.4634 20.3701C35.3318 20.3863 35.1983 20.3743 35.0716 20.335C34.945 20.2957 34.8281 20.2299 34.7288 20.1421C33.8687 19.3879 33.2591 18.3894 32.9811 17.2797C32.7031 16.1701 32.7701 15.0021 33.173 13.9315C33.576 12.8609 34.2957 11.9386 35.2363 11.2876C36.1769 10.6366 37.2936 10.2878 38.4376 10.2878C39.5815 10.2878 40.6982 10.6366 41.6388 11.2876C42.5794 11.9386 43.2992 12.8609 43.7021 13.9315C44.105 15.0021 44.172 16.1701 43.894 17.2797C43.6161 18.3894 43.0064 19.3879 42.1464 20.1421C41.9749 20.2933 41.7542 20.3768 41.5256 20.3769ZM38.4375 16.875C39.575 16.8755 40.6734 17.2901 41.5274 18.0414C41.9591 17.425 42.1897 16.6901 42.1875 15.9375C42.1875 14.943 41.7924 13.9891 41.0892 13.2859C40.3859 12.5826 39.4321 12.1875 38.4375 12.1875C37.443 12.1875 36.4891 12.5826 35.7859 13.2859C35.0826 13.9891 34.6875 14.943 34.6875 15.9375C34.6854 16.6901 34.9159 17.425 35.3476 18.0414C36.2017 17.2901 37.3 16.8755 38.4375 16.875Z" fill="#61BC47"/>
<path d="M31.875 12.1875C31.3187 12.1875 30.775 12.0226 30.3125 11.7135C29.8499 11.4045 29.4895 10.9652 29.2766 10.4513C29.0637 9.93738 29.008 9.37188 29.1165 8.82631C29.2251 8.28074 29.4929 7.7796 29.8863 7.38626C30.2796 6.99293 30.7807 6.72506 31.3263 6.61654C31.8719 6.50802 32.4374 6.56372 32.9513 6.77659C33.4652 6.98946 33.9045 7.34995 34.2135 7.81246C34.5226 8.27497 34.6875 8.81874 34.6875 9.375C34.6867 10.1207 34.3901 10.8356 33.8628 11.3628C33.3356 11.8901 32.6207 12.1867 31.875 12.1875ZM31.875 8.4375C31.6896 8.4375 31.5083 8.49248 31.3542 8.5955C31.2 8.69851 31.0798 8.84493 31.0089 9.01624C30.9379 9.18754 30.9193 9.37604 30.9555 9.5579C30.9917 9.73976 31.081 9.9068 31.2121 10.0379C31.3432 10.169 31.5102 10.2583 31.6921 10.2945C31.874 10.3307 32.0625 10.3121 32.2338 10.2411C32.4051 10.1702 32.5515 10.05 32.6545 9.89585C32.7575 9.74168 32.8125 9.56042 32.8125 9.375C32.8123 9.12644 32.7134 8.88812 32.5376 8.71236C32.3619 8.5366 32.1236 8.43775 31.875 8.4375Z" fill="#61BC47"/>
<path d="M38.4375 9.375C37.8812 9.375 37.3375 9.21005 36.875 8.90101C36.4124 8.59197 36.052 8.15271 35.8391 7.6388C35.6262 7.12488 35.5705 6.55938 35.679 6.01381C35.7876 5.46824 36.0554 4.9671 36.4488 4.57376C36.8421 4.18043 37.3432 3.91256 37.8888 3.80404C38.4344 3.69552 38.9999 3.75122 39.5138 3.96409C40.0277 4.17696 40.467 4.53745 40.776 4.99996C41.0851 5.46247 41.25 6.00624 41.25 6.5625C41.2492 7.30817 40.9526 8.02307 40.4253 8.55034C39.8981 9.07761 39.1832 9.37419 38.4375 9.375ZM38.4375 5.625C38.2521 5.625 38.0708 5.67998 37.9167 5.783C37.7625 5.88601 37.6423 6.03243 37.5714 6.20374C37.5004 6.37504 37.4818 6.56354 37.518 6.7454C37.5542 6.92726 37.6435 7.0943 37.7746 7.22541C37.9057 7.35652 38.0727 7.44581 38.2546 7.48199C38.4365 7.51816 38.625 7.4996 38.7963 7.42864C38.9676 7.35768 39.114 7.23752 39.217 7.08335C39.32 6.92918 39.375 6.74792 39.375 6.5625C39.3748 6.31394 39.2759 6.07562 39.1001 5.89986C38.9244 5.7241 38.6861 5.62525 38.4375 5.625Z" fill="#61BC47"/>
<path d="M45 12.1875C44.4437 12.1875 43.9 12.0226 43.4375 11.7135C42.9749 11.4045 42.6145 10.9652 42.4016 10.4513C42.1887 9.93738 42.133 9.37188 42.2415 8.82631C42.3501 8.28074 42.6179 7.7796 43.0113 7.38626C43.4046 6.99293 43.9057 6.72506 44.4513 6.61654C44.9969 6.50802 45.5624 6.56372 46.0763 6.77659C46.5902 6.98946 47.0295 7.34995 47.3385 7.81246C47.6476 8.27497 47.8125 8.81874 47.8125 9.375C47.8117 10.1207 47.5151 10.8356 46.9878 11.3628C46.4606 11.8901 45.7457 12.1867 45 12.1875ZM45 8.4375C44.8146 8.4375 44.6333 8.49248 44.4792 8.5955C44.325 8.69851 44.2048 8.84493 44.1339 9.01624C44.0629 9.18754 44.0443 9.37604 44.0805 9.5579C44.1167 9.73976 44.206 9.9068 44.3371 10.0379C44.4682 10.169 44.6352 10.2583 44.8171 10.2945C44.999 10.3307 45.1875 10.3121 45.3588 10.2411C45.5301 10.1702 45.6765 10.05 45.7795 9.89585C45.8825 9.74168 45.9375 9.56042 45.9375 9.375C45.9373 9.12644 45.8384 8.88812 45.6626 8.71236C45.4869 8.5366 45.2486 8.43775 45 8.4375Z" fill="#61BC47"/>
</svg>
