<svg width="55" height="55" viewBox="0 0 55 55" fill="none" xmlns="http://www.w3.org/2000/svg">
<path d="M32.7943 27.8718C32.4565 26.7297 31.7585 25.7275 30.8044 25.0147C29.8503 24.3019 28.6912 23.9167 27.5002 23.9167C26.3092 23.9167 25.1502 24.3019 24.1961 25.0147C23.2419 25.7275 22.5439 26.7297 22.2062 27.8718C21.4099 28.1076 20.6772 28.52 20.0624 29.0782C19.4477 29.6364 18.9668 30.3261 18.6555 31.096C18.3442 31.8658 18.2106 32.696 18.2646 33.5246C18.3186 34.3532 18.5589 35.159 18.9674 35.8819C19.376 36.6048 19.9424 37.2263 20.6244 37.7C21.3064 38.1737 22.0865 38.4875 22.9066 38.6179C23.7266 38.7484 24.5656 38.6921 25.3609 38.4534C26.1563 38.2147 26.8875 37.7997 27.5002 37.2392C28.5159 38.1751 29.848 38.6921 31.229 38.6864C32.5561 38.6863 33.8388 38.2082 34.8421 37.3396C35.8454 36.4709 36.5022 35.27 36.6923 33.9566C36.8824 32.6432 36.5931 31.3053 35.8772 30.1878C35.1613 29.0704 34.0669 28.2482 32.7943 27.8718ZM31.229 36.9677C30.6384 36.9699 30.0554 36.8334 29.5271 36.5692C28.9988 36.305 28.5399 35.9205 28.1873 35.4466C28.1072 35.34 28.0035 35.2535 27.8842 35.194C27.765 35.1344 27.6335 35.1034 27.5002 35.1034C27.3669 35.1034 27.2355 35.1344 27.1162 35.194C26.997 35.2535 26.8932 35.34 26.8132 35.4466C26.4422 35.9414 25.9562 36.3383 25.3972 36.6028C24.8382 36.8674 24.2231 36.9915 23.6052 36.9645C22.9874 36.9375 22.3855 36.7602 21.8516 36.448C21.3178 36.1357 20.8683 35.6979 20.5419 35.1726C20.2156 34.6473 20.0223 34.0503 19.9789 33.4334C19.9355 32.8165 20.0432 32.1983 20.2927 31.6324C20.5423 31.0666 20.9261 30.5702 21.4109 30.1862C21.8957 29.8023 22.4669 29.5424 23.0749 29.4291C23.2458 29.3975 23.4032 29.3147 23.5261 29.1918C23.649 29.0688 23.7318 28.9115 23.7634 28.7405C23.9259 27.8681 24.3885 27.0801 25.071 26.5129C25.7535 25.9458 26.6129 25.6353 27.5003 25.6353C28.3877 25.6353 29.2472 25.9458 29.9297 26.5129C30.6122 27.0801 31.0748 27.8681 31.2372 28.7405C31.2689 28.9115 31.3516 29.0688 31.4746 29.1918C31.5975 29.3147 31.7548 29.3975 31.9258 29.4291C32.8574 29.6027 33.6906 30.1181 34.262 30.8741C34.8334 31.6302 35.1018 32.5724 35.0146 33.516C34.9274 34.4597 34.4909 35.3367 33.7906 35.9752C33.0904 36.6138 32.1768 36.9677 31.2292 36.9677H31.229Z" fill="#61BC47"/>
<path d="M21.0695 21.8447C21.4666 21.9867 21.885 22.0602 22.3068 22.062C22.8923 22.0636 23.4679 21.9102 23.9749 21.6172C24.8427 21.1163 25.4285 20.263 25.6247 19.2147C25.7953 18.1833 25.6028 17.1246 25.0801 16.2193C24.5574 15.3139 23.7369 14.6179 22.7584 14.25C21.7525 13.8955 20.7205 13.9765 19.8529 14.4774C18.9854 14.9783 18.3993 15.8316 18.2031 16.88C18.0325 17.9114 18.225 18.97 18.7477 19.8754C19.2704 20.7807 20.091 21.4767 21.0695 21.8447ZM19.8925 17.1961C19.931 16.9436 20.0244 16.7027 20.166 16.4901C20.3077 16.2776 20.4941 16.0987 20.7123 15.9659C20.9597 15.8245 21.2402 15.7511 21.5252 15.7533C21.751 15.755 21.975 15.7949 22.1875 15.8715C22.7789 16.1032 23.2741 16.529 23.5916 17.0791C23.9092 17.6291 24.0304 18.2708 23.9354 18.8988C23.9026 19.1531 23.8115 19.3964 23.6693 19.6098C23.5271 19.8232 23.3377 20.0009 23.1156 20.1291C22.8936 20.2573 22.6449 20.3325 22.389 20.349C22.1332 20.3654 21.877 20.3226 21.6403 20.2239C21.0489 19.9922 20.5538 19.5663 20.2362 19.0163C19.9186 18.4662 19.7974 17.8245 19.8925 17.1964V17.1961Z" fill="#61BC47"/>
<path d="M19.0893 28.0443C20.4042 26.5163 20.0724 24.0669 18.3496 22.5843C16.6267 21.1016 14.1553 21.1388 12.8402 22.6667C12.1868 23.4261 11.9155 24.425 12.0766 25.4793C12.2558 26.5102 12.788 27.4466 13.5819 28.1282C14.3758 28.8097 15.3821 29.1939 16.4282 29.2149C17.4471 29.2149 18.4183 28.8233 19.0893 28.0443ZM17.7865 26.9232C17.0898 27.733 15.7057 27.6882 14.7011 26.8239C14.2114 26.4164 13.8833 25.8475 13.7757 25.2197C13.723 24.9692 13.7286 24.7099 13.792 24.462C13.8555 24.214 13.9751 23.9839 14.1416 23.7895C14.3082 23.5951 14.5172 23.4416 14.7525 23.3409C14.9878 23.2402 15.2431 23.1949 15.4987 23.2085C16.1374 23.2225 16.7504 23.463 17.2282 23.887C18.2325 24.7515 18.4829 26.1135 17.786 26.9232H17.7865Z" fill="#61BC47"/>
<path d="M31.0254 21.5366C31.5313 21.8277 32.1052 21.9797 32.6889 21.977C34.0553 21.977 35.4532 21.1797 36.2527 19.7948C37.3891 17.8264 36.8934 15.4049 35.1474 14.3969C34.2798 13.8958 33.2479 13.8149 32.242 14.1694C31.2581 14.5282 30.4347 15.2266 29.9202 16.1388C28.7838 18.1072 29.2795 20.5282 31.0254 21.5366ZM31.4087 16.998C31.7181 16.4413 32.216 16.0133 32.8129 15.7909C33.0254 15.7143 33.2493 15.6744 33.4752 15.6728C33.7602 15.6706 34.0407 15.7439 34.2881 15.8854C35.2132 16.4196 35.4267 17.7878 34.7642 18.9354C34.1016 20.083 32.8098 20.5822 31.8847 20.0483C30.9596 19.5144 30.7462 18.1457 31.4087 16.998Z" fill="#61BC47"/>
<path d="M42.9242 25.1796C43.0853 24.1252 42.814 23.1264 42.1606 22.367C41.5086 21.6094 40.5645 21.1926 39.5012 21.1926H39.4932C38.4481 21.2169 37.4437 21.603 36.6515 22.285C35.8592 22.967 35.3279 23.9027 35.1484 24.9325C34.9873 25.9869 35.2586 26.9857 35.912 27.7451C36.564 28.5027 37.5081 28.9196 38.5714 28.9195H38.5794C39.6245 28.8953 40.6289 28.5093 41.4213 27.8274C42.2137 27.1456 42.745 26.21 42.9248 25.1801L42.9242 25.1796ZM41.2251 24.92C41.1075 25.5443 40.7812 26.1101 40.2996 26.5245C39.8181 26.9389 39.21 27.1773 38.5751 27.2005H38.5706C38.315 27.2149 38.0595 27.1702 37.8239 27.0699C37.5884 26.9696 37.3791 26.8163 37.2124 26.622C37.0456 26.4277 36.9259 26.1976 36.8624 25.9496C36.799 25.7015 36.7935 25.4422 36.8465 25.1917C36.9642 24.5675 37.2905 24.0019 37.7719 23.5875C38.2533 23.1732 38.8613 22.9348 39.4961 22.9115H39.5006C39.7562 22.8971 40.0117 22.9418 40.2473 23.0421C40.4828 23.1425 40.6921 23.2957 40.8588 23.49C41.0256 23.6843 41.1453 23.9144 41.2088 24.1624C41.2722 24.4105 41.2777 24.6698 41.2247 24.9203L41.2251 24.92Z" fill="#61BC47"/>
<path d="M50.6288 40.0882C50.1904 39.4307 49.5895 38.8978 48.8843 38.5413C51.5194 33.4387 52.2427 27.562 50.9235 21.9728C49.6043 16.3836 46.3296 11.4505 41.6911 8.06466C37.0525 4.67886 31.356 3.06365 25.6307 3.51084C19.9053 3.95804 14.5287 6.43814 10.4721 10.5031C6.41555 14.568 3.94655 19.9498 3.51118 25.676C3.0758 31.4023 4.70276 37.0955 8.09813 41.727C11.4935 46.3585 16.4334 49.623 22.0253 50.9307C27.6172 52.2383 33.4924 51.5029 38.5896 48.8573L42.4311 51.4183C42.5722 51.5124 42.7381 51.5626 42.9078 51.5626C43.0774 51.5626 43.2433 51.5124 43.3844 51.4183L49.1835 47.5522C50.171 46.8919 50.9115 45.9227 51.289 44.7964C51.5489 44.0249 51.6279 43.2039 51.5199 42.397C51.4118 41.5901 51.1197 40.8188 50.6659 40.1428L50.6288 40.0882ZM27.5002 49.8437C15.1799 49.8437 5.15642 39.8203 5.15642 27.4999C5.15642 15.1796 15.1799 5.15619 27.5002 5.15619C39.8205 5.15619 49.8439 15.1796 49.8439 27.4999C49.8444 31.1857 48.9335 34.8144 47.1923 38.0629C47.0662 38.0522 46.9396 38.0453 46.8116 38.0453C46.1888 38.0445 45.5723 38.1709 45 38.4167C47.0431 35.1421 48.1259 31.3597 48.1252 27.4999C48.1252 16.1273 38.8728 6.87494 27.5002 6.87494C16.1275 6.87494 6.87517 16.1273 6.87517 27.4999C6.87517 38.8726 16.1275 48.1249 27.5002 48.1249C30.2432 48.1309 32.9593 47.585 35.487 46.5197C35.8167 46.9174 36.2023 47.2651 36.6319 47.5519L36.9391 47.7568C33.9821 49.1309 30.7609 49.8431 27.5002 49.8437ZM35.187 40.0878L35.15 40.143C34.6963 40.8189 34.4042 41.5901 34.2962 42.397C34.1881 43.2039 34.2671 44.0248 34.527 44.7963C34.5524 44.8727 34.58 44.9484 34.609 45.0234C32.3518 45.9419 29.9371 46.4115 27.5002 46.4062C17.0752 46.4062 8.59392 37.9249 8.59392 27.4999C8.59392 17.075 17.0752 8.59369 27.5002 8.59369C37.9251 8.59369 46.4064 17.075 46.4064 27.4999C46.4076 31.8165 44.9304 36.0032 42.2208 39.3634C41.7394 38.8895 41.1592 38.5279 40.5218 38.3042C39.8843 38.0806 39.2053 38.0005 38.5334 38.0697C37.8614 38.139 37.213 38.3557 36.6345 38.7046C36.056 39.0535 35.5617 39.5258 35.187 40.0878ZM49.658 44.2527C49.4019 45.0165 48.8998 45.6739 48.2302 46.1218L42.9077 49.6702L37.5852 46.1219C37.2049 45.8665 36.8763 45.5415 36.6169 45.164C36.5751 45.0415 36.5058 44.9302 36.4145 44.8386C36.0965 44.2596 35.9438 43.6043 35.973 42.9444C36.0021 42.2845 36.2121 41.6453 36.5799 41.0966L36.6169 41.0415C36.8523 40.6884 37.1631 40.392 37.527 40.1735C37.8908 39.9551 38.2986 39.8201 38.7209 39.7783C39.1432 39.7365 39.5696 39.7889 39.9692 39.9317C40.3688 40.0745 40.7318 40.3043 41.0319 40.6043L42.2995 41.8719C42.3793 41.9517 42.474 42.015 42.5783 42.0582C42.6825 42.1014 42.7943 42.1236 42.9072 42.1236C43.02 42.1236 43.1318 42.1014 43.236 42.0582C43.3403 42.015 43.435 41.9517 43.5148 41.8719L44.7824 40.6043C45.128 40.2583 45.5564 40.0065 46.0269 39.873C46.4973 39.7395 46.9941 39.7287 47.4699 39.8416C48.1779 40.0074 48.7963 40.4365 49.1994 41.0418L49.2357 41.0963C49.5434 41.5548 49.7415 42.078 49.8147 42.6253C49.8879 43.1726 49.8343 43.7294 49.658 44.2527Z" fill="#095052"/>
</svg>
