<svg width="24" height="24" viewBox="0 0 24 24" fill="none" xmlns="http://www.w3.org/2000/svg">
<path fill-rule="evenodd" clip-rule="evenodd" d="M9 8C9 6.34328 10.3433 5 12 5C13.6567 5 15 6.34328 15 8C15 9.65672 13.6567 11 12 11C10.3433 11 9 9.65672 9 8ZM12 3C9.23872 3 7 5.23872 7 8C7 10.7613 9.23872 13 12 13C14.7613 13 17 10.7613 17 8C17 5.23872 14.7613 3 12 3ZM9.66667 14C6.47335 14 4 16.7526 4 20C4 20.5523 4.44772 21 5 21C5.55228 21 6 20.5523 6 20C6 17.7249 7.70565 16 9.66667 16H14.3333C16.2944 16 18 17.7249 18 20C18 20.5523 18.4477 21 19 21C19.5523 21 20 20.5523 20 20C20 16.7526 17.5266 14 14.3333 14H9.66667Z" fill="#333333"/>
</svg>
