<svg width="43" height="36" viewBox="0 0 43 36" fill="none" xmlns="http://www.w3.org/2000/svg">
<path d="M10.6147 12.9958C7.88271 13.7581 6.0835 15.0568 6.0835 16.5306C6.0835 18.8795 10.6529 20.7835 16.2912 20.7835C21.9295 20.7835 26.499 18.8795 26.499 16.5306C26.499 14.8802 24.8477 13.5517 21.5497 12.8467" stroke="#333333" stroke-width="1.5" stroke-miterlimit="10" stroke-linecap="round" stroke-linejoin="round"/>
<path d="M10.3332 13.3335C9.33317 13.6668 8.8418 14.1265 8.8418 14.8114C8.8418 16.1665 12.1832 17.2752 16.3056 17.2752C20.4279 17.2752 23.7693 16.1665 23.7693 14.8114C23.7693 14.0317 22.9038 13.2951 21.1984 12.8467" stroke="#333333" stroke-width="1.5" stroke-miterlimit="10" stroke-linecap="round" stroke-linejoin="round"/>
<path d="M13.6739 11.2801C13.4966 11.0775 13.2766 10.9154 13.0292 10.8052C12.7818 10.695 12.513 10.6394 12.2415 10.6422C11.2456 10.6422 10.4307 11.375 10.4307 12.2779C10.4307 13.1808 11.2406 13.9136 12.2415 13.9136C12.4536 13.9136 12.6643 13.8799 12.8656 13.8139" stroke="#333333" stroke-width="1.5" stroke-miterlimit="10" stroke-linecap="round" stroke-linejoin="round"/>
<path d="M16.56 12.3612C17.1459 12.0717 17.5359 11.5564 17.5359 10.9692C17.5359 10.0663 16.6147 9.3335 15.4778 9.3335C14.3408 9.3335 13.418 10.0663 13.418 10.9692" stroke="#333333" stroke-width="1.5" stroke-miterlimit="10" stroke-linecap="round" stroke-linejoin="round"/>
<path d="M20.6785 12.1441C20.7885 11.9754 20.8464 11.7874 20.8472 11.5964C20.8472 10.7351 19.6544 10.0361 18.1816 10.0361C17.8962 10.0357 17.6118 10.0624 17.334 10.1157" stroke="#333333" stroke-width="1.5" stroke-miterlimit="10" stroke-linecap="round" stroke-linejoin="round"/>
<path d="M20.3364 14.9546C21.0531 14.7187 21.5498 14.2085 21.5498 13.6186C21.5498 12.8047 20.6058 12.144 19.4419 12.144" stroke="#333333" stroke-width="1.5" stroke-miterlimit="10" stroke-linecap="round" stroke-linejoin="round"/>
<path d="M6.08353 16.5308L2.81207 24.6668C2.70624 24.9199 2.6571 25.1926 2.66799 25.4661C2.67887 25.7397 2.74953 26.0077 2.87515 26.2519C4.14821 28.6384 9.6803 30.4344 16.2913 30.4344C22.9022 30.4344 28.4343 28.6351 29.7074 26.2519C29.833 26.0077 29.9036 25.7397 29.9145 25.4661C29.9254 25.1926 29.8763 24.9199 29.7704 24.6668L26.499 16.5308" stroke="#333333" stroke-width="1.5" stroke-miterlimit="10" stroke-linecap="round" stroke-linejoin="round"/>
<circle cx="31" cy="12" r="12" fill="#61BC47"/>
<path d="M31.5013 18.128C34.1573 18.128 35.7253 15.824 35.7253 12.512C35.7253 8.928 33.9813 6.896 31.5013 6.896C28.8613 6.896 27.2773 9.184 27.2773 12.512C27.2773 16.08 29.0213 18.128 31.5013 18.128ZM31.5013 16.4C30.0933 16.4 29.1653 14.944 29.1653 12.512C29.1653 10.048 30.0613 8.608 31.5013 8.608C32.9413 8.608 33.8373 10.048 33.8373 12.512C33.8373 14.96 32.9733 16.4 31.5013 16.4Z" fill="white"/>
</svg>
