<svg width="14" height="14" viewBox="0 0 14 14" fill="none" xmlns="http://www.w3.org/2000/svg">
<path d="M10.0798 9.05639C9.62632 7.37371 8.39139 6.22217 7.00094 6.22217C5.6105 6.22217 4.37574 7.37371 3.9223 9.05639C2.64946 9.14098 1.6386 10.1328 1.56049 11.3738C1.48237 12.6149 2.36128 13.7197 3.61392 13.9551C3.77387 13.9847 3.93629 13.9997 4.09889 13.9997C4.26469 13.9998 4.43012 13.984 4.59272 13.9524C5.12056 13.8374 5.65868 13.7723 6.19927 13.7584H7.80351C8.3441 13.7723 8.88221 13.8374 9.41005 13.9524C10.3377 14.1321 11.291 13.7946 11.8838 13.0763C12.4767 12.3581 12.6107 11.3783 12.2319 10.5337C11.8528 9.68921 11.0237 9.11992 10.0801 9.05639H10.0798ZM11.7046 11.7327C11.6124 12.495 11.0263 13.1122 10.2535 13.2605C10.0215 13.3044 9.78308 13.3044 9.55122 13.2605C8.9768 13.1357 8.39139 13.0662 7.80298 13.0527H6.19891C5.61067 13.0662 5.02509 13.1357 4.45085 13.2605C4.21881 13.3044 3.9804 13.3044 3.74854 13.2605C2.82978 13.0874 2.1969 12.2612 2.28777 11.3536C2.37846 10.4458 3.16313 9.75446 4.09889 9.7574C4.11749 9.7574 4.13521 9.7574 4.18887 9.7624C4.36848 9.77052 4.52772 9.65089 4.56509 9.47965C4.88109 7.97856 5.88256 6.92921 7.00094 6.92921C8.11932 6.92921 9.12098 7.97856 9.43697 9.48069C9.49224 9.65469 9.66192 9.77 9.84862 9.76033C9.86633 9.76033 9.88493 9.7574 9.90299 9.7574C10.4213 9.7574 10.9147 9.97334 11.2589 10.3509C11.6032 10.7282 11.7653 11.231 11.7046 11.7327Z" fill="black"/>
<path d="M4.13191 5.0554C4.44613 5.30214 4.82959 5.43855 5.2254 5.4445C5.36894 5.4445 5.51192 5.42512 5.65078 5.38713C6.67147 5.10643 7.23477 3.85663 6.90633 2.60107C6.76466 2.02836 6.43791 1.52164 5.97922 1.16382C5.55009 0.818654 4.98941 0.696245 4.46035 0.832085C3.43966 1.11278 2.87617 2.36259 3.20479 3.61814C3.34628 4.19086 3.67322 4.69757 4.13191 5.0554ZM4.65891 1.59129C4.73171 1.57134 4.80694 1.56136 4.88236 1.56136C5.11554 1.56769 5.34087 1.65019 5.52502 1.79716C5.84372 2.04927 6.06998 2.40422 6.16711 2.80464C6.38626 3.64155 6.06587 4.45966 5.45334 4.62793C5.14923 4.69968 4.82977 4.62409 4.58723 4.42282C4.26796 4.17071 4.04133 3.81538 3.94402 3.41458C3.72599 2.57747 4.04638 1.75956 4.65891 1.59129Z" fill="black"/>
<path d="M8.34927 5.38713C8.48794 5.42531 8.63111 5.4445 8.77465 5.4445C9.17046 5.43836 9.55373 5.30214 9.86813 5.05542C10.3268 4.69761 10.6536 4.19092 10.7952 3.61823C11.1237 2.36273 10.5604 1.11299 9.53969 0.832308C9.01064 0.696091 8.44976 0.818495 8.02083 1.16403C7.56213 1.52183 7.23519 2.02852 7.09371 2.6014C6.76508 3.85479 7.32858 5.10492 8.34927 5.38713ZM7.83293 2.80323C7.9295 2.40264 8.15538 2.04733 8.47372 1.79504C8.65805 1.64808 8.88319 1.56558 9.11656 1.55925C9.19198 1.55925 9.26702 1.56922 9.34001 1.58918C9.95328 1.75724 10.2729 2.57531 10.0536 3.41237C9.95703 3.81277 9.73114 4.16809 9.41281 4.42057C9.17008 4.62163 8.85081 4.69722 8.5467 4.62566C7.9353 4.45817 7.61491 3.6401 7.83293 2.80323Z" fill="black"/>
<path d="M10.4569 5.21011C10.1729 5.73331 10.0588 6.34637 10.1333 6.94956C10.196 7.52135 10.4967 8.02914 10.9478 8.32481C11.1912 8.47768 11.4672 8.55728 11.7476 8.5553C12.5513 8.51264 13.2755 8.01038 13.6543 7.23259C13.9383 6.70959 14.0522 6.09653 13.9778 5.49334C13.9152 4.92155 13.6145 4.41376 13.1632 4.11809C12.2812 3.56231 11.0675 4.05094 10.4569 5.21011ZM12.3539 4.69482C12.5082 4.69324 12.66 4.73649 12.794 4.82023C13.0487 4.99443 13.2162 5.28754 13.2478 5.61461C13.2973 6.03649 13.2151 6.46409 13.0148 6.8281C12.6086 7.60035 11.8455 7.95705 11.3163 7.62267C11.0619 7.44827 10.8948 7.15517 10.8633 6.8281C10.8139 6.40642 10.8959 5.97881 11.0964 5.61461C11.3418 5.09003 11.8175 4.74202 12.3539 4.69482Z" fill="black"/>
<path d="M3.05213 8.32629C3.50339 8.03052 3.80411 7.52255 3.86667 6.95057C3.94113 6.34717 3.82719 5.73389 3.54324 5.21051C2.93224 4.05132 1.71853 3.56212 0.836741 4.11811C0.385658 4.41388 0.0849365 4.92185 0.0221959 5.49383C-0.0522634 6.09723 0.0618595 6.71051 0.345814 7.23369C0.724962 8.01116 1.449 8.513 2.25237 8.55529C2.53272 8.55766 2.80874 8.47863 3.05213 8.32629ZM0.984578 6.82906C0.784096 6.46492 0.702065 6.03717 0.751464 5.61515C0.783375 5.28776 0.951044 4.99475 1.20597 4.82049C1.33993 4.73672 1.49191 4.69345 1.64624 4.69503C2.18278 4.74205 2.65892 5.09018 2.90447 5.61515C3.10477 5.97948 3.18699 6.40723 3.13741 6.82906C3.10568 7.15664 2.93801 7.44965 2.6829 7.62391C2.15357 7.95841 1.39059 7.60158 0.984578 6.82906Z" fill="black"/>
</svg>
