<svg width="20" height="20" viewBox="0 0 20 20" fill="none" xmlns="http://www.w3.org/2000/svg">
<path fill-rule="evenodd" clip-rule="evenodd" d="M10 19C14.9706 19 19 14.9707 19 10C19 5.02944 14.9707 0.999979 10 0.999979C5.02944 0.999979 0.999979 5.02944 0.999979 10C0.999979 14.9706 5.02944 19 10 19ZM10 20C15.5228 20 20 15.5228 20 10C20 4.47711 15.5228 0 10 0C4.47711 0 0 4.47711 0 10C0 15.5228 4.47711 20 10 20Z" fill="#095052"/>
<path fill-rule="evenodd" clip-rule="evenodd" d="M12.5984 9.99977L7.99984 6.93409V13.0656L12.5984 9.99977ZM13.5275 9.41736C13.9432 9.69448 13.9432 10.3052 13.5275 10.5823L8.08806 14.2086C7.6229 14.5188 6.99976 14.1852 6.99976 13.6261V6.37352C6.99976 5.81444 7.6229 5.48097 8.08806 5.79112L13.5275 9.41736Z" fill="#095052"/>
</svg>
