<svg width="12" height="12" viewBox="0 0 12 12" fill="none" xmlns="http://www.w3.org/2000/svg">
<path d="M11.4142 12.0001C11.5301 12.0001 11.6434 11.9657 11.7398 11.9014C11.8362 11.837 11.9113 11.7455 11.9556 11.6384C12 11.5313 12.0116 11.4135 11.989 11.2998C11.9664 11.1861 11.9105 11.0817 11.8286 10.9998L1.00044 0.17164C0.890545 0.0617407 0.74149 0 0.586069 0C0.430649 0 0.281593 0.0617407 0.171695 0.17164C0.0617952 0.281539 5.34058e-05 0.430594 5.34058e-05 0.586015C5.34058e-05 0.741435 0.0617952 0.890491 0.171695 1.00039L10.9998 11.8285C11.0542 11.883 11.1188 11.9262 11.1899 11.9556C11.261 11.9851 11.3372 12.0002 11.4142 12.0001Z" fill="#095052"/>
<path d="M0.585864 12.0001C0.662828 12.0002 0.739057 11.9851 0.810167 11.9556C0.881278 11.9262 0.945872 11.883 1.00024 11.8285L11.8284 1.00039C11.9383 0.890491 12 0.741435 12 0.586015C12 0.430594 11.9383 0.281539 11.8284 0.17164C11.7185 0.0617407 11.5694 0 11.414 0C11.2586 0 11.1095 0.0617407 10.9996 0.17164L0.171489 10.9998C0.0895224 11.0817 0.033699 11.1861 0.0110817 11.2998C-0.0115356 11.4135 6.86646e-05 11.5313 0.044425 11.6384C0.0887823 11.7455 0.1639 11.837 0.260278 11.9014C0.356654 11.9657 0.46996 12.0001 0.585864 12.0001Z" fill="#095052"/>
</svg>
