<svg width="18" height="16" viewBox="0 0 18 16" fill="none" xmlns="http://www.w3.org/2000/svg">
<path d="M13.2188 0C11.3012 0 9.87831 1.19101 9 2.88054C8.12176 1.19111 6.69888 0 4.78125 0C2.01765 0 0 2.3472 0 5.20943C0 8.99457 3.57089 11.3709 8.65273 15.868C8.85161 16.044 9.14839 16.044 9.34727 15.868C14.4244 11.375 18 8.99504 18 5.20943C18 2.34674 15.982 0 13.2188 0ZM9 14.7592C4.31993 10.6477 1.05469 8.36371 1.05469 5.20943C1.05469 2.84768 2.65676 1.06667 4.78125 1.06667C6.82917 1.06667 8.09828 2.98479 8.49171 4.40875C8.6336 4.92822 9.36464 4.93053 9.50829 4.40875C9.89652 3.00367 11.1509 1.06667 13.2188 1.06667C15.3432 1.06667 16.9453 2.84768 16.9453 5.20943C16.9453 8.36552 13.6747 10.6524 9 14.7592Z" fill="#61BC47"/>
</svg>
