<svg width="50" height="50" viewBox="0 0 50 50" fill="none" xmlns="http://www.w3.org/2000/svg">
<path d="M28.2258 14.9193H29.8387V16.5322H28.2258V14.9193Z" fill="#61BC47"/>
<path d="M48.3871 7.66127C48.3871 2.8773 25.9557 2.82256 25 2.82256C22.6307 2.82256 20.3129 2.89344 18.083 3.02103C17.6427 2.4154 16.9339 2.01611 16.129 2.01611C15.1942 2.01611 14.3913 2.5548 13.9881 3.33211C5.78299 4.13935 1.61292 5.59435 1.61292 7.66127V15.7258C1.61292 20.0589 20.0144 20.5121 24.1936 20.559V22.292C22.8055 22.6523 21.7742 23.9049 21.7742 25.4032C21.7742 26.9015 22.8055 28.1541 24.1936 28.5144V30.2419H21.6356C21.4234 30.2419 21.2154 30.1557 21.0654 30.0057L19.7864 28.7275C19.2032 28.1435 18.4291 27.8226 17.6033 27.8226C15.9014 27.8226 14.5161 29.2071 14.5161 30.9106C14.5161 31.7347 14.8371 32.5097 15.4202 33.0936L15.7951 33.4677L15.4202 33.8426C14.8371 34.4258 14.5161 35.2007 14.5161 36.0249C14.5161 37.7284 15.9014 39.1129 17.6033 39.1129C18.4283 39.1129 19.2032 38.792 19.7864 38.208L21.0654 36.9298C21.2162 36.7798 21.4234 36.6935 21.6356 36.6935H28.3644C28.5767 36.6935 28.7846 36.7798 28.9346 36.9298L30.2136 38.208C30.7968 38.792 31.5709 39.1129 32.3967 39.1129C34.0986 39.1129 35.4839 37.7284 35.4839 36.0249C35.4839 35.2007 35.163 34.4258 34.5798 33.8418L34.2049 33.4677L34.5798 33.0929C35.163 32.5097 35.4839 31.7347 35.4839 30.9106C35.4839 29.2071 34.0986 27.8226 32.3967 27.8226C31.5717 27.8226 30.7968 28.1435 30.2136 28.7275L28.9346 30.0057C28.7838 30.1557 28.5767 30.2419 28.3644 30.2419H25.8065V28.5144C27.1945 28.1541 28.2258 26.9015 28.2258 25.4032C28.2258 23.9049 27.1945 22.6523 25.8065 22.292V20.5645H28.2258C28.5298 20.5645 28.8267 20.533 29.1161 20.4791C35.8418 20.2361 48.3871 19.3032 48.3871 15.7258V7.66127ZM28.3644 31.8548C29.0106 31.8548 29.6186 31.6032 30.075 31.146L31.354 29.867C31.6292 29.5926 32.008 29.4355 32.3967 29.4355C33.2098 29.4355 33.871 30.0966 33.871 30.9106C33.871 31.3039 33.7178 31.6749 33.4394 31.9533L31.9242 33.4677L33.4394 34.9822C33.7178 35.2614 33.871 35.6315 33.871 36.0249C33.871 36.8388 33.2098 37.5 32.3967 37.5C32.0088 37.5 31.6292 37.3429 31.354 37.0676L30.075 35.7894C29.6186 35.3323 29.0106 35.0806 28.3644 35.0806H21.6356C20.9894 35.0806 20.3814 35.3323 19.925 35.7894L18.6461 37.0684C18.3708 37.3429 17.992 37.5 17.6033 37.5C16.7902 37.5 16.129 36.8388 16.129 36.0249C16.129 35.6315 16.2822 35.2606 16.5606 34.9822L18.0759 33.4677L16.5606 31.9533C16.2822 31.6741 16.129 31.3039 16.129 30.9106C16.129 30.0966 16.7902 29.4355 17.6033 29.4355C17.9912 29.4355 18.3708 29.5926 18.6461 29.8678L19.925 31.146C20.3814 31.6032 20.9894 31.8548 21.6356 31.8548H28.3644ZM46.7758 7.64828C46.471 8.7792 38.7243 10.8871 25 10.8871C22.67 10.8871 20.5267 10.8225 18.5484 10.7162V4.61464C20.6354 4.50162 22.7921 4.43547 25 4.43547C38.7243 4.43547 46.471 6.54335 46.7758 7.64828ZM28.2258 12.5C30.0049 12.5 31.4516 13.9467 31.4516 15.7258C31.4516 17.2903 30.3313 18.596 28.8515 18.8886C27.621 18.9256 26.3475 18.9516 25 18.9516C23.8797 18.9516 22.8146 18.9331 21.7742 18.9063V16.5322H26.6129V14.9193H21.7742V12.4437C23.5655 12.4968 24.7921 12.5 25 12.5H28.2258ZM20.1613 12.3862V18.8598C19.6065 18.8378 19.0784 18.8091 18.5484 18.7807V12.3098C19.1072 12.3393 19.6494 12.3653 20.1613 12.3862ZM16.129 3.62902C16.574 3.62902 16.9355 3.99129 16.9355 4.43547V10.6162C16.383 10.5776 15.8436 10.537 15.3226 10.4917V4.43547C15.3226 3.99129 15.6841 3.62902 16.129 3.62902ZM13.7097 4.98242V10.3393C7.0919 9.6396 3.43964 8.42835 3.22582 7.67663V7.67112C3.38293 7.11629 6.17086 5.76918 13.7097 4.98242ZM3.22582 15.7258V9.6459C6.02241 11.1734 11.9574 11.8837 16.9355 12.2137V18.6807C8.27992 18.0782 3.46287 16.6008 3.22582 15.7258ZM26.6129 25.4032C26.6129 25.9974 26.2865 26.5121 25.8065 26.7921V25.4032H24.1936V26.7921C23.7135 26.5121 23.3871 25.9974 23.3871 25.4032C23.3871 24.5137 24.1105 23.7903 25 23.7903C25.8895 23.7903 26.6129 24.5137 26.6129 25.4032ZM31.9942 18.7539C32.6621 17.9242 33.0645 16.8717 33.0645 15.7258C33.0645 14.3885 32.5195 13.1765 31.6387 12.2999C36.8534 12.0152 43.7047 11.3226 46.7742 9.6459L46.775 15.7128C46.5273 16.6338 41.3338 18.2042 31.9942 18.7539Z" fill="#095052"/>
<path d="M4.83875 12.5H6.45165V14.1129H4.83875V12.5Z" fill="#61BC47"/>
<path d="M8.87097 14.1129H10.4839V15.7258H8.87097V14.1129Z" fill="#61BC47"/>
<path d="M12.9032 14.9193H14.5161V16.5322H12.9032V14.9193Z" fill="#61BC47"/>
<path d="M43.5484 24.5967V23.7903H41.9355V24.5967C41.9355 25.9305 40.8499 27.0161 39.5162 27.0161H38.7097V28.629H39.5162C40.8499 28.629 41.9355 29.7146 41.9355 31.0483V31.8548H43.5484V31.0483C43.5484 29.7146 44.6341 28.629 45.9678 28.629H46.7742V27.0161H45.9678C44.6341 27.0161 43.5484 25.9305 43.5484 24.5967ZM42.742 28.6538C42.5065 28.3372 42.2273 28.058 41.9107 27.8225C42.2273 27.5871 42.5065 27.3079 42.742 26.9913C42.9775 27.3079 43.2566 27.5871 43.5732 27.8225C43.2566 28.058 42.9775 28.3372 42.742 28.6538Z" fill="#61BC47"/>
<path d="M41.9354 20.5646H43.5483V22.1775H41.9354V20.5646Z" fill="#61BC47"/>
<path d="M41.9354 33.4678H43.5483V35.0807H41.9354V33.4678Z" fill="#61BC47"/>
<path d="M48.3871 27.0161H50V28.629H48.3871V27.0161Z" fill="#61BC47"/>
<path d="M35.4839 27.0161H37.0968V28.629H35.4839V27.0161Z" fill="#61BC47"/>
<path d="M8.06454 37.5001V36.6936H6.45164V37.5001C6.45164 38.8338 5.366 39.9194 4.03228 39.9194H3.22583V41.5323H4.03228C5.366 41.5323 6.45164 42.6179 6.45164 43.9517V44.7581H8.06454V43.9517C8.06454 42.6179 9.15018 41.5323 10.4839 41.5323H11.2903V39.9194H10.4839C9.15018 39.9194 8.06454 38.8338 8.06454 37.5001ZM7.25809 41.5571C7.02261 41.2405 6.74342 40.9613 6.42683 40.7259C6.74342 40.4904 7.02261 40.2112 7.25809 39.8946C7.49357 40.2112 7.77275 40.4904 8.08935 40.7259C7.77275 40.9613 7.49357 41.2405 7.25809 41.5571Z" fill="#61BC47"/>
<path d="M6.45166 33.4678H8.06456V35.0807H6.45166V33.4678Z" fill="#61BC47"/>
<path d="M6.45166 46.371H8.06456V47.9839H6.45166V46.371Z" fill="#61BC47"/>
<path d="M12.9032 39.9193H14.5161V41.5322H12.9032V39.9193Z" fill="#61BC47"/>
<path d="M0 39.9193H1.6129V41.5322H0V39.9193Z" fill="#61BC47"/>
</svg>
