<svg width="50" height="50" viewBox="0 0 50 50" fill="none" xmlns="http://www.w3.org/2000/svg">
<g clip-path="url(#clip0_1_930)">
<path d="M46.8856 18.8307C47.4767 18.4775 47.5806 18.1121 47.5806 17.7419V14.5161C47.5806 13.462 46.3347 13.1832 42.7297 12.5284L42.7136 12.5248C42.5742 11.0556 41.6468 9.78216 40.295 9.20646C40.0792 7.35808 38.6089 5.88851 36.7613 5.67273C36.0934 4.10629 34.5026 3.07893 32.733 3.24116C32.1057 1.79443 30.655 0.806452 29.0323 0.806452C28.5759 0.806452 28.1258 0.887175 27.6903 1.04665C26.9531 0.375661 26.0018 0 25 0C23.9982 0 23.0469 0.375661 22.3097 1.04665C21.8742 0.887175 21.4241 0.806452 20.9677 0.806452C19.345 0.806452 17.8943 1.79443 17.267 3.24195C15.4935 3.07814 13.9066 4.10629 13.2387 5.67351C11.3911 5.8897 9.92077 7.35887 9.70498 9.20725C8.35315 9.78295 7.42581 11.0564 7.28642 12.5268L7.27106 12.5299C3.66605 13.1824 2.41935 13.462 2.41935 14.5161V17.7419C2.41935 18.1121 2.52331 18.4775 3.11279 18.8299L0.031502 29.6178L0 29.8387C0 30.3991 0 30.9791 4.68632 32.1588C7.28642 32.8137 10.4248 33.4024 13.6203 33.8418C13.1647 35.1137 12.9032 36.4766 12.9032 37.9032C12.9032 44.5734 18.3298 50 25 50C31.6702 50 37.0968 44.5734 37.0968 37.9032C37.0968 36.4766 36.8353 35.1129 36.3797 33.841C39.576 33.4024 42.7136 32.8129 45.3145 32.158C50 30.9791 50 30.3991 50 29.8387L46.8856 18.8307ZM47.4637 26.7176C46.8596 26.9338 46.013 27.1799 44.9758 27.4379L42.9195 19.8959C43.9426 19.7372 44.7502 19.5742 45.3751 19.4072L47.4637 26.7176ZM33.5493 29.3532C31.3587 27.163 28.3345 25.8065 25 25.8065C21.6655 25.8065 18.6413 27.163 16.4507 29.3532C14.3476 29.1315 12.3661 28.8574 10.574 28.5597L11.9259 20.4515C15.7837 20.7815 20.4184 20.9677 25 20.9677C29.5816 20.9677 34.2163 20.7815 38.0749 20.4507L39.4267 28.5589C37.6339 28.8574 35.6524 29.1315 33.5493 29.3532ZM4.03226 17.5009V16.0066C5.11041 16.3661 6.89422 16.7091 9.85068 17.0284C14.046 17.4824 19.5671 17.7419 25 17.7419C30.4329 17.7419 35.954 17.4824 40.1493 17.0284C43.1058 16.7091 44.8896 16.3653 45.9677 16.0066V17.5009C44.6258 18.3007 36.3518 19.3548 25 19.3548C13.6482 19.3548 5.37424 18.3007 4.03226 17.5009ZM9.85068 20.2542C9.99992 20.27 10.1629 20.2838 10.3153 20.2999L8.98477 28.2813C8.12831 28.1234 7.33209 27.962 6.59613 27.8025L8.69101 20.1203C9.05722 20.1652 9.44115 20.2097 9.85068 20.2542ZM41.0152 28.2813L39.6847 20.2999C39.8371 20.2845 40.0001 20.27 40.1493 20.2542C40.5588 20.2097 40.9428 20.1652 41.3082 20.1203L43.4031 27.8025C42.6679 27.9628 41.8717 28.1234 41.0152 28.2813ZM42.1879 15.1501C42.3466 14.8225 42.4742 14.4831 42.5663 14.1377C43.2928 14.27 44.2525 14.446 45.0113 14.6217C44.3411 14.7993 43.3846 14.9792 42.1879 15.1501ZM10.6945 10.5685L11.3218 10.4091L11.3017 9.76129C11.2994 9.71443 11.2943 9.67191 11.2903 9.67742C11.2903 8.3437 12.376 7.25806 13.6573 7.2557L14.4401 7.29587L14.6024 6.66228C14.8756 5.58885 15.8357 4.83871 16.9355 4.83871C17.13 4.83871 17.3387 4.87257 17.5935 4.94424L18.4236 5.17972L18.6023 4.33546C18.9177 2.84424 20.6563 1.93147 22.1136 2.72492L22.7047 3.04664L23.1276 2.52331C23.5942 1.94446 24.2774 1.6129 25 1.6129C25.7226 1.6129 26.4058 1.94446 26.8724 2.52331L27.2953 3.04664L27.8864 2.72492C29.3418 1.93068 31.0815 2.84424 31.3977 4.33546L31.5764 5.17972L32.4065 4.94424C32.6613 4.87257 32.87 4.83871 33.0645 4.83871C34.1643 4.83871 35.1244 5.58885 35.3984 6.66228L35.5607 7.29587L36.2143 7.2687C36.2572 7.26712 36.3002 7.262 36.2903 7.25806C37.624 7.25806 38.7097 8.3437 38.712 9.6219L38.6782 10.4098L39.3055 10.5693C40.3789 10.8426 41.129 11.8034 41.129 12.9032C41.129 13.7506 40.6927 14.7532 40.0662 15.4163C36.3395 15.8235 31.1169 16.129 25 16.129C18.8693 16.129 13.6388 15.8219 9.91053 15.4128C9.29664 14.7532 8.87097 13.7542 8.87097 12.9032C8.87097 11.8034 9.62111 10.8426 10.6945 10.5685ZM7.43054 14.1389C7.52111 14.4831 7.64593 14.8225 7.80147 15.1493C6.60952 14.9784 5.65658 14.7985 4.98795 14.6217C5.74676 14.4468 6.70402 14.2708 7.43054 14.1389ZM7.08047 19.8959L5.02418 27.4379C3.98697 27.1807 3.14114 26.9346 2.53631 26.7184L4.62489 19.408C5.24981 19.5742 6.05744 19.738 7.08047 19.8959ZM1.7267 29.5532L2.0937 28.2675C4.51227 29.1098 9.51597 30.1766 15.2009 30.8389C14.8638 31.3047 14.5563 31.7918 14.287 32.3041C7.7999 31.4445 3.02971 30.1628 1.7267 29.5532ZM25 48.3871C19.2194 48.3871 14.5161 43.6838 14.5161 37.9032C14.5161 32.1226 19.2194 27.4194 25 27.4194C30.7806 27.4194 35.4839 32.1226 35.4839 37.9032C35.4839 43.6838 30.7806 48.3871 25 48.3871ZM35.713 32.3033C35.4445 31.791 35.1362 31.3039 34.7991 30.8389C40.484 30.1766 45.4877 29.1106 47.9063 28.2675L48.2733 29.5532C46.9703 30.1636 42.1993 31.4445 35.713 32.3033Z" fill="#095052"/>
<path d="M17.7419 8.87085H19.3548V10.4838H17.7419V8.87085Z" fill="#61BC47"/>
<path d="M28.2258 4.03223H29.8387V5.64513H28.2258V4.03223Z" fill="#61BC47"/>
<path d="M24.1936 12.0967H25.8065V13.7096H24.1936V12.0967Z" fill="#61BC47"/>
<path d="M30.6453 9.67749H32.2582V11.2904H30.6453V9.67749Z" fill="#61BC47"/>
<path d="M22.5807 6.45158V4.83868C22.1366 4.83868 21.7743 4.47719 21.7743 4.03223H20.1614C20.1614 5.36594 21.247 6.45158 22.5807 6.45158Z" fill="#61BC47"/>
<path d="M37.9032 12.0967H36.2903C36.2903 12.5416 35.9281 12.9031 35.4839 12.9031V14.516C36.8176 14.516 37.9032 13.4304 37.9032 12.0967Z" fill="#61BC47"/>
<path d="M14.516 14.516V12.9031C14.0719 12.9031 13.7096 12.5416 13.7096 12.0967H12.0967C12.0967 13.4304 13.1823 14.516 14.516 14.516Z" fill="#61BC47"/>
<path d="M24.9999 35.484C26.3336 35.484 27.4193 34.3983 27.4193 33.0646C27.4193 31.7309 26.3336 30.6453 24.9999 30.6453C23.6662 30.6453 22.5806 31.7309 22.5806 33.0646C22.5806 34.3983 23.6662 35.484 24.9999 35.484ZM24.9999 32.2582C25.4441 32.2582 25.8064 32.6197 25.8064 33.0646C25.8064 33.5096 25.4441 33.8711 24.9999 33.8711C24.5557 33.8711 24.1935 33.5096 24.1935 33.0646C24.1935 32.6197 24.5557 32.2582 24.9999 32.2582Z" fill="#61BC47"/>
<path d="M21.578 36.9014C22.0356 36.445 22.2872 35.837 22.2872 35.1904C22.2872 34.5443 22.0356 33.9363 21.578 33.4799C20.6337 32.5356 19.0992 32.5364 18.1565 33.4799C17.7001 33.9363 17.4485 34.5443 17.4485 35.1904C17.4485 35.837 17.7001 36.4442 18.1565 36.9006C18.6282 37.3724 19.2476 37.6086 19.8678 37.6086C20.4869 37.6086 21.1063 37.3724 21.578 36.9014ZM19.2977 35.7602C19.1453 35.6086 19.0622 35.4062 19.0622 35.1904C19.0622 34.975 19.1461 34.7719 19.2977 34.6203C19.4548 34.4627 19.6611 34.3848 19.8686 34.3848C20.075 34.3848 20.2813 34.4627 20.4388 34.6203C20.5912 34.7726 20.6751 34.975 20.6751 35.1904C20.6751 35.4062 20.5912 35.6078 20.4388 35.7602C20.1234 36.0749 19.6103 36.0725 19.2977 35.7602Z" fill="#61BC47"/>
<path d="M28.4218 33.4799C27.9643 33.9363 27.7126 34.5443 27.7126 35.1904C27.7126 35.837 27.9643 36.445 28.4218 36.9006C28.8936 37.3723 29.513 37.6078 30.1332 37.6078C30.7522 37.6078 31.3716 37.3723 31.8433 36.9006C32.2997 36.4442 32.5514 35.837 32.5514 35.1904C32.5514 34.5443 32.2997 33.9363 31.8433 33.4799C30.8983 32.5356 29.3645 32.5364 28.4218 33.4799ZM30.7022 35.7602C30.3872 36.0756 29.8757 36.0741 29.561 35.7594C29.4094 35.6078 29.3255 35.4062 29.3255 35.1904C29.3255 34.975 29.4094 34.7726 29.5622 34.6203C29.7193 34.4627 29.9257 34.3848 30.1332 34.3848C30.3395 34.3848 30.5459 34.4627 30.703 34.6203C30.8558 34.7719 30.9396 34.975 30.9396 35.1904C30.9385 35.4054 30.8546 35.6078 30.7022 35.7602Z" fill="#61BC47"/>
<path d="M24.9999 37.0967C21.8347 37.0967 19.3547 38.8675 19.3547 41.1289C19.3547 43.3904 21.8347 45.1612 24.9999 45.1612C28.1651 45.1612 30.6451 43.3904 30.6451 41.1289C30.6451 38.8675 28.1651 37.0967 24.9999 37.0967ZM24.9999 43.5483C22.8144 43.5483 20.9676 42.4402 20.9676 41.1289C20.9676 39.8177 22.8144 38.7096 24.9999 38.7096C27.1854 38.7096 29.0322 39.8177 29.0322 41.1289C29.0322 42.4402 27.1854 43.5483 24.9999 43.5483Z" fill="#61BC47"/>
</g>
<defs>
<clipPath id="clip0_1_930">
<rect width="50" height="50" fill="white"/>
</clipPath>
</defs>
</svg>
