<svg width="101" height="101" viewBox="0 0 101 101" fill="none" xmlns="http://www.w3.org/2000/svg">
<g clip-path="url(#clip0_1_813)">
<path d="M13.725 42.1847C13.725 42.9944 14.3811 43.6513 15.1916 43.6513C16.0013 43.6513 16.6582 42.9944 16.6582 42.1847V5.79767C16.6582 4.98111 16.4695 4.20885 16.1334 3.51986H74.3499C75.1649 3.51986 75.8279 4.18288 75.8279 4.99792V60.7868C75.8279 61.5973 76.4848 62.2534 77.2945 62.2534C78.1042 62.2534 78.7611 61.5973 78.7611 60.7868V4.99792C78.7611 2.5658 76.782 0.586655 74.3499 0.586655H11.4701C10.3724 0.582072 9.30227 0.921223 8.40168 1.56821C7.50874 2.21061 6.85259 3.10279 6.5035 4.14851L0.125314 23.2922C-0.122939 24.0362 0.00309722 24.8612 0.46141 25.4975C0.920487 26.1338 1.66295 26.5142 2.44743 26.5142H13.725V42.1847ZM3.12039 23.581L9.28623 5.07583C9.43823 4.61981 9.72468 4.23024 10.1142 3.94991C10.5092 3.66575 10.9797 3.51757 11.4625 3.51986C11.4716 3.51986 11.4815 3.52062 11.4915 3.52062C11.4999 3.52062 11.509 3.52062 11.5174 3.52138C11.5289 3.52138 11.5396 3.52215 11.5511 3.52215C11.5579 3.52291 11.5648 3.52291 11.5717 3.52291C11.5854 3.52444 11.5992 3.5252 11.6122 3.52597C11.6167 3.52597 11.6213 3.52673 11.6259 3.52673C11.797 3.54048 11.9628 3.57256 12.1217 3.62145C12.1262 3.62298 12.1308 3.62451 12.1354 3.62603C12.1438 3.62909 12.1522 3.63138 12.1614 3.63444C13.0765 3.94227 13.725 4.8398 13.725 5.87711V23.581H3.12039Z" fill="#095052"/>
<path d="M36.6566 33.4408C36.6566 34.2505 37.3135 34.9074 38.1232 34.9074H54.362C55.1717 34.9074 55.8286 34.2505 55.8286 33.4408C55.8286 32.6304 55.1717 31.9742 54.362 31.9742H38.1232C37.3135 31.9742 36.6566 32.6304 36.6566 33.4408Z" fill="#095052"/>
<path d="M65.9229 43.6512H26.563C25.7526 43.6512 25.0964 44.3074 25.0964 45.1178C25.0964 45.9275 25.7526 46.5844 26.563 46.5844H65.9229C66.7326 46.5844 67.3895 45.9275 67.3895 45.1178C67.3895 44.3074 66.7326 43.6512 65.9229 43.6512Z" fill="#095052"/>
<path d="M67.3895 56.4298C67.3895 55.6193 66.7326 54.9632 65.9229 54.9632H26.563C25.7526 54.9632 25.0964 55.6193 25.0964 56.4298C25.0964 57.2402 25.7526 57.8964 26.563 57.8964H65.9229C66.7326 57.8964 67.3895 57.2395 67.3895 56.4298Z" fill="#095052"/>
<path d="M54.8394 67.7417C54.8394 66.932 54.1825 66.2751 53.3728 66.2751H26.563C25.7526 66.2751 25.0964 66.932 25.0964 67.7417C25.0964 68.5521 25.7526 69.2083 26.563 69.2083H53.3728C54.1825 69.2083 54.8394 68.5521 54.8394 67.7417Z" fill="#095052"/>
<path d="M26.563 81.236C25.7526 81.236 25.0964 81.8929 25.0964 82.7026C25.0964 83.513 25.7526 84.1692 26.563 84.1692H32.6502C33.4599 84.1692 34.1168 83.513 34.1168 82.7026C34.1168 81.8929 33.4599 81.236 32.6502 81.236H26.563Z" fill="#095052"/>
<path d="M100.107 77.403L99.8473 73.6586C99.5196 68.9081 95.533 65.1866 90.7712 65.1866H88.8554C87.9923 65.1866 87.1429 65.4143 86.3989 65.8451L84.9773 66.6655C83.5375 65.7168 81.8272 65.1866 80.0337 65.1866H75.4971C73.7043 65.1866 71.9941 65.7168 70.5542 66.6655L69.1357 65.8458C68.391 65.415 67.54 65.1866 66.6761 65.1866H64.7619C59.9985 65.1866 56.0112 68.9081 55.6842 73.6586L55.4261 77.403C55.1663 81.1566 58.8802 83.7544 62.2702 82.4551V83.6956C62.2702 86.9733 63.9155 90.0578 66.6028 91.8887C66.8816 92.7992 67.3529 93.6265 67.9701 94.3224C67.6615 94.5546 67.388 94.6554 66.9419 94.6554C66.2575 94.6554 65.9795 94.4186 65.36 93.8335C64.6351 93.1491 63.6421 92.2118 61.7661 92.2118C59.8877 92.2118 58.8947 93.1491 58.1698 93.8343C57.5511 94.4186 57.2731 94.6554 56.5894 94.6554C55.9065 94.6554 55.6285 94.4186 55.0098 93.8343C54.2849 93.1491 53.2918 92.2118 51.4158 92.2118C49.5383 92.2118 48.5445 93.1491 47.8196 93.8335C47.2001 94.4186 46.9213 94.6554 46.2376 94.6554C45.554 94.6554 45.276 94.4186 44.6572 93.8343C43.9331 93.1491 42.9408 92.2118 41.0648 92.2118C39.1873 92.2118 38.1943 93.1491 37.4694 93.8343C36.8506 94.4186 36.5718 94.6554 35.8889 94.6554C35.2045 94.6554 34.9257 94.4186 34.307 93.8335C33.5821 93.1491 32.5906 92.2118 30.7146 92.2118C28.8386 92.2118 27.8455 93.1491 27.1206 93.8335C26.5012 94.4186 26.2231 94.6554 25.5387 94.6554C24.855 94.6554 24.577 94.4186 23.959 93.8343C23.2341 93.1491 22.2419 92.2118 20.3666 92.2118C18.4883 92.2118 17.4953 93.1491 16.7704 93.8343C16.7315 93.8709 16.6933 93.9068 16.6566 93.9412V48.0511C16.6566 47.2406 16.0004 46.5845 15.19 46.5845C14.3803 46.5845 13.7234 47.2406 13.7234 48.0511V96.122C13.7234 96.9325 14.3803 97.5886 15.19 97.5886C17.0668 97.5886 18.059 96.6514 18.7839 95.9669C19.4034 95.3818 19.6822 95.1443 20.3666 95.1443C21.048 95.1443 21.326 95.3818 21.944 95.9654C22.6689 96.6506 23.6611 97.5886 25.5387 97.5886C27.4163 97.5886 28.4093 96.6506 29.1342 95.9662C29.7529 95.3818 30.0317 95.1443 30.7146 95.1443C31.3959 95.1443 31.674 95.3818 32.2919 95.9654C33.0176 96.6506 34.0106 97.5886 35.8889 97.5886C37.765 97.5886 38.758 96.6514 39.4829 95.9669C40.1024 95.3818 40.3804 95.1443 41.0648 95.1443C41.7469 95.1443 42.025 95.3818 42.6422 95.9654C43.3671 96.6506 44.3601 97.5886 46.2369 97.5886C48.1144 97.5886 49.1074 96.6514 49.8323 95.9662C50.4518 95.3818 50.7306 95.1443 51.4151 95.1443C52.0979 95.1443 52.3768 95.3818 52.9947 95.9662C53.7196 96.6506 54.7126 97.5886 56.5894 97.5886C58.4654 97.5886 59.4585 96.6514 60.1833 95.9669C60.8028 95.3818 61.0809 95.1443 61.7653 95.1443C62.4482 95.1443 62.727 95.3818 63.3457 95.9662C64.0706 96.6506 65.0636 97.5886 66.9419 97.5886C68.7301 97.5886 69.7163 96.7377 70.432 96.0655C71.024 96.3046 71.658 96.4604 72.3202 96.5177C73.5126 98.3273 75.5598 99.4539 77.765 99.4539C79.9695 99.4539 82.0174 98.3273 83.2113 96.5177C85.9161 96.2832 88.1572 94.4041 88.928 91.8887C91.6152 90.057 93.2606 86.9733 93.2606 83.6956V82.4551C96.6353 83.7514 100.367 81.1718 100.107 77.403ZM60.2399 79.8488C59.1025 79.7312 58.2737 78.7451 58.3524 77.6054L58.6106 73.8602C58.8321 70.6413 61.5346 68.1206 64.7619 68.1206H66.6761C67.0252 68.1206 67.3674 68.2115 67.6668 68.3849L68.3215 68.763C68.0457 69.1304 67.7959 69.5208 67.5752 69.9332L63.4633 77.6191C63.2372 78.0408 63.0425 78.4785 62.879 78.9276L61.3765 79.6502C61.0175 79.8213 60.6165 79.8909 60.2399 79.8488ZM75.7477 95.8967C76.5115 95.5308 77.1967 95.0198 77.765 94.3919C78.3341 95.0198 79.0192 95.5308 79.7831 95.8967C79.198 96.2946 78.4975 96.5215 77.765 96.5215C77.0332 96.5207 76.3328 96.2946 75.7477 95.8967ZM82.6384 93.6097C82.5895 93.6097 82.5406 93.6089 82.4917 93.6066C82.4513 93.6028 82.4108 93.6005 82.3703 93.5998C80.8861 93.4921 79.6173 92.5006 79.1644 91.0645C78.9719 90.4534 78.4059 90.0387 77.7658 90.0387C77.1257 90.0387 76.5596 90.4542 76.3671 91.0645C75.9134 92.5006 74.6447 93.4921 73.1605 93.5998C73.1215 93.6005 73.0818 93.6028 73.0421 93.6066C72.9924 93.6082 72.9428 93.6097 72.8924 93.6097C70.8842 93.6097 69.2495 91.975 69.2495 89.9661C69.2495 87.9587 70.8834 86.3256 72.8924 86.3256H73.1521C74.0114 88.1069 75.7568 89.329 77.7658 89.329C79.7747 89.329 81.5201 88.1069 82.3787 86.3256H82.6384C84.6473 86.3256 86.2812 87.9587 86.2812 89.9661C86.2812 91.975 84.6473 93.6097 82.6384 93.6097ZM75.5269 84.0371C75.8279 83.8598 76.6253 83.6169 77.7658 83.6169C78.9062 83.6169 79.7029 83.8598 80.0046 84.0371C79.9939 84.1799 79.9741 84.3189 79.9435 84.4541C79.9328 84.4916 79.9237 84.5305 79.9153 84.5695C79.6357 85.6259 78.7779 86.3958 77.7658 86.3958C76.7521 86.3958 75.8928 85.6236 75.614 84.5649C75.6071 84.529 75.5979 84.4923 75.588 84.4572C75.5575 84.3212 75.5368 84.1807 75.5269 84.0371ZM95.2825 79.8504C95.2191 79.8572 95.1519 79.8603 95.0755 79.8603C94.7615 79.8603 94.4445 79.7877 94.1611 79.6518L92.6525 78.9253C92.4898 78.4777 92.2951 78.0408 92.0705 77.6191L90.7773 75.2061C90.3953 74.4919 89.5062 74.2238 88.792 74.6057C88.0778 74.9884 87.8097 75.8776 88.1916 76.591L89.4841 79.0033C90.6138 81.1184 90.2632 82.8905 90.3274 83.6956C90.3274 85.2439 89.8064 86.7304 88.8921 87.9304C88.0595 85.3814 85.7068 83.5123 82.9103 83.3977C82.6277 81.7348 80.6715 80.6837 77.7658 80.6837C74.8593 80.6837 72.9031 81.7348 72.6212 83.3977C69.824 83.5115 67.4713 85.3807 66.6387 87.9304C64.7833 85.4945 65.2859 83.0616 65.2034 82.3711C65.2034 81.2001 65.4952 80.0352 66.049 79.0033C70.1349 71.6107 70.1066 70.8292 71.5411 69.5895C71.5816 69.5589 71.6213 69.5253 71.6595 69.4902C72.7228 68.6179 74.071 68.1198 75.4971 68.1198H80.0337C81.4598 68.1198 82.8072 68.6179 83.8705 69.4894C83.9087 69.5253 83.9484 69.5589 83.9904 69.5903C84.5427 70.0677 85.0125 70.649 85.3692 71.3166C85.7519 72.0308 86.6402 72.3004 87.3544 71.9177C88.0686 71.5358 88.3375 70.6474 87.9556 69.9332C87.7356 69.52 87.4858 69.1297 87.2101 68.763L87.867 68.3841C88.1656 68.2115 88.5071 68.1198 88.8547 68.1198H90.7712C93.9977 68.1198 96.6987 70.6413 96.921 73.861L97.1807 77.6046C97.2601 78.7451 96.4306 79.7304 95.2825 79.8504Z" fill="#61BC47"/>
<path d="M71.9047 76.8354C71.095 76.8354 70.4381 77.4923 70.4381 78.302V78.9245C70.4381 79.7342 71.095 80.3911 71.9047 80.3911C72.7152 80.3911 73.3713 79.7342 73.3713 78.9245V78.302C73.3713 77.4923 72.7152 76.8354 71.9047 76.8354Z" fill="black"/>
<path d="M83.626 76.8354C82.8163 76.8354 82.1594 77.4923 82.1594 78.302V78.9245C82.1594 79.7342 82.8163 80.3911 83.626 80.3911C84.4365 80.3911 85.0926 79.7342 85.0926 78.9245V78.302C85.0926 77.4923 84.4365 76.8354 83.626 76.8354Z" fill="black"/>
<path d="M46.4126 7.41174H42.95C41.6018 7.41174 40.5057 8.50788 40.5057 9.85608V11.6725H38.6885C37.341 11.6725 36.2441 12.7687 36.2441 14.1169V17.5794C36.2441 18.9276 37.341 20.0238 38.6885 20.0238H40.5057V21.8402C40.5057 23.1884 41.6018 24.2845 42.95 24.2845H46.4126C47.7608 24.2845 48.8569 23.1884 48.8569 21.8402V20.0238H50.6741C52.0216 20.0238 53.1185 18.9276 53.1185 17.5794V14.1169C53.1185 12.7687 52.0216 11.6725 50.6741 11.6725H48.8569V9.85608C48.8569 8.50788 47.7608 7.41174 46.4126 7.41174ZM50.1853 14.6057V17.0906H47.3903C46.5806 17.0906 45.9237 17.7475 45.9237 18.5572V21.3513H43.4389V18.5572C43.4389 17.7475 42.782 17.0906 41.9723 17.0906H39.1773V14.6057H41.9723C42.782 14.6057 43.4389 13.9488 43.4389 13.1391V10.3449H45.9237V13.1391C45.9237 13.9488 46.5806 14.6057 47.3903 14.6057H50.1853Z" fill="#095052"/>
</g>
<defs>
<clipPath id="clip0_1_813">
<rect width="100.12" height="100.12" fill="white"/>
</clipPath>
</defs>
</svg>
