<svg width="50" height="50" viewBox="0 0 50 50" fill="none" xmlns="http://www.w3.org/2000/svg">
<g clip-path="url(#clip0_1_947)">
<path d="M12.2749 12.3041C11.7358 12.3041 11.2983 12.7416 11.2983 13.2806C11.2983 13.8197 11.7358 14.2572 12.2749 14.2572C12.814 14.2572 13.2515 13.8197 13.2515 13.2806C13.2515 12.7416 12.814 12.3041 12.2749 12.3041Z" fill="#61BC47"/>
<path d="M21.0635 30.5649H18.134V27.6354C18.134 27.0961 17.6967 26.6588 17.1574 26.6588C16.6182 26.6588 16.181 27.0961 16.181 27.6354V30.5649H13.2515C12.7122 30.5649 12.2749 31.0022 12.2749 31.5413C12.2749 32.0805 12.7122 32.5179 13.2515 32.5179H16.181V35.4474C16.181 35.9866 16.6183 36.424 17.1574 36.424C17.6966 36.424 18.134 35.9866 18.134 35.4474V32.5179H21.0635C21.6027 32.5179 22.04 32.0806 22.04 31.5413C22.04 31.0021 21.6028 30.5649 21.0635 30.5649Z" fill="#61BC47"/>
<path d="M47.4196 31.4438C45.2609 27.7049 40.4879 26.4253 36.7483 28.5845L32.7817 30.8745V22.3944C32.7817 21.3461 32.4351 20.3058 31.8053 19.4649L26.9228 12.9551V10.183C28.0593 9.77988 28.8758 8.69453 28.8758 7.42139V2.92949C28.8756 1.31416 27.5614 0 25.9461 0H8.36885C6.75351 0 5.43926 1.31416 5.43926 2.92949V7.42148C5.43926 8.69443 6.25576 9.77998 7.39228 10.1831V12.9552L2.50937 19.4654C1.87988 20.3059 1.5332 21.3461 1.5332 22.3944V41.3065C1.5332 43.9988 3.72353 46.1891 6.41572 46.1891H22.1093C24.2988 49.8593 29.0201 51.0876 32.721 48.9507L44.5604 42.115C48.267 39.9746 49.5892 35.203 47.4196 31.4438ZM7.39228 2.92949C7.39228 2.39102 7.83037 1.95293 8.36875 1.95293H25.946C26.4845 1.95293 26.9226 2.39102 26.9226 2.92949V7.42148C26.9226 7.95996 26.4845 8.39795 25.946 8.39795H8.36885C7.83037 8.39795 7.39238 7.95986 7.39238 7.42148V2.92949H7.39228ZM4.07227 20.6366L9.15 13.8665C9.27676 13.6976 9.34531 13.4919 9.34531 13.2806V10.3511H24.9695V12.3041H16.181C15.6417 12.3041 15.2044 12.7414 15.2044 13.2807C15.2044 13.8199 15.6417 14.2572 16.181 14.2572H25.4578L30.2423 20.6363C30.555 21.0538 30.7492 21.5533 30.8079 22.0693H3.50703C3.56562 21.5532 3.75986 21.0537 4.07227 20.6366ZM6.41582 44.236C4.80049 44.236 3.48633 42.9219 3.48633 41.3065V40.3203H21.228C20.9184 41.5864 20.9204 42.9388 21.275 44.2361H6.41582V44.236ZM21.9939 38.377H3.48623V24.0222H30.8286V32.002L24.9088 35.4201C23.6745 36.1331 22.6769 37.148 21.9939 38.377ZM31.7446 47.2593C28.9422 48.8775 25.3611 47.9205 23.7418 45.1161C22.1147 42.2847 23.1008 38.7198 25.8855 37.1113L31.186 34.051L37.0451 44.1989L31.7446 47.2593ZM43.5839 40.4237L38.7365 43.2225L32.8773 33.0743L37.7248 30.2759C40.5291 28.6569 44.1089 29.6156 45.7282 32.4201C47.3547 35.2387 46.3656 38.8174 43.5839 40.4237Z" fill="#095052"/>
</g>
<defs>
<clipPath id="clip0_1_947">
<rect width="50" height="50" fill="white"/>
</clipPath>
</defs>
</svg>
