<svg width="100" height="101" viewBox="0 0 100 101" fill="none" xmlns="http://www.w3.org/2000/svg">
<g clip-path="url(#clip0_1_749)">
<path d="M29.6199 43.4386L29.6163 43.5023C29.3699 47.823 31.7872 51.8707 35.7762 53.8112L35.8172 53.8313C37.2235 54.5048 38.3762 55.6153 39.1035 56.996L39.1199 57.0261C41.1299 60.858 45.2871 63.1808 49.7189 62.9478L49.7862 62.9442C51.3934 62.8541 52.9889 63.2691 54.3489 64.132C58.1016 66.4821 62.8652 66.4821 66.6179 64.132C67.9779 63.2691 69.5733 62.8541 71.1806 62.9442L71.2479 62.9478C75.6724 63.1826 79.8351 60.858 81.8496 57.0197L81.8596 56.9988C82.5896 55.6143 83.7451 54.5021 85.156 53.8276L85.1887 53.8112C89.1778 51.8698 91.5959 47.823 91.3487 43.5014L91.345 43.4414C91.2632 41.9195 91.685 40.4131 92.5468 39.1561C95.0277 35.5335 95.0277 30.7568 92.5477 27.1333C91.6868 25.8773 91.2632 24.3718 91.345 22.8499L91.3487 22.7862C91.5959 18.4646 89.1778 14.4179 85.1851 12.4755L85.1487 12.4573C83.7451 11.7856 82.5951 10.6806 81.8669 9.30346L81.846 9.2625C79.8351 5.43056 75.6724 3.10865 71.2479 3.34075L71.1797 3.34439C69.5733 3.4345 67.9779 3.01945 66.6188 2.15658H66.617C62.8643 -0.193551 58.1007 -0.193551 54.348 2.15658C52.988 3.01854 51.3925 3.43359 49.7853 3.34348L49.718 3.33984C45.2926 3.10501 41.1308 5.42965 39.1208 9.26068L39.1053 9.28889C38.3771 10.6724 37.2235 11.7837 35.8153 12.4582L35.7772 12.4764C31.7881 14.417 29.3699 18.4646 29.6172 22.7862L29.6208 22.8463C29.7026 24.3681 29.2808 25.8745 28.419 27.1306C25.9381 30.7541 25.9381 35.5317 28.419 39.1543C29.2799 40.4104 29.7026 41.9168 29.6199 43.4386V43.4386ZM31.4835 29.2477C32.8135 27.309 33.4654 24.9844 33.3381 22.636L33.3344 22.5723C33.2035 19.7088 34.809 17.0492 37.4008 15.8323L37.4326 15.8168C39.559 14.7974 41.2999 13.119 42.398 11.031L42.4162 10.9964C43.7517 8.44969 46.5489 6.906 49.5198 7.06437L49.5853 7.0671C51.9625 7.2009 54.3216 6.58743 56.3325 5.31133C58.8716 3.72121 62.0934 3.72121 64.6324 5.31133C66.6433 6.58561 69.0024 7.19999 71.3788 7.06801L71.4442 7.06437C74.4297 6.90782 77.2133 8.44969 78.5451 10.9891L78.5696 11.0356C79.6678 13.1208 81.4069 14.7965 83.5305 15.815L83.5614 15.8305C86.1941 17.112 87.7923 19.758 87.6314 22.5732L87.6278 22.6397C87.5005 24.988 88.1532 27.3117 89.4832 29.2505C91.0905 31.5979 91.0896 34.6925 89.4814 37.039C88.1523 38.9786 87.5005 41.3033 87.6278 43.6516L87.6314 43.7144C87.7923 46.5297 86.1941 49.1765 83.5605 50.459L83.5332 50.4717C81.4051 51.493 79.6624 53.1732 78.5633 55.2648L78.5496 55.2921C77.2133 57.8389 74.4206 59.3835 71.4451 59.2242L71.3806 59.2205C69.0033 59.0877 66.6433 59.702 64.6315 60.9772C62.0934 62.5664 58.8716 62.5664 56.3334 60.9772C54.5043 59.8167 52.3825 59.2014 50.2171 59.2033C50.0071 59.2033 49.7962 59.2087 49.5853 59.2205L49.5198 59.2233C46.588 59.4099 43.8144 57.8735 42.4135 55.2876L42.3944 55.2521C41.298 53.1677 39.5599 51.493 37.4371 50.4745L37.4026 50.4572C34.769 49.1756 33.1708 46.5287 33.3326 43.7144L33.3363 43.648C33.4626 41.2997 32.8099 38.975 31.4808 37.0372C29.8745 34.6898 29.8754 31.5951 31.4835 29.2495V29.2477Z" fill="#095052"/>
<path d="M48.4697 52.415C49.3415 52.9602 50.4897 52.6935 51.0342 51.8207L73.0895 16.4449C73.4495 15.8797 73.4795 15.1642 73.1668 14.5717C72.8541 13.9782 72.2468 13.5996 71.5777 13.5787C70.9086 13.5577 70.2796 13.8982 69.9305 14.4707L47.8761 49.8464C47.3315 50.7202 47.597 51.8698 48.4697 52.415V52.415Z" fill="#61BC47"/>
<path d="M50.4461 33.2362C54.9797 33.2362 58.6688 29.0247 58.6688 23.8484C58.6688 18.6721 54.9797 14.4615 50.4461 14.4615C45.9125 14.4615 42.2244 18.6721 42.2244 23.8484C42.2244 29.0247 45.9125 33.2362 50.4461 33.2362ZM50.4461 18.1897C52.927 18.1897 54.9452 20.7283 54.9452 23.8484C54.9452 26.9686 52.927 29.508 50.4461 29.508C47.9661 29.508 45.948 26.9677 45.948 23.8484C45.948 20.7292 47.9661 18.1897 50.4461 18.1897Z" fill="#61BC47"/>
<path d="M62.2969 42.4419C62.2969 47.6182 65.985 51.8288 70.5186 51.8288C75.0522 51.8288 78.7413 47.6173 78.7413 42.4419C78.7413 37.2675 75.0531 33.0551 70.5195 33.0551C65.985 33.0551 62.2969 37.2647 62.2969 42.4419V42.4419ZM75.0177 42.4419C75.0177 45.5621 72.9995 48.1006 70.5186 48.1006C68.0387 48.1006 66.0205 45.5621 66.0205 42.4419C66.0205 39.3218 68.0387 36.7832 70.5186 36.7832C72.9995 36.7832 75.0177 39.32 75.0177 42.4419Z" fill="#61BC47"/>
<path d="M99.7585 73.396C97.293 69.0152 91.8258 67.3468 87.3394 69.6059L72.755 76.5052C70.7414 72.7561 66.8787 70.3696 62.6278 70.2494L49.1643 69.8781C47.0325 69.8171 44.9407 69.2755 43.0452 68.2961L41.6752 67.5853C34.6607 63.9245 26.2999 63.9336 19.2926 67.6089L19.3781 64.5015C19.4063 63.4721 18.5963 62.6147 17.5681 62.5865L2.80457 62.1796C1.7764 62.1514 0.920951 62.9624 0.89277 63.9918L0.000957774 96.4303C-0.027224 97.4598 0.782771 98.3172 1.81095 98.3454L16.5745 98.7522H16.6263C17.6345 98.7513 18.459 97.9476 18.4872 96.9391L18.529 95.3872L22.3644 93.3311C23.8699 92.5201 25.6308 92.3272 27.2753 92.7932L50.1779 99.2292C50.2179 99.241 50.2579 99.2501 50.2988 99.2592C51.9542 99.606 53.6415 99.7798 55.3333 99.7789C58.9151 99.7808 62.4551 99.008 65.7105 97.5116C65.7905 97.4752 65.8678 97.4334 65.9414 97.386L99.1485 75.879C99.9766 75.3438 100.244 74.2543 99.7585 73.396V73.396ZM3.77457 94.6691L4.56365 65.9587L15.6054 66.2628L14.8154 94.974L3.77457 94.6691ZM64.0323 94.1803C59.9878 96.008 55.4706 96.5122 51.1233 95.6221L28.2817 89.2043C25.7117 88.4761 22.959 88.7783 20.6072 90.0444L18.6472 91.0947L19.1726 72.0052C25.3826 67.8693 33.348 67.4442 39.9625 70.8947L41.3325 71.6056C43.727 72.8435 46.3688 73.527 49.0624 73.6044L62.526 73.9758C66.3078 74.0841 69.5196 76.7801 70.2868 80.49L50.2324 79.9376C49.2043 79.9093 48.3488 80.7203 48.3206 81.7498C48.2924 82.7792 49.1024 83.6366 50.1306 83.6648L72.2623 84.2746H72.315C73.3223 84.2737 74.1468 83.47 74.175 82.4615C74.1977 81.6515 74.1368 80.8405 73.995 80.0431L88.9513 72.9664L88.9949 72.9454C91.1167 71.8696 93.683 72.2291 95.4276 73.8465L64.0323 94.1803Z" fill="#095052"/>
</g>
<defs>
<clipPath id="clip0_1_749">
<rect width="100" height="100.122" fill="white"/>
</clipPath>
</defs>
</svg>
