<svg width="100" height="101" viewBox="0 0 100 101" fill="none" xmlns="http://www.w3.org/2000/svg">
<path d="M38.3666 34.9365L40.6249 33.4294V41.457C40.609 42.5259 40.5362 43.5933 40.4067 44.6545L37.6647 50.1437C37.5563 50.361 37.4999 50.6005 37.4999 50.8434C37.4999 51.0863 37.5563 51.3259 37.6647 51.5431L40.6249 57.47V72.7452H43.7499V57.1011C43.7499 56.8582 43.6935 56.6186 43.5851 56.4014L40.8095 50.8434L43.2555 45.9455C43.6052 44.4756 43.7713 42.9678 43.7499 41.457V30.5061C43.7499 30.2229 43.6732 29.945 43.5278 29.7021C43.3825 29.4592 43.1741 29.2603 42.9247 29.1267C42.6753 28.9931 42.3944 28.9298 42.1119 28.9435C41.8295 28.9572 41.556 29.0474 41.3207 29.2045L37.0269 32.0705H27.0354L22.7417 29.2045C22.5064 29.0473 22.2329 28.9571 21.9504 28.9434C21.6679 28.9297 21.387 28.993 21.1376 29.1267C20.8882 29.2603 20.6798 29.4591 20.5344 29.7021C20.3891 29.945 20.3124 30.2229 20.3124 30.5061V44.1122L17.4499 48.4112C17.343 48.572 17.2667 48.7512 17.2249 48.9398L16.0095 54.4152L19.0598 55.0936L20.2118 49.9038L23.1749 45.4535C23.346 45.1965 23.4373 44.8946 23.4374 44.5858V33.4294L25.6957 34.9365C25.9524 35.1078 26.2539 35.1992 26.5624 35.1993H37.4999C37.8084 35.1992 38.1099 35.1077 38.3666 34.9365Z" fill="#095052"/>
<path d="M3.125 98.558H31.25C31.6644 98.558 32.0618 98.3931 32.3548 98.0998C32.6479 97.8064 32.8125 97.4085 32.8125 96.9935V68.8341C32.8126 68.6659 32.7856 68.4987 32.7324 68.3391L31.25 63.8873V61.0121C31.2492 60.1825 30.9197 59.3872 30.3338 58.8006C29.7479 58.214 28.9535 57.8841 28.125 57.8832H6.25C5.42145 57.8841 4.62708 58.214 4.04121 58.8006C3.45533 59.3872 3.12583 60.1825 3.125 61.0121V63.8873L1.64261 68.3391C1.5894 68.4987 1.56235 68.6659 1.5625 68.8341V96.9935C1.5625 97.4085 1.72712 97.8064 2.02015 98.0998C2.31317 98.3931 2.7106 98.558 3.125 98.558ZM6.25 61.0121H28.125V62.5765H6.25V61.0121ZM5.8138 65.7053H28.5612L29.0821 67.2697H5.29289L5.8138 65.7053ZM4.6875 70.3985H29.6875V95.4291H4.6875V70.3985Z" fill="#61BC47"/>
<path d="M96.875 62.3229V59.4477C96.8742 58.6181 96.5447 57.8228 95.9588 57.2362C95.3729 56.6496 94.5785 56.3197 93.75 56.3188H71.875C71.0465 56.3197 70.2521 56.6496 69.6662 57.2362C69.0803 57.8228 68.7508 58.6181 68.75 59.4477V62.3229L67.2676 66.7747C67.2144 66.9343 67.1873 67.1015 67.1875 67.2697V96.9936C67.1875 97.4085 67.3521 97.8064 67.6451 98.0998C67.9382 98.3932 68.3356 98.558 68.75 98.558H96.875C97.2894 98.558 97.6868 98.3932 97.9799 98.0998C98.2729 97.8064 98.4375 97.4085 98.4375 96.9936V67.2697C98.4377 67.1015 98.4106 66.9343 98.3574 66.7747L96.875 62.3229ZM71.875 59.4477H93.75V61.0121H71.875V59.4477ZM71.4388 64.1409H94.1862L94.7071 65.7053H70.9179L71.4388 64.1409ZM95.3125 95.4292H70.3125V68.8341H95.3125V95.4292Z" fill="#61BC47"/>
<path d="M20.3125 79.0028C19.0586 78.9187 17.8008 79.0928 16.6168 79.5145C15.4327 79.9361 14.3476 80.5964 13.4284 81.4544L8.6403 78.4582C8.40376 78.3103 8.13201 78.2285 7.85323 78.2212C7.57446 78.214 7.29883 78.2815 7.05494 78.4169C6.81105 78.5523 6.60778 78.7506 6.46624 78.9911C6.3247 79.2317 6.25004 79.5058 6.25 79.785V87.6071C6.25 87.8863 6.32463 88.1604 6.46617 88.401C6.6077 88.6416 6.81097 88.8399 7.05487 88.9753C7.29878 89.1107 7.57443 89.1783 7.85322 89.171C8.13201 89.1637 8.40377 89.0818 8.6403 88.9339L13.4284 85.9377C14.3476 86.7957 15.4327 87.456 16.6168 87.8776C17.8008 88.2993 19.0586 88.4734 20.3125 88.3893C24.7665 88.3893 28.125 86.3719 28.125 83.6961C28.125 81.0202 24.7665 79.0028 20.3125 79.0028ZM9.375 84.7846V82.6075L11.1145 83.6961L9.375 84.7846ZM20.3125 85.2605C17.2875 85.2605 15.625 84.0856 15.625 83.6961C15.625 83.3065 17.2875 82.1316 20.3125 82.1316C23.3375 82.1316 25 83.3065 25 83.6961C25 84.0856 23.3375 85.2605 20.3125 85.2605Z" fill="#095052"/>
<path d="M75.3127 89.814C75.5485 90.419 75.9312 90.9556 76.4262 91.3752C76.9212 91.7949 77.5129 92.0844 78.1478 92.2175C78.7826 92.3506 79.4406 92.3231 80.0622 92.1375C80.6838 91.9519 81.2493 91.6141 81.7077 91.1546C82.1343 90.7256 82.4555 90.2032 82.6459 89.6287C82.8363 89.0541 82.8907 88.4431 82.8048 87.8439L88.3445 82.2982C89.1551 82.4138 89.9816 82.271 90.7067 81.8902C91.4318 81.5093 92.0188 80.9097 92.3846 80.1762C92.7504 79.4427 92.8764 78.6126 92.7447 77.8034C92.6131 76.9943 92.2304 76.2471 91.6511 75.6678C91.2704 75.2869 90.8143 74.99 90.3121 74.7962C90.1186 74.2934 89.822 73.8367 89.4416 73.4556C88.6974 72.7444 87.7082 72.3476 86.6794 72.3476C85.6506 72.3476 84.6614 72.7444 83.9172 73.4556C83.4904 73.8846 83.1692 74.4071 82.9788 74.9818C82.7884 75.5565 82.734 76.1677 82.82 76.767L77.2803 82.3127C76.4697 82.197 75.6433 82.3397 74.9182 82.7204C74.1931 83.1012 73.6061 83.7008 73.2403 84.4342C72.8745 85.1676 72.7484 85.9977 72.8801 86.8069C73.0117 87.616 73.3944 88.3631 73.9738 88.9424C74.3545 89.3233 74.8106 89.6202 75.3127 89.814ZM76.1832 85.6233C76.2538 85.5524 76.3378 85.4963 76.4303 85.4582C76.5227 85.4202 76.6219 85.401 76.7219 85.4018C76.8416 85.4017 76.9599 85.428 77.0683 85.479C77.3597 85.6171 77.6867 85.6618 78.0045 85.6068C78.3223 85.5518 78.6154 85.4 78.8437 85.1719L85.6758 78.3322C85.904 78.1039 86.0561 77.8104 86.111 77.4921C86.1659 77.1739 86.121 76.8463 85.9825 76.5546C85.9025 76.3891 85.8837 76.2004 85.9295 76.0223C85.9752 75.8442 86.0826 75.6881 86.2325 75.5817C86.3824 75.4753 86.565 75.4256 86.7481 75.4414C86.9311 75.4571 87.1026 75.5373 87.2322 75.6678C87.3662 75.8052 87.4443 75.9876 87.4511 76.1796C87.471 76.566 87.6332 76.9313 87.9064 77.2049C88.1797 77.4785 88.5446 77.6409 88.9305 77.6607C89.0809 77.6676 89.226 77.7181 89.3482 77.8062C89.4704 77.8942 89.5643 78.016 89.6185 78.1567C89.6728 78.2973 89.6849 78.4507 89.6535 78.5981C89.6221 78.7455 89.5485 78.8806 89.4417 78.9868C89.3268 79.0987 89.1805 79.1726 89.0223 79.1986C88.8642 79.2245 88.7019 79.2013 88.5574 79.1319C88.2661 78.9928 87.9388 78.9475 87.6207 79.0024C87.3026 79.0572 87.0093 79.2095 86.7813 79.4383L79.9492 86.2787C79.7209 86.507 79.5689 86.8005 79.514 87.1188C79.4591 87.4371 79.5039 87.7646 79.6425 88.0563C79.7223 88.2218 79.7409 88.4104 79.695 88.5884C79.6492 88.7664 79.5418 88.9223 79.392 89.0286C79.2421 89.1348 79.0595 89.1844 78.8766 89.1687C78.6937 89.1529 78.5223 89.0727 78.3928 88.9424C78.2587 88.805 78.1807 88.6225 78.1738 88.4306C78.154 88.0442 77.9918 87.6789 77.7185 87.4053C77.4453 87.1317 77.0804 86.9693 76.6945 86.9494C76.5441 86.9426 76.3989 86.892 76.2767 86.804C76.1546 86.7159 76.0606 86.5941 76.0064 86.4535C75.9522 86.3129 75.9401 86.1595 75.9715 86.0121C76.0029 85.8646 76.0765 85.7296 76.1833 85.6233H76.1832Z" fill="#095052"/>
<path d="M45.3124 76.6562C45.0222 76.6561 44.7377 76.737 44.4908 76.8897C44.244 77.0424 44.0445 77.261 43.9147 77.5209L42.5856 80.1838L39.926 81.5144C39.5555 81.7 39.2736 82.0253 39.1425 82.4188L37.936 86.0427H37.4999C37.1387 86.0426 36.7887 86.1679 36.5094 86.3971C36.2301 86.6264 36.0387 86.9454 35.9679 87.3L34.4054 95.1221C34.36 95.349 34.3655 95.5833 34.4215 95.8078C34.4774 96.0324 34.5825 96.2418 34.729 96.4208C34.8756 96.5998 35.06 96.7441 35.2689 96.8431C35.4779 96.9422 35.7062 96.9935 35.9374 96.9936H64.0624C64.2936 96.9935 64.5219 96.9422 64.7309 96.8431C64.9398 96.7441 65.1242 96.5998 65.2708 96.4208C65.4173 96.2418 65.5224 96.0324 65.5783 95.8078C65.6343 95.5833 65.6398 95.349 65.5944 95.1221L64.0319 87.3C63.9611 86.9454 63.7697 86.6264 63.4904 86.3971C63.2111 86.1679 62.8611 86.0426 62.4999 86.0427H62.0638L60.8573 82.4188C60.7803 82.1887 60.651 81.9795 60.4796 81.8078L57.3546 78.6789C57.0616 78.3855 56.6643 78.2207 56.2499 78.2206H53.4934L50.6988 76.8212C50.4817 76.7127 50.2425 76.6562 49.9999 76.6562H45.3124ZM61.2189 89.1715L62.1566 93.8647H37.8432L38.7809 89.1715H61.2189ZM52.426 81.1844C52.6431 81.293 52.8823 81.3495 53.1249 81.3494H55.6029L58.0092 83.7586L58.7695 86.0427H41.2304L41.9029 84.023L44.4488 82.7489C44.7512 82.5974 44.9964 82.3519 45.1477 82.0492L46.2783 79.785H49.6314L52.426 81.1844Z" fill="#095052"/>
<path d="M86.7125 35.7752C86.9887 35.6173 87.2102 35.3787 87.3473 35.0914C87.4845 34.804 87.5308 34.4817 87.4801 34.1673L86.0892 25.5768C85.9743 25.045 85.7235 24.5523 85.3611 24.1468C84.9988 23.7413 84.5375 23.437 84.0224 23.2638L77.838 21.1998C77.6787 21.1465 77.5117 21.1194 77.3437 21.1196H63.2812C63.1131 21.1194 62.9462 21.1465 62.7868 21.1998L56.6031 23.2638C56.0768 23.444 55.6072 23.7599 55.2415 24.1796C54.8759 24.5993 54.6272 25.1081 54.5203 25.6547L53.1447 34.1673C53.094 34.4817 53.1403 34.804 53.2775 35.0914C53.4146 35.3787 53.6361 35.6173 53.9123 35.7752L58.5937 38.4534V43.5026L55.58 51.0443C55.5066 51.2293 55.4688 51.4265 55.4687 51.6256V71.963H58.5937V51.9266L61.6073 44.3849C61.6807 44.1999 61.7185 44.0026 61.7187 43.8035V37.5459C61.7187 37.2701 61.6459 36.9992 61.5076 36.7607C61.3693 36.5222 61.1705 36.3245 60.9313 36.1877L56.4025 33.5967L57.5912 26.2322L63.5345 24.2484H77.0988L83.0192 26.1543L84.2223 33.5967L79.6935 36.1877C79.4543 36.3245 79.2555 36.5222 79.1172 36.7607C78.9789 36.9992 78.9061 37.2701 78.9062 37.5459V43.8035C78.9063 44.0872 78.9833 44.3654 79.1289 44.6087L81.3422 48.302L82.8498 55.0936L85.9 54.4153L84.3375 47.3754C84.3009 47.2112 84.2383 47.0539 84.1521 46.9095L82.0312 43.3704V38.4534L86.7125 35.7752Z" fill="#095052"/>
<path d="M59.3751 6.60824C59.4014 5.47203 59.0285 4.36263 58.3215 3.47352C57.6144 2.58441 56.6181 1.97201 55.5062 1.74313C54.5566 1.51398 53.5674 1.50418 52.6134 1.71448C51.6594 1.92477 50.7658 2.34965 50.0001 2.95693C49.2346 2.34953 48.3411 1.92458 47.3872 1.71428C46.4333 1.50397 45.4442 1.51384 44.4947 1.74313C43.3827 1.97197 42.3863 2.58434 41.6791 3.47343C40.972 4.36253 40.5989 5.47196 40.6251 6.60824C40.6251 11.2885 46.6157 15.4226 49.1914 16.9824C49.4352 17.1303 49.7149 17.2085 50.0001 17.2085C50.2852 17.2085 50.5649 17.1303 50.8088 16.9824C53.3844 15.4226 59.3751 11.2885 59.3751 6.60824ZM50.0001 13.7971C46.7713 11.6895 43.7501 8.79062 43.7501 6.60824C43.7312 6.17364 43.8727 5.74729 44.1477 5.41045C44.4226 5.07362 44.8117 4.84985 45.2409 4.78182C45.4829 4.72297 45.7311 4.69373 45.9801 4.69474C46.5066 4.67454 47.0288 4.79604 47.4924 5.04661C47.9561 5.29717 48.3441 5.66761 48.6161 6.11936C48.7483 6.37233 48.9472 6.58422 49.1912 6.73207C49.4351 6.87992 49.7149 6.95809 50.0001 6.95809C50.2852 6.95809 50.565 6.87992 50.8089 6.73207C51.0529 6.58422 51.2518 6.37233 51.384 6.11936C51.7324 5.56702 52.2471 5.13982 52.8538 4.8994C53.4604 4.65899 54.1277 4.6178 54.7593 4.78178C55.1884 4.84982 55.5775 5.07359 55.8525 5.41043C56.1274 5.74727 56.2689 6.17363 56.2501 6.60824C56.2501 8.79062 53.2288 11.6895 50.0001 13.7971Z" fill="#61BC47"/>
<path d="M28.125 42.2391C28.9879 42.2391 29.6875 41.5387 29.6875 40.6747C29.6875 39.8107 28.9879 39.1103 28.125 39.1103C27.2621 39.1103 26.5625 39.8107 26.5625 40.6747C26.5625 41.5387 27.2621 42.2391 28.125 42.2391Z" fill="#095052"/>
<path d="M35.9375 42.2391C36.8004 42.2391 37.5 41.5387 37.5 40.6747C37.5 39.8107 36.8004 39.1103 35.9375 39.1103C35.0746 39.1103 34.375 39.8107 34.375 40.6747C34.375 41.5387 35.0746 42.2391 35.9375 42.2391Z" fill="#095052"/>
<path d="M65.625 34.4171C66.4879 34.4171 67.1875 33.7167 67.1875 32.8527C67.1875 31.9887 66.4879 31.2883 65.625 31.2883C64.7621 31.2883 64.0625 31.9887 64.0625 32.8527C64.0625 33.7167 64.7621 34.4171 65.625 34.4171Z" fill="#095052"/>
<path d="M75 34.4171C75.8629 34.4171 76.5625 33.7167 76.5625 32.8527C76.5625 31.9887 75.8629 31.2883 75 31.2883C74.1371 31.2883 73.4375 31.9887 73.4375 32.8527C73.4375 33.7167 74.1371 34.4171 75 34.4171Z" fill="#095052"/>
<path d="M70.3125 40.6747C71.3912 40.6747 72.2656 39.9743 72.2656 39.1103C72.2656 38.2463 71.3912 37.5459 70.3125 37.5459C69.2338 37.5459 68.3594 38.2463 68.3594 39.1103C68.3594 39.9743 69.2338 40.6747 70.3125 40.6747Z" fill="#095052"/>
</svg>
