<svg width="101" height="101" viewBox="0 0 101 101" fill="none" xmlns="http://www.w3.org/2000/svg">
<g clip-path="url(#clip0_1_824)">
<path d="M40.0133 90.2404H39.1744C38.3644 90.2404 37.7078 90.8971 37.7078 91.707C37.7078 92.517 38.3644 93.1736 39.1744 93.1736H40.0133C40.8232 93.1736 41.4799 92.517 41.4799 91.707C41.4799 90.8971 40.8232 90.2404 40.0133 90.2404Z" fill="black"/>
<path d="M69.3615 42.5335C68.5514 42.5335 67.8949 43.1902 67.8949 44.0001V48.3647V83.2942H27.3591C26.5492 83.2942 25.8925 83.9509 25.8925 84.7608C25.8925 85.5708 26.5492 86.2274 27.3591 86.2274H67.8052C67.0768 92.3901 61.824 97.1868 55.4687 97.1868H23.7188C17.3636 97.1868 12.1108 92.3901 11.3824 86.2274H21.3797C22.1896 86.2274 22.8463 85.5708 22.8463 84.7608C22.8463 83.9509 22.1896 83.2942 21.3797 83.2942H11.2928V27.5308H53.2086C54.0187 27.5308 54.6752 26.8742 54.6752 26.0642C54.6752 25.2543 54.0187 24.5976 53.2086 24.5976H11.3824C12.1108 18.435 17.3638 13.6382 23.7188 13.6382H45.9847C46.7947 13.6382 47.4513 12.9816 47.4513 12.1716C47.4513 11.3617 46.7947 10.705 45.9847 10.705H23.7188C15.2499 10.705 8.35962 17.5951 8.35962 26.0642V84.7608C8.35962 93.23 15.2497 100.12 23.7188 100.12H55.4687C63.9378 100.12 70.8279 93.23 70.8279 84.7608V48.3647V44.0001C70.8281 43.1902 70.1715 42.5335 69.3615 42.5335Z" fill="#095052"/>
<path d="M45.5717 17.6514H33.6158C32.8058 17.6514 32.1492 18.308 32.1492 19.118C32.1492 19.9279 32.8058 20.5846 33.6158 20.5846H45.5717C46.3816 20.5846 47.0383 19.9279 47.0383 19.118C47.0383 18.308 46.3816 17.6514 45.5717 17.6514Z" fill="#095052"/>
<path d="M81.4229 3.59414C80.7905 3.08846 79.8677 3.19053 79.3614 3.82293C78.8552 4.45533 78.9578 5.37831 79.59 5.88438C82.4047 8.13668 84.0188 11.4897 84.0188 15.0833V15.2078C84.0188 16.0178 84.6752 16.6744 85.4854 16.6744C86.2955 16.6744 86.952 16.0178 86.952 15.2078V15.0833C86.9522 10.5939 84.9368 6.40629 81.4229 3.59414Z" fill="#095052"/>
<path d="M84.3883 0.297027C83.742 -0.191448 82.8227 -0.0637566 82.3336 0.582133C81.8452 1.22822 81.9727 2.14787 82.6188 2.63654C86.5643 5.62019 88.827 10.1571 88.827 15.0833V16.4001C88.827 17.21 89.4834 17.8667 90.2936 17.8667C91.1037 17.8667 91.7602 17.21 91.7602 16.4001V15.0833C91.7602 9.22959 89.0732 3.84013 84.3883 0.297027Z" fill="#095052"/>
<path d="M62.6676 3.82291C62.1613 3.19051 61.2383 3.08805 60.6061 3.59412C57.0921 6.40628 55.077 10.5939 55.077 15.0833V15.2078C55.077 16.0178 55.7335 16.6744 56.5436 16.6744C57.3536 16.6744 58.0102 16.0178 58.0102 15.2078V15.0833C58.0102 11.4897 59.6245 8.13667 62.439 5.88436C63.0712 5.37829 63.1738 4.45531 62.6676 3.82291Z" fill="#095052"/>
<path d="M59.6955 0.58224C59.2068 -0.0636501 58.2872 -0.191733 57.6411 0.297133C52.9558 3.84024 50.2688 9.2295 50.2688 15.0834V16.4002C50.2688 17.2101 50.9252 17.8668 51.7354 17.8668C52.5455 17.8668 53.202 17.2101 53.202 16.4002V15.0834C53.202 10.157 55.4649 5.6203 59.4102 2.63665C60.0563 2.14818 60.184 1.22833 59.6955 0.58224Z" fill="#095052"/>
<path d="M83.8358 27.7958C82.7832 27.7958 81.9269 26.9395 81.9269 25.8868V15.2043C81.9269 9.64766 77.798 5.00461 72.481 4.27424V2.75523C72.481 1.94528 71.8246 1.28864 71.0144 1.28864C70.2043 1.28864 69.5478 1.94528 69.5478 2.75523V4.27052C67.1894 4.58477 65.0116 5.65363 63.2974 7.36798C61.2369 9.42865 60.102 12.1687 60.102 15.0837V25.887C60.102 26.9396 59.2457 27.7959 58.1931 27.7959C56.5817 27.7959 55.271 29.1067 55.271 30.7178V32.3293C55.271 33.9404 56.5817 35.2512 58.1931 35.2512H65.6252C66.2803 37.8269 68.6186 39.738 71.3952 39.738C74.1717 39.738 76.5103 37.8269 77.1652 35.2512H83.8355C85.4466 35.2512 86.7573 33.9404 86.7573 32.3293V30.7178C86.7577 29.1067 85.447 27.7958 83.8358 27.7958ZM71.3956 36.8048C70.2622 36.8048 69.2727 36.1771 68.7561 35.2512H74.0351C73.5184 36.1771 72.529 36.8048 71.3956 36.8048ZM75.951 32.3215C75.9281 32.3203 75.9055 32.318 75.8824 32.318H66.9089C66.8587 32.318 66.8092 32.3205 66.7601 32.3254L58.2044 32.3291L58.1932 30.7288C60.863 30.7288 63.0354 28.5566 63.0354 25.8866V15.0837C63.0354 12.9522 63.8651 10.9486 65.3718 9.44195C66.8802 7.9335 68.8787 7.10575 71.0094 7.10438C71.0111 7.10438 71.0129 7.10458 71.0146 7.10458C71.017 7.10458 71.0191 7.10419 71.0215 7.10419C71.0498 7.10419 71.0786 7.10419 71.1071 7.10458C75.4559 7.15366 78.9939 10.7871 78.9939 15.2041V25.8866C78.9939 28.5494 81.1539 30.717 83.8028 30.7168C83.81 30.7168 83.8177 30.7168 83.8247 30.7168L83.836 32.3178L75.951 32.3215Z" fill="#61BC47"/>
<path d="M53.1007 67.4534H51.4323C51.4663 67.4201 51.5017 67.3889 51.5356 67.355C53.4906 65.4 54.5673 62.8004 54.5673 60.0349C54.5673 57.2695 53.4906 54.6697 51.5358 52.715L42.2919 43.4712C40.3399 41.5192 37.7409 40.4425 34.9702 40.439C32.203 40.4425 29.604 41.5194 27.6521 43.4712C23.6158 47.5074 23.616 54.0749 27.6523 58.1112L32.2742 62.7331L36.8962 67.355C36.9298 67.3889 36.9654 67.4201 36.9994 67.4534H26.0873C25.2774 67.4534 24.6207 68.11 24.6207 68.92C24.6207 69.7299 25.2774 70.3866 26.0873 70.3866H53.1007C53.9109 70.3866 54.5673 69.7299 54.5673 68.92C54.5673 68.11 53.9109 67.4534 53.1007 67.4534ZM29.7263 56.037C26.8335 53.1443 26.8335 48.4377 29.7261 45.5451C31.125 44.1464 32.9887 43.3746 34.9702 43.372C36.9552 43.3746 38.819 44.1464 40.2179 45.5451L43.8029 49.1301L33.3112 59.6219L29.7263 56.037ZM44.2155 67.453C42.2338 67.4532 40.3708 66.6816 38.9699 65.2807L35.385 61.6957L45.8766 51.2041L49.4616 54.7888C49.5492 54.8764 49.6343 54.9658 49.7168 55.0569C50.956 56.4232 51.6339 58.1767 51.6339 60.0347C51.6339 62.0166 50.8625 63.8798 49.4614 65.2807C48.0605 66.6816 46.1975 67.453 44.2155 67.453Z" fill="#61BC47"/>
</g>
<defs>
<clipPath id="clip0_1_824">
<rect width="100.12" height="100.12" fill="white"/>
</clipPath>
</defs>
</svg>
