<svg width="50" height="50" viewBox="0 0 50 50" fill="none" xmlns="http://www.w3.org/2000/svg">
<g clip-path="url(#clip0_1_974)">
<path d="M12.0125 27.9006C11.1813 27.9006 10.4001 28.2241 9.81221 28.812C9.22437 29.3998 8.90088 30.1814 8.90088 31.0127C8.90088 31.8435 9.22437 32.6251 9.81221 33.213C10.4001 33.8008 11.1817 34.1243 12.0125 34.1243C12.8437 34.1243 13.6254 33.8008 14.2132 33.213C14.8011 32.6251 15.1246 31.8435 15.1246 31.0127C15.1246 30.1814 14.8011 29.3998 14.2132 28.812C13.6254 28.2245 12.8437 27.9006 12.0125 27.9006ZM13.1772 32.1773C12.8663 32.4882 12.4527 32.6595 12.0125 32.6595C11.5727 32.6595 11.1592 32.4882 10.8479 32.1769C10.537 31.866 10.3657 31.4525 10.3657 31.0127C10.3657 30.5724 10.537 30.1589 10.8479 29.8477C11.1592 29.5368 11.5727 29.3655 12.0125 29.3655C12.4527 29.3655 12.8663 29.5368 13.1772 29.8477C13.4884 30.1589 13.6597 30.5724 13.6597 31.0127C13.6597 31.4525 13.4884 31.866 13.1772 32.1773Z" fill="#61BC47"/>
<path d="M33.1603 6.75269C32.3291 6.75269 31.5475 7.07655 30.96 7.6644C29.7466 8.87747 29.7466 10.852 30.96 12.065C31.5475 12.6529 32.3291 12.9767 33.1603 12.9767C33.9916 12.9767 34.7732 12.6529 35.3607 12.0654C35.9485 11.4776 36.2724 10.6959 36.2724 9.86472C36.2724 9.03349 35.9485 8.25186 35.3607 7.6644C34.7732 7.07655 33.9916 6.75269 33.1603 6.75269ZM34.325 11.0293C34.0137 11.3402 33.6002 11.5115 33.1603 11.5115C32.7205 11.5115 32.307 11.3402 31.9957 11.0293C31.3537 10.3869 31.3537 9.3421 31.9957 8.70009C32.307 8.38881 32.7205 8.21791 33.1603 8.21791C33.6002 8.21791 34.0137 8.38919 34.325 8.70009C34.6359 9.01137 34.8071 9.42488 34.8071 9.86472C34.8071 10.3046 34.6359 10.7181 34.325 11.0293Z" fill="#61BC47"/>
<path d="M11.9904 22.5987H11.9919C12.2528 22.5983 12.5187 22.6097 12.7796 22.6337C12.8662 22.6414 12.9524 22.6456 13.0386 22.6456C13.9568 22.6452 14.8285 22.2019 15.3591 21.4508C17.622 18.2465 20.3945 15.4747 23.5985 13.2114C24.4202 12.6312 24.8734 11.6425 24.7814 10.6319C24.6498 9.18808 24.8848 7.77207 25.4452 6.49147C25.9842 6.87714 26.6197 7.06978 27.2549 7.06978C28.0518 7.06978 28.8487 6.76651 29.4556 6.15997C30.043 5.57213 30.3669 4.7905 30.3669 3.95928C30.3669 3.30391 30.1655 2.67944 29.7924 2.15645C31.9306 1.23177 34.3895 1.23024 36.5288 2.15569C36.1553 2.67906 35.9539 3.30353 35.9539 3.95928C35.9539 4.7905 36.2774 5.57213 36.8652 6.15997C37.4531 6.74782 38.2347 7.07131 39.0656 7.07131C39.7232 7.07131 40.3496 6.86875 40.8737 6.49338C41.0481 6.89163 41.1915 7.30438 41.3021 7.72858C41.4044 8.11997 41.8049 8.35495 42.1959 8.25195C42.5877 8.14972 42.8219 7.74918 42.7197 7.35779C42.2371 5.51148 41.2304 3.85056 39.8079 2.55394C39.3032 2.09389 38.76 1.69563 38.1893 1.35994C38.1577 1.33782 38.1241 1.31874 38.0898 1.30196C34.3987 -0.811004 29.6265 -0.337981 26.4427 2.61803C24.1795 4.71993 23.0419 7.68967 23.3223 10.7651C23.3673 11.2564 23.1491 11.7352 22.7535 12.0148C19.4126 14.3745 16.5222 17.2649 14.1624 20.6055C13.8828 21.0014 13.4041 21.2189 12.9128 21.1746C12.6064 21.1468 12.2963 21.1315 11.9885 21.1338C11.5841 21.1346 11.2568 21.4634 11.2579 21.8681C11.2587 22.2717 11.5864 22.5987 11.9904 22.5987ZM40.16 5.19028C39.8583 5.45921 39.4734 5.60646 39.0659 5.60646C38.6257 5.60646 38.2122 5.4348 37.9013 5.1239C37.59 4.813 37.4188 4.39949 37.4188 3.95928C37.4188 3.55187 37.566 3.16696 37.8346 2.86522C38.1783 3.09448 38.5082 3.35159 38.8214 3.63655C39.333 4.10309 39.7816 4.62494 40.16 5.19028ZM28.9021 3.95928C28.9021 4.39949 28.7308 4.813 28.4195 5.1239C27.8004 5.74341 26.8066 5.76515 26.1608 5.19028C26.4668 4.7329 26.8181 4.30489 27.2095 3.91388C27.2198 3.90358 27.2301 3.89328 27.2404 3.88298C27.2434 3.87993 27.2465 3.87726 27.2492 3.87421C27.2591 3.86467 27.2686 3.85513 27.2785 3.8456C27.2816 3.84255 27.2846 3.83949 27.2881 3.83644C27.2984 3.82614 27.309 3.81622 27.3193 3.80592C27.3201 3.80516 27.3213 3.8044 27.322 3.80364C27.5677 3.56636 27.8275 3.34511 28.0994 3.14026C28.2261 3.04451 28.3554 2.95334 28.4866 2.86598C28.7552 3.16734 28.9021 3.55187 28.9021 3.95928Z" fill="#095052"/>
<path d="M31.0104 20.2721C31.2908 19.8754 31.7631 19.6572 32.2433 19.701C34.3223 19.8944 36.3716 19.4313 38.1306 18.4063C38.1393 18.4017 38.1481 18.3964 38.1565 18.3914C39.5698 17.5621 40.8005 16.3643 41.6763 14.8777C41.6893 14.8575 41.7019 14.8365 41.7129 14.8152C42.4717 13.5044 42.9245 12.0278 43.0218 10.4931C43.0473 10.0891 42.7406 9.74124 42.337 9.71568C41.9334 9.69165 41.5851 9.99683 41.5596 10.4004C41.497 11.3869 41.2624 12.3452 40.8729 13.2359C40.3492 12.8605 39.7232 12.6583 39.0659 12.6583C38.2347 12.6583 37.4534 12.9818 36.8656 13.5697C36.2778 14.1575 35.9539 14.9391 35.9539 15.7704C35.9539 16.4276 36.1565 17.0536 36.5318 17.5774C35.244 18.1401 33.8199 18.3762 32.3791 18.2423C31.3793 18.1492 30.3955 18.6032 29.8138 19.4268C27.5509 22.6307 24.7787 25.4029 21.5748 27.6657C20.7512 28.2475 20.2972 29.2305 20.3903 30.2311C20.5242 31.6719 20.2881 33.0963 19.7254 34.3842C18.5108 33.5167 16.8072 33.6277 15.7177 34.7176C15.1298 35.305 14.8064 36.0867 14.8064 36.9179C14.8064 37.5771 15.0101 38.2054 15.3877 38.7303C14.2799 39.2159 13.0688 39.457 11.8168 39.4261C10.7017 39.4005 9.6279 39.1613 8.63913 38.7287C9.01602 38.2042 9.21935 37.5767 9.21935 36.9179C9.21935 36.0867 8.89586 35.305 8.30802 34.7176C7.72017 34.1297 6.93854 33.8059 6.10732 33.8059C5.45157 33.8059 4.82672 34.0073 4.30373 34.3811C3.37828 32.2418 3.37943 29.7829 4.30449 27.6444C4.82748 28.0178 5.45195 28.2189 6.10732 28.2189C6.93854 28.2189 7.72017 27.8954 8.30802 27.3075C8.89548 26.7197 9.21935 25.9384 9.21935 25.1072C9.21935 24.4496 9.01679 23.8236 8.6418 23.2998C8.8745 23.198 9.11215 23.1068 9.35324 23.0267C9.73738 22.8993 9.94566 22.4846 9.81825 22.1009C9.69084 21.7167 9.27657 21.5084 8.89243 21.6358C8.25842 21.846 7.64731 22.1218 7.06938 22.4568C7.05641 22.4633 7.04344 22.4701 7.03085 22.4778C5.56868 23.3322 4.33768 24.5602 3.47823 26.0308C3.46678 26.0506 3.4561 26.0708 3.44656 26.0914C1.36717 29.7329 1.78603 34.4612 4.70236 37.6602C6.54372 39.6805 9.05837 40.828 11.7832 40.8909C17.704 41.0336 22.3953 35.9688 21.849 30.0957C21.8044 29.615 22.0234 29.1428 22.4201 28.8624C25.7606 26.503 28.6507 23.6126 31.0104 20.2721ZM37.4187 15.7704C37.4187 15.3302 37.59 14.9166 37.9013 14.6054C38.2122 14.2945 38.6257 14.1232 39.0659 14.1232C39.4733 14.1232 39.8579 14.27 40.1596 14.539C39.8548 14.9948 39.5046 15.4229 39.1113 15.8158C38.7173 16.2102 38.2892 16.5604 37.8349 16.8644C37.566 16.5627 37.4187 16.1778 37.4187 15.7704ZM7.75412 25.1072C7.75412 25.5471 7.58284 25.9606 7.27194 26.2718C6.96066 26.5831 6.54715 26.754 6.10732 26.754C5.69991 26.754 5.31538 26.6075 5.01364 26.339C5.11054 26.1936 5.21239 26.0506 5.31882 25.9106C5.48476 25.6935 5.66061 25.4845 5.84677 25.2842C5.85936 25.2709 5.87195 25.2575 5.88454 25.2438C5.8853 25.2434 5.88568 25.2426 5.88606 25.2423C6.32437 24.778 6.81265 24.366 7.3387 24.0139C7.60725 24.3153 7.75412 24.7002 7.75412 25.1072ZM5.78459 36.6734C5.49925 36.3606 5.24214 36.0306 5.01326 35.6869C5.315 35.418 5.69952 35.2711 6.10732 35.2711C6.54715 35.2711 6.96066 35.4424 7.27156 35.7533C7.58284 36.0646 7.75412 36.4781 7.75412 36.9179C7.75412 37.3261 7.60649 37.7117 7.33641 38.0139C6.77489 37.637 6.25418 37.1884 5.78459 36.6734ZM16.687 38.0123C16.4181 37.7106 16.2712 37.3257 16.2712 36.9179C16.2712 36.4781 16.4425 36.0646 16.7534 35.7533C17.0746 35.4325 17.4961 35.2719 17.918 35.2719C18.3098 35.2719 18.7012 35.41 19.0121 35.6869C18.4177 36.5757 17.6342 37.3787 16.687 38.0123Z" fill="#095052"/>
<path d="M47.9004 38.1217C47.9004 34.7347 46.4756 31.6745 44.194 29.5085C44.1616 29.4704 44.1253 29.4349 44.0841 29.4029C44.0788 29.3987 44.0731 29.3945 44.0677 29.3903C41.9498 27.4375 39.1227 26.2432 36.0221 26.2432C34.9727 26.2432 33.9317 26.3801 32.9277 26.6506C32.537 26.7555 32.3059 27.1575 32.4111 27.5482C32.5161 27.9388 32.9181 28.1703 33.3087 28.0651C34.1884 27.8282 35.1013 27.708 36.0221 27.708C38.5341 27.708 40.8416 28.6022 42.6422 30.0891C42.3587 30.4943 42.0974 30.9162 41.8621 31.3491C41.463 32.0823 41.0362 32.7987 40.5933 33.4785C39.6701 34.8957 39.1822 36.5013 39.1822 38.1214C39.1822 39.7419 39.6701 41.3475 40.5933 42.7646C41.0362 43.4448 41.463 44.1612 41.8621 44.894C42.0974 45.327 42.3587 45.7489 42.6422 46.154C40.8416 47.6409 38.5341 48.5351 36.0221 48.5351C33.5102 48.5351 31.2027 47.6409 29.4021 46.154C29.6855 45.7485 29.9469 45.327 30.1822 44.894C30.5816 44.1608 31.0081 43.4444 31.451 42.7646C32.3741 41.3475 32.862 39.7419 32.862 38.1214C32.862 36.5009 32.3741 34.8957 31.451 33.4785C31.0081 32.7987 30.5812 32.0823 30.1822 31.3491C29.9465 30.915 29.6844 30.4924 29.3998 30.0861C29.8309 29.7294 30.2936 29.4052 30.7846 29.1187C31.134 28.915 31.2522 28.4668 31.0485 28.1169C30.8448 27.7679 30.3962 27.6496 30.0468 27.8533C29.2835 28.2985 28.5808 28.823 27.9468 29.4132C27.9205 29.4349 27.8961 29.4578 27.8732 29.4822C25.5275 31.7031 24.1436 34.8278 24.1436 38.1217C24.1436 41.5084 25.5683 44.5686 27.8499 46.7346C27.8823 46.7727 27.919 46.8082 27.9598 46.8402C27.9651 46.8444 27.9705 46.8486 27.9762 46.8528C30.0937 48.8056 32.9212 50 36.0218 50C39.1227 50 41.9502 48.8056 44.0677 46.8528C44.0734 46.8486 44.0788 46.8444 44.0841 46.8402C44.1253 46.8082 44.1616 46.7727 44.194 46.7346C46.4756 44.5686 47.9004 41.5084 47.9004 38.1217ZM25.6088 38.1217C25.6088 35.503 26.6067 33.0059 28.3268 31.1111C28.5308 31.4155 28.7212 31.7287 28.8955 32.0491C29.3129 32.8163 29.7596 33.5662 30.2234 34.2781C31.002 35.4736 31.3968 36.7664 31.3968 38.1214C31.3968 39.4763 31.002 40.7695 30.2234 41.9651C29.7596 42.6769 29.3129 43.4268 28.8955 44.194C28.7212 44.514 28.5312 44.8272 28.3271 45.1309C26.6391 43.2792 25.6088 40.8184 25.6088 38.1217ZM41.8205 41.9651C41.0419 40.7695 40.6471 39.4763 40.6471 38.1214C40.6471 36.7664 41.0419 35.4736 41.8209 34.2781C42.2847 33.5659 42.7314 32.8159 43.1488 32.0491C43.3227 31.7291 43.5127 31.4159 43.7168 31.1122C45.4048 32.9635 46.4355 35.4244 46.4355 38.1214C46.4355 40.8184 45.4048 43.2792 43.7168 45.1309C43.5127 44.8272 43.3227 44.5137 43.1488 44.194C42.7314 43.4272 42.2847 42.6773 41.8205 41.9651Z" fill="#095052"/>
</g>
<defs>
<clipPath id="clip0_1_974">
<rect width="50" height="50" fill="white"/>
</clipPath>
</defs>
</svg>
