<svg width="50" height="50" viewBox="0 0 50 50" fill="none" xmlns="http://www.w3.org/2000/svg">
<g clip-path="url(#clip0_1_958)">
<path d="M48.6194 27.9621C47.6425 26.9852 46.3162 26.5011 44.9772 26.59C45.0666 25.251 44.5821 23.9247 43.6053 22.9479C41.7644 21.1072 38.7692 21.1072 36.9284 22.9479C35.2637 24.6126 35.1045 27.2215 36.4505 29.0668L35.7378 29.7796C35.4518 30.0656 35.4518 30.5294 35.7378 30.8154C36.0239 31.1013 36.4876 31.1014 36.7737 30.8153L37.9642 29.6248C38.2502 29.3387 38.2502 28.8751 37.9642 28.589C36.6947 27.3193 36.6947 25.2535 37.9642 23.9839C39.2338 22.7141 41.2999 22.7141 42.5694 23.9839C43.4344 24.8488 43.739 26.1125 43.3644 27.2817C43.2807 27.543 43.3501 27.8292 43.5441 28.0231C43.7381 28.2171 44.0243 28.2864 44.2856 28.2026C45.4546 27.828 46.7183 28.1326 47.5835 28.9978C48.8531 30.2675 48.8531 32.3333 47.5835 33.6029C46.9684 34.2179 46.1506 34.5567 45.2808 34.5567C44.4111 34.5567 43.5933 34.2179 42.9783 33.6029C42.6922 33.317 42.2285 33.317 41.9424 33.6029L35.0484 40.497C34.7624 40.7831 34.7624 41.2468 35.0484 41.5329C35.6634 42.1478 36.0021 42.9657 36.0021 43.8354C36.0021 44.7053 35.6633 45.5231 35.0484 46.1381C33.7788 47.4077 31.7129 47.4077 30.4432 46.1382C29.578 45.2729 29.2734 44.0093 29.6481 42.8403C29.7318 42.579 29.6625 42.2928 29.4686 42.0988C29.2747 41.9049 28.9886 41.8356 28.7272 41.9191C27.558 42.2939 26.2942 41.989 25.4292 41.124C24.8141 40.5091 24.4754 39.6913 24.4754 38.8215C24.4754 37.9516 24.8142 37.1339 25.4292 36.5189C26.6989 35.2491 28.7648 35.2492 30.0343 36.5189C30.1716 36.6562 30.358 36.7334 30.5523 36.7334C30.7466 36.7334 30.9329 36.6562 31.0703 36.5189L34.3576 33.2315C34.6436 32.9454 34.6436 32.4817 34.3576 32.1956C34.0715 31.9096 33.6078 31.9096 33.3217 32.1956L30.5123 35.0052C28.6668 33.6593 26.058 33.8184 24.3933 35.4831C23.5015 36.3748 23.0105 37.5604 23.0105 38.8215C23.0105 40.0826 23.5016 41.2682 24.3933 42.1598C25.37 43.1367 26.6961 43.621 28.0354 43.5318C27.946 44.8706 28.4305 46.1971 29.4074 47.1741C30.3278 48.0945 31.5368 48.5547 32.7458 48.5547C33.9549 48.5547 35.1639 48.0945 36.0843 47.1741C37.749 45.5094 37.9083 42.9005 36.5622 41.0552L42.5005 35.1168C44.3459 36.4627 46.9548 36.3035 48.6195 34.6389C50.4603 32.7981 50.4603 29.8028 48.6194 27.9621Z" fill="#095052"/>
<path d="M40.8907 26.095C41.2168 26.0421 41.4383 25.7349 41.3854 25.4088C41.3325 25.0827 41.0253 24.8612 40.6992 24.914C40.3731 24.9669 40.1516 25.2741 40.2045 25.6002C40.2573 25.9263 40.5646 26.1478 40.8907 26.095Z" fill="#61BC47"/>
<path d="M40.1114 30.5559C40.4375 30.503 40.659 30.1958 40.6061 29.8697C40.5532 29.5436 40.246 29.3221 39.9199 29.375C39.5938 29.4278 39.3723 29.7351 39.4252 30.0612C39.4781 30.3873 39.7853 30.6088 40.1114 30.5559Z" fill="#61BC47"/>
<path d="M43.4644 30.3851C43.698 30.1515 43.698 29.7728 43.4644 29.5392C43.2308 29.3056 42.8521 29.3056 42.6185 29.5392C42.3849 29.7728 42.3849 30.1515 42.6185 30.3851C42.8521 30.6187 43.2308 30.6187 43.4644 30.3851Z" fill="#61BC47"/>
<path d="M25.9015 24.6153C32.2894 24.6153 37.4864 19.4183 37.4864 13.0304C37.4864 6.64253 32.2894 1.44556 25.9015 1.44556C23.4506 1.44556 21.1082 2.20132 19.1275 3.6312C18.7995 3.86802 18.7256 4.32583 18.9624 4.65376C19.1992 4.98188 19.6571 5.05581 19.985 4.81899C21.7144 3.57046 23.7603 2.9106 25.9015 2.9106C31.4816 2.9106 36.0215 7.45034 36.0215 13.0305C36.0215 18.6107 31.4817 23.1504 25.9015 23.1504C20.3214 23.1504 15.7816 18.6107 15.7816 13.0305C15.7816 10.8687 16.4535 8.80679 17.7247 7.06782C17.9635 6.74126 17.8922 6.28296 17.5656 6.04429C17.239 5.80552 16.7807 5.87671 16.5421 6.20337C15.0862 8.19487 14.3168 10.5558 14.3168 13.0305C14.3167 19.4183 19.5136 24.6153 25.9015 24.6153Z" fill="#095052"/>
<path d="M21.1626 13.0303C21.1626 15.6435 23.2885 17.7694 25.9017 17.7694C28.5147 17.7694 30.6407 15.6435 30.6407 13.0303C30.6407 10.4171 28.5148 8.29126 25.9017 8.29126C23.2885 8.29126 21.1626 10.4171 21.1626 13.0303ZM25.9016 9.7562C27.7069 9.7562 29.1756 11.225 29.1756 13.0303C29.1756 14.8357 27.7068 16.3044 25.9016 16.3044C24.0963 16.3044 22.6275 14.8357 22.6275 13.0303C22.6275 11.225 24.0963 9.7562 25.9016 9.7562Z" fill="#61BC47"/>
<path d="M30.3177 7.44746C30.6066 7.15853 30.6066 6.6901 30.3177 6.40118C30.0288 6.11226 29.5603 6.11226 29.2714 6.40118C28.9825 6.6901 28.9825 7.15853 29.2714 7.44745C29.5603 7.73638 30.0288 7.73638 30.3177 7.44746Z" fill="#61BC47"/>
<path d="M26.0668 6.52291C26.4644 6.42892 26.7106 6.03039 26.6166 5.63276C26.5226 5.23514 26.1241 4.989 25.7264 5.08299C25.3288 5.17698 25.0827 5.57551 25.1767 5.97314C25.2706 6.37076 25.6692 6.6169 26.0668 6.52291Z" fill="#61BC47"/>
<path d="M18.8708 27.7757C18.026 27.7757 17.2205 28.03 16.5414 28.5025L16.534 28.4951C16.2479 28.2092 15.7842 28.2092 15.4981 28.4951C15.2121 28.7812 15.2121 29.2449 15.4981 29.531L15.9777 30.0106C16.1151 30.1479 16.3015 30.2251 16.4958 30.2251C16.6901 30.2251 16.8765 30.1478 17.0138 30.0104C17.5098 29.514 18.1692 29.2407 18.8709 29.2407C19.5725 29.2407 20.2319 29.514 20.7283 30.0108C21.2247 30.5068 21.498 31.1663 21.498 31.8678C21.498 32.5693 21.2247 33.2289 20.7278 33.7253C20.0309 34.4227 19.0117 34.6687 18.0676 34.3667C17.8063 34.2829 17.5204 34.3525 17.3266 34.5464C17.1326 34.7403 17.0633 35.0262 17.1469 35.2875C17.4488 36.2315 17.2031 37.2509 16.5051 37.9481C16.0091 38.4445 15.3496 38.7178 14.648 38.7178C13.9465 38.7178 13.287 38.4445 12.7906 37.9477C12.2943 37.4518 12.0209 36.7923 12.0209 36.0907C12.0209 35.3892 12.2943 34.7297 12.7906 34.2338C12.928 34.0965 13.0053 33.91 13.0054 33.7157C13.0054 33.5215 12.9282 33.335 12.7908 33.1976L6.98378 27.3905C6.84647 27.2532 6.66014 27.1761 6.46581 27.1761C6.27157 27.1761 6.08524 27.2532 5.94784 27.3906C4.92382 28.4145 3.25712 28.4145 2.23231 27.3905C1.20839 26.3666 1.20839 24.6998 2.23202 23.6755C2.93065 22.9775 3.95048 22.7321 4.89335 23.0343C5.15448 23.1179 5.44071 23.0487 5.63475 22.8549C5.8288 22.6609 5.89823 22.375 5.81464 22.1136C5.51268 21.1697 5.75848 20.1499 6.45624 19.4522C7.48036 18.428 9.14667 18.4282 10.1708 19.4521C10.6673 19.9486 10.9407 20.6086 10.9407 21.3103C10.9407 22.0119 10.6673 22.6716 10.171 23.1676C10.0335 23.3049 9.95634 23.4912 9.95624 23.6855C9.95624 23.8798 10.0334 24.0662 10.1708 24.2036L13.0821 27.1149C13.3682 27.4009 13.8319 27.4009 14.118 27.1149C14.404 26.8288 14.404 26.3651 14.118 26.079L11.6788 23.6399C12.1513 22.9607 12.4057 22.1552 12.4057 21.3104C12.4057 20.2175 11.9799 19.1896 11.2066 18.4164C9.61141 16.8212 7.01561 16.8212 5.4204 18.4164C4.60546 19.2314 4.18573 20.3277 4.2246 21.4441C3.10839 21.4043 2.01229 21.8245 1.19628 22.6395C-0.398547 24.2355 -0.39845 26.8316 1.19667 28.4266C2.61571 29.8449 4.82557 30.0018 6.41932 28.898L11.2828 33.7616C10.8102 34.4407 10.5559 35.2462 10.5559 36.0909C10.5559 37.184 10.9818 38.2115 11.7548 38.9839C12.5275 39.7571 13.555 40.1829 14.648 40.1829C15.7411 40.1829 16.7686 39.757 17.5408 38.9844C18.3562 38.1698 18.776 37.0737 18.7369 35.9569C19.8541 35.9948 20.9497 35.5762 21.7639 34.7613C22.5372 33.9886 22.9631 32.961 22.9631 31.868C22.9631 30.775 22.5372 29.7474 21.7642 28.9752C20.9913 28.2014 19.9638 27.7757 18.8708 27.7757Z" fill="#61BC47"/>
</g>
<defs>
<clipPath id="clip0_1_958">
<rect width="50" height="50" fill="white"/>
</clipPath>
</defs>
</svg>
