<svg width="101" height="101" viewBox="0 0 101 101" fill="none" xmlns="http://www.w3.org/2000/svg">
<g clip-path="url(#clip0_1_755)">
<path d="M59.4462 96.9912C59.2407 96.9914 59.0373 96.951 58.8474 96.8724C58.6576 96.7938 58.4851 96.6786 58.3398 96.5333C58.1945 96.388 58.0793 96.2155 58.0007 96.0257C57.9221 95.8358 57.8817 95.6323 57.8818 95.4269C57.8846 92.9383 58.8743 90.5525 60.634 88.7928C62.3937 87.0331 64.7795 86.0433 67.2681 86.0406C67.683 86.0406 68.0809 86.2054 68.3743 86.4988C68.6676 86.7922 68.8325 87.1901 68.8325 87.605C68.8325 88.0199 68.6676 88.4178 68.3743 88.7112C68.0809 89.0046 67.683 89.1694 67.2681 89.1694C65.609 89.171 64.0183 89.8308 62.8452 91.004C61.672 92.1771 61.0122 93.7678 61.0106 95.4269C61.0107 95.6323 60.9703 95.8358 60.8917 96.0257C60.8132 96.2155 60.6979 96.388 60.5527 96.5333C60.4074 96.6786 60.2349 96.7938 60.045 96.8724C59.8552 96.951 59.6517 96.9914 59.4462 96.9912Z" fill="#095052"/>
<path d="M71.9614 89.1694H67.2682C66.8533 89.1694 66.4554 89.0046 66.1621 88.7112C65.8687 88.4178 65.7039 88.0199 65.7039 87.605C65.7039 87.1901 65.8687 86.7922 66.1621 86.4988C66.4554 86.2054 66.8533 86.0406 67.2682 86.0406H71.9614C72.3763 86.0406 72.7742 86.2054 73.0675 86.4988C73.3609 86.7922 73.5257 87.1901 73.5257 87.605C73.5257 88.0199 73.3609 88.4178 73.0675 88.7112C72.7742 89.0046 72.3763 89.1694 71.9614 89.1694Z" fill="#095052"/>
<path d="M59.4462 100.115C59.2407 100.116 59.0373 100.075 58.8474 99.9966C58.6576 99.918 58.4851 99.8028 58.3398 99.6575C58.1945 99.5122 58.0793 99.3397 58.0007 99.1498C57.9221 98.96 57.8817 98.7565 57.8818 98.551V95.4269C57.8818 95.012 58.0467 94.6141 58.34 94.3207C58.6334 94.0273 59.0313 93.8625 59.4462 93.8625C59.8611 93.8625 60.259 94.0273 60.5524 94.3207C60.8458 94.6141 61.0106 95.012 61.0106 95.4269V98.551C61.0107 98.7565 60.9703 98.96 60.8917 99.1498C60.8132 99.3397 60.6979 99.5122 60.5527 99.6575C60.4074 99.8028 60.2349 99.918 60.045 99.9966C59.8552 100.075 59.6517 100.116 59.4462 100.115Z" fill="black"/>
<path d="M96.9912 96.9912C96.7858 96.9914 96.5823 96.951 96.3924 96.8724C96.2026 96.7938 96.0301 96.6786 95.8848 96.5333C95.7395 96.388 95.6243 96.2155 95.5457 96.0257C95.4671 95.8358 95.4267 95.6323 95.4269 95.4269C95.4252 93.7678 94.7654 92.1771 93.5922 91.004C92.4191 89.8308 90.8284 89.171 89.1694 89.1694C88.7545 89.1694 88.3566 89.0046 88.0632 88.7112C87.7698 88.4178 87.605 88.0199 87.605 87.605C87.605 87.1901 87.7698 86.7922 88.0632 86.4988C88.3566 86.2054 88.7545 86.0406 89.1694 86.0406C91.6579 86.0433 94.0438 87.0331 95.8034 88.7928C97.5631 90.5525 98.5529 92.9383 98.5556 95.4269C98.5557 95.6323 98.5153 95.8358 98.4368 96.0257C98.3582 96.2155 98.243 96.388 98.0977 96.5333C97.9524 96.6786 97.7799 96.7938 97.59 96.8724C97.4002 96.951 97.1967 96.9914 96.9912 96.9912Z" fill="#095052"/>
<path d="M89.1694 89.1694H84.4762C84.0613 89.1694 83.6634 89.0046 83.3701 88.7112C83.0767 88.4178 82.9119 88.0199 82.9119 87.605C82.9119 87.1901 83.0767 86.7922 83.3701 86.4988C83.6634 86.2054 84.0613 86.0406 84.4762 86.0406H89.1694C89.5843 86.0406 89.9822 86.2054 90.2755 86.4988C90.5689 86.7922 90.7337 87.1901 90.7337 87.605C90.7337 88.0199 90.5689 88.4178 90.2755 88.7112C89.9822 89.0046 89.5843 89.1694 89.1694 89.1694Z" fill="#095052"/>
<path d="M96.9911 100.115C96.7857 100.116 96.5822 100.075 96.3923 99.9966C96.2025 99.918 96.03 99.8028 95.8847 99.6575C95.7394 99.5122 95.6242 99.3397 95.5456 99.1498C95.467 98.96 95.4266 98.7565 95.4268 98.551V95.4269C95.4268 95.012 95.5916 94.6141 95.885 94.3207C96.1783 94.0273 96.5762 93.8625 96.9911 93.8625C97.406 93.8625 97.8039 94.0273 98.0973 94.3207C98.3907 94.6141 98.5555 95.012 98.5555 95.4269V98.551C98.5556 98.7565 98.5152 98.96 98.4367 99.1498C98.3581 99.3397 98.2429 99.5122 98.0976 99.6575C97.9523 99.8028 97.7798 99.918 97.5899 99.9966C97.4001 100.075 97.1966 100.116 96.9911 100.115Z" fill="black"/>
<path d="M71.9613 89.1694C71.7559 89.1695 71.5524 89.1291 71.3626 89.0505C71.1727 88.972 71.0002 88.8567 70.8549 88.7114C70.7096 88.5662 70.5944 88.3936 70.5158 88.2038C70.4372 88.0139 70.3969 87.8105 70.397 87.605V81.4483C70.397 81.0334 70.5618 80.6355 70.8552 80.3421C71.1485 80.0488 71.5465 79.8839 71.9613 79.8839C72.3762 79.8839 72.7742 80.0488 73.0675 80.3421C73.3609 80.6355 73.5257 81.0334 73.5257 81.4483V87.605C73.5258 87.8105 73.4855 88.0139 73.4069 88.2038C73.3283 88.3936 73.2131 88.5662 73.0678 88.7114C72.9225 88.8567 72.75 88.972 72.5601 89.0505C72.3703 89.1291 72.1668 89.1695 71.9613 89.1694Z" fill="#095052"/>
<path d="M84.4762 89.1694C84.2708 89.1695 84.0673 89.1291 83.8774 89.0505C83.6876 88.972 83.5151 88.8567 83.3698 88.7114C83.2245 88.5662 83.1093 88.3936 83.0307 88.2038C82.9521 88.0139 82.9117 87.8105 82.9119 87.605V81.4483C82.9119 81.0334 83.0767 80.6355 83.3701 80.3421C83.6634 80.0488 84.0613 79.8839 84.4762 79.8839C84.8911 79.8839 85.289 80.0488 85.5824 80.3421C85.8758 80.6355 86.0406 81.0334 86.0406 81.4483V87.605C86.0407 87.8105 86.0003 88.0139 85.9218 88.2038C85.8432 88.3936 85.728 88.5662 85.5827 88.7114C85.4374 88.8567 85.2649 88.972 85.075 89.0505C84.8852 89.1291 84.6817 89.1695 84.4762 89.1694Z" fill="#095052"/>
<path d="M75.0884 90.7338C74.846 90.7335 74.607 90.6771 74.3902 90.5688L71.2614 89.0044C70.8913 88.8182 70.6102 88.4929 70.4796 88.0997C70.3491 87.7065 70.3798 87.2775 70.5651 86.907C70.7504 86.5364 71.0751 86.2545 71.468 86.123C71.8608 85.9915 72.2898 86.0212 72.6608 86.2056L75.7896 87.77C76.105 87.9276 76.3579 88.1872 76.5073 88.5066C76.6567 88.826 76.6938 89.1865 76.6127 89.5296C76.5315 89.8727 76.3367 90.1784 76.0601 90.3969C75.7834 90.6155 75.441 90.7342 75.0884 90.7338Z" fill="#095052"/>
<path d="M75.0915 90.7338C74.7389 90.7342 74.3965 90.6155 74.1198 90.3969C73.8431 90.1784 73.6484 89.8727 73.5672 89.5296C73.486 89.1865 73.5231 88.826 73.6725 88.5066C73.8219 88.1872 74.0748 87.9276 74.3902 87.77L77.519 86.2056C77.89 86.0212 78.319 85.9915 78.7119 86.123C79.1048 86.2545 79.4295 86.5364 79.6148 86.907C79.8 87.2775 79.8308 87.7065 79.7002 88.0997C79.5697 88.4929 79.2885 88.8182 78.9184 89.0044L75.7896 90.5688C75.5728 90.6771 75.3338 90.7335 75.0915 90.7338Z" fill="#095052"/>
<path d="M81.349 90.7338C80.9964 90.7342 80.654 90.6155 80.3773 90.3969C80.1007 90.1784 79.9059 89.8727 79.8247 89.5296C79.7436 89.1865 79.7807 88.826 79.9301 88.5066C80.0795 88.1872 80.3324 87.9276 80.6478 87.77L83.7766 86.2056C84.1476 86.0212 84.5766 85.9915 84.9695 86.123C85.3623 86.2545 85.687 86.5364 85.8723 86.907C86.0576 87.2775 86.0883 87.7065 85.9578 88.0997C85.8273 88.4929 85.5461 88.8182 85.176 89.0044L82.0472 90.5688C81.8304 90.6771 81.5914 90.7335 81.349 90.7338Z" fill="#095052"/>
<path d="M81.3459 90.7338C81.1036 90.7335 80.8646 90.6771 80.6478 90.5688L77.519 89.0044C77.1489 88.8182 76.8677 88.4929 76.7372 88.0997C76.6066 87.7065 76.6374 87.2775 76.8226 86.907C77.0079 86.5364 77.3326 86.2545 77.7255 86.123C78.1184 85.9915 78.5474 86.0212 78.9184 86.2056L82.0472 87.77C82.3626 87.9276 82.6155 88.1872 82.7649 88.5066C82.9143 88.826 82.9514 89.1865 82.8702 89.5296C82.789 89.8727 82.5943 90.1784 82.3176 90.3969C82.0409 90.6155 81.6985 90.7342 81.3459 90.7338Z" fill="#095052"/>
<path d="M3.12883 96.9897C2.92336 96.9898 2.71988 96.9494 2.53003 96.8709C2.34017 96.7923 2.16767 96.6771 2.02238 96.5318C1.87709 96.3865 1.76187 96.214 1.68329 96.0241C1.60472 95.8343 1.56433 95.6308 1.56445 95.4253C1.56717 92.9368 2.55695 90.5509 4.31663 88.7912C6.0763 87.0316 8.46215 86.0418 10.9507 86.0391C11.3656 86.0391 11.7635 86.2039 12.0569 86.4973C12.3503 86.7906 12.5151 87.1885 12.5151 87.6034C12.5151 88.0183 12.3503 88.4162 12.0569 88.7096C11.7635 89.003 11.3656 89.1678 10.9507 89.1678C9.29162 89.1695 7.70096 89.8293 6.52781 91.0024C5.35466 92.1756 4.69486 93.7662 4.6932 95.4253C4.69332 95.6308 4.65294 95.8343 4.57436 96.0241C4.49579 96.214 4.38056 96.3865 4.23527 96.5318C4.08998 96.6771 3.91748 96.7923 3.72763 96.8709C3.53778 96.9494 3.3343 96.9898 3.12883 96.9897Z" fill="#095052"/>
<path d="M15.6437 89.1678H10.9506C10.5357 89.1678 10.1378 89.003 9.84443 88.7096C9.55105 88.4162 9.38623 88.0183 9.38623 87.6034C9.38623 87.1885 9.55105 86.7906 9.84443 86.4973C10.1378 86.2039 10.5357 86.0391 10.9506 86.0391H15.6437C16.0586 86.0391 16.4565 86.2039 16.7499 86.4973C17.0433 86.7906 17.2081 87.1885 17.2081 87.6034C17.2081 88.0183 17.0433 88.4162 16.7499 88.7096C16.4565 89.003 16.0586 89.1678 15.6437 89.1678Z" fill="#095052"/>
<path d="M3.12883 100.115C2.92336 100.116 2.71988 100.075 2.53003 99.9966C2.34018 99.918 2.16768 99.8028 2.02239 99.6575C1.8771 99.5122 1.76187 99.3397 1.6833 99.1498C1.60472 98.96 1.56434 98.7565 1.56445 98.551V95.4253C1.56445 95.0104 1.72927 94.6125 2.02265 94.3191C2.31603 94.0257 2.71393 93.8609 3.12883 93.8609C3.54373 93.8609 3.94163 94.0257 4.23501 94.3191C4.52839 94.6125 4.6932 95.0104 4.6932 95.4253V98.5509C4.69334 98.7564 4.65296 98.9599 4.57439 99.1498C4.49582 99.3396 4.3806 99.5121 4.23531 99.6574C4.09002 99.8027 3.91751 99.918 3.72765 99.9966C3.53779 100.075 3.33431 100.116 3.12883 100.115Z" fill="black"/>
<path d="M40.6738 96.9897C40.4684 96.9898 40.2649 96.9494 40.075 96.8709C39.8852 96.7923 39.7127 96.6771 39.5674 96.5318C39.4221 96.3865 39.3069 96.214 39.2283 96.0241C39.1497 95.8343 39.1094 95.6308 39.1095 95.4253C39.1078 93.7662 38.448 92.1756 37.2749 91.0024C36.1017 89.8293 34.5111 89.1695 32.852 89.1678C32.4371 89.1678 32.0392 89.003 31.7458 88.7096C31.4524 88.4162 31.2876 88.0183 31.2876 87.6034C31.2876 87.1885 31.4524 86.7906 31.7458 86.4973C32.0392 86.2039 32.4371 86.0391 32.852 86.0391C35.3405 86.0418 37.7264 87.0316 39.486 88.7912C41.2457 90.5509 42.2355 92.9368 42.2382 95.4253C42.2383 95.6308 42.198 95.8343 42.1194 96.0241C42.0408 96.214 41.9256 96.3865 41.7803 96.5318C41.635 96.6771 41.4625 96.7923 41.2726 96.8709C41.0828 96.9494 40.8793 96.9898 40.6738 96.9897Z" fill="#095052"/>
<path d="M32.852 89.1678H28.1589C27.744 89.1678 27.3461 89.003 27.0527 88.7096C26.7593 88.4162 26.5945 88.0183 26.5945 87.6034C26.5945 87.1885 26.7593 86.7906 27.0527 86.4973C27.3461 86.2039 27.744 86.0391 28.1589 86.0391H32.852C33.2669 86.0391 33.6648 86.2039 33.9582 86.4973C34.2515 86.7906 34.4164 87.1885 34.4164 87.6034C34.4164 88.0183 34.2515 88.4162 33.9582 88.7096C33.6648 89.003 33.2669 89.1678 32.852 89.1678Z" fill="#095052"/>
<path d="M40.6738 100.115C40.4683 100.116 40.2648 100.075 40.075 99.9966C39.8851 99.918 39.7126 99.8028 39.5673 99.6575C39.422 99.5122 39.3068 99.3397 39.2282 99.1498C39.1496 98.96 39.1093 98.7565 39.1094 98.551V95.4253C39.1094 95.0104 39.2742 94.6125 39.5676 94.3191C39.8609 94.0257 40.2589 93.8609 40.6738 93.8609C41.0887 93.8609 41.4866 94.0257 41.7799 94.3191C42.0733 94.6125 42.2381 95.0104 42.2381 95.4253V98.5509C42.2383 98.7564 42.1979 98.9599 42.1193 99.1498C42.0407 99.3396 41.9255 99.5121 41.7802 99.6574C41.6349 99.8027 41.4624 99.918 41.2726 99.9966C41.0827 100.075 40.8792 100.116 40.6738 100.115Z" fill="black"/>
<path d="M15.6437 89.1678C15.4383 89.168 15.2348 89.1276 15.0449 89.049C14.8551 88.9704 14.6826 88.8552 14.5373 88.7099C14.392 88.5646 14.2768 88.3921 14.1982 88.2023C14.1196 88.0124 14.0792 87.8089 14.0793 87.6035V81.4468C14.0793 81.0319 14.2442 80.634 14.5375 80.3406C14.8309 80.0473 15.2288 79.8824 15.6437 79.8824C16.0586 79.8824 16.4565 80.0473 16.7499 80.3406C17.0433 80.634 17.2081 81.0319 17.2081 81.4468V87.6035C17.2082 87.8089 17.1678 88.0124 17.0893 88.2023C17.0107 88.3921 16.8955 88.5646 16.7502 88.7099C16.6049 88.8552 16.4324 88.9704 16.2425 89.049C16.0527 89.1276 15.8492 89.168 15.6437 89.1678Z" fill="#095052"/>
<path d="M28.1589 89.1678C27.9534 89.168 27.7499 89.1276 27.5601 89.049C27.3702 88.9704 27.1977 88.8552 27.0524 88.7099C26.9071 88.5646 26.7919 88.3921 26.7133 88.2023C26.6347 88.0124 26.5944 87.8089 26.5945 87.6035V81.4468C26.5945 81.0319 26.7593 80.634 27.0527 80.3406C27.3461 80.0473 27.744 79.8824 28.1589 79.8824C28.5738 79.8824 28.9717 80.0473 29.265 80.3406C29.5584 80.634 29.7232 81.0319 29.7232 81.4468V87.6035C29.7234 87.8089 29.683 88.0124 29.6044 88.2023C29.5258 88.3921 29.4106 88.5646 29.2653 88.7099C29.12 88.8552 28.9475 88.9704 28.7577 89.049C28.5678 89.1276 28.3643 89.168 28.1589 89.1678Z" fill="#095052"/>
<path d="M21.8983 84.4747C17.7516 84.4699 13.7761 82.8205 10.844 79.8883C7.91181 76.9562 6.2624 72.9807 6.25757 68.8341C6.25757 68.4192 6.42239 68.0213 6.71576 67.7279C7.00914 67.4345 7.40705 67.2697 7.82194 67.2697C8.23684 67.2697 8.63475 67.4345 8.92812 67.7279C9.2215 68.0213 9.38632 68.4192 9.38632 68.8341C9.38632 72.1532 10.7049 75.3365 13.0519 77.6835C15.3989 80.0305 18.5821 81.3491 21.9013 81.3491C25.2205 81.3491 28.4037 80.0305 30.7508 77.6835C33.0978 75.3365 34.4163 72.1532 34.4163 68.8341C34.4163 68.4192 34.5811 68.0213 34.8745 67.7279C35.1679 67.4345 35.5658 67.2697 35.9807 67.2697C36.3956 67.2697 36.7935 67.4345 37.0869 67.7279C37.3803 68.0213 37.5451 68.4192 37.5451 68.8341C37.5394 72.9815 35.8888 76.9574 32.9556 79.8895C30.0223 82.8217 26.0457 84.4706 21.8983 84.4747Z" fill="#095052"/>
<path d="M40.6738 61.8111C40.4683 61.8113 40.2648 61.7709 40.075 61.6923C39.8851 61.6137 39.7126 61.4985 39.5673 61.3532C39.422 61.2079 39.3068 61.0354 39.2282 60.8456C39.1497 60.6557 39.1093 60.4522 39.1094 60.2468C39.105 56.3076 37.5384 52.5311 34.7532 49.7456C31.9679 46.9601 28.1915 45.3931 24.2524 45.3883C22.2915 45.3418 20.3411 45.6891 18.5168 46.4098C16.6926 47.1305 15.0314 48.2099 13.6318 49.5841C13.4881 49.7312 13.3169 49.8484 13.1279 49.9292C12.9388 50.01 12.7357 50.0528 12.5302 50.055C12.3246 50.0572 12.1206 50.0189 11.9299 49.9422C11.7392 49.8655 11.5654 49.752 11.4186 49.6081C11.2718 49.4642 11.1548 49.2928 11.0743 49.1036C10.9938 48.9145 10.9514 48.7113 10.9495 48.5057C10.9476 48.3002 10.9863 48.0963 11.0633 47.9056C11.1403 47.715 11.2541 47.5415 11.3982 47.3949C13.0878 45.7218 15.0962 44.4051 17.3042 43.5229C19.5123 42.6407 21.8751 42.2111 24.2524 42.2595C29.0211 42.2651 33.5928 44.162 36.9646 47.5341C40.3365 50.9062 42.233 55.4781 42.2381 60.2468C42.2383 60.4522 42.1979 60.6557 42.1193 60.8456C42.0407 61.0354 41.9255 61.2079 41.7802 61.3532C41.6349 61.4985 41.4624 61.6137 41.2726 61.6923C41.0827 61.7709 40.8792 61.8113 40.6738 61.8111Z" fill="#095052"/>
<path d="M79.7846 43.8117C79.6164 43.8115 79.4493 43.7845 79.2896 43.7315L70.1432 40.6829L43.804 40.7013H43.8024C43.5969 40.7014 43.3935 40.661 43.2036 40.5824C43.0138 40.5039 42.8413 40.3886 42.696 40.2433C42.5507 40.0981 42.4355 39.9256 42.3569 39.7357C42.2783 39.5459 42.2379 39.3424 42.238 39.1369V1.56596C42.238 1.36051 42.2784 1.15706 42.357 0.967238C42.4356 0.777416 42.5508 0.604939 42.6961 0.459663C42.8414 0.314386 43.0139 0.199157 43.2037 0.120559C43.3935 0.0419608 43.597 0.00153353 43.8024 0.00158697H84.4777C84.6832 0.00153353 84.8866 0.0419608 85.0765 0.120559C85.2663 0.199157 85.4388 0.314386 85.584 0.459663C85.7293 0.604939 85.8445 0.777416 85.9231 0.967238C86.0017 1.15706 86.0422 1.36051 86.0421 1.56596V39.1186C86.0422 39.324 86.0017 39.5275 85.9231 39.7173C85.8445 39.9071 85.7293 40.0796 85.584 40.2249C85.4388 40.3701 85.2663 40.4854 85.0765 40.564C84.8866 40.6426 84.6832 40.683 84.4777 40.6829H81.3505L81.349 42.2489C81.3484 42.6634 81.1833 43.0608 80.89 43.3538C80.5967 43.6468 80.1992 43.8115 79.7846 43.8117ZM70.3968 37.5542C70.565 37.5541 70.7322 37.5812 70.8918 37.6344L78.2217 40.078L78.2233 39.117C78.2239 38.7025 78.389 38.3051 78.6822 38.0121C78.9755 37.7191 79.3731 37.5544 79.7877 37.5542H82.9133V3.13034H45.3668V37.5718L70.3952 37.5542H70.3968Z" fill="#095052"/>
<path d="M25.027 37.5511C24.6121 37.5511 24.2142 37.3863 23.9209 37.0929C23.6275 36.7995 23.4627 36.4016 23.4627 35.9867V34.4223H20.3339C20.1285 34.4224 19.925 34.382 19.7352 34.3034C19.5454 34.2248 19.3729 34.1096 19.2276 33.9643C19.0823 33.819 18.9671 33.6465 18.8885 33.4567C18.8099 33.2669 18.7695 33.0634 18.7695 32.858V12.5272C18.7695 12.3218 18.8099 12.1183 18.8885 11.9285C18.9671 11.7387 19.0823 11.5662 19.2276 11.4209C19.3729 11.2756 19.5454 11.1604 19.7352 11.0818C19.925 11.0032 20.1285 10.9628 20.3339 10.9628H43.7904C44.2053 10.9628 44.6032 11.1276 44.8965 11.421C45.1899 11.7144 45.3547 12.1123 45.3547 12.5272C45.3547 12.9421 45.1899 13.34 44.8965 13.6334C44.6032 13.9268 44.2053 14.0916 43.7904 14.0916H21.8983V31.2936H25.027C25.2325 31.2935 25.4359 31.334 25.6258 31.4126C25.8156 31.4912 25.9881 31.6064 26.1333 31.7517C26.2786 31.8969 26.3938 32.0694 26.4724 32.2593C26.551 32.4491 26.5915 32.6525 26.5914 32.858V33.6761L32.2684 31.4051C32.4513 31.322 32.6513 31.2838 32.852 31.2936L43.7934 31.3119C44.2083 31.3124 44.6061 31.4776 44.8991 31.7712C45.1922 32.0649 45.3566 32.463 45.3562 32.8779C45.3558 33.2928 45.1906 33.6905 44.8969 33.9836C44.6033 34.2767 44.2052 34.4411 43.7903 34.4407H43.7872L33.1482 34.4231L25.6074 37.4396C25.4229 37.5135 25.2258 37.5513 25.027 37.5511Z" fill="#61BC47"/>
<path d="M7.82194 70.3984C7.61647 70.3986 7.413 70.3582 7.22314 70.2796C7.03329 70.201 6.86079 70.0858 6.7155 69.9405C6.57021 69.7952 6.45499 69.6227 6.37641 69.4329C6.29784 69.243 6.25745 69.0395 6.25757 68.8341V53.1826C6.25757 52.7677 6.42239 52.3698 6.71576 52.0764C7.00914 51.7831 7.40705 51.6183 7.82194 51.6183C8.23684 51.6183 8.63475 51.7831 8.92812 52.0764C9.2215 52.3698 9.38632 52.7677 9.38632 53.1826V68.8341C9.38644 69.0395 9.34605 69.243 9.26748 69.4329C9.1889 69.6227 9.07367 69.7952 8.92839 69.9405C8.7831 70.0858 8.61059 70.201 8.42074 70.2796C8.23089 70.3582 8.02741 70.3986 7.82194 70.3984Z" fill="#095052"/>
<path d="M7.82194 64.1363C7.40705 64.1363 7.00914 63.9715 6.71576 63.6781C6.42239 63.3848 6.25757 62.9869 6.25757 62.572C6.25757 62.1571 6.42239 61.7592 6.71576 61.4658C7.00914 61.1724 7.40705 61.0076 7.82194 61.0076C8.65141 61.0065 9.44659 60.6765 10.0331 60.09C10.6196 59.5035 10.9496 58.7083 10.9507 57.8788C10.9507 57.4639 11.1155 57.066 11.4089 56.7726C11.7023 56.4793 12.1002 56.3145 12.5151 56.3145C12.93 56.3145 13.3279 56.4793 13.6212 56.7726C13.9146 57.066 14.0794 57.4639 14.0794 57.8788C14.0778 59.5379 13.418 61.1286 12.2448 62.3017C11.0717 63.4749 9.48103 64.1347 7.82194 64.1363Z" fill="#095052"/>
<path d="M17.2113 64.1333C15.552 64.1309 13.9615 63.4703 12.7886 62.2966C11.6158 61.1229 10.9565 59.5319 10.9553 57.8726C10.9553 57.4577 11.1201 57.0598 11.4135 56.7665C11.7069 56.4731 12.1048 56.3083 12.5197 56.3083C12.9346 56.3083 13.3325 56.4731 13.6259 56.7665C13.9193 57.0598 14.0841 57.4577 14.0841 57.8726C14.0844 58.7023 14.4138 59.498 15.0001 60.0852C15.5863 60.6723 16.3815 61.0029 17.2113 61.0045C17.6262 61.0045 18.0241 61.1693 18.3174 61.4627C18.6108 61.7561 18.7756 62.154 18.7756 62.5689C18.7756 62.9838 18.6108 63.3817 18.3174 63.6751C18.0241 63.9684 17.6262 64.1333 17.2113 64.1333Z" fill="#095052"/>
<path d="M7.82512 54.747C7.61965 54.7471 7.41617 54.7068 7.22632 54.6282C7.03646 54.5496 6.86396 54.4344 6.71867 54.2891C6.57338 54.1438 6.45816 53.9713 6.37958 53.7814C6.30101 53.5916 6.26062 53.3881 6.26074 53.1826C6.26251 51.5236 6.92235 49.933 8.09548 48.7599C9.2686 47.5868 10.8592 46.9269 12.5182 46.9251C12.9331 46.9251 13.331 47.09 13.6244 47.3833C13.9178 47.6767 14.0826 48.0746 14.0826 48.4895C14.0826 48.9044 13.9178 49.3023 13.6244 49.5957C13.331 49.8891 12.9331 50.0539 12.5182 50.0539C11.6887 50.0548 10.8935 50.3848 10.3069 50.9713C9.72039 51.5579 9.39045 52.3531 9.38949 53.1826C9.38961 53.3881 9.34923 53.5916 9.27066 53.7814C9.19208 53.9713 9.07685 54.1438 8.93156 54.2891C8.78627 54.4344 8.61377 54.5496 8.42392 54.6282C8.23407 54.7068 8.03059 54.7471 7.82512 54.747Z" fill="black"/>
<path d="M12.5151 59.4432C12.1002 59.4432 11.7023 59.2784 11.4089 58.985C11.1155 58.6916 10.9507 58.2937 10.9507 57.8788L10.9538 48.4888C10.9541 48.074 11.1191 47.6764 11.4124 47.3832C11.7057 47.09 12.1035 46.9253 12.5182 46.9251C12.7237 46.9252 12.9272 46.9657 13.117 47.0444C13.3068 47.123 13.4793 47.2383 13.6246 47.3837C13.7698 47.529 13.8851 47.7016 13.9636 47.8914C14.0422 48.0813 14.0826 48.2848 14.0826 48.4903L14.0794 57.8788C14.0794 58.2937 13.9146 58.6916 13.6212 58.985C13.3278 59.2784 12.93 59.4432 12.5151 59.4432Z" fill="#095052"/>
<path d="M40.6768 75.1328C40.4713 75.1329 40.2679 75.0925 40.078 75.0139C39.8882 74.9354 39.7157 74.8201 39.5704 74.6748C39.4251 74.5295 39.3098 74.357 39.2313 74.1672C39.1527 73.9773 39.1123 73.7739 39.1124 73.5684C39.1102 71.0764 38.1196 68.6871 36.358 66.9246C34.5963 65.1621 32.2075 64.1703 29.7155 64.1669C29.3006 64.1669 28.9027 64.0021 28.6093 63.7087C28.3159 63.4153 28.1511 63.0174 28.1511 62.6025C28.1511 62.1876 28.3159 61.7897 28.6093 61.4963C28.9027 61.2029 29.3006 61.0381 29.7155 61.0381C33.037 61.0424 36.2212 62.364 38.5694 64.7131C40.9177 67.0622 42.2382 70.2469 42.2412 73.5684C42.2413 73.7739 42.2009 73.9773 42.1223 74.1672C42.0438 74.357 41.9285 74.5295 41.7833 74.6748C41.638 74.8201 41.4655 74.9354 41.2756 75.0139C41.0858 75.0925 40.8823 75.1329 40.6768 75.1328Z" fill="#095052"/>
<path d="M29.7278 64.1394H17.2128C16.7979 64.1394 16.4 63.9746 16.1066 63.6812C15.8133 63.3878 15.6484 62.9899 15.6484 62.575C15.6484 62.1601 15.8133 61.7622 16.1066 61.4688C16.4 61.1754 16.7979 61.0106 17.2128 61.0106H29.7278C30.1427 61.0106 30.5406 61.1754 30.834 61.4688C31.1274 61.7622 31.2922 62.1601 31.2922 62.575C31.2922 62.9899 31.1274 63.3878 30.834 63.6812C30.5406 63.9746 30.1427 64.1394 29.7278 64.1394Z" fill="#095052"/>
<path d="M35.9806 70.3984C35.7752 70.3986 35.5717 70.3582 35.3818 70.2796C35.192 70.201 35.0195 70.0858 34.8742 69.9405C34.7289 69.7952 34.6137 69.6227 34.5351 69.4329C34.4565 69.243 34.4161 69.0395 34.4163 68.8341V64.5672C34.4163 64.1523 34.5811 63.7543 34.8745 63.461C35.1678 63.1676 35.5657 63.0028 35.9806 63.0028C36.3955 63.0028 36.7934 63.1676 37.0868 63.461C37.3802 63.7543 37.545 64.1523 37.545 64.5672V68.8341C37.5451 69.0395 37.5047 69.243 37.4262 69.4329C37.3476 69.6227 37.2324 69.7952 37.0871 69.9405C36.9418 70.0858 36.7693 70.201 36.5794 70.2796C36.3896 70.3582 36.1861 70.3986 35.9806 70.3984Z" fill="#095052"/>
<path d="M40.6769 75.1206C40.4715 75.1207 40.268 75.0803 40.0781 75.0017C39.8883 74.9232 39.7158 74.8079 39.5705 74.6626C39.4252 74.5173 39.31 74.3448 39.2314 74.155C39.1528 73.9651 39.1124 73.7617 39.1125 73.5562V60.2468C39.1125 59.8319 39.2774 59.434 39.5707 59.1406C39.8641 58.8472 40.262 58.6824 40.6769 58.6824C41.0918 58.6824 41.4897 58.8472 41.7831 59.1406C42.0765 59.434 42.2413 59.8319 42.2413 60.2468V73.5562C42.2414 73.7617 42.201 73.9651 42.1225 74.155C42.0439 74.3448 41.9287 74.5173 41.7834 74.6626C41.6381 74.8079 41.4656 74.9232 41.2757 75.0017C41.0859 75.0803 40.8824 75.1207 40.6769 75.1206Z" fill="#095052"/>
<path d="M21.8997 96.9897C21.6051 96.9893 21.3167 96.9058 21.0675 96.7487C20.8183 96.5916 20.6186 96.3674 20.4912 96.1018C20.3639 95.8362 20.3141 95.54 20.3476 95.2474C20.3811 94.9548 20.4965 94.6775 20.6806 94.4476L26.9289 86.6532C27.0573 86.4929 27.216 86.3595 27.396 86.2605C27.576 86.1616 27.7737 86.099 27.9778 86.0765C28.1819 86.0539 28.3885 86.0718 28.5858 86.1291C28.783 86.1864 28.967 86.2819 29.1273 86.4103C29.2876 86.5387 29.421 86.6974 29.52 86.8774C29.6189 87.0574 29.6815 87.2551 29.704 87.4592C29.7266 87.6633 29.7087 87.8699 29.6514 88.0672C29.5942 88.2644 29.4986 88.4484 29.3702 88.6087L23.1219 96.4031C22.9755 96.5865 22.7895 96.7346 22.5779 96.8361C22.3663 96.9377 22.1344 96.9902 21.8997 96.9897Z" fill="#095052"/>
<path d="M21.9028 96.9897C21.6679 96.9899 21.4359 96.9373 21.2241 96.8357C21.0123 96.7342 20.826 96.5863 20.6791 96.4031L14.4231 88.5812C14.1648 88.257 14.0456 87.8435 14.0918 87.4315C14.138 87.0195 14.3457 86.6426 14.6694 86.3836C14.9932 86.1246 15.4064 86.0047 15.8185 86.0501C16.2306 86.0955 16.6079 86.3025 16.8675 86.6257L23.1234 94.4476C23.3076 94.6776 23.4231 94.955 23.4566 95.2478C23.4901 95.5406 23.4402 95.8369 23.3126 96.1026C23.1851 96.3682 22.985 96.5924 22.7356 96.7494C22.4862 96.9064 22.1975 96.9897 21.9028 96.9897Z" fill="#095052"/>
<path d="M64.1393 70.3358C63.9339 70.3359 63.7304 70.2955 63.5405 70.2169C63.3507 70.1384 63.1782 70.0231 63.0329 69.8778C62.8876 69.7326 62.7724 69.5601 62.6938 69.3702C62.6152 69.1803 62.5748 68.9769 62.575 68.7714V62.5734C62.575 62.1585 62.7398 61.7606 63.0331 61.4673C63.3265 61.1739 63.7244 61.0091 64.1393 61.0091C64.5542 61.0091 64.9521 61.1739 65.2455 61.4673C65.5389 61.7606 65.7037 62.1585 65.7037 62.5734V68.7714C65.7038 68.9768 65.6634 69.1803 65.5849 69.3702C65.5063 69.56 65.3911 69.7325 65.2458 69.8778C65.1005 70.0231 64.928 70.1384 64.7381 70.2169C64.5483 70.2955 64.3448 70.3359 64.1393 70.3358Z" fill="#095052"/>
<path d="M92.298 70.3984C92.0925 70.3986 91.8891 70.3582 91.6992 70.2796C91.5094 70.201 91.3369 70.0858 91.1916 69.9405C91.0463 69.7952 90.9311 69.6227 90.8525 69.4329C90.7739 69.243 90.7335 69.0395 90.7336 68.8341V62.5734C90.7336 62.1585 90.8985 61.7606 91.1918 61.4673C91.4852 61.1739 91.8831 61.0091 92.298 61.0091C92.7129 61.0091 93.1108 61.1739 93.4042 61.4673C93.6976 61.7606 93.8624 62.1585 93.8624 62.5734V68.8341C93.8625 69.0395 93.8221 69.243 93.7436 69.4329C93.665 69.6227 93.5498 69.7952 93.4045 69.9405C93.2592 70.0858 93.0867 70.201 92.8968 70.2796C92.707 70.3582 92.5035 70.3986 92.298 70.3984Z" fill="#095052"/>
<path d="M78.2171 84.4778C74.0702 84.4733 70.0944 82.824 67.1619 79.8919C64.2295 76.9597 62.5798 72.984 62.575 68.8371C62.575 68.4222 62.7398 68.0243 63.0331 67.7309C63.3265 67.4375 63.7244 67.2727 64.1393 67.2727C64.5542 67.2727 64.9521 67.4375 65.2455 67.7309C65.5389 68.0243 65.7037 68.4222 65.7037 68.8371C65.7037 72.1563 67.0222 75.3395 69.3693 77.6865C71.7163 80.0335 74.8995 81.3521 78.2187 81.3521C81.5379 81.3521 84.7211 80.0335 87.0681 77.6865C89.4152 75.3395 90.7337 72.1563 90.7337 68.8371C90.7337 68.4222 90.8985 68.0243 91.1919 67.7309C91.4853 67.4375 91.8832 67.2727 92.2981 67.2727C92.713 67.2727 93.1109 67.4375 93.4043 67.7309C93.6976 68.0243 93.8625 68.4222 93.8625 68.8371C93.8571 72.9844 92.2069 76.9603 89.2739 79.8925C86.3408 82.8247 82.3645 84.4737 78.2171 84.4778Z" fill="#095052"/>
<path d="M92.321 64.2051H64.1515C63.9461 64.2052 63.7426 64.1648 63.5527 64.0862C63.3629 64.0077 63.1904 63.8924 63.0451 63.7471C62.8998 63.6019 62.7846 63.4293 62.706 63.2395C62.6274 63.0496 62.587 62.8462 62.5872 62.6407V50.0631C62.5885 48.8188 63.0834 47.6259 63.9632 46.7461C64.8431 45.8662 66.036 45.3714 67.2803 45.37H89.1922C90.4365 45.3714 91.6294 45.8662 92.5093 46.7461C93.3891 47.6259 93.884 48.8188 93.8854 50.0631V62.6407C93.8855 62.8462 93.8451 63.0496 93.7665 63.2395C93.688 63.4293 93.5727 63.6019 93.4274 63.7471C93.2821 63.8924 93.1096 64.0077 92.9198 64.0862C92.7299 64.1648 92.5265 64.2052 92.321 64.2051ZM65.7159 61.0763H90.7566V50.0631C90.7562 49.6483 90.5913 49.2507 90.298 48.9574C90.0047 48.6641 89.607 48.4992 89.1922 48.4987H67.2803C66.8655 48.4992 66.4678 48.6641 66.1746 48.9574C65.8813 49.2507 65.7163 49.6483 65.7159 50.0631V61.0763Z" fill="#095052"/>
<path d="M78.2143 59.4692C78.0088 59.4693 77.8053 59.4289 77.6155 59.3503C77.4256 59.2717 77.2531 59.1565 77.1078 59.0112C76.9625 58.8659 76.8473 58.6934 76.7687 58.5036C76.6902 58.3137 76.6498 58.1103 76.6499 57.9048V51.629C76.6499 51.2141 76.8147 50.8161 77.1081 50.5228C77.4015 50.2294 77.7994 50.0646 78.2143 50.0646C78.6292 50.0646 79.0271 50.2294 79.3205 50.5228C79.6138 50.8161 79.7786 51.2141 79.7786 51.629V57.9048C79.7788 58.1103 79.7384 58.3137 79.6598 58.5036C79.5812 58.6934 79.466 58.8659 79.3207 59.0112C79.1754 59.1565 79.0029 59.2717 78.8131 59.3503C78.6232 59.4289 78.4197 59.4693 78.2143 59.4692Z" fill="#095052"/>
<path d="M81.3445 56.3511H75.0839C74.669 56.3511 74.2711 56.1863 73.9777 55.8929C73.6843 55.5995 73.5195 55.2016 73.5195 54.7867C73.5195 54.3718 73.6843 53.9739 73.9777 53.6805C74.2711 53.3872 74.669 53.2224 75.0839 53.2224H81.3445C81.7594 53.2224 82.1573 53.3872 82.4507 53.6805C82.7441 53.9739 82.9089 54.3718 82.9089 54.7867C82.9089 55.2016 82.7441 55.5995 82.4507 55.8929C82.1573 56.1863 81.7594 56.3511 81.3445 56.3511Z" fill="black"/>
<path d="M75.0885 100.118C74.7487 100.118 74.4183 100.007 74.1471 99.8022C73.876 99.5974 73.6788 99.31 73.5853 98.9833L70.4565 88.0343C70.344 87.6356 70.3942 87.2086 70.596 86.8469C70.7979 86.4851 71.1349 86.2182 71.5333 86.1046C71.9316 85.9909 72.3587 86.0399 72.7211 86.2407C73.0834 86.4415 73.3513 86.7777 73.4661 87.1757L76.5948 98.1248C76.7083 98.5239 76.6587 98.9517 76.4571 99.3143C76.2555 99.6769 75.9182 99.9447 75.5193 100.059C75.3791 100.098 75.2341 100.118 75.0885 100.118Z" fill="#095052"/>
<path d="M81.349 100.118C81.2033 100.118 81.0584 100.098 80.9182 100.059C80.5193 99.9447 80.182 99.6769 79.9804 99.3143C79.7787 98.9517 79.7292 98.5239 79.8427 98.1248L82.9714 87.1757C83.0273 86.9776 83.1218 86.7924 83.2494 86.6309C83.3769 86.4693 83.5352 86.3345 83.715 86.2342C83.8947 86.1338 84.0925 86.07 84.2971 86.0463C84.5016 86.0225 84.7087 86.0394 84.9067 86.0959C85.1047 86.1523 85.2896 86.2473 85.4508 86.3754C85.612 86.5035 85.7463 86.6621 85.8461 86.8421C85.9459 87.0222 86.0092 87.2202 86.0323 87.4248C86.0555 87.6294 86.038 87.8365 85.981 88.0343L82.8522 98.9834C82.7587 99.31 82.5615 99.5974 82.2903 99.8022C82.0192 100.007 81.6888 100.118 81.349 100.118Z" fill="#095052"/>
<path d="M69.2925 34.0022C69.2287 34.0022 69.1649 33.9984 69.1015 33.9908C68.882 33.9638 68.6707 33.8906 68.4816 33.7759C68.2926 33.6612 68.13 33.5077 68.0046 33.3255C67.5745 32.6972 66.9977 32.1833 66.3243 31.8282C65.6508 31.4731 64.9009 31.2875 64.1395 31.2875C63.3782 31.2875 62.6283 31.4731 61.9548 31.8282C61.2813 32.1833 60.7045 32.6972 60.2744 33.3255C60.149 33.5077 59.9862 33.6613 59.797 33.776C59.6078 33.8907 59.3964 33.964 59.1767 33.9909C58.9571 34.0178 58.7342 33.9978 58.5229 33.9322C58.3116 33.8666 58.1166 33.7569 57.9508 33.6104C56.5156 32.3518 55.4983 30.6857 55.0345 28.8341C54.5707 26.9825 54.6824 25.0335 55.3548 23.247C56.0271 21.4605 57.2282 19.9215 58.7977 18.8352C60.3673 17.7489 62.2307 17.1669 64.1395 17.1669C66.0483 17.1669 67.9118 17.7489 69.4813 18.8352C71.0509 19.9215 72.2519 21.4605 72.9243 23.247C73.5967 25.0335 73.7084 26.9825 73.2446 28.8341C72.7807 30.6857 71.7634 32.3518 70.3283 33.6104C70.0422 33.8627 69.6739 34.0021 69.2925 34.0022ZM64.1394 28.1588C66.0375 28.1595 67.8703 28.8514 69.2955 30.1051C70.0158 29.0764 70.4005 27.8502 70.3969 26.5944C70.3969 24.9348 69.7377 23.3432 68.5642 22.1697C67.3907 20.9962 65.799 20.3369 64.1394 20.3369C62.4799 20.3369 60.8882 20.9962 59.7147 22.1697C58.5412 23.3432 57.8819 24.9348 57.8819 26.5944C57.8783 27.8502 58.2631 29.0764 58.9834 30.1051C60.4085 28.8514 62.2414 28.1595 64.1394 28.1588Z" fill="#61BC47"/>
<path d="M53.1887 20.3369C52.2605 20.3369 51.3532 20.0616 50.5814 19.5459C49.8096 19.0303 49.2081 18.2973 48.8529 17.4397C48.4976 16.5822 48.4047 15.6385 48.5858 14.7282C48.7669 13.8178 49.2138 12.9816 49.8702 12.3252C50.5265 11.6689 51.3628 11.2219 52.2732 11.0408C53.1835 10.8597 54.1272 10.9527 54.9847 11.3079C55.8423 11.6631 56.5752 12.2646 57.0909 13.0364C57.6066 13.8082 57.8819 14.7155 57.8819 15.6437C57.8805 16.888 57.3856 18.081 56.5058 18.9608C55.6259 19.8406 54.433 20.3355 53.1887 20.3369ZM53.1887 14.0794C52.8793 14.0794 52.5769 14.1711 52.3196 14.343C52.0624 14.5149 51.8618 14.7592 51.7434 15.0451C51.625 15.3309 51.5941 15.6455 51.6544 15.9489C51.7148 16.2524 51.8638 16.5311 52.0826 16.7499C52.3013 16.9687 52.5801 17.1177 52.8835 17.1781C53.187 17.2384 53.5015 17.2074 53.7874 17.089C54.0732 16.9706 54.3176 16.7701 54.4895 16.5129C54.6614 16.2556 54.7531 15.9532 54.7531 15.6437C54.7527 15.229 54.5877 14.8313 54.2945 14.538C54.0012 14.2447 53.6035 14.0798 53.1887 14.0794Z" fill="#61BC47"/>
<path d="M64.1394 15.6438C63.2112 15.6438 62.3038 15.3685 61.5321 14.8528C60.7603 14.3371 60.1587 13.6042 59.8035 12.7466C59.4483 11.8891 59.3554 10.9454 59.5365 10.0351C59.7176 9.12467 60.1645 8.28844 60.8209 7.63209C61.4772 6.97575 62.3135 6.52877 63.2238 6.34769C64.1342 6.1666 65.0778 6.25954 65.9354 6.61475C66.793 6.96996 67.5259 7.57149 68.0416 8.34327C68.5573 9.11505 68.8325 10.0224 68.8325 10.9506C68.8312 12.1949 68.3363 13.3878 67.4565 14.2677C66.5766 15.1475 65.3837 15.6424 64.1394 15.6438ZM64.1394 9.38626C63.83 9.38626 63.5276 9.47801 63.2703 9.6499C63.013 9.8218 62.8125 10.0661 62.6941 10.352C62.5757 10.6378 62.5447 10.9524 62.6051 11.2558C62.6655 11.5593 62.8145 11.838 63.0332 12.0568C63.252 12.2756 63.5308 12.4246 63.8342 12.485C64.1377 12.5453 64.4522 12.5143 64.7381 12.3959C65.0239 12.2775 65.2683 12.077 65.4401 11.8198C65.612 11.5625 65.7038 11.26 65.7038 10.9506C65.7034 10.5359 65.5384 10.1382 65.2451 9.84491C64.9519 9.55162 64.5542 9.38667 64.1394 9.38626Z" fill="#61BC47"/>
<path d="M75.0901 20.3369C74.1619 20.3369 73.2545 20.0616 72.4827 19.5459C71.711 19.0303 71.1094 18.2973 70.7542 17.4397C70.399 16.5822 70.3061 15.6385 70.4872 14.7282C70.6682 13.8178 71.1152 12.9816 71.7716 12.3252C72.4279 11.6689 73.2641 11.2219 74.1745 11.0408C75.0849 10.8597 76.0285 10.9527 76.8861 11.3079C77.7436 11.6631 78.4766 12.2646 78.9923 13.0364C79.508 13.8082 79.7832 14.7155 79.7832 15.6437C79.7819 16.888 79.287 18.081 78.4071 18.9608C77.5273 19.8406 76.3344 20.3355 75.0901 20.3369ZM75.0901 14.0794C74.7807 14.0794 74.4782 14.1711 74.221 14.343C73.9637 14.5149 73.7632 14.7592 73.6448 15.0451C73.5264 15.3309 73.4954 15.6455 73.5558 15.9489C73.6161 16.2524 73.7651 16.5311 73.9839 16.7499C74.2027 16.9687 74.4814 17.1177 74.7849 17.1781C75.0884 17.2384 75.4029 17.2074 75.6888 17.089C75.9746 16.9706 76.2189 16.7701 76.3908 16.5129C76.5627 16.2556 76.6545 15.9532 76.6545 15.6437C76.6541 15.229 76.4891 14.8313 76.1958 14.538C75.9025 14.2447 75.5049 14.0798 75.0901 14.0794Z" fill="#61BC47"/>
</g>
<defs>
<clipPath id="clip0_1_755">
<rect width="100.12" height="100.12" fill="white"/>
</clipPath>
</defs>
</svg>
