<svg width="100" height="100" viewBox="0 0 100 100" fill="none" xmlns="http://www.w3.org/2000/svg">
<path d="M40.7733 49.0875C40.103 50.2482 39.9251 51.6008 40.2722 52.8955L41.4065 57.1289C41.7534 58.4236 42.5837 59.5059 43.7448 60.1762C44.5181 60.6227 45.3761 60.8506 46.2458 60.8506C46.6817 60.8506 47.1206 60.7934 47.5528 60.6775C48.8476 60.3307 49.9298 59.5002 50.6001 58.3395C51.2704 57.1785 51.4483 55.8262 51.1013 54.5313L49.9667 50.2979C49.6198 49.0031 48.7895 47.9209 47.6286 47.2506C46.4681 46.5803 45.1159 46.4023 43.8206 46.7492C42.5257 47.0961 41.4434 47.9266 40.7733 49.0875ZM43.3104 50.5523C43.5895 50.0691 44.0397 49.7236 44.5788 49.5793C44.7591 49.5311 44.9403 49.5078 45.1188 49.5078C46.0409 49.5078 46.887 50.124 47.1368 51.0563L48.2714 55.2897C48.4157 55.8285 48.3415 56.3914 48.0628 56.8746C47.7837 57.3578 47.3335 57.7033 46.7944 57.8477C45.6806 58.1461 44.5345 57.483 44.2362 56.3709L43.1018 52.1375C42.9573 51.5982 43.0315 51.0354 43.3104 50.5523Z" fill="#61BC47"/>
<path d="M82.9306 46.7492C81.6361 46.4027 80.2836 46.5803 79.1226 47.2506C77.9619 47.9207 77.1316 49.0029 76.7845 50.2977L75.65 54.5313C75.3031 55.826 75.481 57.1783 76.1511 58.3393C76.8214 59.5 77.9037 60.3305 79.1984 60.6774C79.6308 60.7932 80.0695 60.8504 80.5054 60.8504C81.375 60.8504 82.2334 60.6225 83.0064 60.176C84.1673 59.5057 84.9976 58.4234 85.3447 57.1287L86.4791 52.8953C86.8259 51.6006 86.648 50.2483 85.9779 49.0873C85.3076 47.9266 84.2254 47.0961 82.9306 46.7492ZM83.6494 52.1371L82.515 56.3705C82.217 57.4828 81.0691 58.1459 79.9568 57.8473C79.4177 57.7029 78.9675 57.3572 78.6884 56.8742C78.4095 56.391 78.3353 55.8283 78.4798 55.2895L79.6144 51.0559C79.8642 50.1238 80.7101 49.5076 81.6324 49.5076C81.8107 49.5076 81.9922 49.5307 82.1724 49.5791C82.7115 49.7234 83.1617 50.0692 83.4408 50.5522C83.7195 51.0354 83.7937 51.5983 83.6494 52.1371Z" fill="#61BC47"/>
<path d="M51.4343 42.532V46.9148C51.4343 49.6818 53.6855 51.9332 56.4525 51.9332C59.2197 51.9332 61.4708 49.682 61.4708 46.9148V42.532C61.4708 39.7648 59.2197 37.5137 56.4525 37.5137C53.6855 37.5137 51.4343 39.765 51.4343 42.532ZM58.5412 42.532V46.9148C58.5412 48.0664 57.6041 49.0035 56.4525 49.0035C55.3009 49.0035 54.364 48.0666 54.364 46.9148V42.532C54.364 41.3805 55.3009 40.4434 56.4525 40.4434C57.6042 40.4434 58.5412 41.3805 58.5412 42.532Z" fill="#61BC47"/>
<path d="M65.2803 42.532V46.9148C65.2803 49.6818 67.5314 51.9332 70.2986 51.9332C73.0656 51.9332 75.3168 49.682 75.3168 46.9148V42.532C75.3168 39.7648 73.0656 37.5137 70.2986 37.5137C67.5316 37.5137 65.2803 39.765 65.2803 42.532ZM72.3873 42.532V46.9148C72.3873 48.0664 71.4504 49.0035 70.2988 49.0035C69.1471 49.0035 68.2102 48.0666 68.2102 46.9148V42.532C68.2102 41.3805 69.1473 40.4434 70.2988 40.4434C71.4504 40.4434 72.3873 41.3805 72.3873 42.532Z" fill="#61BC47"/>
<path d="M30.1673 81.406L29.8335 81.74L29.4995 81.406C28.5628 80.4695 27.3175 79.9537 25.9929 79.9537C24.6683 79.9537 23.423 80.4695 22.4862 81.4062C21.5495 82.343 21.0337 83.5883 21.0337 84.9131C21.0337 86.2377 21.5495 87.483 22.4862 88.4197L28.1335 94.067C28.6022 94.5355 29.2179 94.7699 29.8335 94.7697C30.4491 94.7697 31.0649 94.5353 31.5337 94.0668L37.1808 88.4197C38.1175 87.483 38.6333 86.2377 38.6333 84.9131C38.6333 83.5885 38.1175 82.343 37.1806 81.4062C35.2474 79.4726 32.1009 79.4728 30.1673 81.406ZM35.1091 86.348L29.8335 91.6236L24.5579 86.348C23.7665 85.5566 23.7665 84.2691 24.5579 83.4777C24.9411 83.0945 25.4507 82.8834 25.9929 82.8834C26.5351 82.8834 27.0448 83.0945 27.428 83.4777L28.7978 84.8475C29.37 85.4195 30.2974 85.4195 30.8694 84.8475L32.239 83.4779C33.0304 82.6869 34.3177 82.6865 35.1091 83.4779C35.9003 84.2689 35.9003 85.5566 35.1091 86.348Z" fill="#61BC47"/>
<path d="M75.8689 90.3311C75.8689 91.14 76.5246 91.7959 77.3337 91.7959H86.7293C87.5384 91.7959 88.1941 91.14 88.1941 90.3311C88.1941 89.5221 87.5384 88.8662 86.7293 88.8662H77.3337C76.5248 88.8662 75.8689 89.5221 75.8689 90.3311Z" fill="#095052"/>
<path d="M92.4365 100C94.2982 100 96.0371 99.2637 97.3328 97.9268C98.6285 96.5898 99.3097 94.8287 99.2513 92.968L97.3146 31.1758C97.2874 30.3082 97.0871 29.4695 96.7187 28.683L91.182 16.8574C90.971 16.407 90.8597 15.9059 90.8597 15.4082V4.67695C90.8597 2.09805 88.7617 0 86.1828 0H40.5685C37.9896 0 35.8916 2.09805 35.8916 4.67695V15.4082C35.8916 15.9059 35.7802 16.407 35.5693 16.8574L30.0322 28.683C29.664 29.4693 29.4636 30.308 29.4365 31.1756L29.0863 42.3514C29.0609 43.16 29.6959 43.8361 30.5044 43.8613C30.5203 43.8619 30.5357 43.8621 30.5511 43.8621C31.339 43.8621 31.9896 43.2361 32.0144 42.4432L32.3646 31.2674C32.3792 30.8002 32.4873 30.3486 32.6855 29.9252L38.2224 18.0998C38.6142 17.2631 38.8212 16.3324 38.8212 15.4082V4.67695C38.8212 3.71348 39.6052 2.92969 40.5685 2.92969H86.1828C87.1462 2.92969 87.93 3.71348 87.93 4.67695V15.4082C87.93 16.3324 88.1373 17.2633 88.5289 18.0998L94.0656 29.9252C94.264 30.3488 94.3718 30.8004 94.3867 31.2676L96.3234 93.06C96.3566 94.1213 95.9681 95.1256 95.229 95.8879C94.4902 96.6504 93.4984 97.0703 92.4365 97.0703H59.4146C59.6636 96.3666 59.733 95.6037 59.6009 94.8486L57.1966 81.0951C58.8841 81.0918 60.5421 80.6789 62.0244 79.8875C62.8707 79.4355 63.881 79.4357 64.7269 79.8875C66.3806 80.7707 68.2529 81.1836 70.1419 81.0803C75.4638 80.791 79.7347 76.3871 79.8652 71.0545C79.972 66.6963 77.3089 62.725 73.2382 61.1727C72.9644 61.0682 72.7386 60.86 72.6029 60.5863C70.85 57.0553 67.3142 54.8619 63.3755 54.8619C59.4369 54.8619 55.9011 57.0553 54.148 60.5865C54.0125 60.86 53.7867 61.0682 53.5126 61.1727C50.7453 62.2281 48.6 64.4111 47.5646 67.11C46.0386 66.2209 44.2671 65.7088 42.3773 65.7088C40.4455 65.7088 38.5974 66.2322 36.9757 67.2309C35.4332 66.3602 33.7007 65.9041 31.9089 65.9041C31.6984 65.9041 31.4884 65.9125 31.2787 65.9254L31.8146 48.8273C31.84 48.0187 31.205 47.3426 30.3964 47.3174C30.3808 47.3168 30.3652 47.3166 30.3498 47.3166C29.5619 47.3166 28.9113 47.9426 28.8865 48.7355L28.371 65.1807C26.3412 63.991 24.0195 63.352 21.6384 63.352C21.2349 63.352 20.8267 63.3703 20.4255 63.4064C19.6197 63.4793 19.0255 64.1914 19.0982 64.9971C19.1709 65.8027 19.8855 66.3963 20.6886 66.3242C21.0027 66.2959 21.3222 66.2814 21.6382 66.2814C24.1427 66.2814 26.5638 67.1871 28.4552 68.8318C28.8316 69.1588 29.3484 69.2723 29.8269 69.1324C30.5054 68.9342 31.2058 68.8338 31.9087 68.8338C33.4417 68.8338 34.9136 69.2996 36.1658 70.1807C36.6882 70.5482 37.3878 70.5352 37.8959 70.1484C39.1939 69.1605 40.7435 68.6385 42.3771 68.6385C46.0111 68.6385 49.0404 71.2687 49.6666 74.7244H11.4283C11.9091 72.1918 13.3125 69.9219 15.4181 68.3465C16.066 67.8619 16.1982 66.9439 15.7138 66.2961C15.2293 65.6482 14.3113 65.516 13.6634 66.0006C10.8138 68.1322 8.96519 71.2572 8.45601 74.7244H7.27671C5.13687 74.7244 3.31656 76.2543 2.948 78.3621L0.0661677 94.8486C-0.158051 96.1303 0.193511 97.4365 1.03062 98.4326C1.86753 99.4287 3.0939 99.9998 4.39488 99.9998H92.4365V100ZM54.5566 63.9102C55.5212 63.5424 56.3082 62.8246 56.7724 61.8891C58.0273 59.3617 60.5574 57.7916 63.3757 57.7916C66.1941 57.7916 68.7242 59.3617 69.9791 61.8893C70.4437 62.8248 71.2306 63.5426 72.1947 63.9102C75.1076 65.0209 77.013 67.8633 76.9365 70.9828C76.8431 74.7979 73.789 77.9482 69.983 78.1551C68.6292 78.2285 67.2886 77.9342 66.107 77.3033C64.3968 76.3898 62.3544 76.3898 60.6443 77.3033C59.4628 77.9342 58.1218 78.2285 56.7681 78.1551C56.7361 78.1533 56.7046 78.1543 56.673 78.1545C56.2417 76.2338 54.5939 74.8414 52.6306 74.7352C52.3554 72.575 51.4138 70.6201 50.0152 69.0869C50.5744 66.7346 52.2671 64.7834 54.5566 63.9102ZM3.27359 96.5479C2.99058 96.2109 2.87632 95.7867 2.9521 95.3531L5.83414 78.8666C5.95699 78.1639 6.56382 77.6539 7.2771 77.6539H52.3904C53.1035 77.6539 53.7105 78.1639 53.8334 78.8666L56.7154 95.3531C56.7912 95.7865 56.6769 96.2109 56.3939 96.5479C56.1109 96.8848 55.7127 97.0703 55.2726 97.0703H4.39488C3.95484 97.0703 3.5566 96.8848 3.27359 96.5479Z" fill="#095052"/>
<path d="M82.437 8.13947H73.4905C72.6813 8.13947 72.0256 8.79532 72.0256 9.60431C72.0256 10.4133 72.6813 11.0692 73.4905 11.0692H82.437C83.2461 11.0692 83.9018 10.4133 83.9018 9.60431C83.9018 8.79532 83.2461 8.13947 82.437 8.13947Z" fill="#095052"/>
<path d="M67.1066 8.13947H44.3142C43.505 8.13947 42.8494 8.79532 42.8494 9.60431C42.8494 10.4133 43.505 11.0692 44.3142 11.0692H67.1066C67.9158 11.0692 68.5714 10.4133 68.5714 9.60431C68.5714 8.79532 67.9156 8.13947 67.1066 8.13947Z" fill="#095052"/>
</svg>
