<svg width="50" height="50" viewBox="0 0 50 50" fill="none" xmlns="http://www.w3.org/2000/svg">
<path d="M20.3865 24.5438C20.0514 25.1242 19.9624 25.8004 20.136 26.4478L20.7031 28.5645C20.8766 29.2119 21.2917 29.753 21.8723 30.0881C22.2589 30.3114 22.6879 30.4253 23.1228 30.4253C23.3407 30.4253 23.5602 30.3967 23.7763 30.3388C24.4237 30.1654 24.9648 29.7501 25.2999 29.1698C25.6351 28.5893 25.724 27.9131 25.5505 27.2657L24.9832 25.149C24.8098 24.5016 24.3947 23.9605 23.8142 23.6253C23.2339 23.2902 22.5578 23.2012 21.9102 23.3747C21.2627 23.5481 20.7216 23.9633 20.3865 24.5438ZM21.6551 25.2762C21.7946 25.0346 22.0197 24.8619 22.2893 24.7897C22.3794 24.7656 22.47 24.754 22.5593 24.754C23.0203 24.754 23.4434 25.0621 23.5683 25.5282L24.1356 27.6449C24.2077 27.9143 24.1706 28.1958 24.0313 28.4374C23.8917 28.679 23.6666 28.8517 23.3971 28.9239C22.8402 29.0731 22.2671 28.7416 22.118 28.1855L21.5508 26.0688C21.4785 25.7992 21.5156 25.5177 21.6551 25.2762Z" fill="#61BC47"/>
<path d="M41.4654 23.3748C40.8182 23.2016 40.1419 23.2903 39.5614 23.6255C38.9811 23.9606 38.5659 24.5017 38.3924 25.149L37.8251 27.2658C37.6517 27.9132 37.7406 28.5894 38.0757 29.1698C38.4108 29.7502 38.952 30.1654 39.5993 30.3389C39.8155 30.3968 40.0349 30.4254 40.2528 30.4254C40.6876 30.4254 41.1168 30.3114 41.5033 30.0882C42.0838 29.753 42.4989 29.2119 42.6725 28.5646L43.2397 26.4479C43.4131 25.8005 43.3241 25.1243 42.9891 24.5439C42.6539 23.9635 42.1128 23.5483 41.4654 23.3748ZM41.8248 26.0688L41.2576 28.1855C41.1086 28.7416 40.5347 29.0732 39.9785 28.9238C39.709 28.8517 39.4839 28.6788 39.3443 28.4373C39.2049 28.1957 39.1678 27.9144 39.24 27.6449L39.8073 25.5281C39.9322 25.0621 40.3552 24.754 40.8163 24.754C40.9055 24.754 40.9962 24.7655 41.0863 24.7898C41.3559 24.8619 41.581 25.0348 41.7205 25.2763C41.8599 25.5179 41.897 25.7993 41.8248 26.0688Z" fill="#61BC47"/>
<path d="M25.7173 21.266V23.4574C25.7173 24.8409 26.8429 25.9666 28.2264 25.9666C29.61 25.9666 30.7355 24.841 30.7355 23.4574V21.266C30.7355 19.8824 29.61 18.7568 28.2264 18.7568C26.8429 18.7568 25.7173 19.8825 25.7173 21.266ZM29.2707 21.266V23.4574C29.2707 24.0332 28.8021 24.5018 28.2264 24.5018C27.6506 24.5018 27.1821 24.0333 27.1821 23.4574V21.266C27.1821 20.6902 27.6506 20.2217 28.2264 20.2217C28.8022 20.2217 29.2707 20.6902 29.2707 21.266Z" fill="#61BC47"/>
<path d="M32.6401 21.266V23.4574C32.6401 24.8409 33.7657 25.9666 35.1493 25.9666C36.5328 25.9666 37.6584 24.841 37.6584 23.4574V21.266C37.6584 19.8824 36.5328 18.7568 35.1493 18.7568C33.7658 18.7568 32.6401 19.8825 32.6401 21.266ZM36.1937 21.266V23.4574C36.1937 24.0332 35.7252 24.5018 35.1494 24.5018C34.5735 24.5018 34.1051 24.0333 34.1051 23.4574V21.266C34.1051 20.6902 34.5736 20.2217 35.1494 20.2217C35.7252 20.2217 36.1937 20.6902 36.1937 21.266Z" fill="#61BC47"/>
<path d="M15.0836 40.703L14.9167 40.87L14.7498 40.703C14.2814 40.2347 13.6587 39.9768 12.9964 39.9768C12.3341 39.9768 11.7115 40.2347 11.2431 40.7031C10.7748 41.1714 10.5168 41.7941 10.5168 42.4565C10.5168 43.1188 10.7748 43.7415 11.2431 44.2098L14.0667 47.0334C14.3011 47.2677 14.6089 47.3849 14.9167 47.3848C15.2246 47.3848 15.5325 47.2676 15.7668 47.0334L18.5904 44.2098C19.0587 43.7415 19.3167 43.1188 19.3167 42.4565C19.3167 41.7942 19.0587 41.1714 18.5903 40.7031C17.6237 39.7363 16.0504 39.7364 15.0836 40.703ZM17.5545 43.174L14.9167 45.8118L12.279 43.174C11.8833 42.7783 11.8833 42.1345 12.279 41.7388C12.4706 41.5472 12.7253 41.4417 12.9964 41.4417C13.2675 41.4417 13.5224 41.5472 13.714 41.7388L14.3989 42.4237C14.685 42.7097 15.1487 42.7097 15.4347 42.4237L16.1195 41.7389C16.5152 41.3434 17.1588 41.3432 17.5545 41.7389C17.9501 42.1344 17.9501 42.7783 17.5545 43.174Z" fill="#61BC47"/>
<path d="M37.9346 45.1655C37.9346 45.57 38.2624 45.8979 38.667 45.8979H43.3647C43.7693 45.8979 44.0972 45.57 44.0972 45.1655C44.0972 44.761 43.7693 44.4331 43.3647 44.4331H38.667C38.2625 44.4331 37.9346 44.761 37.9346 45.1655Z" fill="#095052"/>
<path d="M46.2182 50C47.1491 50 48.0185 49.6318 48.6664 48.9634C49.3142 48.2949 49.6549 47.4144 49.6257 46.484L48.6573 15.5879C48.6437 15.1541 48.5435 14.7348 48.3593 14.3415L45.591 8.42871C45.4855 8.20352 45.4299 7.95293 45.4299 7.7041V2.33848C45.4299 1.04902 44.3808 0 43.0914 0H20.2843C18.9948 0 17.9458 1.04902 17.9458 2.33848V7.7041C17.9458 7.95293 17.8901 8.20352 17.7846 8.42871L15.0161 14.3415C14.832 14.7347 14.7318 15.154 14.7182 15.5878L14.5431 21.1757C14.5304 21.58 14.8479 21.9181 15.2522 21.9307C15.2601 21.931 15.2678 21.9311 15.2756 21.9311C15.6695 21.9311 15.9948 21.6181 16.0072 21.2216L16.1823 15.6337C16.1896 15.4001 16.2436 15.1743 16.3427 14.9626L19.1112 9.0499C19.3071 8.63154 19.4106 8.16621 19.4106 7.7041V2.33848C19.4106 1.85674 19.8026 1.46484 20.2843 1.46484H43.0914C43.5731 1.46484 43.965 1.85674 43.965 2.33848V7.7041C43.965 8.16621 44.0686 8.63164 44.2644 9.0499L47.0328 14.9626C47.132 15.1744 47.1859 15.4002 47.1933 15.6338L48.1617 46.53C48.1783 47.0606 47.9841 47.5628 47.6145 47.9439C47.2451 48.3252 46.7492 48.5352 46.2182 48.5352H29.7073C29.8318 48.1833 29.8665 47.8019 29.8005 47.4243L28.5983 40.5476C29.4421 40.5459 30.2711 40.3395 31.0122 39.9437C31.4353 39.7178 31.9405 39.7179 32.3634 39.9437C33.1903 40.3853 34.1264 40.5918 35.071 40.5401C37.7319 40.3955 39.8674 38.1936 39.9326 35.5272C39.986 33.3481 38.6545 31.3625 36.6191 30.5863C36.4822 30.5341 36.3693 30.43 36.3014 30.2932C35.425 28.5276 33.6571 27.431 31.6878 27.431C29.7184 27.431 27.9506 28.5276 27.074 30.2933C27.0062 30.43 26.8933 30.5341 26.7563 30.5863C25.3726 31.1141 24.3 32.2056 23.7823 33.555C23.0193 33.1105 22.1336 32.8544 21.1886 32.8544C20.2227 32.8544 19.2987 33.1161 18.4879 33.6154C17.7166 33.1801 16.8504 32.952 15.9545 32.952C15.8492 32.952 15.7442 32.9562 15.6393 32.9627L15.9073 24.4137C15.92 24.0094 15.6025 23.6713 15.1982 23.6587C15.1904 23.6584 15.1826 23.6583 15.1749 23.6583C14.7809 23.6583 14.4556 23.9713 14.4432 24.3678L14.1855 32.5903C13.1706 31.9955 12.0097 31.676 10.8192 31.676C10.6175 31.676 10.4134 31.6852 10.2128 31.7032C9.80984 31.7396 9.51277 32.0957 9.5491 32.4985C9.58543 32.9014 9.94275 33.1981 10.3443 33.1621C10.5013 33.1479 10.6611 33.1407 10.8191 33.1407C12.0714 33.1407 13.2819 33.5936 14.2276 34.4159C14.4158 34.5794 14.6742 34.6361 14.9135 34.5662C15.2527 34.4671 15.6029 34.4169 15.9544 34.4169C16.7209 34.4169 17.4568 34.6498 18.0829 35.0903C18.3441 35.2741 18.6939 35.2676 18.9479 35.0742C19.5969 34.5803 20.3718 34.3192 21.1885 34.3192C23.0055 34.3192 24.5202 35.6344 24.8333 37.3622H5.71414C5.95457 36.0959 6.65623 34.9609 7.70906 34.1732C8.03298 33.931 8.0991 33.472 7.85691 33.148C7.61463 32.8241 7.15564 32.758 6.83172 33.0003C5.40691 34.0661 4.48259 35.6286 4.228 37.3622H3.63836C2.56843 37.3622 1.65828 38.1271 1.474 39.1811L0.0330838 47.4243C-0.0790255 48.0651 0.0967557 48.7183 0.51531 49.2163C0.933767 49.7144 1.54695 49.9999 2.19744 49.9999H46.2182V50ZM27.2783 31.9551C27.7606 31.7712 28.1541 31.4123 28.3862 30.9445C29.0136 29.6809 30.2787 28.8958 31.6879 28.8958C33.097 28.8958 34.3621 29.6809 34.9895 30.9446C35.2218 31.4124 35.6153 31.7713 36.0973 31.9551C37.5538 32.5104 38.5065 33.9316 38.4682 35.4914C38.4216 37.3989 36.8945 38.9741 34.9915 39.0775C34.3146 39.1143 33.6443 38.9671 33.0535 38.6517C32.1984 38.1949 31.1772 38.1949 30.3221 38.6517C29.7314 38.9671 29.0609 39.1143 28.3841 39.0775C28.368 39.0767 28.3523 39.0771 28.3365 39.0772C28.1209 38.1169 27.2969 37.4207 26.3153 37.3676C26.1777 36.2875 25.7069 35.3101 25.0076 34.5435C25.2872 33.3673 26.1336 32.3917 27.2783 31.9551ZM1.63679 48.2739C1.49529 48.1055 1.43816 47.8934 1.47605 47.6766L2.91707 39.4333C2.97849 39.0819 3.28191 38.827 3.63855 38.827H26.1952C26.5517 38.827 26.8552 39.0819 26.9167 39.4333L28.3577 47.6766C28.3956 47.8933 28.3385 48.1055 28.1969 48.2739C28.0554 48.4424 27.8563 48.5352 27.6363 48.5352H2.19744C1.97742 48.5352 1.7783 48.4424 1.63679 48.2739Z" fill="#095052"/>
<path d="M41.2186 4.06982H36.7454C36.3408 4.06982 36.0129 4.39775 36.0129 4.80225C36.0129 5.20674 36.3408 5.53467 36.7454 5.53467H41.2186C41.6232 5.53467 41.951 5.20674 41.951 4.80225C41.951 4.39775 41.6232 4.06982 41.2186 4.06982Z" fill="#095052"/>
<path d="M33.5534 4.06982H22.1572C21.7526 4.06982 21.4248 4.39775 21.4248 4.80225C21.4248 5.20674 21.7526 5.53467 22.1572 5.53467H33.5534C33.958 5.53467 34.2858 5.20674 34.2858 4.80225C34.2858 4.39775 33.9579 4.06982 33.5534 4.06982Z" fill="#095052"/>
</svg>
