<svg width="62" height="68" viewBox="0 0 62 68" fill="none" xmlns="http://www.w3.org/2000/svg">
<path d="M60.4226 65.0953H54.1814C54.25 65.0261 54.3186 64.957 54.3872 64.8878C59.2566 59.8391 60.4912 52.1623 57.542 45.7996C56.3075 43.1715 54.4558 41.3042 52.0553 40.2668C48.2146 38.607 48.3518 37.5004 48.4889 36.5322V36.463C48.5575 35.9789 48.6947 35.5639 48.969 35.0798C50.0664 33.0742 49.5863 29.8928 49.312 28.7171C49.9292 24.36 47.1173 22.2852 46.9801 22.1469C46.6372 21.9394 46.2943 21.8011 45.8827 21.8702C44.5111 22.0777 43.7566 23.4609 43.208 24.5675V24.6366C42.865 25.2591 42.3164 25.674 41.9735 25.674H41.8363C41.6305 25.674 41.1504 25.3282 40.8075 24.775C39.7788 23.046 37.8584 22.3544 37.6527 22.2852C37.0354 22.0777 36.3496 22.2852 35.9381 22.8385C34.4292 24.775 34.4978 27.818 34.5664 28.9246C33.812 31.4143 34.4978 34.1116 35.6637 35.6331C35.7323 35.7023 35.7323 35.7714 35.8009 35.8406C35.8009 35.8406 35.8009 35.9097 35.7323 35.9097C35.2522 37.2238 34.3606 39.7135 35.9381 42.9641C36.281 43.7248 37.2412 44.0706 37.9956 43.6557C38.75 43.3099 39.0929 42.3416 38.6814 41.5809C37.7212 39.5061 38.2699 38.0537 38.6128 36.9471C38.75 36.6013 38.8186 36.3247 38.8872 36.1172C39.1615 35.0798 38.5442 34.3882 38.2699 34.0424C38.2013 33.9732 38.1327 33.8349 38.0642 33.7658C37.5155 33.1433 36.8982 31.276 37.5155 29.6853C37.5841 29.4778 37.6527 29.2012 37.5841 28.9246C37.5155 28.4404 37.5155 27.1264 37.7898 25.9507C37.927 26.089 38.0642 26.2273 38.2013 26.4348C39.1615 27.9563 40.4646 28.7862 41.8363 28.7862H41.9735C43.7566 28.7862 45.1969 27.3339 45.8827 26.089L45.9513 26.0198C45.9513 25.9507 46.0199 25.9507 46.0199 25.8815C46.2942 26.504 46.4314 27.3339 46.2257 28.5096C46.1571 28.7171 46.2257 28.9246 46.2257 29.132C46.5 30.3769 46.7058 32.6592 46.2257 33.5583C45.8142 34.319 45.5398 35.149 45.4027 35.9789V36.048C45.0597 38.3303 45.4712 40.7509 50.7522 43.1024C52.5354 43.8631 53.8385 45.1772 54.7301 47.1137C57.1305 52.3007 56.1018 58.5942 52.1239 62.7438C50.7522 64.1962 48.8319 65.0261 46.9801 65.0261H46.7058C46.4314 65.0261 46.1571 65.0261 45.8827 65.0261C43.0022 64.8878 40.6018 64.1962 38.6814 63.3663C38.3385 63.228 37.9956 63.0896 37.7212 62.8822C37.6527 62.8822 37.6527 62.813 37.5841 62.813C37.5155 62.7438 37.4469 62.7438 37.3783 62.6747C36.5553 62.2597 35.8695 61.7756 35.3894 61.4298C37.3097 59.0092 38.3385 55.2745 38.6128 53.0614C38.6128 52.9231 38.6814 52.7848 38.6814 52.6465C38.6814 52.5081 38.6814 52.3698 38.6814 52.2315V52.024C38.6814 51.7474 38.6814 51.0558 38.6814 51.0558C38.6814 50.9866 38.6814 50.8483 38.6814 50.8483C38.6128 49.6034 38.3385 48.3585 37.8584 47.1828C37.0354 45.1772 35.1836 43.9323 33.0575 43.9323C30.8628 43.9323 29.0111 45.2463 28.1881 47.3211C27.6394 48.6352 27.365 50.0184 27.365 51.4707C27.365 52.2315 27.4336 52.9231 27.5708 53.5455C27.9137 55.482 28.9425 59.1475 30.7943 61.5681C30.1084 62.0522 29.354 62.5364 28.531 62.9513C25.5819 64.4037 22.2212 65.1644 18.5863 65.1644H9.67035V64.957C9.4646 58.3867 8.84735 38.4687 17.6261 32.3134C26.542 26.0198 28.0509 17.7898 29.0796 11.6345C29.5597 14.1243 30.5885 15.8533 32.0973 16.6832C32.646 16.9599 33.1947 17.0982 33.8119 17.0982C34.7035 17.0982 35.5951 16.7524 36.3496 16.0608C38.4757 14.1935 39.7102 9.76723 38.0642 3.61198C39.6416 4.16526 41.0819 5.27182 42.1106 6.72418C42.5907 7.34662 43.208 7.83074 44.031 8.03823L49.2434 9.49059C49.4491 9.55975 49.5177 9.69807 49.5177 9.90555C49.4491 11.7729 48.969 13.7785 48.0089 13.986C47.2544 14.1935 46.2257 14.2626 45.1969 14.401C42.1106 14.7468 38.2013 15.1617 37.3783 18.6889C37.1726 19.5188 37.7212 20.3487 38.5443 20.5562C39.3673 20.7637 40.1903 20.2796 40.396 19.3805C40.7389 18.0664 42.7279 17.7206 45.5398 17.444C46.6372 17.3057 47.8031 17.2365 48.7633 16.9599C51.0951 16.3374 52.4668 13.8477 52.604 9.97471C52.6726 8.31486 51.6438 6.93166 50.0664 6.44754L44.854 4.99518C44.7854 4.99518 44.7168 4.92602 44.6482 4.85686C42.385 1.6755 38.6814 -0.191823 34.9093 0.0156574C32.9204 0.153978 31.0686 0.845578 29.6969 2.0213C29.6283 2.0213 29.6283 2.09046 29.6283 2.09046C28.9425 2.7129 28.3252 3.4045 27.9137 4.23442C27.0221 5.89426 26.6792 8.10738 26.2677 10.5971C25.2389 16.5449 24.0044 23.945 15.9801 29.6162C5.82965 36.7397 6.51549 57.211 6.72124 64.8878V64.957H1.50885C0.685841 64.957 0 65.6486 0 66.4785C0 67.3084 0.685841 68 1.50885 68H18.7235C22.9071 68 26.6792 67.1009 30.0398 65.4411C31.2058 64.8186 32.3031 64.1962 33.1947 63.4354C33.3319 63.5737 33.469 63.6429 33.6062 63.7121C33.8805 63.9196 34.0863 64.0579 34.3606 64.2654C34.4978 64.3345 34.5664 64.4037 34.7035 64.4728C34.9093 64.6112 35.0465 64.6803 35.2522 64.8186C35.3894 64.8878 35.5951 65.0261 35.7323 65.0953C35.9381 65.1644 36.1438 65.3028 36.281 65.3719C39.1615 66.8243 42.4535 67.6542 45.9513 67.8617H46.0199C46.5686 67.8617 47.1173 67.9308 47.6659 67.9308H60.4911C61.3142 67.9308 62 67.2392 62 66.4093C62 65.7869 61.3142 65.0953 60.4226 65.0953ZM32.0973 4.16526C32.8518 3.68114 33.7434 3.33534 34.7721 3.26618C36.6239 9.00646 35.5266 12.7411 34.3606 13.7785C33.9491 14.1243 33.7434 13.986 33.6062 13.986C32.5774 13.3636 31.3429 10.2513 32.0973 4.16526ZM33.1261 59.4241C31.9602 57.8335 31 55.0671 30.6571 52.9231C30.5885 52.439 30.5199 51.9549 30.5199 51.4016C30.5199 50.3642 30.7257 49.3959 31.1372 48.4969L31.2058 48.3585C31.6173 47.3211 32.5089 46.9753 33.1947 46.9753C33.5376 46.9753 34.635 47.0445 35.115 48.2894C35.458 49.1885 35.6637 50.0875 35.7323 51.1249C35.7323 51.1249 35.7323 51.6782 35.7323 52.024V52.2315C35.7323 52.3007 35.7323 52.3698 35.7323 52.439C35.7323 52.5081 35.7323 52.5773 35.6637 52.7156C35.3894 54.8596 34.3606 57.7643 33.1261 59.4241Z" fill="#61BC47"/>
</svg>
