<svg width="78" height="78" viewBox="0 0 78 78" fill="none" xmlns="http://www.w3.org/2000/svg">
<g filter="url(#filter0_d_496_377)">
<path fill-rule="evenodd" clip-rule="evenodd" d="M72.0153 35.6678L72.2494 36.1356L72.4708 36.6097L72.679 37.0898L72.8736 37.5756L73.054 38.0665L73.2199 38.5623L73.3708 39.0625L73.5063 39.5666L73.6261 40.0742L73.7297 40.5848L73.817 41.0979L73.8877 41.613L73.9415 42.1295L73.9782 42.6471L73.9978 43.1651L74 43.683L73.9849 44.2003L73.9523 44.7165L73.9024 45.231L73.8352 45.7434L73.7508 46.2531L73.6492 46.7597L73.5308 47.2626L73.3957 47.7615L73.2442 48.2559L73.0765 48.7453L72.893 49.2293L72.694 49.7076L72.4799 50.1798L72.251 50.6456L72.0079 51.1046L71.751 51.5565L71.4806 52.0012L71.1974 52.4383L70.9017 52.8677L70.5941 53.2891L70.2751 53.7023L69.9451 54.1074L69.6047 54.504L69.2544 54.8921L68.8946 55.2717L68.526 55.6427L68.149 56.005L67.7641 56.3588L67.3719 56.704L66.973 57.0407L66.5678 57.369L66.1569 57.689L65.7407 58.001L65.3199 58.3051L64.8948 58.6014L64.4661 58.8903L64.034 59.172L63.5992 59.4467L63.162 59.7147L62.7227 59.9764L62.2819 60.232L61.8399 60.4819L61.3969 60.7265L60.9533 60.966L60.5094 61.2009L60.0655 61.4314L59.6216 61.658L59.1782 61.881L58.7352 62.1008L58.2928 62.3176L57.8512 62.5318L57.4104 62.7439L56.9705 62.954L56.5314 63.1624L56.0932 63.3695L55.6558 63.5756L55.2192 63.7807L54.7832 63.9852L54.3478 64.1892L53.9127 64.3928L53.4779 64.5961L53.043 64.7992L52.608 65.0019L52.1726 65.2044L51.7365 65.4066L51.2995 65.6083L50.8615 65.8094L50.4221 66.0098L49.9811 66.2092L49.5383 66.4074L49.0935 66.6042L48.6465 66.7992L48.197 66.9922L47.7449 67.1827L47.29 67.3706L46.8322 67.5552L46.3713 67.7364L45.9072 67.9136L45.4398 68.0864L44.969 68.2544L44.4949 68.4172L44.0173 68.5743L43.5363 68.7254L43.052 68.8698L42.5643 69.0073L42.0733 69.1374L41.5792 69.2598L41.082 69.3739L40.582 69.4795L40.0792 69.5761L39.5739 69.6635L39.0663 69.7414L38.5565 69.8094L38.0448 69.8674L37.5315 69.9151L37.0169 69.9523L36.5011 69.979L35.9844 69.9949L35.4672 70L34.9496 69.9942L34.4321 69.9774L33.9148 69.9495L33.3981 69.9106L32.8822 69.8606L32.3674 69.7995L31.8541 69.7273L31.3425 69.6441L30.8328 69.5499L30.3254 69.4448L29.8205 69.3288L29.3184 69.202L28.8194 69.0647L28.3236 68.9168L27.8314 68.7585L27.343 68.5901L26.8586 68.4116L26.3785 68.2232L25.9028 68.0251L25.4317 67.8176L24.9654 67.6008L24.5041 67.3749L24.048 67.1403L23.5972 66.897L23.1518 66.6454L22.712 66.3857L22.2779 66.1182L21.8495 65.8431L21.427 65.5607L21.0104 65.2712L20.5998 64.9749L20.1951 64.6722L19.7965 64.3632L19.404 64.0484L19.0174 63.7279L18.6367 63.4021L18.262 63.0713L17.893 62.7358L17.5298 62.3958L17.1722 62.0517L16.8202 61.7038L16.4735 61.3522L16.132 60.9973L15.7956 60.6393L15.4641 60.2784L15.1373 59.9149L14.8152 59.549L14.4974 59.1808L14.1838 58.8105L13.8742 58.4383L13.5684 58.0644L13.2663 57.6888L12.9677 57.3116L12.6724 56.9329L12.3802 56.5528L12.0911 56.1713L11.8048 55.7885L11.5213 55.4043L11.2405 55.0187L10.9622 54.6318L10.6865 54.2433L10.4133 53.8534L10.1426 53.4618L9.87442 53.0685L9.60877 52.6734L9.34575 52.2764L9.08548 51.8774L8.82808 51.4762L8.57374 51.0726L8.32266 50.6666L8.07507 50.2579L7.83123 49.8465L7.59143 49.4323L7.35598 49.015L7.12518 48.5946L6.8994 48.1711L6.67898 47.7442L6.46431 47.314L6.25578 46.8803L6.05378 46.4432L5.85873 46.0027L5.67105 45.5587L5.49117 45.1112L5.3195 44.6604L5.15648 44.2062L5.00253 43.7489L4.85808 43.2884L4.72353 42.8249L4.59928 42.3585L4.48573 41.8895L4.38325 41.4181L4.2922 40.9445L4.21291 40.4688L4.1457 39.9914L4.09086 39.5126L4.04865 39.0326L4.0193 38.5518L4.00303 38.0704L4 37.5889L4.01035 37.1075L4.03419 36.6266L4.07157 36.1466L4.12252 35.6678L4.18699 35.1907L4.26488 34.7155L4.35604 34.2426L4.46025 33.7724L4.57727 33.3052L4.7068 32.8413L4.84847 32.3811L5.00191 31.9247L5.16669 31.4725L5.34233 31.0248L5.52834 30.5816L5.7242 30.1432L5.92936 29.7098L6.14324 29.2814L6.36526 28.8581L6.59482 28.4401L6.83131 28.0272L7.07413 27.6196L7.32265 27.2172L7.57628 26.8199L7.83441 26.4277L8.09647 26.0403L8.36187 25.6576L8.63008 25.2795L8.90056 24.9058L9.17283 24.5362L9.44641 24.1706L9.72087 23.8086L9.99582 23.45L10.2709 23.0945L10.5458 22.7418L10.8202 22.3917L11.094 22.044L11.3669 21.6982L11.6389 21.3542L11.9097 21.0117L12.1795 20.6704L12.4482 20.3303L12.7159 19.991L12.9828 19.6525L13.2488 19.3146L13.5144 18.9771L13.7795 18.64L14.0445 18.3033L14.3096 17.9669L14.575 17.6307L14.841 17.2948L15.1079 16.9592L15.376 16.6239L15.6455 16.2891L15.9168 15.9548L16.1902 15.6212L16.466 15.2884L16.7445 14.9567L17.026 14.6261L17.3108 14.297L17.5992 13.9696L17.8914 13.6442L18.1878 13.321L18.4886 13.0003L18.7941 12.6826L19.1044 12.368L19.4198 12.057L19.7405 11.7499L20.0666 11.4472L20.3983 11.1491L20.7357 10.856L21.0789 10.5684L21.428 10.2866L21.783 10.011L22.144 9.74194L22.5109 9.4799L22.8838 9.22519L23.2625 8.97818L23.6471 8.73923L24.0373 8.50865L24.4332 8.28679L24.8345 8.07394L25.2411 7.87039L25.6527 7.67641L26.0693 7.49225L26.4905 7.31814L26.9161 7.15428L27.3459 7.00087L27.7796 6.85806L28.2169 6.72599L28.6575 6.60479L29.1011 6.49454L29.5474 6.39531L29.9961 6.30717L30.4469 6.23013L30.8994 6.1642L31.3534 6.10938L31.8084 6.06562L32.2642 6.03288L32.7205 6.01109L33.1769 6.00016L33.6331 6L34.0888 6.01049L34.5438 6.03151L34.9976 6.06292L35.4501 6.10458L35.901 6.15632L36.3499 6.218L36.7966 6.28945L37.2408 6.37048L37.6824 6.46094L38.121 6.56064L38.5565 6.66942L38.9886 6.78709L39.417 6.91348L39.8417 7.04843L40.2624 7.19176L40.6788 7.3433L41.0909 7.50286L41.4983 7.67024L41.9011 7.84525L42.2989 8.02765L42.6917 8.21724L43.0793 8.41379L43.4616 8.61704L43.8384 8.82676L44.2097 9.04269L44.5753 9.26457L44.9353 9.49213L45.2894 9.7251L45.6377 9.96319L45.9801 10.2061L46.3165 10.4536L46.6471 10.7054L46.9717 10.9611L47.2904 11.2205L47.6032 11.4833L47.9102 11.7492L48.2114 12.0178L48.5069 12.2889L48.7967 12.5622L49.0811 12.8374L49.36 13.1142L49.6337 13.3924L49.9023 13.6716L50.1659 13.9516L50.4247 14.2321L50.6789 14.5129L50.9287 14.7937L51.1743 15.0743L51.416 15.3545L51.654 15.6338L51.8885 15.9122L52.12 16.1893L52.3487 16.4649L52.575 16.7388L52.7992 17.0107L53.0217 17.2804L53.2429 17.5478L53.4631 17.8126L53.6828 18.0747L53.9023 18.3341L54.1221 18.5905L54.3425 18.844L54.564 19.0945L54.7869 19.3419L55.0116 19.5863L55.2386 19.8277L55.4681 20.0662L55.7005 20.3019L55.9362 20.5348L56.1754 20.7653L56.4185 20.9933L56.6657 21.2193L56.9172 21.4432L57.1734 21.6655L57.4344 21.8864L57.7003 22.1062L57.9713 22.3251L58.2476 22.5436L58.5292 22.7619L58.8161 22.9804L59.1085 23.1995L59.4063 23.4194L59.7095 23.6407L60.018 23.8636L60.3319 24.0886L60.651 24.316L60.9752 24.5461L61.3043 24.7795L61.6383 25.0163L61.9769 25.2571L62.3199 25.5022L62.6669 25.7519L63.0177 26.0067L63.3719 26.2669L63.729 26.5328L64.0888 26.8049L64.4507 27.0833L64.8142 27.3685L65.1788 27.6607L65.5439 27.9603L65.9091 28.2673L66.2737 28.5822L66.6372 28.905L66.9988 29.2359L67.358 29.5752L67.7141 29.9228L68.0665 30.279L68.4145 30.6437L68.7575 31.017L69.0947 31.3988L69.4256 31.7893L69.7495 32.1882L70.0658 32.5955L70.3738 33.011L70.6729 33.4347L70.9625 33.8664L71.2421 34.3057L71.5112 34.7526L71.7691 35.2067L72.0153 35.6678Z" fill="#095052" fill-opacity="0.1"/>
<path d="M70.7564 33.113L65.3196 22.4122C64.8301 21.4488 63.8944 20.8506 62.8776 20.8506C61.0443 20.8506 22.9519 20.8506 21.1219 20.8506C20.105 20.8506 19.1693 21.4488 18.6798 22.4122L13.243 33.113C12.9556 33.6788 12.9825 34.3655 13.3135 34.9047C13.6203 35.4047 14.1413 35.703 14.7071 35.703H19.1338V57.2288C19.1338 58.7565 20.2847 59.9996 21.6995 59.9996C22.28 59.9996 61.72 59.9996 62.3004 59.9996C63.7151 59.9996 64.8661 58.7566 64.8661 57.2288V47.988C64.8661 47.5025 64.4727 47.109 63.9871 47.109C63.5015 47.109 63.1081 47.5024 63.1081 47.988V57.2289C63.1081 57.7779 62.7382 58.2418 62.3003 58.2418H42.8788V25.4L47.4632 34.4228C47.8643 35.2126 48.6347 35.7033 49.4734 35.7033H63.1078V43.8864C63.1078 44.3719 63.5012 44.7654 63.9869 44.7654C64.4725 44.7654 64.8659 44.372 64.8659 43.8864V35.7033H69.2926C69.8584 35.7033 70.3793 35.4048 70.6862 34.9049C71.0169 34.3654 71.044 33.6789 70.7564 33.113ZM14.8019 33.9454C14.8019 33.9342 14.8041 33.9218 14.8103 33.9094L20.2471 23.2086C20.4351 22.8386 20.7703 22.6086 21.122 22.6086H40.5673C39.8955 23.9311 35.876 31.8417 34.9693 33.6266V33.6267C34.8693 33.8232 34.6996 33.9454 34.5263 33.9454C34.0303 33.9454 15.3372 33.9454 14.8019 33.9454ZM41.1208 58.2417H21.6994C21.2616 58.2418 20.8918 57.778 20.8918 57.2289V35.7032H34.5262C35.3679 35.7032 36.1367 35.2098 36.5364 34.4228L41.1208 25.3999V58.2417ZM49.4734 33.9452C49.3001 33.9452 49.1303 33.8231 49.0305 33.6265L43.4324 22.6085H62.8777C63.2292 22.6085 63.5644 22.8384 63.7526 23.2085L69.1894 33.9093C69.1957 33.9217 69.1978 33.9341 69.1978 33.9452C68.6616 33.9452 49.9695 33.9452 49.4734 33.9452Z" fill="#095052"/>
<path d="M41.9999 2.73293C40.0407 -0.410392 35.6445 -0.941252 32.9972 1.70976C31.9036 2.80488 31.3022 4.25859 31.3037 5.80324C31.3082 10.2667 34.2967 14.5875 39.5028 17.6577C39.643 17.7404 39.7968 17.7797 39.9485 17.7797C40.2493 17.7797 40.5424 17.6251 40.7064 17.3471C40.9529 16.9291 40.8139 16.3901 40.3958 16.1435C38.1926 14.844 33.0672 11.2351 33.0614 5.80148C33.0591 3.38062 35.1916 1.4775 37.627 1.80539C39.8037 2.09871 40.5574 3.80894 40.7249 3.98355C41.5011 4.79344 42.5605 4.79625 43.2909 3.95929C43.4861 3.73371 44.4284 1.75992 46.9083 1.75734C49.1283 1.75734 50.9366 3.56332 50.9391 5.7832C50.9443 10.9566 46.3423 14.493 43.5987 16.1407C43.1825 16.3907 43.0478 16.9305 43.2977 17.3468C43.5478 17.763 44.0876 17.8975 44.5038 17.6477C49.7918 14.4721 52.7017 10.2578 52.6971 5.78133C52.6908 0.123045 45.2545 -2.28551 41.9999 2.73293Z" fill="#61BC47"/>
</g>
<defs>
<filter id="filter0_d_496_377" x="0" y="0" width="78" height="78" filterUnits="userSpaceOnUse" color-interpolation-filters="sRGB">
<feFlood flood-opacity="0" result="BackgroundImageFix"/>
<feColorMatrix in="SourceAlpha" type="matrix" values="0 0 0 0 0 0 0 0 0 0 0 0 0 0 0 0 0 0 127 0" result="hardAlpha"/>
<feOffset dy="4"/>
<feGaussianBlur stdDeviation="2"/>
<feComposite in2="hardAlpha" operator="out"/>
<feColorMatrix type="matrix" values="0 0 0 0 0 0 0 0 0 0 0 0 0 0 0 0 0 0 0.25 0"/>
<feBlend mode="normal" in2="BackgroundImageFix" result="effect1_dropShadow_496_377"/>
<feBlend mode="normal" in="SourceGraphic" in2="effect1_dropShadow_496_377" result="shape"/>
</filter>
</defs>
</svg>
