<svg width="660" height="64" viewBox="0 0 660 64" fill="none" xmlns="http://www.w3.org/2000/svg">
<path d="M463.102 50.614H466.182V57.642H461.912C462.332 57.348 462.458 56.676 462.514 56.186L463.102 50.614ZM459.336 57.6V60.456H460.862V59C463.158 59 465.02 59 467.302 59V60.456H468.814V57.6H467.764V49.2C465.874 49.2 463.578 49.2 461.688 49.2L460.876 56.116C460.764 57.082 460.596 57.6 459.672 57.6H459.336ZM476.899 55.598C476.899 53.232 475.079 52.056 473.273 52.084C471.509 52.112 469.773 53.274 469.773 55.598C469.773 57.95 471.551 59.126 473.329 59.126C475.107 59.126 476.899 57.95 476.899 55.598ZM471.285 55.598C471.285 54.17 472.265 53.456 473.273 53.428C474.309 53.4 475.373 54.128 475.373 55.598C475.373 57.04 474.365 57.768 473.357 57.782C472.321 57.796 471.285 57.068 471.285 55.598ZM484.863 54.492C484.499 52.84 483.057 52.042 481.587 52.056C479.837 52.07 478.045 53.274 478.045 55.598C478.045 57.936 479.837 59.112 481.601 59.112C483.085 59.112 484.555 58.272 484.905 56.564H483.449C483.141 57.39 482.385 57.796 481.629 57.796C480.607 57.796 479.557 57.054 479.557 55.598C479.557 54.17 480.621 53.414 481.657 53.414C482.441 53.414 483.155 53.764 483.449 54.492H484.863ZM489.363 58.986V53.582H491.547V52.252H485.709V53.582H487.879V58.986H489.363ZM497.175 57.866C497.217 59.196 498.043 59.196 499.107 59.014L499.079 58.146C498.351 58.216 498.379 57.81 498.379 57.18V54.52C498.379 52.658 496.923 52.084 495.285 52.084C494.389 52.084 493.479 52.266 492.793 52.616L493.017 53.708C493.857 53.288 496.895 52.7 496.895 54.478V55.15C496.293 54.814 495.551 54.646 494.893 54.646C493.409 54.646 492.233 55.416 492.275 57.026C492.275 58.342 493.465 59.126 494.697 59.126C495.649 59.126 496.727 58.762 497.175 57.866ZM496.895 56.69C496.741 57.544 495.803 57.922 495.005 57.922C494.389 57.922 493.773 57.614 493.773 56.942C493.773 56.116 494.403 55.682 495.145 55.668C495.747 55.654 496.391 55.836 496.895 56.13V56.69ZM505.992 54.016C505.992 52.322 504.312 52.238 503.066 52.238H500.476C500.476 54.506 500.476 56.76 500.476 59.014H503.444C504.774 59.014 506.356 58.832 506.356 57.082C506.356 56.27 505.894 55.598 505.068 55.374C505.74 55.136 505.992 54.618 505.992 54.016ZM501.96 57.838V56.004H503.22C503.92 56.004 504.872 56.06 504.872 56.928C504.872 57.838 503.948 57.838 503.29 57.838H501.96ZM501.96 54.968V53.358H503.15C503.752 53.358 504.494 53.428 504.494 54.17C504.494 54.898 503.738 54.968 503.15 54.968H501.96ZM509.44 54.94V52.252H507.928V59H509.44V56.214H510.112C510.336 56.214 510.616 56.2 510.826 56.144L512.702 59H514.298V58.846L512.128 55.654C513.528 55.01 513.906 53.708 513.892 52.238H512.436C512.436 53.862 511.834 54.94 510.14 54.94H509.44ZM519.993 57.866C520.035 59.196 520.861 59.196 521.925 59.014L521.897 58.146C521.169 58.216 521.197 57.81 521.197 57.18V54.52C521.197 52.658 519.741 52.084 518.103 52.084C517.207 52.084 516.297 52.266 515.611 52.616L515.835 53.708C516.675 53.288 519.713 52.7 519.713 54.478V55.15C519.111 54.814 518.369 54.646 517.711 54.646C516.227 54.646 515.051 55.416 515.093 57.026C515.093 58.342 516.283 59.126 517.515 59.126C518.467 59.126 519.545 58.762 519.993 57.866ZM519.713 56.69C519.559 57.544 518.621 57.922 517.823 57.922C517.207 57.922 516.591 57.614 516.591 56.942C516.591 56.116 517.221 55.682 517.963 55.668C518.565 55.654 519.209 55.836 519.713 56.13V56.69ZM531.526 54.926V59C532.016 59 532.506 59 532.996 59C532.996 56.746 532.996 54.492 532.996 52.238C532.842 52.238 532.688 52.238 532.52 52.238L528.292 56.312V52.252H526.808V59.014H527.228L531.526 54.926ZM543.23 52.252V54.842H539.968V52.252H538.498V59H539.968V56.172H543.23V59H544.714V52.252H543.23ZM551.083 57.866C551.125 59.196 551.951 59.196 553.015 59.014L552.987 58.146C552.259 58.216 552.287 57.81 552.287 57.18V54.52C552.287 52.658 550.831 52.084 549.193 52.084C548.297 52.084 547.387 52.266 546.701 52.616L546.925 53.708C547.765 53.288 550.803 52.7 550.803 54.478V55.15C550.201 54.814 549.459 54.646 548.801 54.646C547.317 54.646 546.141 55.416 546.183 57.026C546.183 58.342 547.373 59.126 548.605 59.126C549.557 59.126 550.635 58.762 551.083 57.866ZM550.803 56.69C550.649 57.544 549.711 57.922 548.913 57.922C548.297 57.922 547.681 57.614 547.681 56.942C547.681 56.116 548.311 55.682 549.053 55.668C549.655 55.654 550.299 55.836 550.803 56.13V56.69ZM555.339 53.82V52.252H553.799V53.82C553.799 56.634 556.151 57.53 558.391 56.522V59H559.903V52.252H558.419V55.066C557.285 55.934 555.339 55.682 555.339 53.82ZM566.608 54.926V59C567.098 59 567.588 59 568.078 59C568.078 56.746 568.078 54.492 568.078 52.238C567.924 52.238 567.77 52.238 567.602 52.238L563.374 56.312V52.252H561.89V59.014H562.31L566.608 54.926ZM574.798 52.252V54.842H571.536V52.252H570.066V59H571.536V56.172H574.798V59H576.282V52.252H574.798ZM586.515 52.252V54.842H583.253V52.252H581.783V59H583.253V56.172H586.515V59H587.999V52.252H586.515ZM594.368 57.866C594.41 59.196 595.236 59.196 596.3 59.014L596.272 58.146C595.544 58.216 595.572 57.81 595.572 57.18V54.52C595.572 52.658 594.116 52.084 592.478 52.084C591.582 52.084 590.672 52.266 589.986 52.616L590.21 53.708C591.05 53.288 594.088 52.7 594.088 54.478V55.15C593.486 54.814 592.744 54.646 592.086 54.646C590.602 54.646 589.426 55.416 589.468 57.026C589.468 58.342 590.658 59.126 591.89 59.126C592.842 59.126 593.92 58.762 594.368 57.866ZM594.088 56.69C593.934 57.544 592.996 57.922 592.198 57.922C591.582 57.922 590.966 57.614 590.966 56.942C590.966 56.116 591.596 55.682 592.338 55.668C592.94 55.654 593.584 55.836 594.088 56.13V56.69ZM601.183 52.252V59H602.723V53.596H605.859V59H607.371V52.252H601.183ZM614.217 53.596V59H615.715V52.252C613.993 52.252 612.285 52.252 610.577 52.252L610.073 56.55C609.961 57.544 609.849 58.048 608.673 57.88L608.645 59C610.801 59.308 611.375 58.706 611.571 56.606L611.893 53.596H614.217ZM622.081 57.866C622.123 59.196 622.949 59.196 624.013 59.014L623.985 58.146C623.257 58.216 623.285 57.81 623.285 57.18V54.52C623.285 52.658 621.829 52.084 620.191 52.084C619.295 52.084 618.385 52.266 617.699 52.616L617.923 53.708C618.763 53.288 621.801 52.7 621.801 54.478V55.15C621.199 54.814 620.457 54.646 619.799 54.646C618.315 54.646 617.139 55.416 617.181 57.026C617.181 58.342 618.371 59.126 619.603 59.126C620.555 59.126 621.633 58.762 622.081 57.866ZM621.801 56.69C621.647 57.544 620.709 57.922 619.911 57.922C619.295 57.922 618.679 57.614 618.679 56.942C618.679 56.116 619.309 55.682 620.051 55.668C620.653 55.654 621.297 55.836 621.801 56.13V56.69ZM626.853 57.656V52.252H625.383V59C628.351 59 631.333 59 634.301 59V60.554H635.589L635.659 57.81H634.777V52.252H633.293V57.656H630.815V52.252H629.345V57.656H626.853ZM641.509 57.866C641.551 59.196 642.377 59.196 643.441 59.014L643.413 58.146C642.685 58.216 642.713 57.81 642.713 57.18V54.52C642.713 52.658 641.257 52.084 639.619 52.084C638.723 52.084 637.813 52.266 637.127 52.616L637.351 53.708C638.191 53.288 641.229 52.7 641.229 54.478V55.15C640.627 54.814 639.885 54.646 639.227 54.646C637.743 54.646 636.567 55.416 636.609 57.026C636.609 58.342 637.799 59.126 639.031 59.126C639.983 59.126 641.061 58.762 641.509 57.866ZM641.229 56.69C641.075 57.544 640.137 57.922 639.339 57.922C638.723 57.922 638.107 57.614 638.107 56.942C638.107 56.116 638.737 55.682 639.479 55.668C640.081 55.654 640.725 55.836 641.229 56.13V56.69ZM649.542 52.252V54.842H646.28V52.252H644.81V59H646.28V56.172H649.542V59H651.026V52.252H649.542ZM656.094 52.098C654.26 52.098 652.636 53.232 652.594 55.486C652.524 57.768 654.162 59.196 656.388 59.154C657.242 59.154 658.152 58.93 658.936 58.58L658.74 57.446C657.942 57.796 657.13 57.908 656.29 57.866C655.058 57.866 654.092 57.138 654.092 55.906H659.076C659.524 53.666 658.46 52.098 656.094 52.098ZM656.08 53.274C657.046 53.274 657.886 53.806 657.844 54.828H654.12C654.33 53.764 655.072 53.274 656.08 53.274Z" fill="black"/>
<path d="M327.838 53.834L323.904 49.172H323.134V59H325.234V53.694L327.698 56.774H327.964L330.428 53.694V59H332.528V49.172H331.772L327.838 53.834ZM337.571 52.084C335.779 52.084 334.071 53.19 334.029 55.542C334.029 57.824 335.625 59.21 337.893 59.168C338.789 59.168 339.713 58.944 340.511 58.566L340.287 57.138C339.881 57.32 339.279 57.474 338.677 57.544C338.383 57.586 338.061 57.572 337.781 57.558C336.843 57.488 336.059 57.082 335.989 56.032H340.567C341.085 53.736 340.035 52.084 337.571 52.084ZM337.571 53.582C338.299 53.582 339.013 53.89 338.971 54.772H336.003C336.157 53.988 336.829 53.582 337.571 53.582ZM348.657 54.688C348.349 52.924 346.865 52.042 345.339 52.042C343.561 52.042 341.727 53.232 341.727 55.598C341.727 57.978 343.547 59.154 345.325 59.14C346.879 59.126 348.405 58.216 348.685 56.41H346.823C346.585 57.124 345.997 57.46 345.381 57.46C344.541 57.46 343.673 56.816 343.673 55.598C343.673 54.394 344.541 53.778 345.381 53.764C345.983 53.75 346.557 54.058 346.795 54.688H348.657ZM353.171 52.084C351.379 52.084 349.671 53.19 349.629 55.542C349.629 57.824 351.225 59.21 353.493 59.168C354.389 59.168 355.313 58.944 356.111 58.566L355.887 57.138C355.481 57.32 354.879 57.474 354.277 57.544C353.983 57.586 353.661 57.572 353.381 57.558C352.443 57.488 351.659 57.082 351.589 56.032H356.167C356.685 53.736 355.635 52.084 353.171 52.084ZM353.171 53.582C353.899 53.582 354.613 53.89 354.571 54.772H351.603C351.757 53.988 352.429 53.582 353.171 53.582ZM359.244 53.82V52.252H357.284V53.82C357.284 56.648 359.356 57.642 361.708 56.802V59H363.654V52.252H361.75V55.038C360.7 55.738 359.188 55.486 359.244 53.82ZM370.049 52.252V54.66H367.361V52.252H365.471V59H367.361V56.34H370.049V59H371.939V52.252H370.049ZM378.082 57.964C378.082 59.168 379.202 59.224 380.224 59L380.21 57.908C379.566 57.95 379.58 57.614 379.58 57.04V54.604C379.58 52.658 378.096 52.084 376.36 52.084C375.45 52.084 374.54 52.252 373.826 52.588L374.078 53.988C374.652 53.666 375.31 53.582 376.024 53.582C376.696 53.582 377.704 53.722 377.704 54.548V55.01C377.2 54.688 376.514 54.576 375.912 54.576C374.414 54.576 373.224 55.36 373.294 57.012C373.336 58.314 374.484 59.126 375.744 59.126C376.612 59.126 377.676 58.804 378.082 57.964ZM377.662 56.578C377.592 57.292 376.78 57.614 376.136 57.614C375.688 57.614 375.254 57.376 375.212 56.886C375.142 56.228 375.646 55.878 376.262 55.836C376.752 55.836 377.27 55.962 377.662 56.228V56.578ZM386.885 54.758V52.252H384.939V58.986H386.885V56.298H387.347C387.515 56.298 387.753 56.284 387.921 56.228L389.503 58.986H391.491V58.79L389.587 55.612C390.903 54.898 391.197 53.652 391.169 52.238H389.321C389.321 53.638 388.929 54.758 387.375 54.758H386.885ZM399.451 52.476C399.451 52.406 399.451 52.322 399.451 52.252H397.505L395.909 56.732C395.895 56.732 395.867 56.732 395.867 56.732L394.089 52.252H391.989C391.989 52.322 391.989 52.406 391.989 52.476L394.943 59.014L394.691 59.714C394.299 60.834 393.711 61.24 392.619 60.764L392.423 62.136C394.677 63.172 395.699 61.856 396.595 59.658L399.451 52.476ZM403.925 58.972V53.96H405.913V52.252H400.033V53.96H402.021V58.972H403.925ZM411.706 55.514V59H413.596V52.224H413.008L409.032 55.654V52.252H407.142V59.014H407.646L411.706 55.514ZM414.924 58.79V59H417.01L418.452 56.956H419.39V59C420.048 59 420.692 59 421.364 59V52.252C420.44 52.252 418.578 52.252 417.668 52.252C416.128 52.266 415.232 53.372 415.232 54.59C415.232 55.444 415.778 56.228 416.52 56.578L414.924 58.79ZM418.242 55.444C417.598 55.444 417.206 55.094 417.206 54.618C417.206 54.142 417.584 53.736 418.242 53.736C418.634 53.736 419.012 53.736 419.39 53.736V55.444H418.242Z" fill="black"/>
<path d="M166.354 51.076H169.028V59H171.114V49.2C169.112 49.2 166.55 49.2 164.52 49.2L163.792 56.116C163.666 57.194 163.428 57.572 162.252 57.446L162.21 58.958C164.786 59.322 165.64 58.734 165.878 56.186L166.354 51.076ZM183.272 55.626C183.272 53.288 181.522 52.07 179.716 52.07C178.176 52.07 176.65 52.924 176.244 54.66H175.054V52.252H173.164V59H175.054V56.354H176.174C176.51 58.244 178.092 59.168 179.688 59.168C181.466 59.168 183.272 58.006 183.272 55.626ZM178.05 55.626C178.05 54.408 178.876 53.792 179.702 53.806C180.5 53.806 181.312 54.422 181.312 55.626C181.312 56.844 180.5 57.446 179.702 57.446C178.876 57.46 178.05 56.83 178.05 55.626ZM188.385 52.35C187.629 52.364 186.789 52.798 186.397 53.358C186.719 51.902 187.587 51.818 189.155 51.132C190.373 50.6 190.933 49.816 190.527 48.71H188.763C189.015 49.34 188.203 49.648 187.685 49.816C184.857 50.782 184.143 53.372 184.549 56.102C184.801 57.824 185.865 59.14 188.119 59.14C190.401 59.14 191.591 57.474 191.661 55.752C191.717 53.96 190.541 52.252 188.385 52.35ZM186.383 55.724C186.369 54.744 187.097 54.016 188.049 54.016C189.001 54.016 189.743 54.702 189.757 55.724C189.771 56.802 189.043 57.446 188.091 57.446C187.181 57.446 186.383 56.858 186.383 55.724ZM197.648 55.514V59H199.538V52.224H198.95L194.974 55.654V52.252H193.084V59.014H193.588L197.648 55.514ZM205.093 57.6L206.829 55.906V58.972C207.431 58.972 208.061 58.972 208.691 58.972C208.691 56.788 208.691 54.38 208.691 52.252H208.117L205.023 55.346L201.943 52.252H201.355C201.355 54.38 201.355 56.788 201.355 58.972C201.971 58.972 202.601 58.972 203.231 58.972V55.906L204.925 57.6H205.093ZM213.651 52.084C211.859 52.084 210.151 53.19 210.109 55.542C210.109 57.824 211.705 59.21 213.973 59.168C214.869 59.168 215.793 58.944 216.591 58.566L216.367 57.138C215.961 57.32 215.359 57.474 214.757 57.544C214.463 57.586 214.141 57.572 213.861 57.558C212.923 57.488 212.139 57.082 212.069 56.032H216.647C217.165 53.736 216.115 52.084 213.651 52.084ZM213.651 53.582C214.379 53.582 215.093 53.89 215.051 54.772H212.083C212.237 53.988 212.909 53.582 213.651 53.582ZM223.477 59V60.428H225.087L225.199 57.488H224.317V52.252H222.441V57.278H220.089V52.252H218.213V59H223.477Z" fill="black"/>
<path d="M1.134 49.2V59C1.834 59 2.534 59 3.234 59V51.104H6.972V59C7.672 59 8.372 59 9.072 59V49.2H1.134ZM12.8895 53.288C12.8895 52 11.5735 52.014 10.6635 52.21L10.6775 53.512C11.3915 53.47 11.3075 53.89 11.3075 54.534V62.458H13.2675V58.706C15.6195 59.896 18.0555 58.244 18.0555 55.57C18.0555 53.736 16.9915 52.056 15.0175 52.056C14.1495 52.056 13.2675 52.448 12.8895 53.288ZM13.2115 55.318C13.2255 54.52 13.7295 53.792 14.6115 53.778C15.6055 53.778 16.0815 54.674 16.0815 55.57C16.0815 57.278 14.5975 57.908 13.2115 57.082V55.318ZM26.2381 55.598C26.2381 53.218 24.4321 52.042 22.6261 52.056C20.8481 52.07 19.0841 53.26 19.0841 55.598C19.0841 57.964 20.8901 59.14 22.6821 59.14C24.4601 59.14 26.2381 57.964 26.2381 55.598ZM21.0301 55.598C21.0301 54.38 21.8561 53.778 22.6821 53.778C23.5081 53.778 24.2921 54.394 24.2921 55.598C24.2921 56.83 23.4661 57.446 22.6401 57.432C21.8281 57.432 21.0301 56.816 21.0301 55.598ZM33.5882 62.43V58.692C36.0242 59.84 37.9422 58.384 37.9422 55.626C37.9422 52.854 36.0242 51.384 33.5882 52.518V48.808H31.6562V52.518C29.2202 51.384 27.2882 52.854 27.2882 55.626C27.2882 58.384 29.2202 59.84 31.6562 58.692V62.43H33.5882ZM35.9822 55.626C35.9822 57.278 34.8902 57.894 33.5462 57.082V54.142C34.8902 53.358 35.9822 53.946 35.9822 55.626ZM29.2482 55.626C29.2482 53.946 30.3542 53.358 31.7122 54.142V57.082C30.3542 57.894 29.2482 57.278 29.2482 55.626ZM43.9603 55.514V59H45.8503V52.224H45.2623L41.2863 55.654V52.252H39.3963V59.014H39.9003L43.9603 55.514ZM52.4278 53.974V59H54.3458V52.252C52.4978 52.252 50.6778 52.252 48.8438 52.252L48.3818 56.368C48.2838 57.32 48.1718 57.712 47.0938 57.586L47.0378 59C49.4038 59.322 50.1038 58.79 50.2998 56.438L50.5378 53.974H52.4278Z" fill="black"/>
<circle cx="542" cy="16" r="15.5" stroke="#095052" stroke-opacity="0.3"/>
<path d="M544.748 19.498H545.918V17.32H544.748V9.4H541.958L536.432 18.328V19.498H542.318V22H544.748V19.498ZM542.606 12.406L542.48 15.016V17.41H539.474L542.588 12.406H542.606Z" fill="black"/>
<circle cx="370" cy="17" r="15.5" stroke="#095052" stroke-opacity="0.3"/>
<path d="M365.774 20.31C365.864 22.74 367.682 24.234 370.04 24.234C372.884 24.234 374.468 22.164 374.468 19.932C374.468 18.186 373.55 16.53 371.534 16.188L374.27 11.796V11.418H366.26V13.56H370.706L368.384 17.556V17.934C370.004 17.646 371.876 17.934 371.93 19.95C371.912 21.102 371.174 21.912 370.004 21.912C368.924 21.912 368.204 21.372 368.132 20.31H365.774Z" fill="black"/>
<circle cx="198" cy="19" r="16" fill="#61BC47"/>
<path d="M207.582 13.4181C207.025 12.8605 206.12 12.8608 205.563 13.4181L196.476 22.5051L192.438 18.4665C191.88 17.9089 190.976 17.9089 190.418 18.4665C189.861 19.0242 189.861 19.9282 190.418 20.4858L195.466 25.5339C195.745 25.8125 196.11 25.9522 196.476 25.9522C196.841 25.9522 197.207 25.8129 197.486 25.5339L207.582 15.4374C208.139 14.8801 208.139 13.9757 207.582 13.4181Z" fill="white"/>
<circle cx="28" cy="17" r="16" fill="#61BC47"/>
<path d="M37.5818 11.2223C37.0248 10.6647 36.1205 10.665 35.5628 11.2223L26.4762 20.3093L22.4375 16.2707C21.8799 15.7131 20.9759 15.7131 20.4182 16.2707C19.8606 16.8284 19.8606 17.7324 20.4182 18.29L25.4663 23.3381C25.745 23.6167 26.1104 23.7564 26.4758 23.7564C26.8412 23.7564 27.2069 23.6171 27.4856 23.3381L37.5818 13.2416C38.1394 12.6843 38.1394 11.7799 37.5818 11.2223Z" fill="white"/>
<line x1="43" y1="17.5" x2="183" y2="17.5" stroke="#61BC47" stroke-width="5"/>
<line x1="214" y1="18.5" x2="354" y2="18.5" stroke="#095052" stroke-opacity="0.3" stroke-width="5"/>
<line x1="386" y1="17.5" x2="526" y2="17.5" stroke="#095052" stroke-opacity="0.3" stroke-width="5"/>
</svg>
