<svg width="125" height="131" viewBox="0 0 125 131" fill="none" xmlns="http://www.w3.org/2000/svg">
<path fill-rule="evenodd" clip-rule="evenodd" d="M69.5834 126.54L68.6954 127.011L67.7943 127.459L66.8805 127.883L65.9548 128.282L65.0179 128.656L64.0706 129.003L63.1137 129.322L62.148 129.613L61.1743 129.875L60.1937 130.107L59.207 130.31L58.2151 130.481L57.2191 130.622L56.22 130.731L55.2186 130.807L54.2162 130.852L53.2136 130.865L52.2119 130.845L51.212 130.793L50.215 130.708L49.2219 130.592L48.2336 130.443L47.251 130.263L46.275 130.051L45.3066 129.809L44.3466 129.536L43.3957 129.234L42.4548 128.902L41.5245 128.542L40.6056 128.154L39.6987 127.739L38.8044 127.297L37.9232 126.831L37.0557 126.339L36.2023 125.824L35.3633 125.287L34.5392 124.727L33.7303 124.147L32.9369 123.546L32.1591 122.926L31.3972 122.289L30.6513 121.634L29.9214 120.963L29.2076 120.276L28.5099 119.576L27.828 118.862L27.1619 118.136L26.5114 117.398L25.8761 116.651L25.2558 115.894L24.6501 115.128L24.0586 114.355L23.4808 113.576L22.9163 112.79L22.3645 112L21.8248 111.205L21.2967 110.408L20.7796 109.607L20.2729 108.804L19.7758 108L19.2877 107.195L18.8079 106.389L18.3359 105.583L17.8708 104.778L17.4121 103.973L16.959 103.169L16.511 102.366L16.0674 101.565L15.6275 100.765L15.1909 99.9669L14.757 99.1701L14.3252 98.3746L13.8951 97.5805L13.4664 96.7876L13.0387 95.9956L12.6118 95.2043L12.1855 94.4134L11.7598 93.6224L11.3345 92.8311L10.9097 92.0389L10.4855 91.2456L10.0621 90.4506L9.63984 89.6536L9.21887 88.854L8.79964 88.0514L8.38257 87.2453L7.96817 86.4354L7.55696 85.6212L7.14955 84.8023L6.7466 83.9783L6.34876 83.149L5.95678 82.3139L5.57142 81.4728L5.19345 80.6255L4.82369 79.7718L4.46297 78.9115L4.11212 78.0444L3.77201 77.1706L3.44345 76.2899L3.1273 75.4025L2.8244 74.5083L2.53556 73.6075L2.26157 72.7002L2.00321 71.7866L1.76121 70.867L1.53626 69.9416L1.32902 69.0108L1.14008 68.0749L0.969998 67.1344L0.81925 66.1895L0.688283 65.2407L0.577444 64.2886L0.487034 63.3336L0.417302 62.3761L0.368498 61.4167L0.340788 60.4559L0.334352 59.4942L0.349311 58.5322L0.385757 57.5703L0.443732 56.6091L0.523267 55.6491L0.624367 54.6908L0.74697 53.7349L0.890998 52.7817L1.05636 51.8319L1.2429 50.8859L1.45047 49.9443L1.67885 49.0075L1.92783 48.076L2.19713 47.1502L2.48649 46.2307L2.79561 45.3179L3.12416 44.4121L3.47176 43.5138L3.83808 42.6233L4.22268 41.7411L4.62518 40.8674L5.04515 40.0026L5.48213 39.147L5.93567 38.3008L6.4053 37.4642L6.89054 36.6376L7.39089 35.8211L7.90585 35.0149L8.43491 34.2192L8.97753 33.4339L9.53318 32.6593L10.1013 31.8954L10.6812 31.1422L11.2725 30.3997L11.8746 29.6677L12.4868 28.9464L13.1085 28.2354L13.7393 27.5347L14.3785 26.8442L15.0257 26.1635L15.6802 25.4926L16.3415 24.8311L17.0093 24.1787L17.683 23.5353L18.3621 22.9004L19.0463 22.2738L19.7351 21.6552L20.4283 21.0442L21.1255 20.4405L21.8264 19.8438L22.5309 19.2537L23.2386 18.6699L23.9494 18.0922L24.6633 17.5202L25.38 16.9537L26.0996 16.3925L26.822 15.8362L27.5473 15.2849L28.2755 14.7382L29.0067 14.1961L29.7411 13.6585L30.4788 13.1254L31.2199 12.5968L31.9647 12.0728L32.7135 11.5536L33.4664 11.0393L34.2238 10.5302L34.9859 10.0265L35.7531 9.52872L36.5255 9.0372L37.3036 8.55243L38.0875 8.07492L38.8776 7.60524L39.674 7.14396L40.477 6.69173L41.2868 6.2492L42.1035 5.81707L42.9273 5.39606L43.7583 4.98691L44.5964 4.59038L45.4419 4.20726L46.2945 3.83832L47.1544 3.48437L48.0213 3.14621L48.8952 2.82462L49.7758 2.5204L50.663 2.23433L51.5564 1.96715L52.4558 1.71962L53.3607 1.49244L54.2708 1.28628L55.1857 1.1018L56.1048 0.939598L57.0276 0.800232L57.9537 0.684215L58.8823 0.592007L59.8129 0.524012L60.7449 0.480575L61.6776 0.461981L62.6104 0.46845L63.5424 0.500132L64.4731 0.557078L65.4017 0.639237L66.3275 0.746454L67.2498 0.87847L68.1679 1.03493L69.0812 1.21539L69.9889 1.41931L70.8906 1.64607L71.7856 1.89496L72.6734 2.1652L73.5535 2.45596L74.4254 2.76633L75.2888 3.09535L76.1434 3.442L76.9888 3.80524L77.8249 4.18399L78.6515 4.57714L79.4685 4.98356L80.2758 5.40212L81.0735 5.83169L81.8618 6.27113L82.6406 6.71932L83.4103 7.17517L84.1711 7.63761L84.9232 8.10561L85.667 8.57818L86.403 9.05438L87.1315 9.53333L87.8529 10.0142L88.5679 10.4962L89.2768 10.9788L89.9801 11.4612L90.6785 11.943L91.3724 12.4237L92.0623 12.9029L92.7488 13.3805L93.4322 13.8563L94.1131 14.3301L94.7918 14.802L95.4688 15.2721L96.1442 15.7406L96.8185 16.2078L97.4917 16.674L98.1642 17.1396L98.836 17.6049L99.5073 18.0703L100.178 18.5364L100.848 19.0037L101.518 19.4726L102.187 19.9437L102.856 20.4176L103.523 20.8948L104.19 21.3759L104.855 21.8615L105.518 22.3522L106.179 22.8486L106.838 23.3512L107.493 23.8607L108.145 24.3774L108.793 24.9021L109.437 25.4351L110.075 25.9769L110.707 26.5281L111.333 27.0889L111.952 27.6599L112.562 28.2412L113.164 28.8333L113.757 29.4364L114.34 30.0506L114.912 30.6763L115.472 31.3134L116.02 31.9621L116.555 32.6224L117.076 33.2943L117.582 33.9777L118.074 34.6725L118.55 35.3786L119.009 36.0957L119.451 36.8237L119.876 37.5621L120.282 38.3108L120.67 39.0693L121.039 39.8372L121.388 40.6142L121.718 41.3997L122.027 42.1932L122.315 42.9943L122.583 43.8023L122.83 44.6169L123.056 45.4373L123.26 46.263L123.443 47.0934L123.605 47.9279L123.745 48.766L123.864 49.6069L123.962 50.4502L124.038 51.2951L124.094 52.1411L124.129 52.9877L124.143 53.8342L124.136 54.68L124.109 55.5247L124.063 56.3676L123.997 57.2082L123.911 58.046L123.806 58.8806L123.683 59.7113L123.541 60.5378L123.381 61.3596L123.203 62.1762L123.008 62.9872L122.795 63.7922L122.566 64.5908L122.32 65.3826L122.058 66.1673L121.781 66.9444L121.487 67.7137L121.179 68.4748L120.855 69.2273L120.518 69.9711L120.167 70.7058L119.802 71.4311L119.424 72.1468L119.034 72.8527L118.632 73.5486L118.219 74.2344L117.794 74.9098L117.36 75.5748L116.915 76.2292L116.461 76.873L115.999 77.5062L115.528 78.1286L115.05 78.7403L114.565 79.3414L114.073 79.9319L113.576 80.5119L113.073 81.0815L112.566 81.6409L112.055 82.1901L111.54 82.7295L111.022 83.2592L110.502 83.7795L109.98 84.2906L109.456 84.7929L108.931 85.2867L108.407 85.7723L107.882 86.2501L107.358 86.7205L106.835 87.184L106.314 87.6411L105.794 88.0925L105.278 88.5385L104.765 88.9799L104.256 89.4173L103.75 89.8513L103.249 90.2827L102.753 90.7122L102.262 91.1404L101.777 91.5681L101.297 91.996L100.823 92.425L100.354 92.8556L99.8922 93.2887L99.4359 93.7249L98.9857 94.165L98.5412 94.6096L98.1025 95.0594L97.6692 95.515L97.2411 95.977L96.8179 96.446L96.3991 96.9224L95.9845 97.4068L95.5734 97.8997L95.1654 98.4012L94.76 98.912L94.3565 99.4321L93.9544 99.9619L93.553 100.502L93.1516 101.051L92.7495 101.611L92.3461 102.181L91.9406 102.761L91.5322 103.351L91.1203 103.951L90.7042 104.561L90.283 105.18L89.8561 105.81L89.4227 106.448L88.982 107.095L88.5334 107.751L88.0761 108.414L87.6092 109.085L87.1322 109.763L86.6442 110.447L86.1447 111.136L85.6328 111.829L85.1081 112.526L84.5698 113.225L84.0174 113.926L83.4505 114.628L82.8684 115.33L82.2708 116.029L81.6574 116.726L81.0277 117.419L80.3814 118.108L79.7185 118.789L79.0387 119.464L78.3418 120.13L77.6279 120.785L76.897 121.43L76.1492 122.062L75.3845 122.681L74.6032 123.285L73.8054 123.874L72.9916 124.445L72.1621 124.998L71.3172 125.533L70.4575 126.047L69.5834 126.54Z" fill="#095052" fill-opacity="0.1"/>
</svg>
