<svg width="130" height="124" viewBox="0 0 130 124" fill="none" xmlns="http://www.w3.org/2000/svg">
<path fill-rule="evenodd" clip-rule="evenodd" d="M126.314 57.4814L126.749 58.3877L127.16 59.3063L127.547 60.2365L127.908 61.1776L128.243 62.1289L128.551 63.0895L128.831 64.0586L129.083 65.0353L129.306 66.0187L129.498 67.008L129.66 68.0021L129.791 69.0001L129.891 70.001L129.96 71.0037L129.996 72.0073L130 73.0108L129.972 74.0131L129.911 75.0132L129.819 76.0101L129.694 77.0028L129.537 77.9904L129.349 78.9719L129.129 79.9464L128.878 80.9129L128.596 81.8707L128.285 82.8189L127.944 83.7568L127.575 84.6835L127.177 85.5984L126.752 86.5008L126.3 87.3901L125.823 88.2658L125.321 89.1273L124.795 89.9742L124.246 90.8061L123.675 91.6226L123.082 92.4233L122.469 93.208L121.837 93.9765L121.187 94.7285L120.519 95.4639L119.834 96.1827L119.134 96.8847L118.419 97.5701L117.691 98.2389L116.95 98.8913L116.197 99.5274L115.434 100.148L114.661 100.752L113.88 101.341L113.09 101.915L112.294 102.475L111.492 103.021L110.684 103.553L109.872 104.072L109.057 104.579L108.238 105.075L107.417 105.559L106.594 106.033L105.77 106.497L104.946 106.952L104.122 107.398L103.297 107.837L102.474 108.269L101.651 108.695L100.83 109.115L100.009 109.53L99.1908 109.941L98.3737 110.348L97.5583 110.752L96.7445 111.153L95.9322 111.553L95.1214 111.95L94.3117 112.346L93.503 112.742L92.6951 113.136L91.8875 113.53L91.0799 113.923L90.272 114.316L89.4633 114.709L88.6534 115.1L87.842 115.491L87.0284 115.881L86.2124 116.269L85.3935 116.655L84.5712 117.039L83.7451 117.421L82.9149 117.798L82.0802 118.172L81.2406 118.542L80.3958 118.905L79.5455 119.263L78.6895 119.614L77.8276 119.958L76.9596 120.292L76.0853 120.618L75.2048 120.933L74.3179 121.238L73.4246 121.53L72.5251 121.81L71.6194 122.077L70.7076 122.329L69.7899 122.566L68.8666 122.787L67.938 122.991L67.0043 123.179L66.0658 123.348L65.123 123.499L64.1763 123.631L63.2261 123.743L62.2729 123.835L61.317 123.908L60.3591 123.959L59.3996 123.99L58.439 124L57.4779 123.989L56.5167 123.956L55.5561 123.902L54.5964 123.827L53.6384 123.73L52.6824 123.612L51.729 123.472L50.7788 123.31L49.8323 123.128L48.89 122.924L47.9523 122.699L47.0199 122.454L46.0931 122.188L45.1724 121.901L44.2584 121.595L43.3513 121.268L42.4518 120.922L41.5601 120.557L40.6766 120.174L39.8017 119.772L38.9358 119.352L38.0791 118.914L37.232 118.459L36.3948 117.988L35.5677 117.501L34.7509 116.997L33.9446 116.479L33.1491 115.946L32.3644 115.399L31.5907 114.838L30.8281 114.264L30.0767 113.677L29.3364 113.079L28.6073 112.469L27.8894 111.848L27.1825 111.217L26.4865 110.576L25.8013 109.926L25.1268 109.267L24.4627 108.6L23.8089 107.926L23.165 107.245L22.5308 106.557L21.9061 105.864L21.2905 105.164L20.6836 104.46L20.0853 103.751L19.4951 103.038L18.9127 102.32L18.3377 101.599L17.7699 100.875L17.2088 100.147L16.6543 99.4162L16.1058 98.6825L15.5632 97.9461L15.0263 97.207L14.4946 96.4652L13.9682 95.7208L13.4466 94.9738L12.9299 94.224L12.4179 93.4714L11.9105 92.7159L11.4077 91.9572L10.9096 91.1953L10.4163 90.4298L9.92783 89.6606L9.44446 88.8875L8.96644 88.11L8.49409 87.3281L8.02779 86.5415L7.56798 85.7497L7.11514 84.9527L6.6698 84.15L6.23252 83.3416L5.80391 82.5271L5.38459 81.7064L4.97525 80.8794L4.57658 80.0458L4.1893 79.2056L3.81416 78.3588L3.45193 77.5052L3.10339 76.645L2.76931 75.778L2.4505 74.9045L2.14775 74.0246L1.86185 73.1384L1.59357 72.2462L1.34369 71.3482L1.11295 70.4446L0.902067 69.536L0.711746 68.6226L0.542648 67.7049L0.395398 66.7833L0.27058 65.8584L0.168732 64.9306L0.0903426 64.0007L0.0358481 63.069L0.00562732 62.1364L0 61.2034L0.0192235 60.2707L0.0634906 59.339L0.132922 58.409L0.227542 57.4814L0.34727 56.5569L0.49192 55.6362L0.661209 54.72L0.854754 53.809L1.07208 52.9038L1.31262 52.0051L1.57574 51.1133L1.8607 50.2291L2.1667 49.353L2.4929 48.4855L2.83835 47.6268L3.20209 46.7775L3.58309 45.9376L3.9803 45.1076L4.39262 44.2876L4.81895 43.4776L5.25815 42.6778L5.70909 41.8881L6.17064 41.1084L6.64166 40.3386L7.12105 39.5786L7.60772 38.828L8.10062 38.0866L8.59872 37.3541L9.10105 36.63L9.60668 35.914L10.1148 35.2055L10.6245 34.5041L11.1351 33.8093L11.646 33.1205L12.1565 32.4373L12.6662 31.759L13.1746 31.0852L13.6814 30.4152L14.1865 29.7487L14.6895 29.0851L15.1905 28.424L15.6896 27.7649L16.1867 27.1076L16.6823 26.4517L17.1764 25.7969L17.6695 25.1431L18.1619 24.4901L18.6541 23.8377L19.1463 23.1858L19.6393 22.5345L20.1333 21.8836L20.629 21.2334L21.1268 20.5838L21.6274 19.9351L22.1312 19.2874L22.639 18.6411L23.1512 17.9963L23.6683 17.3535L24.1911 16.7131L24.72 16.0755L25.2556 15.4411L25.7983 14.8106L26.3488 14.1844L26.9075 13.5631L27.4747 12.9474L28.0511 12.338L28.6368 11.7355L29.2324 11.1405L29.838 10.5539L30.454 9.97628L31.0806 9.40848L31.718 8.8512L32.3663 8.3052L33.0256 7.77122L33.6959 7.25001L34.3774 6.7423L35.0698 6.24881L35.7732 5.77023L36.4874 5.30725L37.2122 4.86052L37.9473 4.43066L38.6926 4.01826L39.4477 3.62388L40.2122 3.24804L40.9858 2.89123L41.7681 2.55389L42.5585 2.23642L43.3567 1.93918L44.1621 1.66249L44.9742 1.40661L45.7925 1.17177L46.6163 0.958165L47.4452 0.765922L48.2785 0.595141L49.1157 0.445878L49.9561 0.318147L50.7991 0.211922L51.6442 0.127141L52.4907 0.0637053L53.3381 0.0214837L54.1857 0.000312625L55.0329 0L55.8793 0.0203271L56.7242 0.0610515L57.567 0.121909L58.4074 0.202618L59.2446 0.302878L60.0783 0.42238L60.9079 0.5608L61.733 0.717808L62.553 0.893069L63.3676 1.08624L64.1763 1.29699L64.9788 1.52498L65.7745 1.76987L66.5632 2.03133L67.3444 2.30904L68.1178 2.60264L68.883 2.91179L69.6398 3.2361L70.3877 3.57517L71.1265 3.92858L71.856 4.29591L72.5758 4.67671L73.2858 5.07051L73.9856 5.47684L74.6751 5.89521L75.3542 6.3251L76.0226 6.766L76.6803 7.21737L77.3271 7.67869L77.963 8.14939L78.5879 8.62891L79.2017 9.1167L79.8046 9.61218L80.3964 10.1148L80.9774 10.6239L81.5475 11.139L82.1068 11.6595L82.6556 12.1848L83.1939 12.7143L83.722 13.2475L84.2401 13.7838L84.7483 14.3227L85.2471 14.8637L85.7367 15.4061L86.2173 15.9496L86.6894 16.4937L87.1533 17.0378L87.6095 17.5815L88.0583 18.1242L88.5002 18.6655L88.9358 19.2049L89.3657 19.7418L89.7905 20.2758L90.2107 20.8064L90.6271 21.3332L91.0403 21.8558L91.4511 22.3738L91.86 22.8869L92.268 23.3948L92.6757 23.8973L93.0838 24.3941L93.4932 24.8852L93.9045 25.3705L94.3185 25.8499L94.7359 26.3234L95.1573 26.7911L95.5836 27.2532L96.0152 27.7098L96.4529 28.1612L96.8971 28.6077L97.3486 29.0496L97.8077 29.4873L98.2749 29.9213L98.7506 30.352L99.2353 30.7799L99.7291 31.2057L100.232 31.6299L100.746 32.0532L101.268 32.4762L101.801 32.8995L102.344 33.3239L102.897 33.7501L103.46 34.1788L104.033 34.6108L104.616 35.0466L105.209 35.4872L105.811 35.9331L106.422 36.3852L107.043 36.8441L107.671 37.3106L108.308 37.7854L108.953 38.2693L109.604 38.763L110.262 39.2671L110.925 39.7823L111.593 40.3094L112.266 40.8489L112.941 41.4015L113.618 41.9677L114.296 42.548L114.974 43.1429L115.651 43.7529L116.326 44.3784L116.998 45.0196L117.665 45.6769L118.326 46.3505L118.981 47.0405L119.627 47.7471L120.264 48.4704L120.89 49.2102L121.505 49.9667L122.106 50.7396L122.694 51.5287L123.266 52.3339L123.821 53.1548L124.359 53.9911L124.878 54.8424L125.378 55.7082L125.857 56.5881L126.314 57.4814Z" fill="#095052" fill-opacity="0.1"/>
</svg>
