<svg width="16" height="15" viewBox="0 0 16 15" fill="none" xmlns="http://www.w3.org/2000/svg">
<path d="M10.4938 14.8241C10.4616 14.824 10.4295 14.822 10.3975 14.818C10.2867 14.8036 10.1801 14.7644 10.0847 14.7031C9.98927 14.6419 9.90723 14.5598 9.84399 14.4625C9.62696 14.1268 9.33593 13.8522 8.9961 13.6625C8.65627 13.4728 8.27788 13.3736 7.89371 13.3736C7.50953 13.3736 7.13115 13.4728 6.79132 13.6625C6.45149 13.8522 6.16045 14.1268 5.94342 14.4625C5.88011 14.5599 5.798 14.6419 5.70252 14.7032C5.60704 14.7645 5.50036 14.8036 5.38954 14.818C5.27871 14.8324 5.16626 14.8217 5.05963 14.7867C4.95299 14.7516 4.85459 14.693 4.77094 14.6147C4.04679 13.9423 3.53346 13.052 3.29942 12.0628C3.06538 11.0735 3.12176 10.0321 3.46102 9.07763C3.80029 8.12313 4.40632 7.30085 5.1983 6.72045C5.99027 6.14004 6.93054 5.8291 7.89371 5.8291C8.85687 5.8291 9.79714 6.14004 10.5891 6.72045C11.3811 7.30085 11.9871 8.12313 12.3264 9.07763C12.6657 10.0321 12.722 11.0735 12.488 12.0628C12.254 13.052 11.7406 13.9423 11.0165 14.6147C10.8721 14.7495 10.6863 14.824 10.4938 14.8241ZM7.89367 11.7019C8.85141 11.7024 9.77623 12.072 10.4953 12.7418C10.8588 12.1922 11.0529 11.5371 11.0511 10.8661C11.0511 9.97941 10.7185 9.12902 10.1263 8.50202C9.53419 7.87503 8.73108 7.52278 7.89367 7.52278C7.05626 7.52278 6.25315 7.87503 5.66101 8.50202C5.06887 9.12902 4.73621 9.97941 4.73621 10.8661C4.7344 11.5371 4.92852 12.1922 5.292 12.7418C6.0111 12.072 6.93593 11.7024 7.89367 11.7019Z" fill="#61BC47"/>
<path d="M2.3681 7.52234C1.89974 7.52234 1.44189 7.37528 1.05246 7.09975C0.663025 6.82422 0.359498 6.4326 0.180262 5.97441C0.00102607 5.51623 -0.0458703 5.01205 0.0455035 4.52564C0.136877 4.03923 0.362417 3.59244 0.693602 3.24176C1.02479 2.89108 1.44674 2.65226 1.90611 2.55551C2.36548 2.45875 2.84162 2.50841 3.27434 2.6982C3.70705 2.88799 4.0769 3.20938 4.33711 3.62174C4.59732 4.03409 4.73621 4.51889 4.73621 5.01483C4.73552 5.67964 4.48581 6.31701 4.04185 6.78711C3.59789 7.2572 2.99595 7.52161 2.3681 7.52234ZM2.3681 4.179C2.21198 4.179 2.05937 4.22802 1.92956 4.31986C1.79975 4.4117 1.69857 4.54224 1.63882 4.69497C1.57908 4.8477 1.56345 5.01576 1.5939 5.1779C1.62436 5.34003 1.69954 5.48896 1.80994 5.60586C1.92033 5.72275 2.06098 5.80236 2.21411 5.83461C2.36723 5.86686 2.52594 5.85031 2.67018 5.78704C2.81442 5.72378 2.9377 5.61665 3.02444 5.4792C3.11118 5.34175 3.15747 5.18014 3.15747 5.01483C3.15726 4.79322 3.07403 4.58075 2.92604 4.42405C2.77805 4.26735 2.57739 4.17922 2.3681 4.179Z" fill="#61BC47"/>
<path d="M7.89374 5.01501C7.42537 5.01501 6.96752 4.86795 6.57809 4.59242C6.18866 4.3169 5.88513 3.92528 5.7059 3.46709C5.52666 3.0089 5.47976 2.50473 5.57114 2.01832C5.66251 1.53191 5.88805 1.08511 6.21924 0.734433C6.55042 0.383752 6.97238 0.144935 7.43175 0.0481822C7.89111 -0.0485705 8.36726 0.00108647 8.79997 0.190874C9.23268 0.380661 9.60253 0.702054 9.86274 1.11441C10.123 1.52677 10.2618 2.01157 10.2618 2.50751C10.2612 3.17232 10.0114 3.80969 9.56748 4.27978C9.12353 4.74987 8.52159 5.01429 7.89374 5.01501ZM7.89374 1.67167C7.73762 1.67167 7.585 1.72069 7.45519 1.81254C7.32538 1.90438 7.2242 2.03492 7.16446 2.18765C7.10471 2.34038 7.08908 2.50844 7.11954 2.67057C7.15 2.83271 7.22518 2.98164 7.33557 3.09853C7.44597 3.21543 7.58662 3.29503 7.73974 3.32728C7.89286 3.35953 8.05158 3.34298 8.19582 3.27972C8.34005 3.21646 8.46334 3.10933 8.55007 2.97187C8.63681 2.83442 8.68311 2.67282 8.68311 2.50751C8.6829 2.2859 8.59966 2.07343 8.45167 1.91673C8.30368 1.76003 8.10303 1.67189 7.89374 1.67167Z" fill="#61BC47"/>
<path d="M13.4191 7.52234C12.9508 7.52234 12.4929 7.37528 12.1035 7.09975C11.714 6.82422 11.4105 6.4326 11.2313 5.97441C11.0521 5.51623 11.0052 5.01205 11.0965 4.52564C11.1879 4.03923 11.4134 3.59244 11.7446 3.24176C12.0758 2.89108 12.4978 2.65226 12.9571 2.55551C13.4165 2.45875 13.8926 2.50841 14.3254 2.6982C14.7581 2.88799 15.1279 3.20938 15.3881 3.62174C15.6483 4.03409 15.7872 4.51889 15.7872 5.01483C15.7865 5.67964 15.5368 6.31701 15.0929 6.78711C14.6489 7.2572 14.047 7.52161 13.4191 7.52234ZM13.4191 4.179C13.263 4.179 13.1104 4.22802 12.9806 4.31986C12.8508 4.4117 12.7496 4.54224 12.6898 4.69497C12.6301 4.8477 12.6145 5.01576 12.6449 5.1779C12.6754 5.34003 12.7506 5.48896 12.861 5.60586C12.9714 5.72275 13.112 5.80236 13.2651 5.83461C13.4183 5.86686 13.577 5.85031 13.7212 5.78704C13.8654 5.72378 13.9887 5.61665 14.0755 5.4792C14.1622 5.34175 14.2085 5.18014 14.2085 5.01483C14.2083 4.79322 14.1251 4.58075 13.9771 4.42405C13.8291 4.26735 13.6284 4.17922 13.4191 4.179Z" fill="#61BC47"/>
</svg>
