<svg width="60" height="60" viewBox="0 0 60 60" fill="none" xmlns="http://www.w3.org/2000/svg">
<g clip-path="url(#clip0_293_324)">
<path fill-rule="evenodd" clip-rule="evenodd" d="M60.0153 35.6678L60.2494 36.1356L60.4708 36.6097L60.679 37.0898L60.8736 37.5756L61.054 38.0665L61.2199 38.5623L61.3708 39.0625L61.5063 39.5666L61.6261 40.0742L61.7297 40.5848L61.817 41.0979L61.8877 41.613L61.9415 42.1295L61.9782 42.6471L61.9978 43.1651L62 43.683L61.9849 44.2003L61.9523 44.7165L61.9024 45.231L61.8352 45.7434L61.7508 46.2531L61.6492 46.7597L61.5308 47.2626L61.3957 47.7615L61.2442 48.2559L61.0765 48.7453L60.893 49.2293L60.694 49.7076L60.4799 50.1798L60.251 50.6456L60.0079 51.1046L59.751 51.5565L59.4806 52.0012L59.1974 52.4383L58.9017 52.8677L58.5941 53.2891L58.2751 53.7023L57.9451 54.1074L57.6047 54.504L57.2544 54.8921L56.8946 55.2717L56.526 55.6427L56.149 56.005L55.7641 56.3588L55.3719 56.704L54.973 57.0407L54.5678 57.369L54.1569 57.689L53.7407 58.001L53.3199 58.3051L52.8948 58.6014L52.4661 58.8903L52.034 59.172L51.5992 59.4467L51.162 59.7147L50.7227 59.9764L50.2819 60.232L49.8399 60.4819L49.3969 60.7265L48.9533 60.966L48.5094 61.2009L48.0655 61.4314L47.6216 61.658L47.1782 61.881L46.7352 62.1008L46.2928 62.3176L45.8512 62.5318L45.4104 62.7439L44.9705 62.954L44.5314 63.1624L44.0932 63.3695L43.6558 63.5756L43.2192 63.7807L42.7832 63.9852L42.3478 64.1892L41.9127 64.3928L41.4779 64.5961L41.043 64.7992L40.608 65.0019L40.1726 65.2044L39.7365 65.4066L39.2995 65.6083L38.8615 65.8094L38.4221 66.0098L37.9811 66.2092L37.5383 66.4074L37.0935 66.6042L36.6465 66.7992L36.197 66.9922L35.7449 67.1827L35.29 67.3706L34.8322 67.5552L34.3713 67.7364L33.9072 67.9136L33.4398 68.0864L32.969 68.2544L32.4949 68.4172L32.0173 68.5743L31.5363 68.7254L31.052 68.8698L30.5643 69.0073L30.0733 69.1374L29.5792 69.2598L29.082 69.3739L28.582 69.4795L28.0792 69.5761L27.5739 69.6635L27.0663 69.7414L26.5565 69.8094L26.0448 69.8674L25.5315 69.9151L25.0169 69.9523L24.5011 69.979L23.9844 69.9949L23.4672 70L22.9496 69.9942L22.4321 69.9774L21.9148 69.9495L21.3981 69.9106L20.8822 69.8606L20.3674 69.7995L19.8541 69.7273L19.3425 69.6441L18.8328 69.5499L18.3254 69.4448L17.8205 69.3288L17.3184 69.202L16.8194 69.0647L16.3236 68.9168L15.8314 68.7585L15.343 68.5901L14.8586 68.4116L14.3785 68.2232L13.9028 68.0251L13.4317 67.8176L12.9654 67.6008L12.5041 67.3749L12.048 67.1403L11.5972 66.897L11.1518 66.6454L10.712 66.3857L10.2779 66.1182L9.8495 65.8431L9.42699 65.5607L9.01039 65.2712L8.59977 64.9749L8.19515 64.6722L7.79655 64.3632L7.40396 64.0484L7.01736 63.7279L6.63671 63.4021L6.26196 63.0713L5.89302 62.7358L5.52981 62.3958L5.17223 62.0517L4.82016 61.7038L4.47345 61.3522L4.13198 60.9973L3.79558 60.6393L3.46409 60.2784L3.13735 59.9149L2.81516 59.549L2.49736 59.1808L2.18375 58.8105L1.87416 58.4383L1.56841 58.0644L1.2663 57.6888L0.967678 57.3116L0.672366 56.9329L0.380212 56.5528L0.0910702 56.1713L-0.19519 55.7885L-0.478686 55.4043L-0.759514 55.0187L-1.03775 54.6318L-1.31346 54.2433L-1.58666 53.8534L-1.85738 53.4618L-2.12558 53.0685L-2.39123 52.6734L-2.65425 52.2764L-2.91452 51.8774L-3.17192 51.4762L-3.42626 51.0726L-3.67734 50.6666L-3.92493 50.2579L-4.16877 49.8465L-4.40857 49.4323L-4.64402 49.015L-4.87482 48.5946L-5.1006 48.1711L-5.32102 47.7442L-5.53569 47.314L-5.74422 46.8803L-5.94622 46.4432L-6.14127 46.0027L-6.32895 45.5587L-6.50883 45.1112L-6.6805 44.6604L-6.84352 44.2062L-6.99747 43.7489L-7.14192 43.2884L-7.27647 42.8249L-7.40072 42.3585L-7.51427 41.8895L-7.61675 41.4181L-7.7078 40.9445L-7.78709 40.4688L-7.8543 39.9914L-7.90914 39.5126L-7.95135 39.0326L-7.9807 38.5518L-7.99697 38.0704L-8 37.5889L-7.98965 37.1075L-7.96581 36.6266L-7.92843 36.1466L-7.87748 35.6678L-7.81301 35.1907L-7.73512 34.7155L-7.64396 34.2426L-7.53975 33.7724L-7.42273 33.3052L-7.2932 32.8413L-7.15153 32.3811L-6.99809 31.9247L-6.83331 31.4725L-6.65767 31.0248L-6.47166 30.5816L-6.2758 30.1432L-6.07064 29.7098L-5.85676 29.2814L-5.63474 28.8581L-5.40518 28.4401L-5.16869 28.0272L-4.92587 27.6196L-4.67735 27.2172L-4.42372 26.8199L-4.16559 26.4277L-3.90353 26.0403L-3.63813 25.6576L-3.36992 25.2795L-3.09944 24.9058L-2.82717 24.5362L-2.55359 24.1706L-2.27913 23.8086L-2.00418 23.45L-1.7291 23.0945L-1.4542 22.7418L-1.17975 22.3917L-0.905982 22.044L-0.633066 21.6982L-0.361133 21.3542L-0.0902615 21.0117L0.179518 20.6704L0.448226 20.3303L0.715933 19.991L0.982752 19.6525L1.24883 19.3146L1.51435 18.9771L1.7795 18.64L2.04449 18.3033L2.30957 17.9669L2.57499 17.6307L2.841 17.2948L3.1079 16.9592L3.37597 16.6239L3.64551 16.2891L3.91683 15.9548L4.19022 15.6212L4.46601 15.2884L4.7445 14.9567L5.02598 14.6261L5.31077 14.297L5.59916 13.9696L5.89142 13.6442L6.18782 13.321L6.48863 13.0003L6.79409 12.6826L7.10442 12.368L7.41983 12.057L7.7405 11.7499L8.06661 11.4472L8.39831 11.1491L8.7357 10.856L9.07891 10.5684L9.42799 10.2866L9.783 10.011L10.144 9.74194L10.5109 9.4799L10.8838 9.22519L11.2625 8.97818L11.6471 8.73923L12.0373 8.50865L12.4332 8.28679L12.8345 8.07394L13.2411 7.87039L13.6527 7.67641L14.0693 7.49225L14.4905 7.31814L14.9161 7.15428L15.3459 7.00087L15.7796 6.85806L16.2169 6.72599L16.6575 6.60479L17.1011 6.49454L17.5474 6.39531L17.9961 6.30717L18.4469 6.23013L18.8994 6.1642L19.3534 6.10938L19.8084 6.06562L20.2642 6.03288L20.7205 6.01109L21.1769 6.00016L21.6331 6L22.0888 6.01049L22.5438 6.03151L22.9976 6.06292L23.4501 6.10458L23.901 6.15632L24.3499 6.218L24.7966 6.28945L25.2408 6.37048L25.6824 6.46094L26.121 6.56064L26.5565 6.66942L26.9886 6.78709L27.417 6.91348L27.8417 7.04843L28.2624 7.19176L28.6788 7.3433L29.0909 7.50286L29.4983 7.67024L29.9011 7.84525L30.2989 8.02765L30.6917 8.21724L31.0793 8.41379L31.4616 8.61704L31.8384 8.82676L32.2097 9.04269L32.5753 9.26457L32.9353 9.49213L33.2894 9.7251L33.6377 9.96319L33.9801 10.2061L34.3165 10.4536L34.6471 10.7054L34.9717 10.9611L35.2904 11.2205L35.6032 11.4833L35.9102 11.7492L36.2114 12.0178L36.5069 12.2889L36.7967 12.5622L37.0811 12.8374L37.36 13.1142L37.6337 13.3924L37.9023 13.6716L38.1659 13.9516L38.4247 14.2321L38.6789 14.5129L38.9287 14.7937L39.1743 15.0743L39.416 15.3545L39.654 15.6338L39.8885 15.9122L40.12 16.1893L40.3487 16.4649L40.575 16.7388L40.7992 17.0107L41.0217 17.2804L41.2429 17.5478L41.4631 17.8126L41.6828 18.0747L41.9023 18.3341L42.1221 18.5905L42.3425 18.844L42.564 19.0945L42.7869 19.3419L43.0116 19.5863L43.2386 19.8277L43.4681 20.0662L43.7005 20.3019L43.9362 20.5348L44.1754 20.7653L44.4185 20.9933L44.6657 21.2193L44.9172 21.4432L45.1734 21.6655L45.4344 21.8864L45.7003 22.1062L45.9713 22.3251L46.2476 22.5436L46.5292 22.7619L46.8161 22.9804L47.1085 23.1995L47.4063 23.4194L47.7095 23.6407L48.018 23.8636L48.3319 24.0886L48.651 24.316L48.9752 24.5461L49.3043 24.7795L49.6383 25.0163L49.9769 25.2571L50.3199 25.5022L50.6669 25.7519L51.0177 26.0067L51.3719 26.2669L51.729 26.5328L52.0888 26.8049L52.4507 27.0833L52.8142 27.3685L53.1788 27.6607L53.5439 27.9603L53.9091 28.2673L54.2737 28.5822L54.6372 28.905L54.9988 29.2359L55.358 29.5752L55.7141 29.9228L56.0665 30.279L56.4145 30.6437L56.7575 31.017L57.0947 31.3988L57.4256 31.7893L57.7495 32.1882L58.0658 32.5955L58.3738 33.011L58.6729 33.4347L58.9625 33.8664L59.2421 34.3057L59.5112 34.7526L59.7691 35.2067L60.0153 35.6678Z" fill="#095052" fill-opacity="0.1"/>
<path d="M58.7567 33.113L53.3199 22.4122C52.8304 21.4488 51.8946 20.8506 50.8778 20.8506C49.0445 20.8506 10.9522 20.8506 9.12215 20.8506C8.1052 20.8506 7.16958 21.4488 6.68008 22.4122L1.24329 33.113C0.955827 33.6788 0.98278 34.3655 1.31372 34.9047C1.62051 35.4047 2.14153 35.703 2.70731 35.703H7.13407V57.2288C7.13407 58.7565 8.28497 59.9996 9.69977 59.9996C10.2802 59.9996 49.7202 59.9996 50.3007 59.9996C51.7153 59.9996 52.8664 58.7566 52.8664 57.2288V47.988C52.8664 47.5025 52.473 47.109 51.9873 47.109C51.5017 47.109 51.1083 47.5024 51.1083 47.988V57.2289C51.1083 57.7779 50.7385 58.2418 50.3005 58.2418H30.8791V25.4L35.4634 34.4228C35.8646 35.2126 36.635 35.7033 37.4737 35.7033H51.1081V43.8864C51.1081 44.3719 51.5015 44.7654 51.9871 44.7654C52.4727 44.7654 52.8661 44.372 52.8661 43.8864V35.7033H57.2929C57.8587 35.7033 58.3796 35.4048 58.6865 34.9049C59.0172 34.3654 59.0443 33.6789 58.7567 33.113ZM2.80212 33.9454C2.80212 33.9342 2.80434 33.9218 2.81055 33.9094L8.24735 23.2086C8.43532 22.8386 8.77059 22.6086 9.12227 22.6086H28.5675C27.8957 23.9311 23.8763 31.8417 22.9695 33.6266V33.6267C22.8695 33.8232 22.6998 33.9454 22.5265 33.9454C22.0306 33.9454 3.33743 33.9454 2.80212 33.9454ZM29.121 58.2417H9.69965C9.26184 58.2418 8.892 57.778 8.892 57.2289V35.7032H22.5264C23.3682 35.7032 24.1369 35.2098 24.5366 34.4228L29.121 25.3999V58.2417ZM37.4737 33.9452C37.3004 33.9452 37.1305 33.8231 37.0307 33.6265L31.4327 22.6085H50.8779C51.2295 22.6085 51.5646 22.8384 51.7528 23.2085L57.1896 33.9093C57.196 33.9217 57.1981 33.9341 57.1981 33.9452C56.6618 33.9452 37.9697 33.9452 37.4737 33.9452Z" fill="#095052"/>
<path d="M29.9999 2.73293C28.0407 -0.410392 23.6445 -0.941252 20.9972 1.70976C19.9036 2.80488 19.3022 4.25859 19.3037 5.80324C19.3082 10.2667 22.2967 14.5875 27.5028 17.6577C27.643 17.7404 27.7968 17.7797 27.9485 17.7797C28.2493 17.7797 28.5424 17.6251 28.7064 17.3471C28.9529 16.9291 28.8139 16.3901 28.3958 16.1435C26.1926 14.844 21.0672 11.2351 21.0614 5.80148C21.0591 3.38062 23.1916 1.4775 25.627 1.80539C27.8037 2.09871 28.5574 3.80894 28.7249 3.98355C29.5011 4.79344 30.5605 4.79625 31.2909 3.95929C31.4861 3.73371 32.4284 1.75992 34.9083 1.75734C37.1283 1.75734 38.9366 3.56332 38.9391 5.7832C38.9443 10.9566 34.3423 14.493 31.5987 16.1407C31.1825 16.3907 31.0478 16.9305 31.2977 17.3468C31.5478 17.763 32.0876 17.8975 32.5038 17.6477C37.7918 14.4721 40.7017 10.2578 40.6971 5.78133C40.6908 0.123045 33.2545 -2.28551 29.9999 2.73293Z" fill="#61BC47"/>
</g>
<defs>
<clipPath id="clip0_293_324">
<rect width="60" height="60" fill="white"/>
</clipPath>
</defs>
</svg>
