<svg width="24" height="19" viewBox="0 0 24 19" fill="none" xmlns="http://www.w3.org/2000/svg">
<path d="M17.625 0C15.0683 0 13.1711 1.36736 12 3.30706C10.829 1.36748 8.93184 0 6.375 0C2.6902 0 0 2.69475 0 5.98079C0 10.3264 4.76119 13.0546 11.537 18.2176C11.8021 18.4196 12.1979 18.4196 12.463 18.2176C19.2326 13.0593 24 10.3269 24 5.98079C24 2.69422 21.3094 0 17.625 0ZM12 16.9446C5.75991 12.2243 1.40625 9.60212 1.40625 5.98079C1.40625 3.26934 3.54234 1.22461 6.375 1.22461C9.10556 1.22461 10.7977 3.42674 11.3223 5.06156C11.5115 5.65794 12.4862 5.66059 12.6777 5.06156C13.1954 3.44842 14.8679 1.22461 17.625 1.22461C20.4577 1.22461 22.5938 3.26934 22.5938 5.98079C22.5938 9.6042 18.233 12.2297 12 16.9446Z" fill="#61BC47"/>
</svg>
